<svg xmlns="http://www.w3.org/2000/svg" width="111" height="35" viewBox="0 0 111 35"><path fill="#FFF" d="M94.605 24.359c1.518 0 2.757.514 3.718 1.543.96 1.028 1.44 2.396 1.44 4.103v.692H92.58l.045.186c.124.424.38.789.77 1.095.446.35 1.016.524 1.713.524.39 0 .838-.08 1.347-.241.508-.16.894-.367 1.159-.62l1.357 2.016-.189.158c-.456.357-1.016.637-1.68.839a8.058 8.058 0 0 1-2.35.346c-1.587 0-2.902-.486-3.947-1.459-1.044-.972-1.566-2.263-1.566-3.872 0-1.497.505-2.756 1.514-3.778 1.01-1.021 2.294-1.532 3.853-1.532zm-19.673 0c1.002 0 1.855.182 2.558.546.703.363 1.229.804 1.577 1.322l-2.089 1.952-.103-.143c-.427-.548-1.026-.823-1.797-.823-.682 0-1.246.22-1.692.662-.445.44-.668 1.038-.668 1.794s.223 1.357.668 1.805c.446.448 1.01.672 1.692.672.807 0 1.441-.33 1.9-.987l2.089 1.973-.139.19c-.343.437-.823.814-1.438 1.132-.703.364-1.556.546-2.558.546-1.588 0-2.903-.493-3.948-1.48-1.044-.986-1.566-2.27-1.566-3.851 0-1.567.522-2.844 1.566-3.83 1.045-.987 2.36-1.48 3.948-1.48zm-12.05 0c1.67 0 3.007.514 4.009 1.543 1.003 1.028 1.504 2.284 1.504 3.767s-.501 2.742-1.504 3.778C65.889 34.482 64.551 35 62.881 35c-1.657 0-2.986-.518-3.989-1.553-1.002-1.036-1.504-2.295-1.504-3.778s.502-2.739 1.504-3.767c1.003-1.029 2.332-1.543 3.99-1.543zm40.913.252l1.733 2.75 1.713-2.75h3.53l-3.217 4.932L111 34.748h-3.53l-1.942-3.064-1.963 3.064h-3.509l3.446-5.205-3.237-4.932h3.53zm-52.108-3.862l.296.006c1.364.055 2.449.498 3.254 1.327.864.888 1.295 1.997 1.295 3.326 0 1.316-.431 2.418-1.295 3.306-.863.889-2.046 1.333-3.55 1.333h-3.384v4.701h-3.592V20.75h6.976zm36.716 3.862v2.812h-2.736v7.325H82.45v-7.325h-2.756v-2.812h8.709zM29.937 18.58l4.489 4.448v11.688h-11.62l-4.341-4.488h11.472V18.58zm-25.448 0v11.648H15.96l-4.34 4.488H0V23.028l4.489-4.448zm58.392 8.633c-.682 0-1.215.235-1.598.703-.382.47-.574 1.053-.574 1.753 0 .714.188 1.308.564 1.784.39.462.926.693 1.608.693s1.222-.235 1.619-.703c.397-.47.595-1.06.595-1.774 0-.7-.198-1.284-.595-1.753-.397-.468-.937-.703-1.619-.703zm31.724-.356c-.626 0-1.107.174-1.44.524-.335.35-.544.756-.627 1.218h4.156a2.116 2.116 0 0 0-.585-1.207c-.334-.357-.835-.535-1.504-.535zm-43.399-2.96h-2.903V26.9h2.903c.488 0 .888-.133 1.201-.4.314-.265.47-.629.47-1.09 0-.476-.156-.847-.47-1.113-.313-.266-.713-.399-1.2-.399zm8.577-12.892l-.08 3.951 1.688-3.951h.735l-2.72 5.877-.083.16c-.137.255-.272.435-.404.543a.88.88 0 0 1-.576.195c-.192 0-.354-.033-.487-.1l.229-.568.036.026a.442.442 0 0 0 .192.033c.1 0 .184-.033.253-.1.07-.066.144-.182.224-.349l.367-.768-.08-4.949h.706zm8.222-.12c.304 0 .54.125.705.374.165.25.248.6.248 1.053 0 .32-.04.677-.12 1.073a8.15 8.15 0 0 1-.332 1.182 2.78 2.78 0 0 1-.586.983c-.248.263-.52.394-.819.394-.437 0-.728-.27-.873-.808l-.556 2.524h-.666l1.46-6.655h.675l-.139.619.099-.155c.267-.39.568-.584.904-.584zm-11.41.12l-.924 4.22h.536l-.407 1.827h-.675l.268-1.228h-2.194l-.268 1.228h-.666l.378-1.756.11-.034c.068-.022.124-.044.168-.066a.946.946 0 0 0 .243-.21c.096-.106.189-.27.278-.494.09-.223.187-.51.293-.863l.745-2.624h2.114zM34.424 0v11.688l-4.488 4.448V4.49H18.465L22.805 0h11.62zm48.058 10.885c.814 0 1.221.496 1.221 1.487 0 .366-.06.788-.178 1.267h-2.344l-.044.217a3.005 3.005 0 0 0-.035.462c0 .319.068.575.204.768.135.193.342.29.62.29.298 0 .586-.18.864-.54l.308.43-.126.142c-.339.357-.717.536-1.135.536-.437 0-.778-.14-1.023-.419-.245-.28-.367-.692-.367-1.237 0-.266.038-.58.114-.943a6.66 6.66 0 0 1 .342-1.113c.153-.379.368-.698.646-.958.278-.259.589-.389.933-.389zm-31.067 0c.397 0 .703.13.918.39.216.259.323.651.323 1.177 0 .492-.073.998-.218 1.516-.146.52-.38.978-.705 1.377-.325.4-.699.6-1.122.6-.397 0-.705-.132-.924-.395-.218-.263-.327-.654-.327-1.172 0-.493.073-.998.218-1.517.146-.519.382-.978.71-1.377.328-.4.703-.599 1.127-.599zm28.788.12l-1.052 4.82h-.676l.914-4.221h-.785l-.595 2.075-.075.253c-.225.735-.471 1.246-.74 1.533-.297.32-.658.48-1.082.48l.13-.61.089-.006c.175-.028.332-.139.471-.333.163-.226.343-.682.541-1.367l.745-2.624h2.115zm13.386-.12c.814 0 1.221.496 1.221 1.487 0 .366-.06.788-.178 1.267H92.29l-.045.217a3.005 3.005 0 0 0-.035.462c0 .319.068.575.204.768.135.193.342.29.62.29.298 0 .586-.18.864-.54l.308.43-.126.142c-.339.357-.717.536-1.135.536-.437 0-.778-.14-1.023-.419-.245-.28-.367-.692-.367-1.237 0-.266.038-.58.114-.943a6.66 6.66 0 0 1 .342-1.113c.153-.379.368-.698.646-.958.278-.259.589-.389.933-.389zm-22.343 0c.199 0 .377.068.536.205.16.136.272.337.338.603l.149-.688h.675l-1.062 4.82h-.676l.14-.62-.1.156c-.267.389-.568.583-.903.583a.798.798 0 0 1-.705-.37c-.166-.245-.249-.598-.249-1.057 0-.319.04-.677.12-1.072a7.74 7.74 0 0 1 .337-1.183c.146-.392.343-.72.59-.983.25-.262.519-.394.81-.394zM11.545 0l4.312 4.425H4.46V15.91L0 11.523V0h11.545zm74.081 11.005l-.437 2.006h1.281l.447-2.006h.675l-1.052 4.82h-.676l.477-2.216h-1.28l-.487 2.215h-.675l1.052-4.819h.675zm3.72 0l-.726 3.333 1.956-3.333h.735l-1.052 4.82h-.676l.735-3.413-1.996 3.412h-.705l1.053-4.819h.675zm7.566 0l.228 3.223 1.658-3.223h.904l-1.053 4.82h-.665l.755-3.483-1.758 3.482h-.307l-.239-3.482-.754 3.482h-.675l1.052-4.819h.854zM49.455 9.169l-1.46 6.655h-.745l1.31-5.986h-1.588l-1.31 5.986h-.745l1.46-6.655h3.078zm25.76 1.836l.175.007c.283.022.514.102.693.237.215.163.326.398.333.704 0 .32-.085.61-.254.873a1.295 1.295 0 0 1-.75.544c.385.133.577.406.577.818.006.432-.116.813-.368 1.142-.251.33-.615.494-1.092.494H72.96l1.053-4.819h1.201zm-9.837 0l-1.052 4.82h-.676l.914-4.221h-1.28l-.924 4.22h-.675l1.052-4.819h2.641zm2.329.489c-.152 0-.308.078-.467.234a1.86 1.86 0 0 0-.387.564l-.496 2.235.018.132c.032.17.097.317.195.442.123.156.263.234.422.234.258 0 .488-.192.69-.578.202-.386.348-.8.437-1.243.09-.442.134-.826.134-1.152 0-.579-.182-.868-.546-.868zm3.65 0c-.259 0-.489.193-.69.579-.203.385-.348.8-.438 1.242a5.953 5.953 0 0 0-.134 1.152c0 .58.182.868.546.868.153 0 .308-.078.467-.234.159-.156.288-.344.387-.564l.497-2.235-.018-.131a1.021 1.021 0 0 0-.196-.443c-.122-.156-.263-.234-.422-.234zm-19.98 0c-.259 0-.495.183-.71.549a4.078 4.078 0 0 0-.467 1.197 5.369 5.369 0 0 0-.144 1.148c0 .631.198.947.595.947.259 0 .494-.18.705-.543.212-.363.366-.76.462-1.193.096-.432.144-.815.144-1.147 0-.639-.195-.958-.586-.958zm23.301 2.135h-.566l-.357 1.647h.655a.757.757 0 0 0 .66-.335 1.2 1.2 0 0 0 .224-.733c0-.386-.206-.579-.616-.579zM55.78 11.604h-.784l-.596 2.075-.069.224c-.21.648-.455 1.09-.735 1.323h1.4l.784-3.622zm26.654-.15c-.298 0-.547.173-.745.519a3.482 3.482 0 0 0-.407 1.157h1.688c.066-.286.099-.535.099-.748 0-.266-.055-.487-.164-.664a.523.523 0 0 0-.471-.264zm11.107 0c-.298 0-.547.173-.745.519a3.482 3.482 0 0 0-.407 1.157h1.688c.066-.286.099-.535.099-.748 0-.266-.055-.487-.164-.664a.522.522 0 0 0-.471-.264zm-18.515.1h-.457l-.338 1.516h.646a.68.68 0 0 0 .59-.304 1.11 1.11 0 0 0 .214-.653c0-.373-.219-.56-.655-.56z"/></svg>