<svg xmlns="http://www.w3.org/2000/svg" width="112" height="35" viewBox="0 0 112 35"><path fill="#FFF" d="M75.607 24.359c1.602 0 3.021.448 4.258 1.343l-1.244 2.141-.145-.13c-.305-.252-.692-.471-1.162-.657a4.541 4.541 0 0 0-1.686-.325c-.38 0-.689.07-.928.21-.238.14-.358.314-.358.524 0 .21.204.368.611.472.408.105.9.21 1.476.315.576.105 1.156.256 1.739.452a3.221 3.221 0 0 1 1.486 1.038c.407.497.611 1.13.611 1.9 0 .993-.414 1.801-1.243 2.424-.83.623-1.96.934-3.394.934-.914 0-1.802-.14-2.667-.42-.864-.28-1.563-.657-2.097-1.133l1.35-2.225.154.13c.379.297.879.565 1.5.804.71.273 1.352.41 1.929.41.913 0 1.37-.26 1.37-.777 0-.238-.204-.416-.612-.535a11.85 11.85 0 0 0-1.475-.315 12.295 12.295 0 0 1-1.74-.41 3.156 3.156 0 0 1-1.485-.986c-.408-.476-.611-1.091-.611-1.847 0-.937.386-1.728 1.159-2.372.773-.643 1.84-.965 3.204-.965zm-11.773 0c1.686 0 3.035.514 4.047 1.543 1.012 1.028 1.518 2.284 1.518 3.767s-.506 2.742-1.518 3.778C66.87 34.482 65.521 35 63.834 35c-1.672 0-3.014-.518-4.026-1.553-1.012-1.036-1.518-2.295-1.518-3.778s.506-2.739 1.518-3.767c1.012-1.029 2.354-1.543 4.026-1.543zm22.618-2.519v2.77h2.066v2.813h-2.066v3.694l.007.15c.022.24.1.438.235.595.162.19.383.284.664.284.408 0 .682-.084.823-.252l.632 2.434-.116.1c-.487.381-1.25.572-2.287.572-1.04 0-1.83-.252-2.371-.756-.541-.503-.812-1.245-.812-2.224v-4.597h-1.686v-2.812h1.686v-2.77h3.225zm9.054 2.519c1.531 0 2.782.514 3.752 1.543.97 1.028 1.454 2.396 1.454 4.103v.692h-7.251l.045.186c.125.424.384.789.777 1.095.45.35 1.026.524 1.729.524.393 0 .846-.08 1.36-.241.512-.16.902-.367 1.169-.62l1.37 2.016-.19.158c-.461.357-1.026.637-1.696.839a8.206 8.206 0 0 1-2.372.346c-1.602 0-2.93-.486-3.984-1.459-1.054-.972-1.58-2.263-1.58-3.872 0-1.497.509-2.756 1.528-3.778 1.018-1.021 2.315-1.532 3.889-1.532zm12.32 0c1.012 0 1.873.182 2.583.546.71.363 1.24.804 1.591 1.322l-2.108 1.952-.104-.143c-.431-.548-1.036-.823-1.814-.823-.689 0-1.258.22-1.707.662-.45.44-.675 1.038-.675 1.794s.225 1.357.675 1.805c.45.448 1.018.672 1.707.672.815 0 1.454-.33 1.918-.987L112 33.132l-.14.19c-.347.437-.83.814-1.451 1.132-.71.364-1.57.546-2.583.546-1.602 0-2.93-.493-3.984-1.48-1.053-.986-1.58-2.27-1.58-3.851 0-1.567.527-2.844 1.58-3.83 1.054-.987 2.382-1.48 3.984-1.48zm-55.66-3.61l.3.006c1.376.055 2.471.494 3.284 1.316.871.882 1.307 1.994 1.307 3.337 0 1.12-.277 2.033-.833 2.74-.555.706-1.212 1.192-1.97 1.458l2.866 5.142h-4.152l-2.361-4.701h-1.855v4.701h-3.626V20.75h7.04zm-21.951-2.17l4.53 4.45v11.687H23.017l-4.38-4.488h11.578V18.58zm-25.685 0v11.649h11.58l-4.381 4.488H0V23.028l4.53-4.448zm59.304 8.634c-.688 0-1.226.235-1.612.703-.387.47-.58 1.053-.58 1.753 0 .714.19 1.308.569 1.784.394.462.935.693 1.623.693.689 0 1.233-.235 1.634-.703.4-.47.6-1.06.6-1.774 0-.7-.2-1.284-.6-1.753-.4-.468-.945-.703-1.634-.703zm31.672-.356c-.633 0-1.118.174-1.455.524-.337.35-.548.756-.632 1.218h4.195a2.117 2.117 0 0 0-.59-1.207c-.338-.357-.844-.535-1.518-.535zm-43.887-2.96h-2.867V26.9h2.867c.492 0 .906-.133 1.243-.4.338-.265.506-.636.506-1.112 0-.461-.168-.825-.506-1.091-.337-.266-.751-.399-1.243-.399zm26.426-12.726l-.077 3.815 1.645-3.815h.716l-2.651 5.675-.08.155c-.134.245-.265.42-.394.524a.867.867 0 0 1-.562.188c-.187 0-.345-.033-.474-.097l.223-.549.036.025a.413.413 0 0 0 .186.033c.097 0 .18-.032.247-.096.068-.065.14-.177.218-.338l.358-.741-.078-4.779h.687zM34.745 0v11.688l-4.53 4.448V4.49H18.636L23.016 0h11.73zM11.73 0l4.38 4.489H4.53v11.647L0 11.688V0h11.729zm54.403 11.056c.793 0 1.19.478 1.19 1.435 0 .353-.058.761-.174 1.224h-2.283l-.043.21c-.023.142-.035.29-.035.445 0 .308.066.555.199.741.132.187.333.28.604.28.29 0 .571-.174.842-.52l.3.414-.122.137c-.33.345-.7.518-1.107.518-.426 0-.758-.135-.996-.405-.24-.27-.358-.668-.358-1.194 0-.257.037-.56.11-.91.075-.35.186-.709.335-1.075.148-.366.358-.674.629-.925.27-.25.574-.375.91-.375zm-6.116 0c.793 0 1.19.478 1.19 1.435 0 .353-.058.761-.174 1.224h-2.284l-.043.21c-.023.142-.034.29-.034.445 0 .308.066.555.198.741.132.187.334.28.605.28.29 0 .57-.174.842-.52l.3.414-.123.137c-.33.345-.7.518-1.106.518-.426 0-.758-.135-.997-.405-.238-.27-.358-.668-.358-1.194 0-.257.037-.56.112-.91a6.41 6.41 0 0 1 .333-1.075 2.54 2.54 0 0 1 .63-.925c.27-.25.573-.375.909-.375zm-8.98 0c.386 0 .685.125.894.375.21.25.315.63.315 1.137 0 .475-.071.963-.213 1.464-.142.501-.37.945-.687 1.33-.316.385-.68.578-1.093.578-.387 0-.687-.127-.9-.38-.213-.254-.32-.632-.32-1.133 0-.475.072-.963.213-1.464.142-.5.373-.944.692-1.33.32-.385.686-.577 1.098-.577zm20.607-1.657l-1.432 6.425h-.658l.136-.597-.097.15c-.26.375-.554.563-.88.563a.785.785 0 0 1-.688-.356c-.16-.238-.242-.579-.242-1.022 0-.308.04-.653.117-1.035a7.45 7.45 0 0 1 .329-1.142 2.74 2.74 0 0 1 .575-.949c.242-.254.505-.38.789-.38.193 0 .367.065.522.197.155.132.265.326.33.583l.541-2.437h.658zm3.465 0l-.522 2.37.096-.15c.26-.376.554-.563.88-.563a.78.78 0 0 1 .688.36c.161.242.242.58.242 1.017 0 .309-.039.654-.116 1.036a7.984 7.984 0 0 1-.324 1.141c-.14.38-.33.696-.571.95-.242.253-.508.38-.799.38-.425 0-.71-.26-.851-.78l-.145.664h-.648L74.45 9.4h.658zm-27.174 0l.137.006c.312.03.571.162.777.398.236.27.353.623.353 1.06 0 .623-.179 1.174-.537 1.652-.358.479-.853.718-1.485.718h-.58l-.571 2.591h-.726L46.724 9.4h1.21zm5.913 1.772L53.71 14.9l1.587-3.729h.668l-.068 3.729 1.539-3.729h.715l-2.05 4.653h-.688l.039-3.747-1.616 3.747h-.687l.02-4.653h.677zm10.422-.096l-.155.674-.063-.016a.941.941 0 0 0-.16-.013c-.393 0-.738.264-1.035.79l-.735 3.314h-.658l1.035-4.653h.658l-.135.655.092-.142c.289-.406.674-.61 1.156-.61zm-13.272.568c-.252 0-.482.177-.692.53a3.94 3.94 0 0 0-.455 1.156c-.093.418-.14.787-.14 1.108 0 .61.193.915.58.915.252 0 .481-.175.687-.525.207-.35.357-.734.45-1.151.094-.417.14-.787.14-1.108 0-.616-.19-.925-.57-.925zm24.276 0c-.149 0-.3.076-.455.227-.155.15-.28.332-.377.544l-.484 2.158.017.127a.984.984 0 0 0 .19.427c.12.15.257.226.412.226.252 0 .476-.186.672-.558.197-.373.34-.773.426-1.2.087-.427.13-.798.13-1.113 0-.558-.177-.838-.531-.838zm-5.575 0c-.251 0-.476.186-.672.559a4.45 4.45 0 0 0-.426 1.2c-.087.427-.13.797-.13 1.112 0 .559.177.838.532.838.148 0 .3-.075.454-.226.155-.151.28-.332.378-.544l.483-2.158-.017-.127a.979.979 0 0 0-.19-.427c-.12-.151-.257-.227-.412-.227zm-3.614-.038c-.29 0-.532.167-.726.5a3.367 3.367 0 0 0-.397 1.118h1.645c.065-.276.097-.517.097-.722 0-.257-.053-.47-.16-.641a.511.511 0 0 0-.46-.255zm-6.117 0c-.29 0-.532.167-.725.5a3.345 3.345 0 0 0-.397 1.118h1.645c.064-.276.097-.517.097-.722 0-.257-.054-.47-.16-.641a.511.511 0 0 0-.46-.255zM47.77 10.044h-.454l-.571 2.543h.503c.367 0 .656-.17.866-.51.21-.34.314-.73.314-1.166 0-.283-.06-.498-.179-.645a.585.585 0 0 0-.479-.222z"/></svg>