<svg xmlns="http://www.w3.org/2000/svg" viewBox="0 0 176 44"><g fill-rule="evenodd" clip-rule="evenodd" fill="#FFF"><path d="M24.3 44L6.9 39.7l-1-9.1 15.6 1.9-17.6-6.2-.9-8.5 9.4-.6L1 14 .2 6l24.1-6 24.1 6-.9 8-23.3-2.9-2.9.4 24.3 6.3-.9 8.5-12.9.8 10.9 3.5-1 9.1L24.3 44zm1.4-11.3L39.8 31l-11.3-3.7-4.2.3-16-1 17.4 6.1zm13.5-15.3L18 11.9 4.2 13.6 16.1 17l8.2-.5 14.9.9zM86.9 11.8v22h7.8v-22h-7.8zM127.3 33.8v-22h20.3v3.7h-12.5v5.4h11.4v3.6h-11.4v5.7h12.5v3.6h-20.3zM99.8 33.8v-22h17.7c2.8 0 5.1 2.3 5.1 5v2.6c0 1-.3 2-.8 2.7.8.8 1.3 1.9 1.3 3.1v4.1c0 2.5-2 4.5-4.5 4.5H99.8zm7.8-3.6h5.3c1.2 0 2.3-1 2.3-2.2v-1.2c0-1.2-1-2.2-2.2-2.2h-5.4v5.6zm7.1-11.5v-1.1c0-1.2-1-2.1-2.1-2.1h-5v5.4h5c1.1 0 2.1-1 2.1-2.2zM167.4 33.8l-4.4-6.5c-1.2-2.1.2-2.8 2-3.6 1.3-.6 1.7-1.5 1.7-2.5v-3.5c0-1.2-1-2.2-2.3-2.2h-5.1v18.3h-7.8v-22H170c2.5 0 4.5 2 4.5 4.5v5.9c0 2.2-1.6 4-3.6 4.4l5 7.3h-8.5v-.1zM59.5 33.8v-3.7h13c1.2 0 2.3-1 2.3-2.2v-1.2c0-1.2-1-2.2-2.2-2.2H64c-2.5 0-4.5-2-4.5-4.5v-3.7c0-2.5 2-4.5 4.5-4.5h17.7v3.7H69.6c-1.2 0-2.3 1-2.3 2.2v.9c0 1.2 1 2.2 2.2 2.2h8.6c2.5 0 4.5 2 4.5 4.5v4c0 2.5-2.1 4.5-4.5 4.5H59.5z"/></g></svg>