<svg id="Layer_1" xmlns="http://www.w3.org/2000/svg" viewBox="0 0 188 44"><style>.st0{fill-rule:evenodd;clip-rule:evenodd;fill:#fff}</style><path class="st0" d="M23.9 43.8L6.7 39.5l-1-9 15.5 1.9-17.5-6.1-.9-8.4 9.3-.6L.9 14 0 6.1 23.9.2l23.9 5.9L47 14l-23.1-2.8-2.9.4 24.1 6.2-.9 8.4-12.8.8 10.8 3.5-1 9-17.3 4.3zm1.4-11.2l14-1.7-11.2-3.6-4.1.3-15.8-1 17.1 6zm13.4-15.2l-21-5.4-13.8 1.7L15.8 17l8.1-.5 14.8.9zM141.7 33.7V11.9h20.2v3.7h-12.5v5.3h11.3v3.6h-11.3v5.6h12.5v3.6h-20.2zM102 11.9l-9.2 13.8V11.9h-7.7v21.8h7.7L102 20v13.7h7.7V11.9H102zM114.6 33.7V11.9h21.1v3.6h-13.4v3.7h10.8c2.5 0 4.4 2 4.4 4.4v5.6c0 2.4-2 4.4-4.5 4.4h-18.4v.1zm15.2-5.8v-2.8c0-1.2-1-2.2-2.2-2.2h-5.3v7.2h5.3c1.2 0 2.2-1 2.2-2.2zM165.2 11.9v21.8h7.7v-5.6h10.6c2.5 0 4.5-2 4.4-4.4v-7.3c0-2.4-2-4.4-4.5-4.4h-18.2v-.1zm15 5.9v4.5c0 1.2-1 2.2-2.2 2.2h-5v-8.9h5c1.2 0 2.2.9 2.2 2.2zM58.8 24.8v-3.9c0-4.9 4.1-8.9 9-8.9h13.7v3.6H71.4c-2.6 0-4.8 2.1-4.8 4.7v5.1c0 2.6 2.2 4.7 4.8 4.7h10.2v3.6H67.9c-5 0-9-4-9.1-8.9z"/></svg>