<svg id="Layer_1" xmlns="http://www.w3.org/2000/svg" viewBox="0 0 36 36"><style>.st0{fill:#333}.st1{fill:#fff}</style><path class="st0" d="M18 0c9.9 0 18 8.1 18 18s-8.1 18-18 18S0 27.9 0 18 8.1 0 18 0z"/><path class="st1" d="M27.1 15v2h2v2h-2v2h-2v-2h-2v-2h2v-2zM8.9 23.1c-2.7-2.7-2.7-7.5.1-10.2 2-2 4.9-2.5 7.5-1.5l1 .6 1.1.8-1.8 1.8-.7-.4c-1.6-1-3.8-.8-5.3.7-1.7 1.7-1.8 4.7 0 6.5 1.7 1.8 4.7 1.8 6.3 0 .4-.4.9-1.1 1-1.8v-.2h-4v-2.2h6.4l.1.6v1.6c-.1 1.5-.7 2.9-1.7 3.9-2.6 2.5-7.3 2.5-10-.2z"/></svg>