<svg id="Layer_1" xmlns="http://www.w3.org/2000/svg" viewBox="0 0 36 36"><style>.st0{fill:#fff}.st1{fill:#333}</style><path class="st0" d="M25.6 17.5L12.4 4.3c-3.5 1.6-6.4 4.3-8 7.8l13.4 13.4 5 1.2 5.2 1.1-1.1-5.2-1.3-5.1zM22.3 26l-3.9-.9c1.4-3.1 3.8-5.5 6.9-6.9l.9 3.9c-1.7.8-3.1 2.2-3.9 3.9z"/><path class="st1" d="M19 2.3c-2.2 0-4.4.4-6.5 1.3L9 .1C8.9 0 8.8 0 8.6 0 5.2 2.1 2.3 5 .2 8.4c-.1.1-.1.3 0 .4l3.4 3.4c-1 2.2-1.5 4.5-1.5 7C2.1 28.4 9.7 36 19 36c9.3 0 16.9-7.6 16.9-16.9C35.8 9.9 28.3 2.3 19 2.3zm3.7 24.3l-5-1.2L4.3 12.1c1.7-3.5 4.5-6.2 8-7.8l13.3 13.3 1.2 5 1.1 5.2-5.2-1.2z"/><path d="M18.4 25.1l3.9.9c.8-1.7 2.2-3 3.9-3.9l-.9-3.9c-3.1 1.4-5.5 3.8-6.9 6.9z"/></svg>