<svg id="Layer_1" xmlns="http://www.w3.org/2000/svg" viewBox="0 0 1112 255"><style>.st0{fill-rule:evenodd;clip-rule:evenodd;fill:#fff}</style><path class="st0" d="M139.8 254.8L39 229.9l-5.6-52.4 90.3 11.1-102-36.2-5.3-49.3L71 99.7 5.1 81.1l-5-46.3L139.8.2l139.6 34.6-5 46.3-134.6-16.6-17 2.1L263.2 103l-5.3 49.3-74.7 4.7 63 20.4-5.6 52.4-100.8 25zm7.8-65.3l81.9-10-65.6-21.2-24.1 1.5-92.4-5.8 100.2 35.5zm78.6-88.7L103.7 69l-80.5 9.9 69.1 19.5 47.5-3 86.4 5.4zM840.4 193.4V66.6h117.7v21.1h-72.6v30.9h65.9v21.1h-65.9v32.6h72.6v21.1H840.4zM609.6 66.6l-53.4 80v-80h-45v126.8h45l53.4-80v80h45.1V66.6h-45.1zM682.6 193.4V66.6H805.9v21.2h-78.2v21.3h62.9c14.3 0 25.9 11.6 25.8 25.8v32.8c-.1 14.2-11.8 25.8-26.1 25.8H682.6v-.1zm88.7-34V143c.1-7.1-5.7-12.9-12.9-12.9h-30.7v42.1h30.6c7.1 0 13-5.7 13-12.8zM979.5 66.6l.1 21.2v105.7h45v-32.8h61.5c14.3 0 25.9-11.6 25.8-25.7V92.3c-.1-14.2-11.8-25.7-26.1-25.7H979.5zm87.3 33.9v26.2c.1 7.1-5.7 12.9-12.9 12.9h-29.3V87.7h29.2c7.1 0 12.9 5.7 13 12.8zM358.5 141.4v-22.9c.1-28.7 23.7-52 52.6-52h79.7v21.2h-59.4c-15.3 0-27.7 12.4-27.8 27.5v29.6c0 15.1 12.5 27.5 27.8 27.5h59.4v21.2h-79.7c-28.9-.1-52.5-23.4-52.6-52.1z"/></svg>