<svg id="Layer_1" xmlns="http://www.w3.org/2000/svg" viewBox="0 0 1453 938"><style>.st0{fill:#e5e5e5;stroke:#fff;stroke-width:.694}</style><path class="st0" d="M893.3 567.3l.7-.2.2 1.2 3.2-.7 3.3.1 2.4.1 2.8-3 3-2.9 2.6-2.7.8 1.5.5 3.5h-2.1l-.3 2.9.7.6-1.8.9v1.8l-1.2 1.8-.1 1.7-.8.9-12.1-2.2-1.6-4.4-.2-.9zM932.2 514.3l4.1 1.9 3-.7.9-2.2 3.2-.7 2.3-1.5.8-4 3.4-1 .6-1.8 1.9 1.4 1.2.2h2.2l3.1 1.1 1.2.6 2.9-1.6 1.4 1 1.3-2.3 2.4.1.6-.7.4-2.1 1.7-1.8 2.2 1.2-.4 1.6 1.2.2-.4 4.3 1.6 1.7 1.4-1.1 1.8-.5 2.5-2.3 2.8.4h4.2l.7 1.5-2.4.6-2 .9-4.6.6-4.3 1.1-2.4 2.2 1 2.1.5 2.4-2 2.1.2 1.9-1.1 1.8-3.8-.2 1.6 3.2-2.6 1.2-1.7 2.9.2 2.9-1.6 1.3-1.5-.4-3.1.6-.4 1.3h-3l-2.2 2.7-.1 4-5.3 1.9-2.8-.4-.8 1-2.4-.6-4 .7-6.8-2.4 3.7-4.2-.3-3-3.1-.8-.3-3-1.3-3.8 1.7-2.6-1.8-.7 1.1-3.5 1.5-6.7zM768.1 482.2l-.5 1.8.6 2.3 1.7 1.3-.1 1.4-1.3.8-.2 1.7-1.9 2.5-.7-.4-.1-1.2-2.2-1.8-.3-2.5.3-3.6.5-1.7-.7-.9-.3-1.7 1.8-2.7.2 1 1.1-.5.9 1.5 1 .5.2 2.2zM861 486.3l5.6-.8.8 1.4 1.5.9-.8 1.3 2.2 1.8-1.1 1.7 1.7 1.4 1.8.9.1 3.6-1.5.1-1.6-3v-.8h-1.8l-1.2-1.4-.8.1-1.6-1.5-3-1.3.4-2.6-.7-1.8zM750.8 691.4l1 3 1.2 2.4.9 1.3 1.5 2.1 2.7-.3 1.3-.6 2.2.6.6-1 1-2.4 2.5-.2.2-.7h2.1l-.3 1.5h4.9l.1 2.6.8 1.6-.6 2.4.3 2.5 1.4 1.5-.2 4.9 1-.4 1.8.1 2.5-.6 1.8.2.4 1.3-.5 2 .7 1.9-.6 1.5.3 1.4-8.4-.1-.2 13.2 2.7 3.4 2.6 2.6-7.4 1.7-9.8-.6-2.8-2-16.4.2-.6.3-2.4-1.9-2.6-.1-2.4.7-1.9.8-.4-2.6.6-3.7 1.4-3.8.2-1.8 1.3-3.7 1-1.7 2.3-2.7 1.3-1.8.4-3-.2-2.3-1.2-1.5-1.1-2.5-1-2.4.2-.9 1.2-1.6-1.2-3.9-.8-2.7-2-2.6.4-.8 1.7-.5 1.2.1 1.4-.5 11.9.1zm-15.7-.8l-1 .4-1.1-3 1.6-1.7 1.2-.7 1.5 1.4-1.5.9-.7 1v1.7zM420.2 935.1l-3.8.4-2.1-2.5-2.4-.2h-4.3v-15.2l1.6 3.1 2 5.1 5.3 4.1 5.7 1.7-2 3.5zm2.2-176.5l2.4 3.1 1.6-3.5 4.6.2.6.9 7.4 7.1 3.3.7 4.9 3.3 4.2 1.7.6 2-4 6.8 4.1 1.2 4.5.7 3.2-.7 3.7-3.5.7-3.9 2-.9 2 2.6-.1 3.6-3.4 2.5-2.7 1.8-4.6 4.4-5.4 6.3-1 3.7-1.1 4.9v4.8l-.9 1.1-.3 3.1-.3 2.5 5.1 4.2-.5 3.4 2.5 2.2-.2 2.4-3.9 6.5-6 2.8-8.1 1.1-4.4-.5.9 3.1-.8 3.9.7 2.7-2.4 1.9-4.1.7-3.9-1.9-1.6 1.4.6 5.3 2.7 1.6 2.2-1.7 1.2 2.8-3.7 1.7-3.2 3.4-.6 5.6-1 3h-3.8l-3.2 2.9-1.2 4.3 4 4.3 3.9 1.2-1.4 5.4-4.8 3.4-2.6 7.2-3.7 2.5-1.7 3 1.3 6.7 2.7 3.8-1.7-.3-3.7-1-9.8-.9-1.7-3.8.1-4.8-2.7.4-1.4-2.3-.4-6.6 3.1-2.7 1.3-3.9-.5-3 2.1-5.1 1.5-7.7-.4-3.4 1.8-1.1-.4-2.1-1.9-1.1 1.3-2.3-1.8-2.1-.9-6.3 1.6-1.1-.7-6.5 1-5.4 1.1-4.6 2.4-1.9-1.2-5v-4.6l3.1-3.3-.1-4.1 2.3-4.8v-4.5l-1.1-.9-1.9-8.2 2.5-4.8-.4-4.5 1.4-4.2 2.7-4.3 2.9-2.8-1.2-1.8.9-1.4-.1-7.4 4.4-2.2 1.4-4.6-.5-1.1 3.4-3.9 5.2 1.2zM753.5 446.5l-.3 2.5h-2.3l.8 1.3-1.3 3.8-.8 1-3.5.1-2 1.3-3.3-.4-5.8-1.5-.9-2.1-4 1-.5 1.1-2.4-.8-2.1-.2-1.8-1.1.6-1.5-.2-1.1 1.2-.3 2 1.6.6-1.6 3.6.3 2.9-1.1 1.9.2 1.3 1.2.4-1-.6-3.9 1.5-.8 1.4-2.8 3 2 2.3-2.5 1.4-.5 3.1 1.9 1.9-.3 1.9 1.2-.3.8.3 2.2zM761.7 465.6h1.5l-1 2.5 1.9 2.2-.6 2.6-1 .2-.8.5-1.3 1.3-.6 3-3.6-2.1-1.5-2.3-1.5-1.2-1.9-2.1-.9-1.7-2-2.6.9-2.4 1.5 1.3.9-1.2 1.9-.1 3.5 1 2.8-.1 1.8 1.2zM1059.3 577l-.1 3.1-1.4-.7.3 3.5-1.2-2.2-.2-2.2-.8-2.1-1.7-2.5-3.7-.2.4 1.8-1.3 2.4-1.7-.9-.6.8-1.1-.5-1.6-.4-.6-3.6-1.4-3.3.7-2.7-2.5-1.2.9-1.6 2.5-1.7-2.9-2.3 1.4-3 3.2 1.9 1.9.2.4 3.1 3.8.6 3.8-.1 2.3.8-1.9 3.7-1.8.3-1.2 2.5 2.2 2.3.7-2.8h1.1l2.1 7zM698.3 426.4l3 .5 3.7-1.3 2.6 2.8 2.2 1.5-.5 4.3-1.1.2-.4 3.5-3.5-2.8-2.1.5-2.8-3-1.9-2.6-1.9-.1-.6-2.2 3.3-1.3zM673.5 628.8l-2.8-1.1-1.9.2-1.4 1-1.8-.9-.7-1.3-1.8-.9-.3-2.4 1.1-1.7-.1-1.4 3.2-3.4.6-2.8 1.1-1 2 .5 1.7-.8.5-1.1 3.1-1.8.8-1.3 3.8-1.7 2.2-.6 1 .8h2.6l-.3 2 .5 1.9 2.3 2.7.1 2 4.7.9-.1 2.8-.9 1.2-2 .4-.8 1.8-1.4.5-3.5-.1-1.9-.3-1.3.7-1.8-.3-7 .2-.1 2.3.6 3zM776.4 469.1l1.2 2.3 1.6-.4 3.1.9 5.9.3 2-1.4 4.8-1.3 2.9 2 2.4.6-2.1 2.3-1.5 3.9 1.3 3.1-3.5-.7-4.1 1.7v2.7l-3.7.5-2.8-1.9-3.2 1.5-3-.2-.3-3.6-2-1.7.7-.8-.4-.6.7-1.7 1.5-1.7-2-2.4-.4-2 .9-1.4zM803.4 685.8l-.3-4.9-1-1.8 2.5.3 1.2-2.3 2.1.3.2 1.6.9.9v1.3l-1 .8-1.6 2.1-1.5 1.5-1.5.2z"/><path class="st0" d="M695.8 642.6l-3.3.5-1-2.8.2-9.3-.8-.8-.1-2-1.4-1.4-1.2-1.2.5-2.2 1.4-.5.8-1.8 2-.4.9-1.2 1.4-1.2h1.5l3.1 2.4-.2 1.4.9 2.4-.8 1.6.4 1.1-2 2.5-1.2 1.3-.8 2.6.1 2.6-.4 6.4zM1146.3 649.6l1.6-1.5 3.4-2.2-.2 2-.2 2.6-1.9-.1-.9 1.4-1.8-2.2zM431 758.5l-4.6-.2-1.6 3.5-2.4-3.1-5.3-1.1-3.4 3.9-2.9.6-1.6-6-2.2-4.8 1.3-4.1-2.1-1.8-.5-3.1-2-2.9 2.6-4.5-1.7-3.5.9-1.4-.7-1.5 1.6-2.1.1-3.5.2-2.9.9-1.4-3.6-6.6 3 .3 2.1-.1.9-1.2 3.5-1.7 2.1-1.5 5.3-.7-.4 3.1.5 1.6-.3 2.7 4.4 3.7 4.5.7 1.6 1.5 2.7.8 1.7 1.2h2.5l2.3 1.2.2 2.4.8 1.2.1 1.8-1.2.1 1.6 4.9 7.7.2-.6 2.4.4 1.7 2.2 1.2 1 2.6-.7 3.3-1.1 1.9.4 2.4-1.3.9-.1-1.3-3.8-2.3-3.7-.1-7 1.2-1.9 3.8-.1 2.3-1.6 5.2-.7-.9zM1055.4 551.6l1.6 1.4-.3 2.8-3.3.1-3.4-.3-2.6.7-3.7-1.7-.1-.9 2.7-3.4 2.2-1.2 2.9 1.1 2.1.1 1.9 1.3zM788.5 743.5l.8.7 1.3 2.5 4.6 4.7 1.7.5v1.5l1.2 2.7 3.1.7 2.6 2-5.7 3.2-3.6 3.3-1.3 2.9-1.2 1.7-2.2.4-.7 2.1-.4 1.4-2.6 1-3.3-.2-1.9-1.2-1.7-.5-2 1-1 2.1-1.9 1.3-2 2-2.9.5-.9-1.6.4-2.7-2.4-4.2-1.1-.7v-12.8l4-.2.1-15.2 3-.1 6.2-1.5 1.6 1.7 2.6-1.7h1.2l2.3-1 .7.3 1.4 3.4zM779.8 409.3l3.9.1 4.4-2.6.9-3.9 3.3-2.3-.4-3.2 2.4-1.2 4.4-2.8 4.3 1.8.6 1.8 2.1-.9 3.9 1.7.4 3.3-.9 1.9 2.5 4.5 1.6 1.3-.2 1.2 2.7 1.2 1.2 1.8-1.6 1.5-3.3-.2-.8.6 1 2.2 1 4.2-3.5.4-1.2 1.4-.3 3.3-1.6-.6-3.6.3-1.1-1.5-1.5 1.1-1.5-.9-3.2-.1-4.5-1.6-4.1-.5-3.1.1-2.2 1.8-1.9.2-.1-2.9-1.3-3.1 2.4-1.4v-2.7l-1.1-2.6v-2.7zM324.7 595.1v-.6l.5-.2.7.5 1.4-2.6.8-.1v.6h.8l-.1 1.2-.7 1.8.4.6-.4 1.5.2.4-.5 2.1-.8 1.1-.7.1-.8 1.4h-1.2l.3-4.7.1-3.1zM746.6 637.9l3.3-.3.7-1 .7.1 1 .9 5.1-1.5 1.7-1.6 2.1-1.4-.4-1.4 1.1-.4 3.9.3 3.8-1.9 2.9-4.5 2.1-1.6 2.6-.7.5 1.8 2.3 2.6v1.7l-.6 1.7.3 1.3 1.4 1.2 3.1 1.8 2.2 1.6v1.3l2.7 2.1 1.7 1.7 1 2.4 3 1.6.6 1.3-1.3.4-2.6-.1-3-.4-1.5.1-.6 1-1.3.1-1.6-.9-4.5 2-1.8-.4-.6.3-1.2 2.4-3-.8-3-.4-2.6-1.5-3.3-1.4-2.2 1.3-1.6 2-.4 2.8-2.6-.2-2.7-.7-2.4 2.1-2.1 3.7-.4-1.2-.2-1.8-1.8-1.3-1.5-2.1-.3-1.4-1.9-2.1.3-1.2-.4-1.7.3-3.1 1-.7 2-3.9z"/><path class="st0" d="M737.4 687l-1.5-1.4-1.2.7-1.7 1.7-3.3-4.3 3.1-2.2-1.5-2.7 1.4-1 2.7-.5.3-1.8 2.2 1.9 3.6.2 1.2-1.9.5-2.7-.4-3.1-1.9-2.4 1.7-4.7-1-.8-3 .3-1.1-2.1.3-1.8 5.1.2 3.3 1.1 3.2 1 .3-2.2 2.1-3.7 2.4-2.1 2.7.7 2.6.2-.2 2.4-1.2 2.1-.8 2.5-.5 3.6.2 2.3-.7 1.4-.1 1.5-.5 1.3-2.7 1.9-1.8 2.1-1.8 3.9.1 3.3-1 1.3-2.3 2-2.4 2.5-1.5-.7-.3-1.1h-2.2l-1.4 1.5-1-.4zM723.6 450.1l.2 1.1-.6 1.5 1.8 1.1 2.1.2-.3 2.4-1.8 1-3-.7-.9 2.3-1.9.2-.7-.9-2.3 2-1.9.3-1.7-1.2-1.4-2.6-1.9.9.1-2.7 3-3.3-.1-1.5 1.8.6 1.1-1h3.4l.8-1.3 4.2 1.6zM673.3 647.7h-1.8l-2.8-.8h-2.6l-4.8.7-2.8 1.2-4 1.5-.8-.1.3-3.3.4-.5-.1-1.6-1.7-1.7-1.3-.3-1.2-1.1.9-1.8-.4-2 .2-1.2h.6l.2-1.8-.3-.8.4-.6 1.5-.5-1-3.3-.9-1.7.3-1.4.8-.3.5-.4 1.1.6h3.1l.7-1.2.7.1 1.2-.5.6 1.7.9-.5 1.7-.6 1.8.9.7 1.3 1.8.9 1.4-1 1.9-.2 2.8 1.1 1.1 5.8-1.7 3.4-1.1 4.6 1.7 3.5v1.9zM407.6 917.5v15.2h4.3l2.4.2-1.3 2.9-3.5 2.2-2-.2-2.4-.6-2.9-2.1-4.2-1-5.1-3.9-4.1-3.7-5.6-7.6 3.3 1.4 5.7 4.5 5.4 2.4 2.1-3.1 1.3-4.6 3.7-2.8 2.9.8zm1.6-161.4l1.6 6 2.9-.6.5 1.1-1.4 4.6-4.4 2.2.1 7.4-.9 1.4 1.2 1.8-2.9 2.8-2.7 4.3-1.4 4.2.4 4.5-2.5 4.8 1.9 8.2 1.1.9v4.5l-2.3 4.8.1 4.1-3.1 3.3v4.6l1.2 5-2.4 1.9-1.1 4.6-1 5.4.7 6.5-1.6 1.1.9 6.3 1.8 2.1-1.3 2.3 1.9 1.1.4 2.1-1.8 1.1.4 3.4-1.5 7.7-2.1 5.1.5 3-1.3 3.9-3.1 2.7.4 6.6 1.4 2.3 2.7-.4-.1 4.8 1.7 3.8 9.8.9 3.7 1H404l-1.9 1.6-3.6 2.4-.6 6.3-1.7.2-4.6-2.2-4.6-4.7-5-3.8-1.3-4.1 1.1-3.8-2-4.2-.5-10.6 1.7-5.8 4.3-4.6-6.1-1.7 3.8-5.1 1.4-9.5 4.5 2 2.1-11.5-2.7-1.4-1.3 6.8-2.6-.8 1.3-7.8 1.4-9.9 1.9-3.6-1.2-5-.3-5.7 1.7-.2 2.5-8.1 2.8-7.8 1.7-7.2-.9-7.1 1.2-3.8-.5-5.7 2.4-5.6.7-8.7 1.3-9.2 1.3-9.7-.3-7-.8-6 2.1-1.1 1.1-2.2 2 2.9.5 3.1 2.1 1.8-1.3 4.1 2.1 4.8z"/><path class="st0" d="M737.7 658.6l-.5-.2-2.4.5-2.5-.5-1.9.3-6.6-.1.6-3.2-1.6-2.7-1.8-.7-.8-1.8-1-.6.1-1.1 1-2.9 1.9-3.9h1.2l2.4-2.4 1.5-.1 2.3 1.7 2.8-1.4.4-1.7.9-1.6.6-2 2.2-1.7.8-2.8.9-.9.6-2.1 1.1-2.6 3.4-3.2.2-1.4.4-.7-1.6-1.6.1-1.3 1.1-.2 1.6 2.6.3 2.7-.1 2.7 2.2 3.7h-2.2l-1.1.3-1.8-.4-.9 1.9 2.4 2.4 1.8.7.6 1.7 1.3 2.8-.6 1.1-2 4.1-1 .7-.3 3.1.4 1.7-.3 1.2 1.9 2.1.3 1.4 1.5 2.1 1.8 1.3.2 1.8.4 1.2-.3 2.2-3.2-1-3.3-1.1-5.4-.1zM349.7 634.6l-2.2-.9-.8-.9.5-.7-.1-.9-1.1-1-1.6-.8-1.4-.5-.3-1.2-1.1-.7.3 1.2-.8 1-.9-1.1-1.3-.4-.5-.8v-1.2l.5-1.3-1.1-.6.9-.8.6-.5 2.7 1.1.9-.5 1.3.3.7.8 1.2.3 1-.9 1 2.2 1.6 1.6 1.9 1.7-1.6.4v1.6l.8.6-.6.5.2.7-.3.8-.4.9zM352.5 572l3.5.3h3.2l3.8 1.5 1.6 1.6 3.8-.5 1.4 1 3.4 2.7 2.5 1.9 1.3-.1 2.4.9-.3 1.2 3 .2 3.1 1.8-.5 1-2.7.5-2.7.2-2.8-.3-5.8.4 2.7-2.4-1.6-1.1-2.6-.3-1.4-1.2-1-2.4-2.3.2-3.8-1.2-1.2-.9-5.3-.7-1.4-.9 1.5-1.1-4-.2-2.9 2.2-1.7.1-.6 1.1-2 .5-1.7-.4 2.1-1.3.9-1.6 1.8-1 2.1-.9 3.1-.4 1.1-.4zM821.9 516.3l2.7-2.1-3.7 1.5-2.9-.1-.6 1.2h-.3l-1.9.2.9 2 2 .6 4.2-2-.1-.4-.3-.9zM753.4 443.6l-1.9-1.2-1.9.3-3.1-1.9-1.4.5-2.3 2.5-3-2-2.3-2.6-2.1-1.5-.4-2.6-.7-1.9 2.9-1.4 1.5-1.6 2.9-1.2 1-1.2 1.1.7 1.8-.7 1.9 2.1 3 .6-.2 1.7 2.2 1.3.6-1.6 2.8.7.4 2 3 .4 1.9 3.1h-1.2l-.6 1.1-.9.3-.3 1.4-.8.3-.1.6-1.4.6-1.8-.1-.6 1.3z"/><path class="st0" d="M725 401.9l.1 2.7 4.1 1.6v2.4l4.1-1.3 2.3-1.9 4.6 2.7 1.9 2.2 1 3.4-1.1 1.8 1.5 2.4 1 3.5-.3 2.2 1.7 4.1-1.8.7-1.1-.7-1 1.2-2.9 1.2-1.5 1.6-2.9 1.4.7 1.9.4 2.6 2.1 1.5 2.3 2.6-1.4 2.8-1.5.8.6 3.9-.4 1-1.3-1.2-1.9-.2-2.9 1.1-3.6-.3-.6 1.6-2-1.6-1.2.3-4.3-1.8-.8 1.3h-3.4l.5-4.3 2-4.2-5.8-1.1-1.9-1.6.2-2.7-.8-1.4.5-4.3-.7-6.8h2.4l1-2.5 1-6.1-.8-2.3.8-1.4 3.4-.4.7 1.5 2.8-3.4-.9-2.6-.2-4 3.1.9 2.2-.8zM858.9 616.3l1 1.3-.1 1.7-2.3 1 1.7 1.1-1.5 2.2-.9-.7-1 .3-2.3-.1-.1-1.2-.3-1.1 1.4-1.9 1.4-1.8 1.7.4 1.3-1.2z"/><path class="st0" d="M736.1 397.5l-2.4 5.7-4.2-4-.6-3 5.9-2.4 1.3 3.7zm-7.1-6.1l-1 2.7-1.2-.8-2.9 5.2 1.1 3.4-2.6 1.1-3.1-.9-1.6-3.9-.1-7.4.7-2 1.2-2.2 3.6-.5 1.4-2.1 3.3-2.1-.1 3.9-1.2 2.4.5 2.1 2 1.1zM395.1 587l.5-.7h3.2l2.4 1.1 1.1-.1.7 1.5 2.2-.1-.1 1.3 1.8.2 2 1.6-1.5 1.7-1.9-.9-1.8.2-1.3-.2-.7.8-1.6.3-.6-1-1.3.6-1.6 2.9-1-.7-.2-1.2.1-1.2-1-1.3 1-.7.3-1.6-.7-2.5zM733.4 570.7l-13.8 8.3-11.7 8.4-5.7 1.9-4.5.4V587l-1.9-.7-2.5-1.2-1-2-13.6-9.4-13.6-9.6-15.2-10.9.1-.9v-5.7l6.5-3.4 4-.7 3.3-1.2 1.6-2.3 4.7-1.9.2-3.5 2.3-.4 1.8-1.7 5.3-.8.7-1.8-1.1-1-1.4-5.1-.2-3-1.5-3.1 3.9-2.7 4.4-.9 2.6-2.1 3.9-1.5 6.8-.9 6.7-.4 2 .7 3.8-2h4.3l1.6 1.2 2.8-.3-.8 2.6.6 4.7-1 4.1-2.5 2.7.4 3.6 3.3 2.9v1.2l2.5 1.9 1.7 8.4 1.3 4.1.2 2.1-.7 3.7.3 2.1-.5 2.5.4 2.8-1.6 1.9 2.4 3.3.2 1.9 1.4 2.5 1.9-.8 3.2 2 1.7 2.7zM360.4 681.4l2.1-3-.9-1.8-1.5 1.9-2.4-1.8.8-1.1-.7-3.6 1.4-.6.7-2.5 1.5-2.6-.3-1.6 2.2-.9 2.8-1.6 4 2.3.7-.1 1 1.7 3.4.6 1.2-.6 2 1.3 1.7 1 .6 3-1.3 2.6-4.4 4.2-4.9 1.6-2.5 3.5-.8 2.7-2.3 1.7-1.7-2-1.6-.4-1.7.3-.1-1.5 1.2-1-.2-1.7zM783.1 381.4l.5-4.5-1.5 1-2.6-2.7-.4-4.5 5.1-2.2 5.1-1.2 4.4 1.3 4.2-.2.6 1.4-2.9 4.5 1.2 7.1-1.7 2.4h-3.3l-3.5-2.8-1.8-.9-3.4 1.3zM826 543.7l-1.1 1.9-.9 3.4-1.1 2.4-1 .8-1.3-1.5-1.8-2-2.9-6.6-.4.4 1.7 4.9 2.5 4.6 3.1 7 1.5 2.4 1.3 2.5 3.6 4.9-.8.8.1 2.8 4.7 3.9.7.9H786v-32.3l-1.2-3.7 1-2.9-.6-2 1.5-2.3 5.4-.1 3.9 1.2 4 1.4 1.9.7 3.1-1.5 1.7-1.3 3.6-.4 2.9.6 1.1 2.3.9-1.5 3.2 1.1 3.2.3 2-1.2 2.4 8.1zM632 552h17.8H632l-.2.1-.1.1-2.6 4.6-2.7 1.6-1.5 2.8-.1 2.4-1.1 2.6-1.4.7-2.2 2.8-1.4 3.1.3 1.5-1.3 2.3-1.6 1.2-.2 2-.2 1.8.9-1.4h15.8l-.8-6.3 1-2.2 3.8-.4-.1-11.3 13.3.2v-6.8l.1-.9v-.3L632 552zM856 617l-1.4-1.3-1.7-2.4-1.8-1.3-1.1-1.4-3.5-1.7h-2.8l-1-.9-2.4 1-2.3-2-1.3 3.1-4.7-.9-.4-1.7 1.7-6.1.4-2.8 1.3-1.3 3-.7 2-2.4 2.3 4.9 1.1 3.8 2.2 2 5.5 3.9 2.2 2.4 2.2 2.4 1.3 1.4 2 1.2-1.2 1-1.6-.2zM648.4 482.1l.2-3.9-1.6-2.4 5.7-4 4.9 1h5.4l4.3 1 3.4-.3 6.5.2 1.6 2.1 7.4 2.5 1.5-1.2 4.6 2.5 4.7-.7.2 3.2-3.8 3.6-5.2 1.1-.4 1.8-2.5 2.9-1.6 4.3 1.6 3-2.3 2.2-.9 3.3-3.1 1-2.9 3.9-5.1.1-3.9-.1-2.5 1.8-1.5 1.9-2-.4-1.5-1.7-1.2-2.9-3.8-.8-.3-1.7 1.5-1.9.5-1.4-1.4-1.5 1.1-3.4-1.6-3.1 1.7-.4.2-2.5.7-.8v-4.2l1.9-1.4-1.1-2.7-2.4-.2-.7.7h-2.4l-1-2.7-1.6.8-1.3 1.4z"/><path class="st0" d="M838 607l2.4 1.9 2.4-1 1 .9h2.8l3.5 1.7 1.1 1.4 1.8 1.3 1.7 2.4 1.4 1.3-1.4 1.8-1.4 1.9.3 1.1.1 1.2 2.3.1 1-.3.9.7-.9 1.5 1.5 2.2 1.5 2 1.5 1.5 13.2 4.8h3.4l-11.4 12.1-5.3.2-3.6 2.8-2.6.1-1.2 1.4h-2.8l-1.6-1.4-3.7 1.7-1.2 1.7-2.7-.3-.9-.5-1 .1h-1.3l-5.1-3.4H831l-1.4-1.3v-2.3l-2.1-.7-2.4-4.4-1.8-.9-.7-1.6-2-2-2.5-.3 1.4-2.3 2.1-.1.6-1.2v-3.6l1.2-4.3 1.9-1.2.4-1.7 1.7-3.1 2.4-2 1.6-4 .6-3.6 4.7.9 1.3-3.2zM437.6 912.3l4.8-3.9 3.4 1.6 2.4-2.6 3.2 2.9-1.2 2.3-5.5 2-1.8-2.3-3.4 3-1.9-3zM800.4 278.3l-.6 7.8 6.2 7.2-3.7 7.9 4.7 11.5-2.7 8.3 3.6 7-1.7 6 6 6.1-1.5 4.5-3.7 5-8.6 10.7-7.3.6-7.1 3-6.6 1.7-2.3-4.4-3.9-2.7.9-8.2-2-7.8 1.9-5.2 3.7-5.7 9.2-10.1 2.7-2-.4-4.1-5.6-4.6-1.4-3.9-.1-16-6.3-7.4-5.4-5.5 2.4-3 4.5 6 5.3-.6 4.3 2.7 3.8-5 2-8.4 6.3-4 5.2 4.7-1.8 7.9zM1413 732.9l-.5 2-.3.2-2.6 1-2.6.9-.5-1.6 2-.9 1.3-.2 2.4-1.3.8-.1zm-8.4 6.2l-1.8-.5-1.6 1.4.4 1.9 2.2.5 2.5-.6.7-2.2-1.4-1.2-1 .7zM723.5 480.6l-1.3 4.2-1.8-1.1-.9-3.6.8-2 2.6-2.1.6 4.6zm-24.1-48l2.8 3 2.1-.5 3.5 2.8.9.5 1.2-.1 1.9 1.6 5.8 1.1-2 4.2-.5 4.3-1.1 1-1.8-.5.1 1.5-3 3.3-.1 2.7 1.9-.9 1.4 2.6-.2 1.6 1.2 2.2-1.4 1.7 1 4.4 2.2.7-.5 2.4-3.7 3.1-8-1.5-5.9 1.8-.5 3.3-4.7.7-4.5-2.5-1.5 1.2-7.4-2.5-1.6-2.1 2.1-3.3.8-11.4-4.2-6.1-3-3-6.2-2.3-.4-4.4 5.2-1.3 6.8 1.6-1.3-7 3.8 2.7 9.4-4.9 1.2-5.2 3.5-1.3.6 2.2 1.9.1 2.2 2.5zM729.7 683.7l-4.2-4.1-2.7-3.3-2.4-4.2.1-1.3.9-1.3 1-2.9.8-3 1.4-.2h5.9v-4.8l1.9-.3 2.5.5 2.4-.5.5.2-.3 1.8 1.1 2.1 3-.3 1 .8-1.7 4.7 1.9 2.4.4 3.1-.5 2.7-1.2 1.9-3.6-.2-2.2-1.9-.3 1.8-2.7.5-1.4 1 1.5 2.7-3.1 2.1zM662 404.9l-2.2 4.7-3.1-1.4-2.5.1.8-3.7-.8-3.7 3.4-.3 4.4 4.3zm10.7-29.9l-4.3 8.3 4.1-1h4.4l-1.1 6.1-3.6 6.5 4.2.5.3.7 3.6 8.3 2.8 1.1 2.5 7.8 1.2 2.7 4.9 1.3-.5 4.2-2.1 1.9 1.6 3.4-3.6 3.4-5.4-.1-6.9 1.7-1.9-1.3-2.7 3-3.7-.7-2.8 2.4-2.1-1.3 5.9-6.7 3.6-1.4-6.3-1.1-1.1-2.6 4.2-2-2.2-3.6.8-4.4 6 .6.6-3.9-2.7-4.3-.1-.1-4.9-1.2-1-1.9 1.5-3.2-1.3-2-2.2 3.4-.2-6.9-2-3.7 1.5-7.7 3.1-6.2 3.2.6 4.7-.6zM852.8 484l.6-2.3-1-3.7-2.3-2-2.2-.6-1.5-1.7.5-.7 3.4 1 6 .9 5.5 2.6.7 1 2.4-.9 3.8 1.2 1.2 2.2 2.6 1.3-1.1.7 2 2.9-.5.6-2.2-.3-3-1.5-1 .9-5.6.8-3.9-2.6-4.4.2zM472.5 657.7l-1.5 1.5-1.9.3-.5-1.1-.9-.2-1.3 1.1-1.8-.8 1-1.7.3-1.8.7-1.7-1.6-2.4-.3-2.8 2.1-3.5 1.4.4 3 1 4.3 3.4.7 1.6-2.4 3.7-1.3 3zM689.2 643.9l-6.3 2.4-2.2 1.4-3.6 1.2-3.6-1.1.2-1.6-1.7-3.5 1.1-4.6 1.7-3.4-1.1-5.8-.6-3.1.1-2.3 7-.2 1.8.3 1.3-.7 1.9.3-.3 1.3 1.7 2.1v3l.4 3.2 1 1.5-.9 3.6.3 2 1.1 2.6.7 1.4zM650.8 636.8l-1.1-.1-.8 1.6h-1.2l-.8-.9.3-1.6-1.7-2.5-1.1.4-.9.1-1.1.2v-1.5l-.6-1.1.1-1.2-.9-1.7-1.1-1.5h-3.2l-.9.8-1.1.1-.7.9-.5 1.1-2.2 1.8-1.8-2.4-1.6-1.6-1-.5-1-.8-.4-1.8-.6-.9-1.2-.7 1.8-2 1.2.1 1.1-.7h.9l.6-.5-.3-1.4.4-.4.1-1.4h1.9l2.9 1 .9-.1.3-.4 2.2.3.6-.2.2 1.5h.6l1.1-.5.7.1 1.1 1 1.7.3 1.1-.9 1.3-.5 1-.6.8.1.9.9.5 1.1 1.7 1.7-.8 1.1-.2 1.3.9-.4.5.5-.2 1.2 1.2 1.2-.8.3-.3 1.4.9 1.7 1 3.3-1.5.5-.4.6.3.8-.2 1.8h-.6z"/><path class="st0" d="M723.2 663.7l-.8-.6 1.4-4.5 6.6.1v4.8h-5.9l-1.3.2zM780.6 514l2.2 1.7 3.1-.3 3 .3-.1.9 2.2-.6-.5 1.5-5.8.4v-.8l-4.9-1 .8-2.1zm11.8-30.2l-1.3 3.4-1 .6-2.5-.1-2.1-.5-4.9 1.4 2.8 3-2 .9h-2.2l-2.1-2.7-.8 1.2.9 3.1 2 2.4-1.5 1.1 2.2 2.4 2 1.5.1 2.9-2-1.7-1.8.3 1.2 2.6-1.3.3-1.4-1 1.7 5.7h-.8l-.6-1.8h-.8l-.4 1.9-.6-.4.1-1.1-.8-1.5h-.9l.2 1.2-.4.4-.9-.8-.5-1.5.7-.8-.5-1.1-.6-.5-.6-.1-.7-1.4.8-.7.5-.7.8.1.4-.6.9-.2 1 .7.8.2.6-.9-1.4-.1-.8-.3-1.8.4-1.8.1-1.6-2.4-.3-.4.2-.9-2-1.7-.3-1.5 1.9-2.5.2-1.7 1.3-.8.1-1.4 2.6-.5 1.5-1.2 2.2.1.7-.9.8-.2 3 .2 3.2-1.5 2.9 1.9 3.7-.5v-2.7l2 1.3zM320.9 612.1l-2.1-.7-2.5-.1-1.8-.8-2.2-1.7.1-1.2.5-1-.6-.8 1.9-3.4h5.2l.1-1.4-.7-.3-.4-.9-1.5-1-1.5-1.4h1.8V595h7.5v3.3l-.3 4.7h1.2l1.3.8.3-.6 1.2.5-1.8 1.6-1.9 1.2-.3.8.3.8-.8 1.1-1 .2.2.5-.7.5-1.4 1-.1.7zM623.7 623.1l-2.2-1.7-1.7-.3-.8-1.1v-.6l-1.2-.9-.3-.9 2.1-.7 1.3.1 1.1-.5 7.5.2-.1 1.4-.4.4.3 1.4-.6.5h-.9l-1.1.7-1.2-.1-1.8 2.1zM443.4 634l2.7 1.5 2.5 2.6.1 2.1 1.5.1 2.2 2 1.6 1.4-.6 3.6-2.4 1.1.2.9-.7 2.1 1.8 2.9h1.3l.5 2.3 2.5 3.5-1 .1-2.2-.3-1.3 1.1-1.8.7-1.3.2-.4.8-2-.2-2.5-1.9-.3-1.9-1-2 .6-3.4 1.1-1.4-.9-1.9-1.4-.6.5-1.8-1-.9-2.1.2-2.7-3.1 1.1-1.1-.1-1.9 2.5-.6 1-.7-1.4-1.5.4-1.5 3-2.5z"/><path class="st0" d="M332.1 615.2l-.7-1.3-1.2-.4.3-1.7-.5-.4-.8-.3-1.8.5-.1-.6-1.2-.7-.9-.8-1.2-.3.8-1.1-.3-.8.3-.8 1.9-1.2 1.8-1.6.4.2.9-.7 1.2-.1.4.3.6-.2 1.9.4 1.9-.1 1.3-.5.5-.5 1.3.2 1 .3 1.1-.1.8-.4 1.8.6.6.1 1.2.8 1.2.9 1.5.6 1.1 1.2-1.4-.1-.6.6-1.4.5h-1l-.9.5-.8-.2-.7-.6-.4.1-.5 1h-.4l-.1.9-1.4 1.1-.7.5-.4.5-1.2-.8-.9 1.1h-.9l-1 .1.1 2h-.6l-.5 1-1.4.3zM761 459.6l1 2.2 1.3 1.6-1.6 2.1-1.8-1.3-2.8.1-3.5-1-1.9.1-.9 1.2-1.5-1.3-.9 2.4 2 2.6.9 1.7 1.9 2.1 1.5 1.2 1.5 2.3 3.6 2.1-.4.9-3.8-2-2.3-2-3.7-1.6-3.4-4.1.8-.4-1.8-2.4-.1-1.9-2.6-.9-1.2 2.5-1.2-1.9.1-2 .1-.1 2.8.2.7-1 1.4.9 1.6.1v-1.6l1.4-.6.4-2.3 3.2-1.6 1.3.7 3 2.5 3.3 1.1 1.6-.6zM389.2 586.1l2.5.2 3.5.7.4 2.3-.3 1.6-1 .7 1 1.3-.1 1.2-2.7-.7-1.9.3-2.5-.3-1.9.8-2.2-1.3.4-1.4 3.7.6 3.1.3 1.5-1-1.8-1.8V588l-2.6-.7.9-1.2z"/><path class="st0" d="M750.3 454.1l1.3-3.8-.8-1.3h2.3l.3-2.5 2.1 1.5 1.5.7 3.4-.7.3-1.2 1.6-.2 2-.9.4.4 1.9-.7 1-1.4 1.3-.4 4.3 1.8.9-.6 2.2 1.6.3 1.6-2.5 1.3-1.9 4-2.4 4-3.2 1.1-2.5-.2-3.1 1.5-1.5.9-3.3-1.1-3-2.5-1.3-.7-.8-2-.8-.2zM1172.6 709.1l-1.7.1-5.4-2.9 3.8-.8 2.1 1.2 1.4 1.2-.2 1.2zm15-.4l-3.5.9-.5-.5.4-1.4 1.7-2.5 4-1.6.4.8.1 1.2-2.6 3.1zm-26.4-8.4l1.5 1.1 2.5-.3 1 1.7-4.7.8-2.8.5h-2.2l1.4-2.3h2.2l1.1-1.5zm20.3 0l-.6 2.2-6.1 1.2-5.4-.5v-1.5l3.2-.9 2.5 1.2 2.7-.3 3.7-1.4zm-57.7-5.3l7.7.4.9-1.7 7.5 1.9 1.5 2.6 6.1.7 5 2.4-4.6 1.5-4.4-1.6-3.7.1-4.2-.3-3.8-.7-4.7-1.5-3-.4-1.7.5-7.4-1.7-.7-1.7-3.7-.3 2.8-3.9 4.9.2 3.3 1.6 1.7.3.5 1.6zm105.4-2.3l-2.1 2.8-.4-3 .7-1.5.9-1.4.9 1.2v1.9zm-30.2-11.1l-1.5 1.3-2.8-.7-.8-1.7 4.1-.2 1 1.3zm13-1.4l1.5 3.1-3.4-1.7-3.4-.3-2.3.3-2.8-.1 1-2.2 5-.2 4.4 1.1zm14.9-7.8l1.1 6.5 4.2 2.4 3.4-4.3 4.6-2.4h3.6l3.5 1.4 3 1.4 4.3.8.1 13.1.1 13.2-3.6-3.3-4.1-.8-1 1.2-5.1.1 1.7-3.3 2.6-1.1-1.1-4.4-1.9-3.4-7.8-3.4-3.3-.3-6.1-3.7-1.2 2-1.6.4-.9-1.5v-1.7l-3.1-2 4.4-1.4 2.9.1-.3-1.1h-5.9l-1.6-2.4-3.6-.7-1.7-2 5.4-1 2.1-1.3 6.5 1.6.4 1.3zm-36-10.4l-3.2 4-3 .8-3.9-.8-6.7.2-3.5.6-.6 3 3.6 3.6 2.2-1.8 7.5-1.4-.3 1.8-1.8-.6-1.8 2.3-3.6 1.6 3.8 5.1-.7 1.4 3.6 4.6v2.7l-2.2 1.2-1.6-1.4 2-3.3-4 1.6-1-1.1.5-1.6-2.9-2.4.3-3.9-2.7 1.2.3 4.7.2 5.8-2.6.6-1.7-1.2 1.2-3.7-.6-3.9h-1.7l-1.3-2.8 1.7-2.6.6-3.2 2-6.1.9-1.7 3.4-3 3.2 1.2 5.1.6 4.6-.2 4-2.9.7 1zm13.9 1.2l-.2 3.5-2.1-.4-.6 2.4 1.7 2.1-1.1.5-1.6-2.5-1.2-5.1.8-3.2 1.3-1.5.3 2.2 2.4.3.3 1.7zm-43.7-2.8l4.5 3.7-4.8.5-1.4 2.7.2 3.6-3.9 2.8-.1 4-1.6 6.2-.6-1.4-4.6 1.8-1.6-2.5-2.9-.2-2-1.3-4.8 1.4-1.5-1.9-2.7.2-3.3-.5-.6-5.4-2-1.1-1.9-3.4-.6-3.5.5-3.7 2.4-2.7.7 2.7 2.8 2.3 2.6-.8 2.6.3 2.3-2 1.9-.3 3.8 1.1 3.3-.9 2.1-5.6 1.6-1.4 1.4-4.6h4.6l3.5.7-2.3 3.6 3 3.8-.6 1.8zm-48.7 30.9l-4.5.1-3.4-3.4-5.2-3.3-1.7-2.4-3.1-3.3-2-3-3.1-5.6-3.5-3.3-1.2-3.4-1.5-3.1-3.6-2.5-2.1-3.4-3-2.2-4.2-4.4-.4-2 2.6.2 6.3.8 3.6 3.9 3.1 2.7 2.2 1.7 3.8 4.3 4.1.1 3.4 2.8 2.3 3.4 3.1 1.8-1.6 3.3 2.3 1.4 1.5.1.7 2.8 1.4 2.2 3 .4 2 2.5-1 5-.3 5.8zM659.8 409.7l.7 4.8-3.1 5.9-7.2 3.9-5.7-1 3.3-6.9-2.1-6.9 5.5-5.4 3.1-3.3.8 3.7-.8 3.7 2.5-.1 3 1.6zM829.2 528.6l-.7 1.5-1.5-.7-.8 3.2 1 .5-1 .7-.2 1.2 1.9-.6.1 1.8-2 7.4-2.7-8 1.2-1.6-.3-.3 1.1-2.2.8-3.6.6-1.2h1.5l.4-.8 1.1-.1.1 2-.6.8zM902.7 506.6l3.6-1 2.9-2.9 2.7.1 1.8-1 2.9.5 4.5 2.6 3.2.6 4.6 4.5 3 .2.4 4.2-1.6 6.1-1.1 3.5 1.8.7-1.7 2.6 1.3 3.8.3 3 3.1.8.3 3-3.7 4.2 2 2.4 1.6 2.8 3.9 2 .1 4 1.9.7.3 2.1-5.8 2.3-1.5 5.2-7.6-1.3-4.4-1-4.6-.6-1.7-5.5-1.9-.8-3.1.8-4.1 2.2-4.9-1.5-4.1-3.5-3.9-1.3-2.7-4.3-3-6.2-2.2.7-2.6-1.5-1.5 1.8-2.2-2.4v-2.5h-1.3l.7-3.4-2.1-3.6-4.9-2.6-2.8-4.6.9-3.8 2-1.7-.3-2.9-2.6-1.5-2.6-6-2.2-4.1.8-1.6-1.3-5.9 2.8-1.5.6 2 2 2.4 2.8.7 1.5-.1 4.8-3.8 1.5-.4 1.2 1.5-1.4 2.6 2.5 2.7 1-.2 1.3 3.8 3.8 1.1 2.8 2.5 5.7.9 6.3-1.3.2-1.3zM626.3 306.1l-.9 6.5 4.6 6.6-5.2 7.2-11.7 6.3-3.5 1.7-5.3-1.3-11.3-2.9 4-4.1-8.8-4.6 7.1-1.8-.2-2.8-8.5-2.3 2.7-6.4 6.1-1.5 6.3 6.7 6.1-5.4 5.1 2.8 6.6-5.3 6.8.6zM747.6 501.3l-1.5 4 .6 1.6-.9 2.6-3.1-1.9-2.1-.5-5.6-2.6.6-2.6 4.7.5 4.1-.6 3.2-.5zm-25.5-15.6l2.4 3.8-.6 6.9-1.8-.3-1.6 1.7-1.5-1.4-.2-6.3-.9-3 2.2.3 2-1.7zm12.8-31.1l5.8 1.5-.4 2.9 1 2.5-3.2-.8-3.3 2 .2 2.8-.5 1.6 1.3 2.9 3.8 2.8 2 4.6 4.5 4.4h3.2l1 1.2-1.1 1.1 3.6 1.9 3 1.6 3.5 2.8.4 1-.7 1.9-2.2-2.4-3.5-.9-1.7 3.4 2.9 1.9-.5 2.7-1.7.3-2.2 4.4-1.7.4v-1.6l.8-2.8.9-1.1-1.6-3-1.2-2.6-1.7-.7-1.2-2.3-2.6-1-1.7-2.1-3-.3-3.2-2.4-3.7-3.5-2.8-3.2-1.3-5.5-2-.6-3.3-1.9-1.9.8-2.3 2.6-1.7.4.5-2.4-2.2-.7-1-4.4 1.4-1.7-1.2-2.2.2-1.6 1.7 1.2 1.9-.3 2.3-2 .7.9 1.9-.2.9-2.3 3 .7 1.8-1 .3-2.4 2.4.8.5-1.1 4-1 .9 2zM371.5 592.2l2.7.4 2.1 1 .7 1.2-2.8.1-1.2.7-2.3-.7-2.3-1.5.5-1 1.7-.3.9.1z"/><path class="st0" d="M828.5 530.1l.7-1.5 4.5 1.9 7.9-5.1 1.6 5.8-.8.7-8.1 2.4 4 4.7-1.3.8-.7 1.6-3.1.6-1 1.7-1.8 1.4-4.5-.7-.1-.7 2-7.4-.1-1.8.6-1.4v-3zM1228.9 521.7l.5 1.7-2.3 2.9-1.7-1.5-2.1 1.1-1.1 2.8-2.6-1.4V525l2.2-2.9 2.3.6 1.7-2 3.1 1zm25.6-14.9l-1.5 4 .7 2.5-2.1 3.5-5.2 2.3-7.1.3-5.8 5.5-2.7-1.9-.2-3.6-7 1.1-4.8 2.3-4.7.1 4.1 3.5-2.7 8.1-2.6 2-2-1.8 1-4.3-2.6-1.4-1.6-3.3 3.8-1.5 2.1-3 4.1-2.5 3-3.4 8-1.5 4.3 1 4.2-8.9 2.7 2.4 5.9-5.1 2.3-2 2.5-6.3-.7-5.9 1.7-3.4 4.3-1 2.2 7.4-.1 4.2-3.7 5.2.2 5.4zm11.8-37.3l2.8 1.2 2.9-2.4.9 6.3-6 1.5-3.5 5.4-6.4-3.7-2.2 5.9-4.5.1-.6-5.4 2-4.2 4.3-.3 1.2-7.8 1.2-4.5 4.7 5.9 3.2 2zM850.5 671.2l2.4 3.3-2.8 1.6-1 1.7-1.5.3-.6 2.8-1.3 1.6-.8 2.7-1.6 1.3-5.8-4-.3-2.3-14.6-8.2-.7-.4v-4.3l1.2-1.6 2-2.7 1.5-2.9-1.8-4.6-.5-2-1.9-2.8 2.5-2.4 2.7-2.7 2.1.7v2.3l1.4 1.3h2.8l5.1 3.4h1.3l1-.1.9.5 2.7.3 1.2-1.7 3.7-1.7 1.6 1.4h2.8l-3.5 4.6-.2 14.6zM971.6 480l.9-2.4 2.7-.8 6.7 1.9.6-3.2 2.3-1.2 5.8 2.3 1.5-.6 6.7.1 6 .6 2 2 2.5.8-.6 1.2-6.4 2.9-1.4 2.1-5.2.6-1.5 3.4-4.3-.7-2.8 1-3.9 2.5.6 1.2-1.2 1.2-7.6.8-5-1.7-4.4.4.4-3 4.4.9 1.5-1.6 3.1.5 5.2-3.8-4.8-2.8-2.9 1.3-3-2 3.4-3.5-1.3-.4zM1103 624.8l-1.6-2.1-2-4.2-1-5 2.6-3.4 5.2-.8 3.8.6 3.3 1.6 1.8-2.9 3.6 1.5.9 2.8-.5 4.9-6.8 3.2 1.8 2.5-4.2.3-3.5 1.6-3.4-.6zM1212.7 479.3l.6 1-1.5-.3-1.8 1.8-1.2 1.8.2 3.8-2.1 1.2-.7.9-1.5 1.6-2.7.9-1.7 1.4-.1 2.3-.5.6 1.6.8 2.3 2.3-.6 1.2-1.7.3-2.9.2-1.6 2.3-1.8-.2-.2.5-2-1-.5 1-1.2.4-.1-1-1.1-.5-1.1-.8 1.1-2.3 1-.6-.4-.9 1-2.8-.3-.9-2.3-.6-1.9-1.4 3.3-3.4 4.5-2.9 2.8-3.8 1.9 1.7 3.5.2-.6-2.8 6.2-2.3 1.6-3.1 2.5 3.4z"/><path class="st0" d="M1203.5 499.3l3.5 6 1 3.3v5.7l-1.5 2.7-3.7 1-3.2 2-3.6.4-.4-2.7.7-3.7-1.8-5.2 3-.9-2.8-4.3.2-.5 1.8.2 1.6-2.3 2.9-.2 1.7-.3.6-1.2zM768.8 481.2l-.2 1.1h-.5l-.3-2-1-.5-.9-1.5.7-1.2 1-.4.6-1.8.7-.3.6.8.8.3.5.9.7.3.8 1h.6l-.5 1.3-.5.6.1.4-.9.2-2.3.8zM878.7 541.5l.8 2-.4 1.1 1.3 3.5-2.9.1-1-2.2-3.6-.4 3-4.4 2.8.3zM971.6 480l-2.3 1-5.3 3.8-1.8 3.8h-1.5l-1.1-2.5-5.1-.2-.8-4.4h-2l.3-5.5-4.8-4-6.9.4-4.7.8-3.9-5-3.3-2.1-6.3-4.1-.7-.5-10.4 3.4.2 20.4-2.1.3-2.8-4.2-2.7-1.5-4.6 1.1-1.8 1.8-.2-1.3 1-2.3-.8-1.9-4.7-1.9-1.8-5-2.2-1.4-.1-1.8 3.9.5.2-4.2 3.4-.9 3.5.9.7-5.6-.7-3.6-4 .3-3.4-1.4-4.7 2.6-3.8 1.2-2.1-1 .4-3-2.6-4-3 .2-3.4-4.1 2.3-4.6-1.2-1.3 3.2-6.9 4.2 3.6.5-4.6 8.3-7 6.3-.2 8.9 4.5 4.8 2.6 4.3-2.7 6.4-.1 5.2 3.3 1.2-1.9 5.7.3 1-3-6.6-4.5 3.9-3.2-.7-1.8 3.9-1.7-2.9-4.6 1.8-2.3 15.1-2.4 2-1.7 10.1-2.6 3.6-2.9 7.3 1.5 1.3 7.2 4.2-1.7 5.2 2.3-.3 3.7 3.9-.4 10.1-6.5-1.5 2.2 5.2 5.3 9 16.7 2.2-3.4 5.6 3.7 5.8-1.6 2.2 1.2 1.9 3.7 2.8 1.2 1.7 2.7 5.2-.8 2.1 3.8-3.1 4.1-3.4.6-.2 6-2.2 2.7-8-1.9-2.9 10.5-2.1 1.3-8 2.3 3.6 9.7-2.8 1.4.3 3.1-2.5-.8-2-2-6-.6-6.7-.1-1.5.6-5.8-2.3-2.3 1.2-.6 3.2-6.7-1.9-2.7.8-.8 1.9zM1110 609.8l1.3-1.9.2-3.5-3.3-3.6-.3-4.1-3.1-3.4-3.1-.3-.8 1.5-2.4.1-1.2-.7-4.3 2.5-.1-3.8 1-4.5-2.7-.2-.2-2.6-1.8-1.3.9-1.6 3.4-2.8.4 1 2.1.1-.6-4.9 2.1-.6 2.4 3.4 1.8 3.9h5l1.6 3.7-2.6 1.1-1.2 1.5 4.8 2.5 3.4 5 2.6 3.7 3.1 2.9 1 2.9-.7 4.2-3.6-1.5-1.8 2.9-3.3-1.6zM829.6 525.9l-1.1.1-.4.8h-1.4l1.4-3.9 2-3.4.1-.2 1.8.3.7 1.9-2.2 1.8-.9 2.6zM1015.3 637.5l-.6 4.2-1.7 1.2-3.5.9-1.9-3.2-.7-5.8 1.8-6.6 2.8 2.3 1.9 2.9 1.9 4.1zM653.7 650.2h-1.1l-4.2-1.9-3.7-3.1-3.4-2.2-2.7-2.6 1-1.3.2-1.2 1.8-2.2 1.9-1.9.9-.1 1.1-.4 1.7 2.5-.3 1.6.8.9h1.2l.8-1.6 1.1.1-.2 1.2.4 2-.9 1.8 1.2 1.1 1.3.3 1.7 1.7.1 1.6-.4.5-.3 3.2zM802 789.3l1.4 1.4-1.2 2.2-.7 1.5-2.2.7-.7 1.5-1.4.5-3-3.6 2.1-2.9 2.2-1.8 1.9-.9 1.6 1.4zM776.7 406.5l-.3-1.8.4-1.9-1.8-1.1-4.2-1.2-.9-6 4.6-2.2 6.8.5 4-.7.6 1.5 2.1.5 3.9 3.5.4 3.2-3.3 2.3-.9 3.9-4.4 2.6-3.9-.1-1-2.1-2.1-.9zM709.3 434.2l.8 1.4-.2 2.7-1.2.1-.9-.5.4-3.5 1.1-.2zM649.9 552.1v-5.4l6.5-3.4 4-.7 3.3-1.2 1.6-2.3 4.7-1.9.2-3.5 2.3-.4 1.8-1.7 5.3-.8.7-1.8-1.1-1-1.4-5.1-.2-3-1.5-3.1-1.8-.1-4.2-1.1-3.8.3-2.4-2.1h-3l-1.3 3-2.7 5.1-3 2-4 2.2-2.6 3.2-.5 2.5-1.5 4.1 1 5.8-3.4 3.9-2 1.2-3.2 3.1-3.8.5-1.9 1.6h5.2l12.7.1-12.6-.1h-5.2l17.8.1zM792.4 445.9l1-.9 2.7-.6 3 1.9 1.7.2 1.8 1.6-.3 2 1.5 1 .6 2.5 1.4 1.5-.3.9.7.6-1.1.4-2.4-.2-.4-.8-.9.5.3 1-1.1 1.9-.7 2-1 .6-.7-2.6.4-2.5-.1-2.6-2.3-3.5-1.3-2.5-1.3-1.8-1.2-.6z"/><path class="st0" d="M764.9 478.7l-.2-1-1.8 2.7.3 1.7-.9-.4-1.1-1.8-1.8-1.1.4-.9.6-3 1.3-1.3.8-.5 1.1 1 .6.8 1.3.6 1.5 1.1-.3.5-.7 1.2-1.1.4zM885.1 718.2l1.1 1.7 1 2.7.7 5 1 1.9-.4 2-.7 1.2-1.4-2.4-.7 1.2.8 3.1-.4 1.8-1.1 1-.3 3.6-1.6 4.9-2 5.9-2.5 8.2-1.5 6.1-1.8 5.1-3.3 1.1-3.5 1.9-2.5-1.2-3.2-1.6-1.1-2.3-.3-3.9-1.4-3.5-.4-3.1.7-3.1 1.9-.7v-1.4l1.9-3.3.4-2.7-.9-2-.8-2.7-.3-3.9 1.4-2.3.5-2.7 2-.1 2.3-.9 1.5-.7 1.8-.1 2.3-2.4 3.3-2.6 1.2-2.1-.5-1.8 1.7.5 2.2-2.9.1-2.5 1.3-1.8 1.5 1.8zM768.1 482.2h.5l.2-1.1 2.4-.9.9-.2 1.4-.3 1.9-.1 2 1.7.3 3.6-.8.2-.7.9H774l-1.5 1.2-2.6.5-1.7-1.3-.6-2.3.5-1.9zM635.7 608.4l1.4-.7.7-2.4 1.3-.1 2.8 1.2 2.3-.8 1.6.3.6-.9 16.2-.1.9-2.9-.7-.5-1.9-18.3-1.9-18.8 6.2-.1 13.6 9.6 13.6 9.4 1 2 2.5 1.2 1.9.7v2.7l4.5-.4v9.7l-2.2 2.8-.3 2.6-3.6.6-5.5.4-1.7 1.4-2.6.2h-2.6l-1-.8-2.2.6-3.8 1.7-.8 1.3-3.1 1.8-.5 1.1-1.7.8-2-.5-1.1 1-.6 2.8-3.2 3.4.1 1.4-1.1 1.7.3 2.4-1.7.6-.9.5-.6-1.7-1.2.5-.7-.1-.7 1.2h-3.1l-1.1-.6-.5.4-1.2-1.2.2-1.2-.5-.5-.9.4.2-1.3.8-1.1-1.7-1.7-.5-1.1-1-1-.8-.1-1 .6-1.3.5-1.1.9-1.7-.3-1.1-1-.7-.1-1.1.5h-.6l-.2-1.5.2-1.3-.3-1.6-1.5-1.2-.8-2.4-.3-2.6zM1087.1 585l-2.4 1.8-2.9.2-1.8 4.6-1.7.8 2 3.7 2.6 3.1 1.6 2.8-1.5 3.6-1.4.8 1 2.1 2.7 3.3.5 2.3-.1 1.9 1.6 3.7-2.2 3.8-2 4.2-.4-3 1.2-3.1-1.4-2.4.3-4.5-1.6-2.1-1.3-5-.7-5.3-1.7-3.5-2.7 2.1-4.6 3-2.3-.4-2.5-1 1.4-5.2-.8-3.9-3.2-4.9.5-1.5-2.4-.5-2.9-3.5-.3-3.5 1.4.7.1-3.1 2-1-.4-1.8.9-1.5.2-4.5 3.2 1 1.8-3.6.2-2.2 2.2-3.7-.1-2.6 5.2-3.1 2.9.8-.3-2.8 1.4-.8-.3-1.7 2.4-.3 1.4 2.7 1.8 1.1.1 3.5-.2 3.7-3.8 3.7-.5 5.2 4.3-.7 1 4 2.6.9-1.2 3.6 3 1.6 1.8.8 3-1.3.1 1.8-3.4 2.8-.9 1.6-2.5.7zM1039.4 439.3l4.3-1.1 7.7-5.4 6.2-3 3.5 1.9 4.2.1 2.7 3 4 .2 5.9 1.6 3.9-4.4-1.6-3.7 4.2-6.7 4.5 2.7 3.7.8 4.8 1.7.8 4.8 5.7 2.7 3.8-1.2 5.1-.8 4 .8 4 3 2.4 3.2 3.7-.1 5.1 1 3.7-1.5 5.3-1 5.9-4.4 2.4.7 2.1 2.1 4.8-.5-2 4.7-2.9 6.1 1 2.5 2.3-.8 4 .9 3.1-2.2 3.2 1.9 3.7 4.2-.4 2.1-3.2-.7-5.9.8-2.9 1.7-3 3.8-6.2 2.2-4 3-4.2-1.2-2.3-.5-2.1 3.7 1.3 2.2.7 1.8-2.8 1.9-2.9 3-4.7 1.9-6.1.2-6.5 1.9-4.7 2.9-1.8-1.7h-4.9l-6-3.3-4-.8-5.4.8-8.3-1.2-4.5.1-2.4-3.3-1.8-5.1-2.5-.6-4.9-3.5-5.4-.8-4.8-1-1.5-2.5 1.6-6.8-2.8-4.8-5.8-2.3-3.4-3.2-.7-4.5z"/><path class="st0" d="M635.7 608.4l-2.7-2.9-2.4-3.1-2.7-1.1-1.9-1.2h-2.3l-2 .9-2-.4-1.4 1.3-.3-2.2 1.1-2.1.5-4-.4-4.2-.5-2.1.4-2.1-1-2-2.1-1.8.9-1.4h15.8l-.8-6.3 1-2.2 3.8-.4-.1-11.3 13.3.2v-6.8l15.2 10.9-6.2.1 1.9 18.8 1.9 18.3.7.5-.9 2.9-16.2.1-.6.9-1.6-.3-2.3.8-2.8-1.2-1.3.1-.7 2.4-1.3.9zM824.5 714.3l-1.1 3.1 1.1 5.4 1.4-.1 1.5 1.3 1.7 3 .3 5.4-1.7.9-1.2 2.9-2.6-2.6-.3-2.9.9-1.9-.2-1.7-1.6-1.1-1.1.4-2.3-2-2.1-1.1 1.2-3.8 1.3-1.4-.8-3.4.8-3.3.7-1.1-1-3.5-1.9-1.8 3.9.7.8 1.1 1.4 1.9.9 5.6zM292.4 560.1l-1.6 3.9-.7 3.2-.3 5.9-.4 2.1.7 2.4 1.3 2.1.8 3.3 2.7 3.2.9 2.4 1.6 2.1 4.3 1.1 1.7 1.8 3.5-1.2 3.1-.4 3-.8 2.6-.7 2.6-1.7 1-2.5.3-3.6.7-1.3 2.7-1.1 4.3-1 3.6.1 2.4-.4 1 .9-.1 2.1-2.2 2.6-1 2.6.7.7-.6 1.8-1 3.3-1-1.1-.9.1-.8.1-1.4 2.6-.7-.5-.5.2v.6h-7.5v2.4h-1.8l1.5 1.4 1.5 1 .4.9.7.3-.1 1.4h-5.2l-1.9 3.4.6.8-.5 1-.1 1.2-4.6-4.5-2.1-1.4-3.3-1.1-2.2.3-3.3 1.6-2 .4-2.9-1.1-3-.8-3.8-1.9-3-.6-4.6-1.9-3.4-2-1-1.1-2.3-.2-4.1-1.3-1.7-1.9-4.3-2.4-2-2.7-1-2.1 1.3-.4-.4-1.2.9-1.1v-1.5l-1.4-1.9-.4-1.7-1.4-2.2-3.6-4.4-4.1-3.4-2-2.8-3.5-1.8-.7-1.1.6-2.8-2.1-1.1-2.4-2.2-1-3.2-2.2-.4-2.3-2.4-1.9-2.2-.2-1.4-2.2-3.5-1.4-3.6.1-1.8-2.9-1.9-1.3.2-2.3-1.3-.6 1.9.7 2.2.4 3.5 1.4 1.9 3 3.2.7 1.1.6.3.5 1.6.7-.1.8 2.9 1.2 1.2.9 1.6 2.6 2.3 1.3 4.2 1.2 1.9 1.1 2.1.2 2.3 1.9.1 1.6 2 1.5 2-.1.8-1.7 1.6h-.7l-1.1-2.7-2.6-2.5-2.9-2.1-2.1-1.1.1-3.2-.6-2.4-1.9-1.4-2.8-2-.5.6-1-1.2-2.5-1.1-2.4-2.6.3-.3 1.7.3 1.5-1.7.2-2.1-3.1-3.3-2.4-1.3-1.5-2.9-1.5-3.1-1.9-3.8-1.6-4.3 4.6-.4 5.1-.5-.4.9 6.1 2.3 9.2 3.3h11.2v-1.9h7l1.5 1.7 2.1 1.5 2.4 2.1 1.3 2.4 1 2.5 2.1 1.4 3.4 1.4 2.5-3.6 3.3-.1 2.8 1.8 2 3.1 1.4 2.7 2.4 2.6.9 3.2 1.1 2.1 3.1 1.4 2.9 1 1.9-.2zM1093.3 642.8l.3 2.1 2.7-.5 1.3-1.7.9.4 2.4 2.4 1.7 2.7.2 2.7-.4 1.8.4 1.4.3 2.4 1.4 1.1 1.6 3.5-.1 1.4-2.9.3-3.8-3-4.8-3.2-.5-2-2.3-2.7-.6-3.3-1.5-2.2.4-2.9-.9-1.7.7-.7 3.5 1.7zm70.8 6.9l-3 1.4-3.5-.7h-4.6l-1.4 4.6-1.6 1.4-2.1 5.6-3.3.9-3.8-1.1-1.9.3-2.3 2-2.6-.3-2.6.8-2.8-2.3-.7-2.7 3 1.4 3.1-.7.8-3.4 1.7-.8 4.8-.9 2.9-3.2 2-2.6 1.8 2.1.9-1.4 1.9.1.2-2.6.2-2 3.1-2.8 2-3.2h1.6l2.1 2 .2 1.8 2.7 1.1 3.4 1.2-.3 1.6-2.7.2.8 2.2z"/><path class="st0" d="M824.5 714.3l3-.3 4.9 1.2 1.1-.5 2.8-.1 1.4-1.2 2.4.1 4.4-1.6 3.2-2.4.7 1.8-.2 4.1.5 3.6.2 6.5.7 2-1.2 3-1.6 2.9-2.6 2.6-3.7 1.6-4.6 2-4.6 4.5-1.6.8-2.8 3-1.7 1-.3 3.1 1.9 3.2.8 2.5.1 1.3.7-.2-.1 4.3-.6 2 1 .7-.6 1.8-1.7 1.6-3.3 1.5-4.9 2.4-1.8 1.7.3 1.9 1 .3-.3 2.4h-3.1l-.3-2-.6-2-.3-1.6.7-4.9-1.1-3.1-1.9-6.1 4.3-4.9 1.1-3.1.6-.4.4-2.5-.6-1.3.2-3.2.8-2.9v-5.3l-2.1-1.4-1.9-.3-.9-1-1.9-.9-3.4.1-.3-1.6-.4-3 12.3-3.4 2.3 2 1.1-.4 1.6 1.1.2 1.7-.9 1.9.3 2.9 2.6 2.6 1.2-2.9 1.7-.9-.3-5.4-1.7-3-1.5-1.3-1.4.1-1.1-5.4 1.4-3.3zM750.9 787.6l-3-3.4-1.6-3.3-.9-4.4-1-3.2-1.4-6.8-.1-5.2-.5-2.4-1.6-1.8-2.1-3.6-2.1-5.1-.9-2.7-3.3-4.1-.2-3.2 1.9-.8 2.4-.7 2.6.1 2.4 1.9.6-.3 16.4-.2 2.8 2 9.8.6 7.4-1.7 3.3-1 2.6.2 1.6 1v.3l-2.3 1h-1.2l-2.6 1.7-1.6-1.7-6.2 1.5-3 .1-.1 15.2-4 .2V787.2l-3.6 2.3-2.2.3-2.6-.9-1.8-.3-.7-2-1.6-1.3-1.6 2.3zM1354.7 754.3l3.3 2.7 2.1 2-1.5 1.1-2.2-1.2-2.9-1.9-2.6-2.3-2.7-3-.6-1.5 1.7.1 2.3 1.5 1.8 1.5 1.3 1zM693.6 619.5l.1-2.8-4.7-.9-.1-2-2.3-2.7-.5-1.9.3-2 2.6-.2 1.5-1.5 5.5-.4 3.6-.6.3-2.6 2.2-2.8v-9.7l5.7-1.9 11.7-8.4 13.8-8.3 6.4 1.9 2.3 2.4 2.9-1.6 1 6.7 1.5 1.1.1 1.4 1.7 1.5-.9 1.8-1.6 8.6-.2 5.5-5.2 3.9-1.7 5.5 1.7 1.5v2.7l2.6.1-.4 1.9-1.1.2-.1 1.3-.8.1-2.7-4.5-1-.2-3.2 2.3-3.1-1.2-2.2-.2-1.2.6-2.4-.1-2.4 1.8-2.1.1-4.9-2.1-1.9 1-2.1-.1-1.5-1.6-4.1-1.5-4.3.5-1.1.9-.6 2.4-1.2 1.7-.3 3.7-3.1-2.4h-1.5l-1 1.1z"/><path class="st0" d="M719.2 648.6L715 650l-1.5-.2-1.6.9-3.2-.1-2.2-2.5-1.3-2.9-2.9-2.7h-6.6l.2-6.5-.1-2.6.8-2.6 1.2-1.3 2-2.5-.4-1.1.8-1.6-.9-2.4.2-1.4.3-3.7 1.2-1.7.6-2.4 1.1-.9 4.3-.5 4.1 1.5 1.5 1.6 2.1.1 1.9-1 4.9 2.1 2.1-.1 2.4-1.8 2.4.1 1.2-.6 2.2.2 3.1 1.2 3.2-2.3 1 .2 2.7 4.5.8-.1 1.6 1.6-.4.7-.2 1.4-3.4 3.2-1.1 2.6-.6 2.1-.9.9-.8 2.8-2.2 1.7-.6 2-.9 1.6-.4 1.7-2.8 1.4-2.3-1.7-1.5.1-2.4 2.4h-1.2l-1.9 3.9-1.4 3.3zM338.6 623l-1.4-1.3-1.9-1.7-.9-1.4-1.7-1.3-2-1.9.4-.6.7.6.3-.3 1.3-.2.5-1h.6l-.1-2 1-.1h.9l.9-1.1 1.2.8.4-.5.7-.5 1.4-1.1.1-.9h.4l.5-1 .4-.1.7.6.8.2.9-.5h1l1.4-.5.6-.6 1.4.1-.3.4-.2.9.4 1.5-.9 1.4-.4 1.7-.1 1.8.2 1.1.1 1.9-.6.4-.4 1.8.3 1.1-.8 1.1.2 1.1.6.7-1 .9-1.2-.3-.7-.8-1.3-.3-.9.5-2.7-1.1-.8.5zM709.4 412.1l3.4.2.8 2.3-1 6.1-1 2.5h-2.4l.7 6.8-2.2-1.5-2.6-2.8-3.7 1.3-3-.5 2.1-1.8 3.5-9.7 5.4-2.9zM798.7 253.1l12.6 9-5.2 3.2 4.4 7.4-6.9 4.6-3.3 1 1.7-8.1-5.2-4.7-6.3 4-2 8.4-3.8 5-4.3-2.7-5.3.5-4.5-6-2.4 3-2.5.5-.6 7.3-7.6-1.8-1.1 6.1h-3.9l-2.7 7.6-4 11.3-6.3 13.7 1.5 3.2-1.4 3.7-4-.2-2.6 8.5.2 11.6 2.6 4.3-1.3 9.7-3.4 5.5-1.8 4.5-2.7-4.8-8 9-5.4 1.8-5.6-3.9-1.4-8.4-1.3-19.1 3.7-5.6 10.7-7.5 8-9.5 7.4-13.4 9.7-19.8 6.8-8.2 11.1-14.3 8.9-5.2 6.6.6 6.2-10.1 7.4.5 7.3-2.2zM1040.9 551.1l-.3 1.9.5 2.9-.5 1.8-3.4.1-4.9-1.1-3.1-.4-2.3-2.3-5.5-.6-5.3-2.6-3.8-2.2-3.9-1.7 1.6-4.3 2.6-2.1 1.7-1.1 3.2 1.4 4.1 3 2.3.7 1.4 2.2 3.1.9 3.3 2 4.6 1.1 4.6.4zM1383.9 848.2l.9 2.2 2.9-2.2 1.2 2.3v2.3l-1.5 2.5-2.6 4-2.1 2.2 1.5 2.7-3.1.1-3.5 2.1-1.1 3.7-2.3 5.8-3.2 2.6-2 1.7-3.7-.1-2.6-1.9-4.4-.4-.7-2.1 2.2-4.3 5.1-5.6 2.6-1.1 2.9-2.1 3.5-2.9 2.4-2.9 1.8-4 1.5-1.4.6-3 2.8-2.4.9 2.2zm6.5-24.5l2.9 5.3.1-3.4 1.8 1.4.6 3.8 3.3 1.7 2.7.4 2.3-1.9 2 .6-1 4.5-1.2 3-3.1-.1-1.1 1.6.4 2.2-.6 1-1.5 2.8-2 3.6-3.1 2.1-.7-1.4-1.7-.8 2.3-4.4-1.3-2.9-4.4-2.1.1-1.9 2.9-1.8.7-3.9-.2-3.3-1.6-3.4.1-.9-1.9-2.1-3.2-4.4-1.7-3.5 1.5-.4 2.2 2.7 3.1 1.3 1.3 4.6zM922.7 581l-1.5 2.9-1.8-.2-.8 1-.6 2.2.5 2.9-.4.5h-1.9l-2.5 1.6-.4 2.1-.9.9h-2.5l-1.6 1.1v1.7l-2 1.2-2.2-.4-2.7 1.4-1.9.2-1.3-2.9-3.2-7 12.1-4.3 2.7-8.6-1.9-3.1.1-1.8 1.2-1.8v-1.8l1.8-.9-.7-.6.3-2.9h2.1l1.8 3 2.3 1.6 3 .6 2.4.8 1.8 2.5 1.1 1.4 1.4.5v1l-1.5 2.6-.6 1.2-1.7 1.4zm-10-21l-.5.8-.8-1.5 1.2-1.5.5.4-.4 1.8zM370.2 638.7l-1.3-1.2-.9-2.2 1-1.1-1-.3-.7-1.3-2-1.1-1.8.3-.8 1.4-1.6 1-.9.1-.4.9 1.9 2.2-1.1.5-.6.6-1.9.2-.7-2.4-.5.7-1.3-.2-.8-1.6-1.7-.3-1.1-.5h-1.7l-.1.9-.5-.6.2-.8.3-.8-.2-.7.6-.5-.8-.6v-1.6l1.6-.4 1.4 1.5-.1.9 1.6.2.4-.3 1.1 1 2-.3 1.7-1 2.4-.8 1.4-1.2 2.2.2-.2.4 2.3.1 1.8.7 1.3 1.2 1.5 1.1-.5.6.9 2.4-.6 1-1.3-.3-.5 2zM403.7 739.4l-1.1 2.2-2.1 1.1-4-2.4-.4-1.7-8-4.2-7.2-4.6-3.1-2.6-1.7-3.4.7-1.2-3.4-5.4-4-7.6-3.8-8.1-1.7-1.9-1.3-3-3.1-2.7-2.9-1.6 1.3-1.8-2-3.8 1.3-2.8 3.2-2.6.5 1.7-1.2 1 .1 1.5 1.7-.3 1.6.4 1.7 2 2.3-1.7.8-2.7 2.5-3.5 4.9-1.6 4.4-4.2 1.3-2.6-.6-3 1.1-.4 2.7 1.9 1.3 1.9 1.9 1 2.4 4.2 3 .5 2.2-1.1 1.5.7 2.4-.3 3.1 1.9-2.6 4.1 1.2.1 2 2.1-3.6-.2-.5.6-3.3.8-4.6 2.8-.3 1.9-1 1.4.4 2.2-2.4 1.2v1.7l-1.1.7 1.7 3.6 2.2 2.5-.9 1.7 2.7.2 1.5 2.2 3.6.1 3.3-2.4-.3 6.2 1.8.5 2.3-.7 3.5 6.6-.9 1.4-.2 2.9-.1 3.5-1.6 2.1.7 1.5-.9 1.4 1.7 3.5-2.6 4.6zM1314.7 695.2l-1.1.4-1.7-1.6-1.8-2.6-.9-3.1.6-.4.4 1.2 1.2.9 2 2.6 1.9 1.4-.6 1.2zm-15.8-5.4l-2.1.3-.6 1.1-2.2 1-2.1 1h-2.1l-3.3-1.2-2.3-1.1.3-1.3 3.6.6 2.2-.3.6-1.9.6-.1.4 2.1 2.3-.3 1.1-1.4 2.3-1.4-.4-2.4 2.4-.1.8.7-.1 2.2-1.4 2.5zm-19.3 7.7l3.6 2.7 2.6 4.3 2.3-.1-.2 1.8 3.1.7-1.2.8 4.3 1.7-.4 1.2-2.7.3-1-1.1-3.5-.5-4.1-.6-3.1-2.6-2.3-2.2-2.1-3.5-5.3-1.8-3.4 1.2-2.5 1.3.5 3-3.2 1.4-2.3-.7-4.2-.2-.1-13.2-.1-13.1 7 2.8 7.5 2.3 2.8 2.1 2.2 2 .6 2.4 6.7 2.5 1 2.1-3.7.4 1.2 2.6zm24-11.7l-1.3 1.1-.8-2.4-.9-1.6-1.8-1.3-2.3-1.7-2.9-1.2 1.1-1 2.2 1.1 1.4.9 1.7 1 1.6 1.7 1.5 1.3.5 2.1zM1195.5 633.8l.4 2.7.2 2.3-1.4 3.7-1.5-4.1-1.9 2 1.3 3-1.2 1.9-4.8-2.3-1.1-2.9 1.2-1.9-2.6-1.9-1.3 1.7-1.9-.2-3 2.3-.7-1.2 1.6-3.4 2.6-1.1 2.2-1.5 1.4 1.8 3.1-1.1.7-1.8 2.9-.1-.2-3.1 3.3 1.9.3 2 .4 1.3zm-9.7-7.5l-1.5 1.3-1.3 2.6-1.3 1.2-2.5-2.8.8-1.1 1-1.1.4-2.5 2.2-.2-.6 2.8 3-3.9-.2 3.7zm-22.1 3.9l-5.4 3.8 2-2.8 2.9-2.5 2.4-2.8 2.1-4.1.7 3.3-2.7 2.2-2 2.9zm13.6-10.5l2.4 1.3h2.6l-.1 1.7-1.9 1.7-2.6 1.2-.1-1.9.3-2.1-.6-1.9zm14.6-1.2l1.1 4.6-3.1-1.1.1 1.4 1 2.5-1.9.9-.2-2.9-1.2-.2-.6-2.5 2.4.3-.1-1.6-2.5-3.1 3.9.1 1.1 1.6zm-16-3.7l-1.1 3.6-1.7-2-2.1-3.1 3.5.1 1.4 1.4zm-.8-22.7l2.5 1.2 1.2-1.1.4 1.1-.7 1.8 1.4 3-1.1 3.5-2.4 1.4-.6 3.4.9 3.3 2.1.5 1.8-.5 5 2.3-.4 2.2 1.3 1-.4 1.9-3.1-2-1.5-2.2-1 1.5-2.6-2.5-3.7.6-2-.9.2-1.7 1.3-1.1-1.2-1-.5 1.5-2-2.4-.6-1.8-.1-4 1.6 1.4.4-6.6 1.3-3.8h2.5zM745.6 427.9l-1.7-4.1.3-2.2-1-3.5-1.5-2.4 1.1-1.8-1-3.4 2.8-2 6.3-3.2 5.1-2.4 4 1.2.3 1.7 3.9.1 5 .8 7.4-.1 2.1.7 1 2.1.2 3 1.1 2.6v2.7l-2.4 1.4 1.3 3.1.1 2.9 2 5.6-.4 1.8-2 .7-3.7 5.2 1 2.8-.9-.4-3.8-2.4-2.9.9-1.9-.6-2.4 1.3-2-2.2-1.7.8-.2-.4-1.9-3.1-3-.4-.4-2-2.8-.7-.6 1.6-2.2-1.3.2-1.7-3-.6-1.8-2.1zM988.6 506.9l3 2.3 1.2 3.8 6.6 2-3.9 4.1-4.5.7-6.1-1.2-2 2.1 1.4 4.3 1.4 3.2 3.3 2.3-3.4 2.8.1 3.4-3.9 4.7-2.5 4.7-4.2 4.8-4.7-.3-4.5 4.8 2.7 2 .5 3.4 2.3 2.2.8 3.8h-8.9l-2.7 2.9-3-1.1-1.2-3.2-3.1-3.4-7.4.8-6.9.2-5.7.6 1.5-5.2 5.8-2.3-.3-2.1-1.9-.7-.1-4-3.9-2-1.6-2.8-2-2.4 6.8 2.4 4-.7 2.4.6.8-1 2.8.4 5.3-1.9.1-4 2.2-2.7h3l.4-1.3 3.1-.6 1.5.4 1.6-1.3-.2-2.9 1.7-2.9 2.6-1.2-1.6-3.2 3.8.2 1.1-1.8-.2-1.9 2-2.1-.5-2.4-1-2.1 2.4-2.2 4.3-1.1 4.6-.6 2-.9 2.8-.4zM417.1 592.1l2.1.4.7.8-1 1.1h-3l-2.4.1-.2-1.8.6-.6h3.2zM828.5 530.1v2.9l-.6 1.4-1.9.6.2-1.2 1-.7-1-.5.8-3.2 1.5.7zM648.4 482.1l1.5-1.4 1.6-.8 1 2.7h2.4l.7-.7 2.4.2 1.1 2.7-1.9 1.4v4.2l-.7.8-.2 2.5-1.7.4 1.6 3.1-1.1 3.4 1.4 1.5-.5 1.4-1.5 1.9.3 1.7-1.6 1.3-2.1-.7-2.1.5.6-3.9-.4-3.1-1.8-.5-1-1.9.3-3.4 1.6-1.9.3-2.1.9-3.2-.1-2.3-.8-1.9-.2-1.9zM431.6 759.4l1.6-5.2.1-2.3 1.9-3.8 7-1.2 3.7.1 3.8 2.2.1 1.3 1.2 2.4-.3 5.9 4.3.8 1.6-.9 2.7 1.2.8 1.3.4 4 .5 1.7 1.5.2 1.5-.7 1.5.8v2.4l-.5 2.6-.8 2.6-.7 4-3.7 3.5-3.2.7-4.5-.7-4.1-1.3 4-6.8-.6-2-4.2-1.7-4.9-3.3-3.3-.7-7.4-7.1zM890.2 565.1l-.3-3.2 1.1-2.3 1.1-.5 1.2 1.4.1 2.6-.9 2.6-1.1.3-1.2-.9zM776.6 447.9l1.7-1.3 2.5.7h2.6l1.9 1.5 1.4-.9 3-.6 1-1.4h1.7l1.2.6 1.3 1.8 1.3 2.5 2.3 3.5.1 2.6-.4 2.5.7 2.6 1.8 1.1 1.9-.9 1.8 1 .1 1.5-2 1.2-1.2-.5-1.1 6.8-2.4-.6-2.9-2-4.8 1.3-2 1.4-5.9-.3-3.1-.9-1.6.4-1.2-2.3-.7-1 .9-1-1-.7-1.3 1.3-2.3-1.6-.3-2.3-2.5-1.4-.4-1.8-2.2-2.3 3.2-1.1 2.4-4 1.9-4 2.6-1.4z"/><path class="st0" d="M769.2 462.4l2.5 1.4.3 2.3 2.3 1.6 1.3-1.3 1 .7-.9 1 .7 1-1 1.3.4 2 2 2.4-1.5 1.7-.7 1.7.4.6-.7.8-1.9.1-1.4.3-.1-.4.5-.6.5-1.3h-.6l-.8-1-.7-.3-.5-.9-.8-.3-.6-.8-.7.3-.6 1.8-1 .4.3-.5-1.5-1.1-1.3-.6-.6-.8-1.1-1 1-.2.6-2.6-1.9-2.2 1-2.5h-1.5l1.6-2.1-1.3-1.6-1-2.2 3.1-1.5 2.5.2 2.2 2.3.5 1.9zM857.7 601.2l-.5-1.8-1.2-1.3-.3-1.7-2.1-1.5-2.2-3.5-1.1-3.5-2.8-2.9-1.8-.7-2.7-4.1-.5-3 .2-2.6-2.3-4.8-1.9-1.7-2.2-.9-1.3-2.5.2-1-1.1-2.3-1.2-1-1.6-3.3-2.5-3.6-2.1-3.1h-2l.6-2.5.2-1.6.5-1.8 4.5.7 1.8-1.4 1-1.7 3.1-.6.7-1.6 1.3-.8-4-4.7 8.1-2.4.8-.7 4.9 1.3 6 3.3 11.4 9.4 7.5.4 3.6.4 1 2.2 2.9-.1 1.6 3.9 2 1 .7 1.6 2.8 1.9.2 1.9-.4 1.5.5 1.5 1.2 1.3.5 1.5.6 1.1 1.2.9 1.1-.3.8 1.7.2 1 1.6 4.4 12.1 2.2.8-.9 1.8 3.1-2.7 8.6L895 590l-11.6 1.6-3.8 1.9-2.9 4.4-1.9.7-1-1.4-1.5.2-3.9-.4-.7-.4-4.7.1-1.1.4-1.7-1.1-1.1 2.1.4 1.8-1.8 1.3zM1339.9 710l1.1 1.4h-2.8l-1.5-2.5 2.4 1 .8.1zm-5.1-2.4l-1.6.1-2.5-.4-.9-.6.3-1.6 2.7.6 1.3.9.7 1zm3.3-1.2l-.6.7-3-3.5-.8-2.4h1.4l1.5 3.2 1.5 2zm-7.3-5.1l.2.8-3.2-1.7-2.2-1.5-1.5-1.4.6-.4 1.9 1 3.3 1.9.9 1.3zm-9.4-4l-.8.2-1.8-.9-1.7-1.7.2-.7 2.4 1.7 1.7 1.4zM822.1 629.6l-.6-.1.1-2-.5-1.4-2.1-1.6-.5-3 .5-3-1.9-.3-.3.9-2.4.2 1 1.2.3 2.5-2.2 2.2-2 2.9-2.1.4-3.4-2.4-1.5.8-.4 1.2-2.1.8-.1.8h-4l-.6-.8-2.9-.1-1.5.7-1.1-.4-2.1-2.4-.7-1.1-2.9.6-1.1 1.9-1 3.6-1.4.8-1.2.4-.3-.2-1.4-1.2-.3-1.3.6-1.7V627l-2.3-2.6-.5-1.8v-1l-1.5-1.2V618l-.8-1.6-1.4.2.4-1.5 1.1-1.7-.5-1.7 1.3-1.3-.8-1 1.1-2.6 1.8-3.1 3.5.3-.2-16.7.1-1.8h4.6v-8.6h47.9l1.3 4.2-.9.8.6 4.4 1.5 5.1 1.5 1.1 2.2 1.6-2 2.4-3 .7-1.3 1.3-.4 2.8-1.7 6.1.4 1.7-.6 3.6-1.6 4-2.4 2-1.7 3.1-.4 1.7-1.9 1.2-1.2 4.3v.6zM774.5 313.4l-3.9 6.8.6 5.8-6.4 7.4-7.8 7.6-3 12.1 2.9 5.9 3.9 4.5-3.7 9-4.2 1.8-1.5 12.7-2.3 6.9-4.9-.7-2.3 5.7-4.7.3-1.3-6.8-3.4-8.4-3.1-10.8 1.8-4.5 3.4-5.5 1.3-9.7-2.6-4.3-.3-11.6 2.6-8.5 4 .2 1.4-3.7-1.5-3.2 6.3-13.7 4-11.3 2.7-7.6h3.9l1.1-6.1 7.6 1.8.6-7.3 2.5-.5 5.4 5.5 6.3 7.4.1 16 1.4 3.9-6.9 2.9zM740.7 456.1l3.3.4 2-1.3 3.5-.1.8-1 .7.1.8 2-3.2 1.6-.4 2.3-1.4.6v1.6l-1.6-.1-1.4-.9-.7 1-2.8-.2.9-.5-1-2.5.5-3zM784.8 150.6l-9 7.7-7.1-4.4 2.8-4.9-2.4-6.3 8.4-4 1.6 7.5 5.7 4.4zm-26.2-38.5l13.3 16.3-10.2 8.2-2.2 14.5-3.5 3.6-1.9 15.1-4.9.7-8.7-11 3.7-6.7-6.1-5.6-7.9-17-3.1-17 11-8.2 2.2 8 5.7-.3 1.5-7.8 5.9-.8 5.2 8zm29.1-16.5l7.9 8.4-6 12.3-11.7 2.6-11.9-3.7-.7-6.2-5.8-.4-4.4-10.8 12.5-6.8 5.9 5.9 4.1-7.3 10.1 6zM761 438.1l.2.4 1.7-.8 2 2.2 2.4-1.3 1.9.6 2.9-.9 3.8 2.4-1.1 1.6-.8 2.5-.9.6-4.3-1.8-1.3.4-1 1.4-1.9.7-.4-.4-2 .9-1.6.2-.3 1.2-3.4.7-1.5-.7-2.1-1.5-.4-2.1.3-.8.6-1.3 1.8.1 1.4-.6.1-.6.8-.3.3-1.4.9-.3.6-1.1h1.3zM638.7 640.4l-1.1-.3-2.9-1.6-2.1-2.2-.7-1.5-.5-3 2.2-1.8.5-1.1.7-.9 1.1-.1.9-.8h3.2l1.1 1.5.9 1.7-.1 1.2.6 1.1v1.5l1.1-.2-1.9 1.9-1.8 2.2-.2 1.2-1 1.2zM617.4 612.7l-1.7-3.2-2-1.5 1.8-.8 2-2.9 1-2.1 1.4-1.3 2 .4 2-.9h2.3l1.9 1.2 2.7 1.1 2.4 3.1 2.7 2.9.2 2.6.8 2.4 1.5 1.2.3 1.6-.2 1.3-.6.2-2.2-.3-.3.4-.9.1-2.9-1h-1.9l-7.5-.2-1.1.5-1.3-.1-2.1.7-.7-3.2 3.7.1 1-.6h.7l1.5-1 1.7.9 1.8.1 1.7-.9-.8-1.2-1.3.7h-1.3l-1.6-1-1.3.1-.9 1-4.5-.4zM891.5 620.2l-.1-1.1h-1.5l-1.9 1.4-2.1.4-1.9.6-1.3.1-2.3.1-1.4.7-2 .3-3.6 1.3-4.4.5-3.8 1.1h-2l-1.8-1.7-.8-1.7-1.3-.8-1.5 2.2-.9 1.5 1.5 2.2 1.5 2 1.5 1.5 13.2 4.8h3.4l-11.4 12.1-5.3.2-3.6 2.8-2.6.1-1.1 1.2-3.5 4.6v14.6l2.4 3.3.9-1 .9-2.1 4.4-4.9 3.8-3.1 6.1-4 4-3.3 4.8-5.5 3.4-4.5 3.5-5.9 2.5-5.2 1.9-4.5 1.1-4.4.9-1.5v-2.2l.4-2.2zM454 643.7l4.8.8.4-.7 3.3-.3 4.3 1.1-2.1 3.5.3 2.8 1.6 2.4-.7 1.7-.4 1.8-1 1.7-2.3-.9-1.9.4-1.6-.4-.4 1.2.7.8-.4.8-2.2-.3-2.5-3.5-.5-2.3h-1.3l-1.8-2.9.7-2.1-.2-.9 2.4-1.1.8-3.6z"/><path class="st0" d="M822.1 629.6v3.2l-.6 1.2-2.1.1-1.4 2.3 2.5.3 2 2 .7 1.6 1.8.9 2.4 4.4-2.7 2.7-2.5 2.4-2.5 1.8h-2.8l-3.3.9-2.6-.9-1.7 1.1-3.6-2.7-1-1.7-2.2.9-1.9-.3-1.1.7-1.8-.5-2.4-3.3-.6-1.3-3-1.6-1-2.4-1.7-1.7-2.7-2.1v-1.3l-2.2-1.6-2.8-1.6 1.2-.4 1.4-.8 1-3.6 1.1-1.9 2.9-.6.7 1.1 2.1 2.4 1.1.4 1.5-.7 2.9.1.6.8h4l.1-.8 2.1-.8.4-1.2 1.5-.8 3.4 2.4 2.1-.4 2-2.9 2.2-2.2-.3-2.5-1-1.2 2.4-.2.3-.9 1.9.3-.5 3 .5 3 2.1 1.6.5 1.4-.1 2 .7-.1zM330.2 613.5l-.4 1-2.3-.1-1.5-.4-1.7-.8-2.3-.2-1.1-.9.1-.6 1.4-1 .7-.5-.2-.5 1-.2 1.2.3.9.8 1.2.7.1.6 1.8-.5.8.3.5.4-.2 1.6zM841.6 525.4l-7.9 5.1-4.5-1.9h-.1l.5-.7-.1-2 1-2.6 2.2-1.8-.7-1.9-1.8-.3-.4-3.8 1-2 1.1-1.1 1.1-1.1.2-2.8 1.3 1 4.5-1.4 2.1.9h3.3l4.6-1.9 2.2.1 4.6-.8-2.1 3.1-2.2 1.2.4 3.6-1.5 5.9-8.8 5.2zM814.5 779.2l-.8 2-2.4.5-2.4-2.4v-1.6l1.1-1.7.4-1.3 1.2-.3 2 .8.6 2 .3 2zM743.5 615.7l.4-1.9-2.6-.1V611l-1.7-1.5 1.7-5.5 5.2-3.9.2-5.5 1.6-8.6.9-1.8-1.7-1.5-.1-1.4-1.5-1.1-1-6.7 4.1-2.4 16.1 8.3 16.1 8.2.2 16.7-3.5-.3-1.8 3.1-1.1 2.6.8 1-1.3 1.3.5 1.7-1.1 1.7-.4 1.5 1.4-.2.8 1.6v2.4l1.5 1.2v1l-2.6.7-2.1 1.6-2.9 4.5-3.8 1.9-3.9-.3-1.1.4.4 1.4-2.1 1.4-1.7 1.6-5.1 1.5-1-.9-.7-.1-.7 1-3.3.3.6-1.1-1.2-2.8-.6-1.7-1.8-.7-2.4-2.4.9-1.9 1.8.4 1.1-.3h2.2l-2.2-3.7.1-2.7-.3-2.7-1.3-2.6zM963.4 892l2.6 1.9 3.8.8.1 1.2-1.1 2.8-6.2.4-.1-3.3.6-2.5.3-1.3zM692.4 643l-3.2.9-.9-1.4-1.1-2.6-.3-2 .9-3.6-1-1.5-.4-3.2v-3l-1.7-2.1.3-1.3 3.5.1-.5 2.2 1.2 1.2 1.4 1.4.1 2 .8.8-.2 9.3 1.1 2.8zM1099.4 618.4l-3.6-1.9-3.5.1.6-3.2h-3.6l-.3 4.5-2.2 6-1.3 3.6.3 3 2.6.1 1.6 3.7.7 3.5 2.2 2.3 2.4.5 2.1 2.1-1.3 1.7-2.7.5-.3-2.1-3.3-1.8-.7.7-1.6-1.5-.7-2-2.1-2.3-2-1.9-.7 2.4-.8-2.2.4-2.5 1.2-3.9 2-4.2 2.2-3.8-1.6-3.7.1-1.9-.5-2.3-2.7-3.3-1-2.1 1.4-.8 1.5-3.6-1.6-2.8-2.6-3.1-2-3.7 1.7-.8 1.8-4.6 2.9-.2 2.4-1.8 2.3-1 1.8 1.3.2 2.6 2.7.2-1 4.5.1 3.8 4.3-2.5 1.2.7 2.4-.1.8-1.5 3.1.3 3.1 3.4.3 4.1 3.3 3.6-.2 3.5-1.3 1.9-3.8-.6-5.2.8-2.6 3.4 1.1 4.9zM971.8 490.8l-1.5 1.6-4.4-.9-.4 3 4.4-.4 5 1.7 7.6-.8 1 4.8 1.3-.5 2.4 1.2-.1 2 .6 2.9h-4.2l-2.8-.4-2.5 2.3-1.8.5-1.4 1.1-1.6-1.7.4-4.3-1.2-.2.4-1.6-2-1.1-1.7 1.8-.4 2.1-.6.7-2.4-.1-1.3 2.3-1.4-1-2.9 1.6-1.2-.6 2.3-5.1-.9-3.8-3-1.2 1.1-2.3 3.4.2 1.9-2.9 1.3-3.4 5.4-1.2-.8 2.5.6 1.5 1.4-.3zM1189.8 703.6l.5-1 3.5-.9 2.8-.1 1.3-.5 1.5.5-1.5 1.1-4.2 1.8-3.4 1.2-.1-1.2-.4-.9zM932.2 514.3l-.4-4.2-3-.2-4.6-4.5-3.2-.6-4.5-2.6-2.9-.5-1.8 1-2.7-.1-2.9 2.9-3.6 1-.6-3.5.6-5.4-3.2-1.8 1-3.6-2.7-.3.9-4.5 3.8 1.3 3.6-1.7-3-3.2-1.2-3.1-3.3 1.4-.4 3.9-1.3-3.5 1.8-1.8 4.6-1.1 2.7 1.5 2.8 4.2 2.1-.3 4.6-.1-.7-2.7 3.5-1.9 3.4-3.2 5.4 2.9.4 4.3 1.5 1.1 4.4-.2 1.4 1 2 5.5 4.6 3.6 2.6 2.4 4.2 2.5 5.4 2.2-.1 3.1-1.2-.2-1.9-1.4-.6 1.8-3.4 1-.8 4-2.3 1.5-3.2.7-.9 2.2-3 .7-3.9-1.5zM723.2 539.9l-1.7-8.4-2.5-1.9v-1.2l-3.3-2.9-.4-3.6 2.5-2.7 1-4.1-.6-4.7.8-2.6 4.4-2 2.8.6-.1 2.6 3.4-1.9.3 1-2 2.5v2.3l1.4 1.2-.5 4.3-2.7 2.5.8 2.6 2.1.1 1 2.3 1.5.7-.2 3.7-2 1.4-1.2 1.5-2.8 1.8.4 1.9-.3 2-2.1 1z"/><path class="st0" d="M834 485l5.8 2.1 4.7-.8 3.5.5 4.8-2.8 4.3-.3 3.9 2.6.7 1.9-.4 2.6 3 1.3 1.6 1.5-2.8 1.5 1.3 5.9-.8 1.6 2.2 4.1-1.9.9-1.4-1.3-4.7-.6-1.7.8-4.6.8-2.2-.1-4.7 1.9h-3.3l-2.1-1-4.5 1.4-1.3-1-.2 2.8-1.1 1.1-1.1 1.1-1.5-2.3 1.5-1.9-2.5.4-3.4-1.2-2.8 2.9-6.1.6-3.3-2.7-4.4-.2-.9 2.1-2.8.6-3.9-2.7-4.4.1-2.4-5-3-2.8 2-4-2.6-2.5 4.5-5 6.2-.2 1.7-4 7.7.7 4.9-3.5 4.7-1.5 6.7-.1 7.1 3.7zm-39.2 3.5l-3.4 2.9-1.3-2.5.1-1.1 1-.6 1.3-3.4-2-1.4 4.1-1.7 3.5.7.5 2.1 3.5 1.7-.7 1.3-4.8.3-1.8 1.7zM435.7 624.3l2.3-.5.9.1-.2 3-3.4.4-.7-.4 1.2-1.1-.1-1.5zM1176.9 566.7l-2.4 7-1.7 3.6-2.1-3.7-.5-3.2 2.4-4.3 3.2-3.3 1.8 1.3-.7 2.6zM821.9 671.5l.7.4 14.6 8.2.3 2.3 5.8 4-1.9 5 .2 2.3 2.6 1.5.1 1.1-1.1 2.4.2 1.2-.3 1.9 1.4 2.5 1.7 4 1.5.9-3.2 2.4-4.4 1.6-2.4-.1-1.4 1.2-2.8.1-1.1.5-4.9-1.2-3 .3-1.1-5.6-1.4-1.9-.8-1.1-3.9-.7-2.3-1.2-2.6-.7-1.6-.7-1.7-1-2.2-5.1-2.3-2.3-.8-2.3.4-2.1-.7-3.7 1.7-.2 1.5-1.5 1.6-2.1 1-.8v-1.3l-.9-.9-.2-1.6 1.2-.5.2-2.4-1.6-2.3 1.4-.5 4.4.1 8.1-.1zM813.3 421.5l1.5.3 1-1.5 1.2.3 4.2-.6 2.6 3.7-1 1.3.3 2 3.2.3 1.4 2.8-.1 1.3 5.1 2.2 3.1-1 2.5 2.9 2.4-.1 6 2v1.8l-1.6 3.2.9 3.4-.6 2-3.9.4-2.1 1.7-.1 2.6-3.2.5-2.7 1.9-3.8.3-3.5 2.2-1.9 1.5 2.1 2.1 2 1.4 4.1-.3-.8 2-4.4 1-5.5 3.3-2.2-1.1.9-2.7-4.4-1.7.7-1.1 4.6-2.3-.6-1.2-.6.6-.6-.3-6.3-1.5-.3-2.2-3.7.7-1.5 3.2-3.1 4.3-1.8-1-1.9.9-1.9-1 1-.6.7-2 1.1-1.9-.3-1 .9-.5.4.8 2.4.2 1.1-.4-.7-.6.3-.9-1.4-1.5-.6-2.5-1.5-1 .3-2-1.8-1.6-1.7-.2-3-1.9-2.7.6-1 .9h-1.7l-1 1.4-3 .6-1.4.9-1.9-1.5h-2.6l-2.5-.7-1.7 1.3-.3-1.6-2.2-1.6.8-2.5 1.1-1.6.9.3-1.1-2.8 3.7-5.2 2-.7.4-1.8-2-5.6 1.9-.2 2.2-1.8 3.1-.1 4.1.5 4.5 1.6 3.2.1 1.5.9 1.5-1.1 1.1 1.5 3.6-.3 1.6.6.3-3.3 1.2-1.4 3.5-.3z"/><path class="st0" d="M813.6 671.9l-4.4-.1-1.4.5-2.4 1.2-1-.4v-3l.9-1.5.2-3.2.9-1.9 1.5-2.1 1.6-1.1 1.3-1.4-1.6-.5.2-4.7 1.7-1.1 2.6.9 3.3-.9h2.8l2.5-1.8 1.9 2.8.5 2 1.8 4.6-1.5 2.8-2 2.7-1.2 1.6v4.3l-8.2.3zM953.6 505.7l.1-3.1-5.4-2.2-4.2-2.5-2.6-2.4-4.6-3.6-2-5.5-1.4-1-4.4.2-1.5-1.1-.4-4.3-5.4-2.9-3.4 3.2-3.5 1.9.7 2.7-4.6.1-.2-20.4 10.4-3.4.7.5 6.3 4.1 3.3 2.1 3.9 5 4.7-.8 6.9-.4 4.8 4-.3 5.5h2l.8 4.4 5.1.2 1.1 2.5h1.5l1.8-3.8 5.3-3.8 2.3-1 1.2.5-3.4 3.5 3 2 2.9-1.3 4.8 2.8-5.2 3.8-3.1-.5-1.7.1-.6-1.5.8-2.5-5.4 1.2-1.3 3.4-1.9 2.9-3.4-.2-1.1 2.3 3 1.2.9 3.8-2.3 5.1-3.1-1.1-1.9.3zM396.7 620.1l-.1 1-2.4.5 1.3 1.9-.1 2.1-1.8 2.4 1.5 3.2 1.7-.3.9-2.9-1.3-1.4-.2-3.1 5-1.7-.6-1.9 1.4-1.3 1.5 2.9 2.8.1 2.6 2.3.2 1.4h3.6l4.3-.4 2.3 1.8 3.1.5 2.3-1.3v-1l5-.2 4.8-.1-3.4 1.2 1.4 1.9 3.2.3 3.1 2 .6 3.3 2.1-.1 1.6 1-3.2 2.4-.4 1.5 1.4 1.5-1 .7-2.5.6.1 1.9-1.1 1.1 2.7 3.1.5 1.1-1.5 1.5-4.1 1.4-2.9.6-1.2 1-3.2-1-3-.5-.7.4 1.8 1-.2 2.7.6 2.5 3.4.3.2.8-2.8 1.2-.5 1.7-1.7.6-3 .9-.8 1.2-3.1.3-2.2-2.1-1.2-4-1.1-1.4-1.5-.9 2-2-.1-.9-1.2-1.2-.8-2.7.3-2.9.9-1.4.7-2.2-1.4-.7-2.3.5-2.9-.2-1.6.4-2.9-3.5-2.3-.5-5.2.4-1-1.4-1-.3-.1-.7.5-1.5-.3-1.6-.9-.9-.5-1.9-2.1-.3 1.1-2.4.5-2.9 1.2-1.5 1.6-1.2 1-2 2.6-.7zM1121.4 579.1l-5.4 3.7-3.4 4-.9 3 3.1 4.5 3.8 5.5 3.7 2.6 2.5 3.4 1.8 7.7-.5 7.2-3.4 2.7-4.6 2.6-3.3 3.4-5 3.8-1.5-2.6 1.1-2.8-3-2.3 3.5-1.6 4.2-.3-1.8-2.5 6.8-3.2.5-4.9-.9-2.8.7-4.2-1-2.9-3.1-2.9-2.6-3.7-3.4-5-4.8-2.5 1.2-1.5 2.6-1.1-1.6-3.7h-5l-1.8-3.9-2.4-3.4 2.2-1.1h3.2l3.9-.5 3.4-2.3 1.9 1.6 3.7.8-.6 2.5 1.9 1.8 4.3.9zM1363 734.8l-1.3.5-1.4-1.8.1-1.1 2.6 2.4zm-2.9-6.4l.7 3.4-1.1-.5-.8.2-.6-1.2-.1-3.2 1.9 1.3zM899.5 599.9l-2.9 1.1-.8 1.8-.1 1.4-4 1.8-6.5 1.9-3.6 2.9-1.8.2-1.2-.2-2.4 1.7-2.6.8-3.4.2-1 .2-.9 1.1-1.1.3-.6 1.1-2-.1-1.3.5-2.8-.2-1.1-2.4.1-2.3-.6-1.2-.8-3.1-1.2-1.7.8-.2-.4-1.9.5-.8-.2-1.8 1.8-1.3-.4-1.8 1.1-2.1 1.7 1.1 1.1-.4 4.7-.1.7.4 3.9.4 1.5-.2 1 1.4 1.9-.7 2.9-4.4 3.8-1.9L895 590l3.2 7 1.3 2.9zM812.2 790.7l-.8.7-1.7 2.3-1.1 2.4-2.3 3.4-4.6 4.9-2.9 2.9-3.1 2.2-4.2 1.9-2.1.2-.5 1.3-2.4-.7-2 .9-4.4-.9-2.4.6-1.7-.3-4.2 1.9-3.4.8-2.5 1.8-1.8.1-1.7-1.7-1.4-.1-1.7-2.2-.2.7-.5-1.3v-2.8l-1.3-3.2 1.3-.9-.1-3.6-2.7-4.4-2-3.9-2.9-6 1.9-2.3 1.6 1.3.7 2 1.8.3 2.5.9 2.2-.3 3.6-2.3v-16.6l1.1.7 2.4 4.2-.4 2.7.9 1.6 2.9-.5 2-2 1.9-1.3 1-2.1 2-1 1.7.5 1.9 1.3 3.3.2 2.6-1 .4-1.4.7-2.1 2.2-.4 1.2-1.7 1.3-2.9 3.6-3.3 5.7-3.2h1.6l2 .7 1.4-.5 2.1.4 1.9 6.1 1.1 3.1-.7 4.9.3 1.6-2-.8-1.2.3-.4 1.3-1.1 1.7v1.6l2.4 2.4 2.4-.5.8-2h3.1l-1 3.3-.5 3.8-1.1 2.1-2.5 2.2zm-10.2-1.4l-1.8-1.4-1.9.9-2.2 1.8-2.2 2.9 3 3.6 1.4-.5.7-1.5 2.2-.7.7-1.5 1.2-2.2-1.1-1.4zM817.2 704.9l1.9 1.8 1 3.5-.7 1.1-.8 3.3.8 3.4-1.3 1.4-1.2 3.8 2.1 1.1-12.3 3.4.4 3-3.1.6-2.3 1.7-.5 1.5-1.5.3-3.5 3.5-2.2 2.7-1.4.1-1.3-.5-4.5-.5-.7-.3v-.3l-1.6-1-2.6-.2-3.3 1-2.6-2.6-2.7-3.4.2-13.2 8.4.1-.3-1.4.6-1.5-.7-1.9.5-2-.4-1.3 1.4.1.2 1.3 1.9-.1 2.6.4 1.4 1.9 3.2.6 2.5-1.3.9 2.1 3.1.6 1.5 1.8 1.7 2.3h3.1l-.3-4.4-1.1.7-2.8-1.6-1.1-.7.5-4.1.7-4.8-.9-1.8 1.2-2.6 1.1-.5 5.4-.7 1.6.4 1.7 1 1.6.7 2.6.7 1.9.8z"/><path class="st0" d="M810.9 759.4l-2.1-.4-1.4.5-1.9-.7h-1.6l-2.6-2-3.1-.7-1.2-2.7v-1.5l-1.7-.5-4.6-4.7-1.3-2.5-.8-.7-1.6-3.4 4.5.5 1.3.5 1.4-.1 2.2-2.7 3.5-3.5 1.5-.3.5-1.5 2.3-1.7 3.1-.6.3 1.6 3.4-.1 1.9.9.9 1 1.9.3 2.1 1.4v5.3l-.8 2.9-.2 3.2.6 1.3-.4 2.5-.6.4-1.1 3.1-4.4 4.9zM1272.3 847.5l3.9 1.8 2.2-.7 3.2-1 2.4.4.3 6.4-1.4 1.9-.4 4.4-1.4-1.5-2.8 3.8-.8-.3-2.5-.2-2.5-4.7-.5-3.6-2.3-4.7.1-2.4 2.5.4zm-7.4-124l1.5 3.2 2.6-1.6 1.3 1.8 1.9 1.6-.4 1.8.9 3.6.6 2.1 1 .5 1.1 3.6-.4 2.2 1.3 2.9 4.4 2.2 2.9 2 2.7 1.9-.5 1 2.3 2.7 1.6 4.7 1.6-1 1.6 1.9 1-.7.7 4.6 2.9 2.7 1.9 1.7 3.2 3.6 1.1 3.6.1 2.6-.3 2.8 1.9 3.9-.2 4-.7 2.1-1.1 4.1.1 2.7-.8 3.4-1.8 4.3-3 2.3-1.5 3.7-1.4 2.4-1.2 4.2-1.6 2.5-1 3.7-.5 3.5.2 1.6-2.3 1.8-4.5.2-3.7 2.1-1.9 2-2.4 2.2-3.3-2.3-2.5-.9.6-2.7-2.2 1-3.5 3.7-3.5-1.4-2.3-.8-2.3-.4-3.9-1.5-2.6-3.1-.7-3.8-.9-2.5-2-2-3.9-.6 1.3-2.4-1-3.6-2 3.4-3.6.9 2.1-2.7.6-2.8 1.6-2.4-.3-3.6-3.3 4.1-2.5 1.7-1.5 3.9-3.2-2 .1-2.6-2.5-3.5-2.1-1.8.8-1.1-5.2-2.9-2.8-.1-3.9-2.3-7.2.4-5.2 1.7-4.6 1.6-3.9-.3-4.3 2.4-3.5 1.1-.8 2.5-1.5 2-3.4.1-2.5.4-3.6-.9-2.9.5-2.8.2-2.4 2.6-1.2-.2-2 1.4-1.9 1.6-3-.2h-2.7l-4.3-3.1-2.2-.9.1-2.8 2-.7.7-1.1-.1-1.7.5-3.3-.4-2.8-2.1-4.7-.7-2.7.2-2.6-1.6-3-.1-1.3-1.8-1.8-.5-3.6-2.3-3.6-.6-1.9 1.8 1.9-1.4-4.2 2 1.3 1.2 1.7-.1-2.3-2-3.5-.4-1.4-.9-1.3.4-2.6.8-1.1.5-2.2-.4-2.6 1.7-3.1.3 3.3 1.7-3 3.3-1.4 2-1.8 3.1-1.6 1.8-.3 1.1.5 3.2-1.6 2.4-.5.6-.9 1.1-.4 2.2.1 4.3-1.3 2.2-1.9 1-2.3 2.4-2.1.2-1.7.1-2.3 2.8-3.6 1.7 3.6 1.7-.8-1.4-2 1.3-2 1.8.9.5-3.2 2.2-2 1-1.6 2-.7.1-1.2 1.8.5.1-1 1.8-.6 2-.6 3 1.9 2.2 2.5h2.5l2.6.4-.9-2.3 1.9-3.3 1.8-1.1-.6-1 1.8-2.3 2.4-1.5 2.1.5 3.4-.8-.1-2.1-3-1.4 2.1-.6 2.7 1 2.1 1.7 3.4 1.1 1.2-.4 2.5 1.3 2.4-1.2 1.5.4 1-.8 1.9 2-1.1 2.2-1.5 1.7-1.4.1.5 1.7-1.2 2.1-1.4 2 .3 1.2 3.2 2.3 3.1 1.3 2.1 1.4 2.9 2.5h1.1l2.1 1.1.6 1.3 3.9 1.4 2.7-1.4.8-2.3.8-1.9.5-2.3 1.2-3.3-.6-2 .3-1.2-.5-2.4.5-3.1.8-.8-.6-1.4 1-2.2.8-2.2.1-1.2 1.5-1.5 1.1 2 .3 2.6 1 .5.2 1.7 1.5 2.1.3 2.3-.6 1.7zM866.7 493.5l1.2 1.4h1.8v.8l1.6 3-2.8-.7-2-2.4-.6-2 .8-.1zm9.6-7.8l1.8.4.7-1.4 2.4-2.2 2.1 2.8 2.1 3.8 1.9.2 1.2 1.4-3.3.4-.7 4.1-.7 1.8-1.5 1.2.1 2.6-1 .3-2.5-2.7 1.4-2.6-1.2-1.5-1.5.4-4.8 3.8-.1-3.6-1.8-.9-1.7-1.4 1.1-1.7-2.1-1.8.8-1.3-1.5-.9-.8-1.4 1-.9 3 1.5 2.2.3.5-.6-2-2.9 1.1-.7 1.1.2 2.7 3.3zM999.4 515.1l4.3 5.7-.4 3.9 1.6 2.5-.1 2.4-2.9-.6 1.1 5.2 4 3 5.6 3.3-2.6 2.1-1.6 4.3 3.9 1.7 3.8 2.2 5.3 2.6 5.5.6 2.3 2.3 3.1.4 4.9 1.1 3.4-.1.5-1.8-.5-2.9.3-1.9 2.5-1 .3 3.6.1.9 3.7 1.7 2.6-.7 3.4.3 3.3-.1.3-2.8-1.6-1.4 3.3-.6 3.7-3.4 4.7-2.9 3.4 1.1 2.9-1.9 1.9 2.9-1.4 1.9 4.4.7.3 1.7-1.4.8.3 2.8-2.9-.8-5.2 3.1.1 2.6-2.2 3.7-.2 2.2-1.8 3.6-3.2-1-.2 4.5-.9 1.5.4 1.8-2 1-2.1-6.9h-1.1l-.7 2.8-2.2-2.3 1.2-2.5 1.8-.3 1.9-3.7-2.3-.8-3.8.1-3.8-.6-.4-3.1-1.9-.2-3.2-1.9-1.4 3 2.9 2.3-2.5 1.7-.9 1.6 2.5 1.2-.7 2.7 1.4 3.3.6 3.6-.6 1.6-2.7-.1-5 .9.2 3.2-2.2 2.5-5.8 2.9-4.5 5-3 2.7-4 2.8v1.9l-2 1-3.6 1.5-1.9.2-1.2 3.2.8 5.4.2 3.4-1.7 3.9v7l-2.1.2-1.8 3.1 1.2 1.3-3.7 1.2-1.4 2.8-1.6 1.2-3.8-3.8-1.9-5.7-1.6-4.1-1.4-1.9-2.1-3.9-1-5.2-.7-2.6-3.7-5.7-1.7-8.1-1.2-5.4v-5.2l-.8-4-5.9 2.6-2.9-.5-5.3-5.2 1.9-1.6-1.2-1.7-4.7-3.7 2.7-2.9h8.9l-.8-3.8-2.3-2.2-.5-3.4-2.7-2 4.5-4.8 4.7.3 4.2-4.8 2.5-4.7 3.9-4.7-.1-3.4 3.4-2.8-3.3-2.3-1.4-3.2-1.4-4.3 2-2.1 6.1 1.2 4.5-.7 4.1-4.3zM868.4 512.7l2.6 1.5.3 2.9-2 1.7-.9 3.8 2.8 4.6 4.9 2.6 2.1 3.6-.7 3.4h1.3v2.5l2.2 2.4-2.4-.2-2.7-.4-3 4.4-7.5-.4-11.4-9.4-6-3.3-4.9-1.3-1.6-5.8 8.9-5 1.5-5.9-.4-3.6 2.2-1.2 2.1-3.1 1.7-.8 4.7.7 1.4 1.3 1.9-.9 2.9 5.9z"/><path class="st0" d="M1130.7 591.4l-3.5 2-3.3-1.3-.1-3.6 2-1.9 4.4-1.2 2.3.1.9 1.6-1.8 1.9-.9 2.4zm70-154.9l7 2 4.8 4.4 1.6 5.7h6.1l3.5-2.4 6.7-1.8-2.1 5.4-1.6 2.2-1.4 6.4-2.7 5.6-4.9-1-3.5 2 1.1 4.8-.6 6.6-2.1.1v2.8l-2.6-3.2-1.6 3.1-6.2 2.3.6 2.8-3.5-.2-1.9-1.7-2.8 3.8-4.5 2.9-3.3 3.4-5.6 1.5-3 2.4-4.4 1.4 2.1-2.4-.9-2 3.2-3.5-2.1-2.8-3.5 1.9-4.6 3.7-2.5 3.4-4 .2-2.1 2.4 2.1 3.5 3.3.8.1 2.3 3.2 1.5 4.5-3.6 3.6 2 2.6.1.7 2.7-5.7 1.4-1.9 2.7-3.9 2.5-2.1 3.4 4.4 2.7 1.6 4.8 2.5 4.4 2.7 3.6-.1 3.5-2.5 1.3 1 2.5 2.4 1.4-.6 3.8-1 3.6-2.3.4-3 4.9-3.3 5.9-3.7 5.3-5.6 4.1-5.6 3.7-4.6.5-2.5 1.9-1.4-1.4-2.3 2.2-5.6 2.2-4.3.7-1.4 4.5-2.2.2-1.1-3.1 1-1.7-5.4-1.4-1.9.7-4.1-1.1-1.9-1.8.6-2.5-3.7-.8-1.9-1.6-3.4 2.3-3.9.5h-3.2l-2.2 1.1-2.1.6.6 4.9-2.2-.1-.4-1-.1-1.8-3 1.3-1.7-.8-3-1.6 1.2-3.6-2.6-.9-1-4-4.3.7.5-5.2 3.8-3.7.2-3.7-.1-3.5-1.8-1.1-1.4-2.7-2.4.3-4.4-.7 1.4-1.9-1.9-2.9-2.9 1.9-3.4-1.1-4.7 2.9-3.7 3.4-3.3.6-1.8-1.2-2.1-.1-2.9-1.1-2.2 1.2-2.7 3.4-.3-3.6-2.5 1-4.7-.4-4.6-1.1-3.3-2-3.1-.9-1.4-2.2-2.3-.7-4.1-3-3.2-1.4-1.7 1.1-5.6-3.3-4-3-1.1-5.2 2.9.6.1-2.4-1.6-2.5.4-3.9-4.3-5.7-6.6-2-1.2-3.8-3-2.3-.7-1.5-.6-2.9.1-2-2.4-1.2-1.3.5-1-4.8 1.2-1.2-.6-1.2 3.9-2.5 2.8-1 4.3.7 1.5-3.4 5.2-.6 1.4-2.1 6.4-2.9.6-1.2-.3-3.1 2.8-1.4-3.6-9.7 8-2.3 2.1-1.3 2.9-10.5 8 1.9 2.2-2.7.2-6 3.4-.6 3.1-4.1 1.6-.5 1.1 4.3 3.4 3.2 5.8 2.3 2.8 4.8-1.6 6.8 1.5 2.5 4.8 1 5.4.8 4.9 3.5 2.5.6 1.8 5.1 2.4 3.3 4.5-.1 8.3 1.2 5.4-.8 4 .8 6 3.3h4.9l1.8 1.7 4.7-2.9 6.5-1.9 6.1-.2 4.7-1.9 2.9-3 2.8-1.9-.6-1.8-1.3-2.2 2.1-3.7 2.3.5 4.2 1.2 4-3 6.2-2.2 3-3.8 2.8-1.7 5.9-.8 3.2.7.4-2.1-3.7-4.2-3.2-1.9-3.1 2.2-4-.9-2.3.8-1-2.5 2.9-6.1 2-4.7 4.9 2.3 5.7-3.9v-2.8l3.6-6.8 2.2-2.1-.1-3.6-2.2-1.6 3.3-3.3 5-1.2 5.4-.2 6.1 2 3.5 2.5 2.5 6.6 1.5 2.8 1.4 3.9 1.7 6.1zM807.8 672.3l1.6 2.3-.2 2.4-1.2.5-2.1-.3-1.2 2.3-2.5-.3.4-2.2.6-.3.1-2.4 1.2-1.1 1 .4 2.3-1.3zM770 394.5l.1-5.5 2-4.7 3.8-2.6 3.2 5.6 3.2-.1.8-5.7 3.4-1.3 1.8.9 3.5 2.8h3.3l1.9 1.7.3 3.6 1.3 4.3-4.4 2.8-2.4 1.2-3.8-3.5-2.1-.5-.6-1.5-4 .7-6.8-.5-4.5 2.3zM744.9 573.4L742 575l-2.3-2.4-6.4-1.9-1.8-2.8-3.2-2-1.9.8-1.4-2.5-.2-1.9-2.4-3.3 1.6-1.9-.4-2.8.5-2.5-.3-2.1.7-3.7-.2-2.1-1.3-4.1 2-1.1.3-2-.4-1.9 2.8-1.8 1.2-1.5 2-1.4.2-3.7 4.7 1.7 1.7-.4 3.4.8 5.4 2.1 1.9 4.2 3.6.9 5.7 2 4.3 2.3 2-1.2 1.9-2.1-.9-3.6 1.3-2.3 2.9-2.2 2.8-.6 5.5 1 1.4 2.1h1.5l1.3.8 4 .6 1 1.6-1.5 2.3.6 2-1 2.9 1.2 3.7V585.8h-4.6l-.1 1.8-16.1-8.2-16-8.4-4.1 2.4zM495.9 34.5l13.6-19.6 14.2 1.5 5.1-12.9L543.1 0l32.3 4.5 25.3 26.8-7.5 12-15.5 1.3-21.7 3 2 5.2 14.3-3.2 12.2 10 7.9-8.8 3.4 10.3-4.4 15.8 10.3-10L621.2 56l12.1 5.5 2.3 11.7-16.5 18.2-2.3 5.6-12.9 4.1 9.4 1.1-4.7 16.6-3.3 13.8.1 22 4.9 12-6.3.7-6.6 5.6 7.4 9.1 1 13.9-4.3 1.5 5.2 13.2-9 1.1 4.7 6-1.3 5.1-5.7 2.2h-5.6l5.1 9.3.1 6-8-5.5-2.1 3.6 5.4 3.3 5.3 7.9 1.5 10-7.2 2.3-3.1-4.7-5-7.2 1.4 8.5-4.7 6.4 10.6.5 5.6.6-10.8 10.1-11 8.8-11.8 3.8-4.5.1-4.2 4.1-5.6 11-8.7 7-2.8.4-5.4 2.4-5.9 2.3-3.5 5.9-.1 6.6-2 6-6.6 7.1 1.6 6.8-1.8 7-2.1 8-5.7.5-6-6.7h-8.1l-3.9-4.6-2.7-8.4-7-11.1-2-6-.5-8.5-5.6-9 1.5-7.4-2.7-3.6 4-12.5 6.1-4.1 1.6-4.7.9-9-4.6 4.1-2.2 1.7-3.6 1.6-5-3.8-.3-8 1.6-6.5 3.7-.2 8.2 3.2-6.9-7.8-3.6-4.3-4 1.8-3.4-3.2 4.5-12.2-2.4-5.1-3.2-9.7-4.9-15.7-5.1-6v-6.7l-10.9-9.6-8.6-1.2-10.8.7-9.9 1.2-4.7-5.4-7-11 10.6-5.7 8.1-1-17.3-4.8-9.1-7.8.6-7.7 15.3-9.9 14.8-10.3 1.6-8.1-10.9-8.3 3.5-9.6 14-17.8 5.9-2.9-1.6-12.3 9.6-7.6 12.4-4.6 12.4-.3 4.4 9.1 10.7-16.3 9.6 11.2 5.7 2.3L505 63l-9.6-15.5.5-13zM616.8 614.5l.5-1.8 4.4-.1.9-1 1.3-.1 1.6 1h1.3l1.3-.7.8 1.2-1.7.9-1.8-.1-1.7-.9-1.5 1h-.7l-1 .6h-3.7zM286.7 138.7l-.3-8.5 5.2.8 2.3 1.4 4.8 7.1-1.1 7.2-6 4-3.3-4.5-1.6-7.5zm19 18.2l.5-2.1-2.8-3.5-8.1-.3 1.1 5.3 7.6 1.2 1.7-.6zm52.4 67.6l4.4 7.3 1.2.8 4.4-1.8 4.4.3 4.3.4-.4-3.8-7-7.8-9.3-1.6-1.9 1-.1 5.2zm-94.3-90.3l-3.9 6 9 .7 6.6 6.4 6.6 2.2-1.6-8.2-3.1-9.7-10.9-7.7-7.9-2.9.3 8.2 4.9 5zm37.4-14.8l7.4-.2-3.2 5.8-.1 7.6 4.3 8.3 8.4 2.6 7.1-1.4 7.5-15.5 5.5-6.4-4.9-7.2-3.2-15.3-6.6-4.6-6.8-5.3-5.1-13.8-9.4 1.4 1.8 6-4.1 1.8-2.8 7.7-2.8 10.7 2.6 10.5 4.4 7.3zm-91.9 77l5.6 2.8 18.3-1.9-8.4 6.9.5 4.9 6.1-.3 10.2-6.6 13.7-2.4 2.5-7.5-.7-8-4.2-.7-3.6 2.8-1.6-6-1.4-8.2-4.2-2-3.7 6.4 5.8 15.9-7.1-1.2-7.2-9.8-11.4-5.8-3.8 4.8-5.4 15.9zm32.5-60.6l-5.3-4.2-2.2-1-4.2 6.2-.1 2.9h6.7l5.1-3.9zm-2.1 17.8l1.3-5.7-5.7-3.1-5.9 2-3.3 6.1 6 6.1 7.6-5.4zm41.9 47.9l6.7-1.6 1.8-11.9-.1-8.6-3.1-8-.3 2.3-5.7-1-6.1 5.9-4.4-.5.3 12.9 6.6-1.3-.1 9.3 4.4 2.5zm-4.7 65.7l-7.3-5.7-6.8-6.1-1.3-8.9-2.5-12.9-4.5-5.5-4-2.2-3.6 2 2.9 13.8-2 5.4-3.3-12.9-3.7-4.5-4.6 6.9-5.6-6.9-9 4.1 2-6.4-4.1-2.7-10.8 8.4-2.8 5.3-3.4 9.8 7.1 3.3 6.2-.2-9.4 5 2.1 4.5 5.7.2 8.6-1 7.8 2.8-5.3 2.1-5.7-.5-6.2 2-2.7 1.3 5 9.2 3.6-1.3 5.5 3.1 2.2 5.3 7.2-1.1 10.2-1.7 7.6-3.8 4.7-.7 6.9 3.1 7.3 1.8 1.4-4.1-2.6-4.4 6.6-.9.6-5zm11.1-1.4l-2.8 5.1-3.6 3.6 5.5 5.1 3.3-1.2 5.4 3.4 2.5-3.9-2.5-4.4-1.2-2.2-2.4-2.1-4.2-3.4zm-25.3-42.5l-3.1-3.1-5.4.6-1.4 2 6.3 9.7 3.6-9.2zm41.3 19l4.3-10 4.8-2.7 6-12.6-7.7-3.6-8.4-.5-4 4-2.1 6.1-.1 6.9 2.5 11.8 4.7.6zm24.7-33.1l8.3-.3 11.6-2.3 5.2 1.8 6-3.3 2.5-4.1-.9-6.5-4.3-6.1-6.6-1.2-8.2 1.4-6.4 3.5-5.9-1.4-5.4-.7-2.6-3.9-4.6-3.8.9-6.4-3.5-5.7h-8l-4.5-5.7-8.3-1.2-1.5 7.3 4.7 5.4 8.4 2.1 4 7.3.5 8.1 1.4 8.6 10.7 4.9 6.5 2.2zm-128.3-26.4l7.5-7.3 3.8-.9 3.1-6.1.5-14.1-5.5 2.8-6.2-.3-8.3 11.8-6.9 12.9 5.5 3.6 6.5-2.4zm104.1 23.3l2.2-6-1.5-5-3.5-5.6-5.8 4.4-2.1 7.1 4.9 4 5.8 1.1zm-12 16.5l-1.1-4.2-7.2 1.8-4.8-3-4.8 6.9 4.5 9-8.2-1.7-.1 4.3 10 10.2 2.8 4.9 3.9 1.1 6.6-4.9.7-11.8-6.1-5.9 3.8-6.7zM185.9 444.2l-1.7-3.4-4-2.6-2-3-1.4-2.2-3.8-.7-2.5-1-4.2-1.4-.3 1.5 1.6 3.4 4.2 1.1.7 1.8 3.6 2.2 1.2 2.2 6.6 2.8 2-.7zm175.3-111.9l-2.9-3-3 .7-.4-4.4-4.6-2.9-4.4-3.3-2.3-2.5-2.1 1.5-.7-4.3-2.9-.8-1.4 8.8-.5 7.4-3.5 4.5 5.5-.9 1.4 5.3 5.7-4.7 4-4.9 2.3 4.1 6.3 2.2 3.5-2.8zm-173.7-75.7l10.6-6V245l5-9.2 9.9-9.6 5.1-3.6-4.3-6.1-3.9-4.3-10.3-.8-5.8-3.1-13.7 2.3 3.9 9-3.5 9.3-2.8 9.9-1.7 5.6 9.3 6.8 2.2 5.4zM381 295.9l.5-1.5v-4.6l-3.2-3-3.7 1.5-1.7 6 1 5.1 4.5-.5 2.6-3zm34.3 10.9l6.4 9.5 5 4.1 7.1-11.3 1.3-7.1-6.4-.7-5.8-9.7-6.4-2.4-9.5-7.2 7.4-5.2-3.8-10.9-3.5-4.8-9.8-4.8-4.2-8-7.5 2.9-.5-5.6-5.6-6.2-9-6.8-3.8 5.3-8 3.8.6-8.7-6.9-14.5-10.2 5.9-3.7 11.1-3.2-8.5 3-9.2-10.4 3.8-4.2 5.7-3.1 12.1 1.3 13 5.7.1-4.2 5.6 3.4 4.3 6.6 1.8 8.5 3.5 14.7 2.6 7.3-1.5 2.2-3.5 3.2 4 3.6.7 4.3 7.1-2.6 2.9 8.2 3.8 6.2 5.3 1.6 3.7 1.1 4.7-5.2 10-1.4 5 1.4 3.5-8.3 1.2-7.6.2-2.7 7 3.4 3.2 11.7-1.5-.1-2.7 5.9 4.5 6 4.7-1.4 2.6 4.9 4.4 8.7 5.1 11 3.4-.7-3-4.2-5.3-5.7-7.7 10.1 7.2 5.1 2.4 1.4-6.4-2.6-9.1-1.7-2.5-5.5-4.4-4.3-5.6.5-5.7 4.9-1.2zM320.4 74l3.4 10.5L331 93l14.1-1.6 9.1 2.8-6.3 8.7-3.2-2.6-11-1 1.7 12 5.7 8.7-1.2 7.5-7.2 5-3.3 7.9 6.6 3.8 5.5 12.3-10.8-8.2-2.5 1.4 2 13.5-7.5 4.1.5 8.4 7.6.9 6 2.1 11.9-2.7 10.6 4.7 10.8-10.4-.1-4.4-6.9.7-.6-4.1 5.6-5.5 1.9-7.4 6.2-5.5 3.8-6.9-3.3-10.2 2.8-3.8-5.6-2.7 12.2-2.3 2.6-4.5 8.3-3.7 6.9-19.4 6.6-7.1 9.5-16-8.8.1 3.7-6.2 9.8-5.7 9.9-12.8.2-8.3-7.4-8.7-8.7-4.2-10.8-2.6-8.7-2.1-8.7-2.2-11.5 5.5-2.1-3.6-12.3 1.4-7.2 3.7-5.3 5.3-3.2 16.9-4.4-8.7-5-1.6-5.9 11.5-7.9 4.8-4.7 1-6 5.5.9 9.6 4.5 7.9zm107.3 381.8l-1.4-2.9-1.5 1.8 1 2 5.1 2.5 1.5-.4 2-2.4-3.7.2-3-.8zm-82.2-112.2l.9 2.3 2.9.2 4.7-4.8.1-1.7-5.5-.1-3.1 4.1zm89.6 95.8l-4.1-2.6-5.3-1.6-1.4.5 3.8 2.9 5.2 1.9 2-.1-.2-1zm35.8 6.9l-.5-3.2-2.8 1 1.3-4.5-4-1.9-1.9 1.5-3.6-1.7 1.4-2.2-2.8-1.3-2.6 2.1 2.7-5.5 2.2-4 .8-1.8-1.9-.3-3.5 2.2-2.5 3.6-4.2 10-3.4 3.7 1.8 1.6-2.5 2.1.6 1.8 7.8.2 4.3-.4 3.9 1.5-2.9 2.8 2.4.2 4.7-5.2 1.1.8-.9 4.9 2.7 1.1 1.8-.2 1.7-5.2-1.2-3.7zm-30.5 6.8l-4 6.6-6.7.8-5.2-2.9-1.3-4.4-1.3-6.4 3.8-4.1-3.6-3-6 .6-8.5 5.1-6.5 7.9-3.4 1 4.7-5.5 5.8-8 5.1-2.7 3.4-4.5 4.2-.4h6.1l8.6 1.3 6.8-1 5.1-5.2 6.7-2.3 2.9-2.3 2.9-2.5-.3-7.5-1.6-2.6-3.1-.9-1.6-5.8-2.6-2.2-6.4-1.8-3.6-4.1-5.4-4.1 1.6-4.6-4.5-9-5.3-9.9-3.1-7.2-2.7 3.8-3.9 8.7-5.9 4.3-2.9-4.6-3.7-1.2-1.3-10.1.1-6.9-7.2-.6-1.2-3.3-5-5-3.8-2.9-3.3 2.3-4.2-.8-6.9-2.4-2.8 2 1.4 13.2 1.8 7.4-4.8 8.3 4.9 5.8 2.7 6.4.3 4.9-2.2 5-4.6 5-6.5 3.3 2.9 3.6 2.1 10.7-2.2 6.7-3.1 2.1-6-6.2-2.9-7.4-1.3-6.9.7-6-4.4-.7-6.7-.4-4.3-3-5.1-2-2.9-3.4-4-2.8-7.5-3.2-5.6 1.5-1.9-5.7-1.8-7.2-5.9-1.3.2-9.2 1.6-6.5 4.4-9.5 4.9-7.1 4.7-1.1.3-5.8 3.2-3.9 5.8-.6 4.7-6.3 1.2-4.2 3.9-8.3 1.2-5 4.2 3 5.6-1.6 7.9-7.1.5-5.1-2.9-5.7 3-5.9-.2-5.6-5.4-5.7-6-1.7-5.7-.9-.2 12.6-2.9 9.5-4.2 7.6-3.9-7.1 1.2-8.1-4.8-7.2-5.4 8.8v-11.5l-7.5-2.3 3.6-5.8-5.5-13.8-4.1-5.6-5.3-2.1-4.8 9.3-.3 13.5 4.7 4.7 4.3 7.1-1.8 11.1-3.3-.3-2.6 8.5v-10.1l-6.3-3.7-3.6 1.9.5 6.7-5.9-.3-6.3 1.7-7.1-4.8-4.5.9-4.1-5.9-3.3-2.7-3.2 1.1-4.9.5-2.6 3.8 4.1 4.6-4.4 5.4-4.3-6.4-3.4 1.9-10.9 1.3-7.3-2.3 5.7-5.4-5.4-5.6-4 .7-5.6-1.9-9.5-4.2-6.2-4.9-4.9-.7-1.5 3.4-5 1.9-.5-8.9-5.4 7.9-6.8-10.5-2.8-1.3-.9 5.6-3 2.7-2.8-4.9-6.6 3-6.1 5.1-6-1.4-4.9 3.6-3.5 4.7-4.2-1-6.4-5.5-7.5-2.8v90.9l4 .2 3.9 2.2 2.8 3.5 3.6 5.2 3.9-4.4 4-2.6 2.1 4.1 2.7 3.2 3.7 3.5 2.5 5.5 4.1 8.5 6.9 4.6.1 4.5-2.2 3.4.1 3.6 4.9 5 .7 5.4 5.2 2.8-.6 4 2.2 5.7 7.3 2.6 2.9 2.7 7.8 6.1h112.3v-2.4h1.4l.7 3.4 1.3 1 2.8.4 4.1 1 3.9 1.9 3.3-.8 5 1.6 1.6-2.4 2.3-1 .9-1.5.9-.8 3.8 1.2 2.8.1 1 .8 1.4 3.4 4.5.9-.7 1.7 1.6 1.7-.7 2.2 1.7.7-.9 2 1.1.2.8-.9.8 1.3 3 .7 3.1.1 3.3.6 3.6 1.1 1.3 1.8 2.6 4.4-1.3 1.9-3.3-.8-2-3.5.5 3.6-1.9 3.1.2 2.7-.3 1.5-2.6 1.8-1.9 3-.9 1.9 2.2.3 3-1.7 1.8-1.5 1.2-.2 2.2.5 1.1-.9 2-.7 3.5-.7-.4-1.7-.2.1-1.2.3-1.6-.5 1.2-1.9 1.2-.7 2.9-.8 3.4-.8 1.8 1.1 1.1-1.2 1.3-.8.9.4v.1l4.1-3.9 1.8-1.1H396l.4-1.4 1.3-.3 1.7-.9 1.4-2.6 1.2-4.5 3.1-4.5 1.3 1.6 2.7-1 1.8 1.7v8l2.6 3.2 4.5-.7 6.5-.2-7 4.7.2 4.7 3.1.4 4.5-4 4-2.3 8.9-3.4 5-3.8-2.6-2.1-.2-3.8zM363 350.7l1.6-4.5-1-1.8-1.7-.2-1.6 2.6-.2.6 1.1 2.6 1.8.7zm-205.5 52.5l2.2-3.4-2.2 3.4zm-4.9 4.7l-3.9.5-1.9-.9-.2 2.2.7 3 2 2.1 1.5 3.1 2.4 3h1.6l-3.5-5.3 1.3-7.7z"/><path class="st0" d="M809.5 653.6l-.2 4.7 1.6.5-1.3 1.4-1.6 1.1-1.5 2.1-.9 1.9-.2 3.2-.9 1.5v3l-1.2 1.1-.1 2.4-.6.3-.4 2.2 1 1.8.3 4.9.7 3.7-.4 2.1.8 2.3 2.3 2.3 2.2 5.1-1.6-.4-5.4.7-1.1.5-1.2 2.6.9 1.8-.7 4.8-.5 4.1 1.1.7 2.8 1.6 1.1-.7.3 4.4h-3.1L800 719l-1.5-1.8-3.1-.6-.9-2.1-2.5 1.3-3.2-.6-1.4-1.9-2.6-.4-1.9.1-.2-1.3-1.4-.1-1.8-.2-2.5.6-1.8-.1-1 .4.2-4.9-1.3-1.5-.3-2.5.6-2.4-.8-1.6-.1-2.5h-4.9l.4-1.5h-2.1l-.2.7-2.5.2-1 2.3-.6 1-2.2-.6-1.3.6-2.7.3-1.5-2.1-.9-1.3-1.2-2.4-1-3h-11.9l-1.4.5-1.2-.1-1.7.5-.6-1.3 1-.4.1-1.8.7-1 1.5-.8 1.1.4 1.4-1.5h2.2l.3 1.1 1.5.7 2.4-2.5 2.3-2 1-1.3-.1-3.3 1.8-3.9 1.8-2.1 2.7-1.9.5-1.3.1-1.5.7-1.4-.2-2.3.5-3.6.8-2.5 1.2-2.1.2-2.4.4-2.8 1.6-2 2.2-1.3 3.3 1.4 2.6 1.5 3 .4 3 .8 1.2-2.4.6-.3 1.8.4 4.5-2 1.6.9 1.3-.1.6-1 1.5-.3 3 .4 2.6.1 1.3-.4 2.4 3.3 1.8.5 1.1-.7 1.9.3 2.2-.9 1 1.7 3.5 2.8zM157.5 403.2l-2.2-2.6-3.6-2.3-1.1-6.3-5.2-6-2.2-7.1-3.9-.5-6.4-.2-4.7-2.2-8.4-8.1-3.9-1.5-7.1-2.9-5.6.7-7.9-3.7-4.8-3.5-4.5 1.7.8 5.7-2.2.5-4.7 1.7-3.6 2.7-4.5 1.7-.6-4.7 1.8-8 4.3-2.6-1.1-2.1-5.1 4.6-2.8 5.4-5.8 5.7 3 3.8-3.8 5.5-4.3 3.2-4 2.3-1 3.3-6.3 3.8-1.3 3.4-4.7 3.1-2.8-.5-3.8 2-4.1 2.4-3.4 2.3-6.9 2-.6-1.2 4.4-3.3 3.9-2.2 4.3-3.9 5-.8 2-3 5.6-4.4.9-1.5 3-2.6.7-5.8 2.1-4.6-4.7 2.4-1.3-1.3-2.2 2.8-2.6-3.9-1.1 2.8-1.5-3.9-4 3.1h-2.5l-.3-4.7.7-2.9-2.6-2.9-5.3 1.5-3.4-3.8-2.8-2v-4.7l-3.1-3.6 1.6-4.9 3.3-4.9 1.4-4.5 3.3-.6 2.8 1.4 3.3-4.3 2.9.8 3.1-2.8-.7-4.2-2.3-1.7 3-3.6-2.5.1-4.3 2.1-1.2 2.1-3.2-2.1-5.7 1.1-5.9-2.2-1.7-3.8-5.2-5.5 5.7-4.1 9-4.9h3.3l-.5 5 8.5-.4-3.3-6.3-5-3.9-2.9-5.2-3.9-4.6-5.5-3.4 2.3-5.8 7.2-.4 5.1-5.2 1-5.6 4.1-5.6 3.9-1.4 7.7-5.4 3.7.8 6.2-6.6 6.1 2.6 2.9 5.6 1.8-2.4 6.8.7-.2 2.8 6.2 2.1 4.1-1.2 8.5 3.8 7.8 1.1 3.1 1.5 5.4-1.9 6.1 3.5 4.4 1.6v90.9l4 .2 3.9 2.2 2.8 3.5 3.6 5.2 3.9-4.4 4-2.6 2.1 4.1 2.7 3.2 3.7 3.5 2.5 5.5 4.1 8.5 6.9 4.6.1 4.5-2.1 3.5zM411 452.8l-1.8-1.7-2.7 1-1.3-1.6-3.1 4.5-1.2 4.5-1.4 2.6-1.7.9-1.3.3-.4 1.4h-13.5l-1.8 1.1-4.1 3.9.4.8.2 2.2-3 1.8-3.3-.5-3.2-.2-1.9.6.4 1.7.1.5-3.5 3.3-3 1.6-2.1.7-2.4 1.5-2.9.7-2-.3-2.5-1.1 1.4-2.1.9-1.9 1.9-3-.2-2.3-.7-3.2-1.5-.6-2.5 2.4h-.8l-.2-1.4 2.2-2.2.4-2.6-.3-2.6-3-2.2-3.4-1.2-.6 2.2-.9.6-.7 2.8-.4-1.9-1.6 1.4-1 1.9-1.1 2.8-.2 2.4 1.3 3.4-.1 3.6-1.6 2.7-.8.7-1.1.6H332l-.4-.4-1.1-2.9v-1.4l.1-1.4-.5-2.7.8-3.1.9-3.9 2.1-4.4h-.6l-3 3.7-.5-.7 1.6-2 2.4-3.7 2.8-.5 3.2-1.2 3.2.6h.1l3.6-.5-2-2.3-1.1-.2-1.2-.2-.9-1.6-4 .5-3.6 1.3-2.8-2.2-2.3-.7 1.3-3.1-3.6 2-3.2 1.9-3.1 1.5-2.5-2-4 1.2v-.9l2.7-2.5 2.9-2.4 4.1-2-5-1.6-3.3.8-3.9-1.9-4.1-1-2.8-.4-1.3-1-.7-3.4h-1.4v2.4H188.5l1.4 5 .6 4.9-1 1.6-2.1-5.6-5.8-2-.5 1.2 1.2 2.8 1.3 5.1.7 7.8-.5 5.2-.5 5.1-1.6 5.2 1.3 4.2.1 4.6-.9 4.4 2.1 2.9.6 4.3 3.1 4.3 1.8 1.7-.1 1.2 3.4 7 3.9 5 .5 2.7 1 .8 3.7.5 1.4 1.3 2.3.2.4 1.4 1.9.6 2.6 2.8.7 2.4 4.6-.4 5.1-.5-.4.9 6.1 2.3 9.2 3.3h11.2v-1.9h7l1.5 1.7 2.1 1.5 2.4 2.1 1.3 2.4 1 2.6 2.1 1.4 3.4 1.4 2.6-3.6 3.3-.1 2.9 1.8 2 3.1 1.4 2.7 2.4 2.6.9 3.2 1.1 2.1 3.2 1.4 2.9 1 1.6-.1-.8-1.5-.2-2.2v-3.1l.9-2 2.2-2.2 4-2 3.7-3.4 3.4-1.1 2.5-.3 2.9 1.1 3.5-.6 3 2.4 2.9.1 1.5-.9 1.5.7.8-.6-.9-.9.1-1.9-.7-1.2 1.7-.7 3.1-.3 3.6.5 4.6-.6 2.5 1.2 2 2.2.7.2 4.1-2.1 1.6.7 3.2 3.9 1.1 2.5-.8 3 .6 1.8 1.9 3.5 2.1 3.9 1.5 1 .6 1.9 2 .5 1.2-.6 1-2.7.2-1.7.1-3-1.9-5.3v-2l-1.8-3.2-1.4-4-.7-3.2.6-3.3 1.9-2.8 2.3-2.3 4.4-3.1.6-1.6 2-1.8 2-.3 2.7-2.9 4.2-1.5 2.6-3.6-.6-5-.4-1.7-1.2-.3-.2-4.8-2.8-1.6 2.7.8-.9-3.3.8-2.2.5 4.3 2.1 2-1.3 3.5.4.2 2.3-4 1.3-2-.1-1.9-1-.9-.8-2.8 1.3 1.3.9.3.3 1.3 2.9-4 .9-3.8-1.2-.2 1.2-1.5-.1.6h2.6l5.7-1.6-1.2-1-5.9 1 3.4-1.5 2.3-.3 1.8-.3 3-.9 1.9.1 2.7-.9.3-1.5-1.2-1.2.4 2-1.7-.1-1.3-2.9v-2.9l.7-1.2 2.1-3.3 4.3-1.7 4.2-1.9 4.3-2.7-.7-1.9-2.6-3.2.1-8.7zM65.8 380.1l-2.2 1.2-3.7 2.7.6 3.5 2.1 1.9 4-2.8 3.5-3.6-1.7-2.3-2.6-.6zM0 339l2.9-1.8.3-1-3.3-1v3.8zm12.3 22.1l-4 1.4 2.4 2.2 2.7 1.5 2.5-1.3-.4-3.1-3.2-.7zm140.3 46.8l-3.9.5-1.9-.9-.2 2.2.7 3 2 2.1 1.5 3.1 2.4 3h1.6l-3.5-5.3 1.3-7.7zM53.5 581.8l-1.4-.4-.4.4v.3l.5.3.7.9 1.4-.3.3-.5-1.1-.7zm-4.3-.7l2.2.1.1-.5-2-.2-.3.6zm8.5 4.7l-.7-.4-1.5-.7-.3-.1-.2.4.3.8-.7.7-.2.5.7 1.6-.1 1.2 1 .6.6-.7 1.3-.7 1.6-.9.1-.2-1-1.5-.9-.6zm-11.3-7.4l-1.1.6.2.2.5 1 1.4.2.3.1.2-.2-1.2-1.4-.3-.5zm-6.3-2.3l-.6.4-.2.3 1.4.8.5-.4-.1-1-1-.1zM452.1 795.1l2.6-.5 4 3.6 1.5-.1 4.2 3 3.2 2.6 2.3 3.2-1.8 2.3 1.1 2.7-1.7 3.1-4.6 2.7-3-1-2.2.5-3.7-2.1-2.7.2-2.5-2.7.3-3.1.9-1.1v-4.8l1.1-4.9 1-3.6zM380.4 668.3l-1.7-1-2-1.3-1.2.6-3.4-.6-1-1.7-.7.1-4-2.3-.5-1.3 1.5-.3-.2-2 .9-1.5 2-.3 1.7-2.5 1.5-2.1-1.5-1 .8-2.3-.9-3.7.9-1.1-.6-3.4-1.6-2.2.5-2 1.3.3.8-1.2-.9-2.4.5-.6 2.1.1 3-2.8 1.7-.4v-1.3l.7-3.4 2.3-1.9 2.5-.1.3-.9 3.2.3 3.2-2.1 1.6-.9 1.9-2 1.4.2 1.1 1.1-.8 1.4-2.6.7-1 2-1.6 1.2-1.2 1.5-.5 2.9-1.1 2.4 2.1.3.5 1.9.9.9.3 1.6-.6 1.8.1.9 1 .3 1 1.4 5.2-.4 2.3.5 2.9 3.5 1.6-.4 2.9.2 2.3-.5 1.4.7-.7 2.2-.9 1.4-.3 2.9.8 2.7 1.2 1.2.1.9-2 2 1.5.9 1.1 1.4 1.2 4-.8.5-.8-2.4-1.1-1.3-1.3 1.4-7.9-.1v2.5l2.4.4-.1 1.5-.8-.4-2.3.7v2.9l1.8 1.5.6 2.3-.1 1.7-1.8 11-2-2.1-1.2-.1 2.6-4.1-3.1-1.9-2.4.3-1.5-.7-2.2 1.1-3-.5-2.4-4.2-1.9-1-1.3-1.9-2.7-1.9-1 .3zM1453 310.9l-4 4.3-6.6 1-.1 9.3-1.6 1.9-3.8-.3-3.1-3.3-5.4-2.8-.9-4.2-4.1-1.6-4.6 1.3-2.2-3.4.9-3.7-4.8 2.4 1.8 4.6-2.3 4.1v.1l-5.2 4.2-5.2-.7 3.6 5 2.4 7.5 1.9 2.4.5 3.6-1 2.3-7.5-1.9-11.3 6.5-3.6 1-6.2 5.9-5.9 5-1.5 3.7-5.8-5.6-10.5 6.4-1.8-3-3.9 3.4-5.4-1.1-1.3 5.2-4.8 7.5.1 3.1 4.6 1.7-.5 10.7-3.7.3-1.7 6 1.7 3-7.1 3.6-1.4 7.8-6 1.6-1.2 6.7-5.8 6-1.5-4.4-1.7-9.6-2.2-15.3 1.9-10 3.4-4.4.2-3.5 6.3-1.7 7.2-9.8 7-8.3 7.3-6.6 3.2-12.1-4.9.7-2.4 7.1-10.2 9.2-3.3-10.3-10.4 2.9-10.1 13.8 3.3 4.9-9 2-6.2.8.3-5.7-6.3-1.2-5 3.9-12.3-1.4-13.3 2.3-13.1 14.9-15.5 17 6.4.9 2 4.3 3.9 1.5 2.6-3.4 4.4.4 5.8 7.5.1 5.6-3.2 6.5-.3 7.6-1.8 9.9-6.1 8.7-1.4 4.1-5.5 6.7-5.4 6.5-2.6 3.3-5.4 3.2-2.6.1-2.5-2.7-5.4 4-.6 1.8-.6-1v-2.8l2.1-.1.6-6.6-1.1-4.8 3.5-2 4.9 1 2.7-5.6 1.4-6.4 1.6-2.2 2.1-5.4-6.7 1.8-3.5 2.4h-6.1l-1.6-5.7-4.8-4.4-7-2-1.5-6.2-1.4-3.9-1.5-2.8-2.5-6.6-3.5-2.5-6.1-2-5.4.2-5 1.2-3.3 3.3 2.2 1.6.1 3.6-2.2 2.1-3.6 6.8v2.8l-5.7 3.9-4.9-2.3-4.8.5-2.1-2.1-2.4-.7-5.9 4.4-5.3 1-3.7 1.5-5.1-1-3.7.1-2.4-3.2-4-3-4-.8-5.1.8-3.8 1.2-5.7-2.7-.8-4.8-4.8-1.7-3.7-.8-4.5-2.7-4.2 6.7 1.6 3.7-3.9 4.4-5.8-1.6-4-.2-2.7-2.9-4.2-.1-3.5-1.9-6.1 3-7.7 5.4-4.3 1.1-1.6.5-2.1-3.8-5.2.8-1.7-2.7-2.8-1.2-1.9-3.7-2.2-1.2-5.8 1.6-5.6-3.7-2.1 3.4-9-16.7-5.2-5.3 1.5-2.2-10.1 6.5-3.9.4.3-3.7-5.2-2.3-4.2 1.7-1.3-7.2-7.3-1.5-3.6 2.9-10.1 2.6-2 1.7-15.1 2.4-1.9 2.3 2.9 4.6-3.9 1.7.8 1.8-3.9 3.2 6.5 4.5-1 3-5.7-.3-1.2 1.9-5.2-3.3-6.4.1-5.2 3.1-4.8-2.6-8.9-4.5-6.3.2-8.3 7-.5 4.6-4.2-3.6-3.2 6.9 1.2 1.3-2.3 4.6 3.4 4.1 3-.2 2.6 4-.4 3 2 1-1.8 3.4-3.9 1-4 5.9 3.7 5.3-.4 3.7 4.4 6.4-2.4 2.2-.7 1.4-1.8-.4-2.8-3.3-1.1-.2-2.5-1.3-1.2-2.2-3.8-1.1-2.4.9-.7-1-5.5-2.6-6-.9-3.4-1-.5.6-5.1-4.7-4.6-2.1-3.5-3.3 2.9-.9 3.4-4.8-2.3-2.3 6-2.4-.1-1.3-3.6 1 .1-2.6 2.1-1.7 3.9-.4.6-2-.9-3.4 1.6-3.2v-1.8l-6-2-2.4.1-2.5-2.9-3.1 1-5.1-2.2.1-1.3-1.4-2.8-3.2-.3-.3-2 1-1.3-2.6-3.7-4.2.6-1.2-.3-1 1.5-1.5-.3-1-4.2-1-2.2.8-.6 3.3.2 1.6-1.5-1.2-1.8-2.7-1.2.2-1.2-1.6-1.3-2.5-4.5.9-1.9-.4-3.3-3.9-1.7-2.1.9-.6-1.8-4.3-1.8-1.3-4.3-.3-3.6-1.9-1.7 1.7-2.4-1.2-7.1 2.9-4.5-.6-1.4 4.6-4.4-4.2-3.9 8.6-10.7 3.7-5 1.5-4.5-6-6.1 1.7-6-3.6-7 2.7-8.3-4.7-11.5 3.7-7.9-6.2-7.2.6-7.8 3.3-1 6.9-4.6 4.2-4 6.6 7 11.1 2.7 15.3 12.5 3.1 5.1.3 6.9-4.5 5.3-6.6 2.7-18-7.7-3 1.3 6.6 7.3.3 4.5.3 9.7 5.2 2.8 3.2 2.4.5-4.5-2.4-4 2.6-3.6 9.8 5.9 3.4-2.3-2.7-7 9.4-9.7 3.7.6 3.8 3.5 2.3-6.9-3.4-6.2 2-6.4-3-6.8 11.3 3.5 2.3 6-5.1 1.3v5.8l3.2 3.5 6.2-2.2 1-6.6 8.4-5.1 14.1-9.4 3 .5-4 6.7 5 1.1 2.9-3.7 7.6-.3 6-4.6 4.6 6.7 4.6-7.3-4.2-6.6 2.1-3.8 11.9 3.5 5.6 3.6 14.6 12.7 2.7-5.7-4.1-5.9-.1-2.4-4.9-1.1 1.3-5.5-2.2-9.4-.1-3.9 7.4-11.5 2.7-12.1 3-2.7 10.7 3.6.8 7.5-3.8 10.5 2.5 4 1.3 8.6-.9 16 4.5 6.8-1.7 7.2-7.9 14.7 4.6 1.5 1.6-3.6 4.4-2.6 1.1-5.1 3.5-5-2.3-6.1 1.9-7.3-4.4-.9-1-6.4 3.2-11.9-5.2-10.1 7.2-8.7-.9-9.5 2-.3 2.1 7.5-1.6 12.5 4.3 2.3-1.8-9.2 6.8-5.2 8.4-.7 7.5 7.5-3.6-11-.4-14.8 7-2.9 9.7.6 8.8-1.9-3.3-7.8 4.7-10.1 4.6-.4 7.9-7.9 10.7-2.2 1.4-4.5 10.6-1.6 3.3 3.8 9.1-9 7.4.3 1.1-7.6 3.9-7.7 9.5-7.7 6.9 6.1-5.5 4.5 9.2 2.8 1.1 8.7 3.7-4.2 11.8.2 9.1 8.4 3.2 6.3-1 8.4-4.5 4.7-10.6 8.5-3 4.4 5 2.1 6 3.7 3.6-2.8 2.1 9.2 1.8-3.7 6.5-2.3 13 2.4 1 6.6 16.9 2.1.2-10.8 8.6 2.5 6.5-.1 6.5 7.4 1.9 8.7-2.4 5.5 5.1 10.1 6.4 5 3.9-13.2 6.5 5.8 6.9-3.4 7.8 3.9 3-3.6 6.6 1.8-2.9-12.1 5.3-5.9 36.5 8.7 3.4 7.7 10.6 9.6 16.3-2.3 8 2 3.4 5-.5 8.7 5 3.3 5.4-2.4 7.2-.3 7.6 2.3 7.7-1.3 7 10.1 5-3.6-3.3-7.3 1.8-5.2 12.9 3.3 8.4-.7 11.6 5.5 5.6 5 9.9 8.4 10.6 10.6-.3 6.4 2.7 2.5-.9-7.4 11 1.5 7 8.7zm-183.7 130.4l-4.1-11.1-1.7-6.5.1-6.5-1.4-6.5-1.1-4.5-1.8 1 1.6 3.2-3.7 3.1-.4 9.1 2.4 6.4-.2 8.4-.9 4.7.5 6.5-.4 5.8.7 4.9 2.7-4.5 3.1 3.5.1-4.1-3.9-6.1 2.5-8.8 5.9 2zM775 401.7l-4.2-1.2-5.6 2.3-.9 3.1 5 .8 7.4-.1-.3-1.8.4-1.9-1.8-1.2zm637.1-144.3l5.3-.7 4.2-3 .3-1.7-5.9-3.6h-3.4l-.5.5-5.1 5.2.7 3.9 4.4-.6zm-158.3-39l-3.8 5.6.7.7 8.3 1.6 6.1-.1-.5-3.7-5.7-5.5-5.1 1.4zm35.4-13.7l4.7-6.1-10.1-4.2-7.5-2.4-1 5.2 7.5 6.2 6.4 1.3zm-36.2-2.5l14.9.4 3.2-11.7-14.6-8.7-10.7-.7-5.3 3.1-2.2 11.2 8 10.1 6.7-3.7zm-356.1 37.4l-4.1 2.8.6 7 7.3 3.4 1.1 5.5 13.2 1.6 2.4-1.1-7.7-10.2-.8-10.8 6.3-13.2 6-14.2 12.6-14.7L946 188l14.3-8.3 2.7-5.3-2.8-7-7.9 2.3-6.9 6.5-13.4 3.2-13.3 10.7-9 8.4 1.1 7-9.7 13 3.7 1.8-8 11.9.1 7.4zm212.5-97.9l1.2-8.2-10.2-12-3-1.4-3.3 2.4-7.4 26.8 22.7-7.6zM872.8 99.5l4.4 5.6 4.7-3.9.6-3.9 3.6-1.8 5.4-3.2 1.6-3.8-6-5.5-3.8 4.2-2.3 5.9-.8-6.7-6.1.3-7.9 4.5 9 .7-2.4 7.6zm189.1 18.8l6.7 8.3 11.3 6.1 8.8-2.6 1-19.6-9.3-23.1-7.9-13-8.7 5.9-10.5 17 5.5 4.7 3.1 16.3z"/><path class="st0" d="M452.1 795.1l5.4-6.3 4.6-4.4 2.7-1.8 3.4-2.5.1-3.6-2-2.6-2 .9.8-2.6.5-2.6v-2.4l-1.5-.8-1.5.7-1.5-.2-.5-1.7-.4-4-.8-1.3-2.7-1.2-1.6.9-4.3-.8.3-5.9-1.2-2.4 1.3-.9-.4-2.4 1.1-1.9.7-3.3-1-2.6-2.2-1.2-.4-1.7.6-2.4-7.7-.2-1.6-4.9 1.2-.1-.1-1.8-.8-1.2-.2-2.4-2.3-1.2h-2.5l-1.7-1.2-2.7-.8-1.6-1.5-4.5-.7-4.4-3.7.3-2.7-.5-1.6.4-3.1-5.3.7-2.1 1.5-3.5 1.7-.9 1.2-2.1.1-3-.3-2.3.7-1.8-.5.3-6.2-3.3 2.4-3.6-.1-1.5-2.2-2.7-.2.9-1.7-2.2-2.5-1.7-3.6 1.1-.7v-1.7l2.4-1.2-.4-2.2 1-1.4.3-1.9 4.6-2.8 3.3-.8.5-.6 3.6.2 1.8-11 .1-1.7-.6-2.3-1.8-1.5v-2.9l2.3-.7.8.4.1-1.5-2.4-.4v-2.5l7.9.1 1.3-1.4 1.1 1.3.8 2.4.8-.5 2.2 2.1 3.1-.3.8-1.2 3-.9 1.7-.6.5-1.7 2.9-1.2-.2-.8-3.4-.3-.6-2.5.2-2.7-1.8-1 .7-.4 3 .5 3.2 1 1.2-1 2.9-.6 4.5-1.5 1.5-1.5-.5-1.1 2.1-.2 1 .9-.5 1.8 1.4.6.9 1.9-1.1 1.4-.6 3.4 1 2 .3 1.9 2.5 1.9 2 .2.4-.8 1.3-.2 1.8-.7 1.3-1.1 2.2.3 1-.1 2.2.3.4-.8-.7-.8.4-1.2 1.6.4 1.9-.4 2.3.9 1.8.8 1.3-1.1.9.2.6 1.1 1.9-.3 1.5-1.5 1.2-3 2.4-3.7 1.4-.2 1 2.2 2.3 7 2.2.7.1 2.8-3 3.3 1.3 1.2 7.1.6.1 4 3.1-2.6 5.1 1.5 6.7 2.4 2 2.3-.7 2.2 4.7-1.2 7.9 2.1 6-.2 6 3.3 5.2 4.5 3.1 1.2 3.5.2 1.5 1.3 1.4 5.1.7 2.4-2 6.8-2.1 2.7-5.7 5.7-2.6 4.6-3 3.6-1 .1-1.1 3 .3 7.8-1.1 6.5-.4 2.8-1.3 1.7-.7 5.7-4.1 5.6-.7 4.5-3.3 1.9-1 2.6h-4.4l-6.4 1.7-2.9 1.9-4.5 1.3-4.8 3.5-3.4 4.4-.6 3.3.7 2.5-.8 4.6-.9 2.2-2.8 2.5-4.5 8.2-3.6 3.7-2.8 2.2-1.8 4.6-2.7 2.8-1.1-2.7 1.8-2.3-2.3-3.2-3.2-2.6-4.2-3-1.5.1-4-3.6-2.4.2zM371.6 569.5l-1 .2-1-2.5-1.5-1.3.9-2.8 1.2.2 1.4 3.7v2.5zm-1.1-12.5l-4.4.7-.3-1.7 1.9-.4 2.7.1.1 1.3zm3.3-.1l-.7 3.2-.7-.6.1-2.3-1.8-1.8v-.5l3.1 2z"/></svg>