<svg id="Layer_1" xmlns="http://www.w3.org/2000/svg" viewBox="0 0 1450 1021"><style>.st0{fill:#9f9d9e}.st1,.st2,.st3,.st4,.st5,.st6{fill-rule:evenodd;clip-rule:evenodd;fill:url(#SVGID_1_)}.st2,.st3,.st4,.st5,.st6{fill:url(#SVGID_2_)}.st3,.st4,.st5,.st6{fill:url(#SVGID_3_)}.st4,.st5,.st6{fill:url(#SVGID_4_)}.st5,.st6{fill:url(#SVGID_5_)}.st6{fill:url(#SVGID_6_)}.st10,.st11,.st12,.st13,.st7,.st8,.st9{fill-rule:evenodd;clip-rule:evenodd;fill:url(#SVGID_7_)}.st10,.st11,.st12,.st13,.st8,.st9{fill:url(#SVGID_8_)}.st10,.st11,.st12,.st13,.st9{fill:url(#SVGID_9_)}.st10,.st11,.st12,.st13{fill:url(#SVGID_10_)}.st11,.st12,.st13{fill:url(#SVGID_11_)}.st12,.st13{fill:url(#SVGID_12_)}.st13{fill:url(#SVGID_13_)}.st14,.st15,.st16,.st17,.st18,.st19{fill-rule:evenodd;clip-rule:evenodd;fill:url(#SVGID_14_)}.st15,.st16,.st17,.st18,.st19{fill:url(#SVGID_15_)}.st16,.st17,.st18,.st19{fill:url(#SVGID_16_)}.st17,.st18,.st19{fill:url(#SVGID_17_)}.st18,.st19{fill:url(#SVGID_18_)}.st19{fill:url(#SVGID_19_)}.st20,.st21,.st22,.st23,.st24,.st25{fill-rule:evenodd;clip-rule:evenodd;fill:url(#SVGID_20_)}.st21,.st22,.st23,.st24,.st25{fill:url(#SVGID_21_)}.st22,.st23,.st24,.st25{fill:url(#SVGID_22_)}.st23,.st24,.st25{fill:url(#SVGID_23_)}.st24,.st25{fill:url(#SVGID_24_)}.st25{fill:url(#SVGID_25_)}.st26,.st27,.st28,.st29,.st30,.st31{fill-rule:evenodd;clip-rule:evenodd;fill:url(#SVGID_26_)}.st27,.st28,.st29,.st30,.st31{fill:url(#SVGID_27_)}.st28,.st29,.st30,.st31{fill:url(#SVGID_28_)}.st29,.st30,.st31{fill:url(#SVGID_29_)}.st30,.st31{fill:url(#SVGID_30_)}.st31{fill:url(#SVGID_31_)}.st32,.st33,.st34,.st35,.st36,.st37{fill-rule:evenodd;clip-rule:evenodd;fill:url(#SVGID_32_)}.st33,.st34,.st35,.st36,.st37{fill:url(#SVGID_33_)}.st34,.st35,.st36,.st37{fill:url(#SVGID_34_)}.st35,.st36,.st37{fill:url(#SVGID_35_)}.st36,.st37{fill:url(#SVGID_36_)}.st37{fill:url(#SVGID_37_)}.st38,.st39,.st40,.st41,.st42,.st43{fill-rule:evenodd;clip-rule:evenodd;fill:url(#SVGID_38_)}.st39,.st40,.st41,.st42,.st43{fill:url(#SVGID_39_)}.st40,.st41,.st42,.st43{fill:url(#SVGID_40_)}.st41,.st42,.st43{fill:url(#SVGID_41_)}.st42,.st43{fill:url(#SVGID_42_)}.st43{fill:url(#SVGID_43_)}.st44,.st45,.st46,.st47,.st48,.st49{fill-rule:evenodd;clip-rule:evenodd;fill:url(#SVGID_44_)}.st45,.st46,.st47,.st48,.st49{fill:url(#SVGID_45_)}.st46,.st47,.st48,.st49{fill:url(#SVGID_46_)}.st47,.st48,.st49{fill:url(#SVGID_47_)}.st48,.st49{fill:url(#SVGID_48_)}.st49{fill:url(#SVGID_49_)}.st50,.st51,.st52,.st53,.st54,.st55{fill-rule:evenodd;clip-rule:evenodd;fill:url(#SVGID_50_)}.st51,.st52,.st53,.st54,.st55{fill:url(#SVGID_51_)}.st52,.st53,.st54,.st55{fill:url(#SVGID_52_)}.st53,.st54,.st55{fill:url(#SVGID_53_)}.st54,.st55{fill:url(#SVGID_54_)}.st55{fill:url(#SVGID_55_)}.st56,.st57,.st58,.st59,.st60,.st61{fill-rule:evenodd;clip-rule:evenodd;fill:url(#SVGID_56_)}.st57,.st58,.st59,.st60,.st61{fill:url(#SVGID_57_)}.st58,.st59,.st60,.st61{fill:url(#SVGID_58_)}.st59,.st60,.st61{fill:url(#SVGID_59_)}.st60,.st61{fill:url(#SVGID_60_)}.st61{fill:url(#SVGID_61_)}.st62{fill:url(#SVGID_62_)}.st63{fill:url(#SVGID_63_)}</style><path class="st0" d="M1050.5 206.7l-1.6-5.6-5.4 1-1.6 4.6 4.1 2.7zM656.4 325l7.4 5.9 3.4-5.4 1.2-4.4-4.2-2.6-4.9-.7zM650.7 335.4l-5.1-.2-2.9 4.5-.7 2.8 2.3 3 8.3-5.1zM827 271.4l5.7 3.5 4.9-1.3-.5-6.3-12.5-1.6zM857.4 245.2l2.1 10h5.2l1-9-5.1-4.3zM893.3 256l-4-9.2-7.9-1.1-5.9-1.4-4.4 6.5-2.4 2.7v11.4l12.7-2.7zM900.9 198.6l7.1-13-4.7-10-5.1 5.7-10-.8-2.7 4.6h-5.4l-.8 5.4-6.5-.3 3.8 8.1zM868.4 151.5l-5.1-1.9-1.6 6 4.9 1.1zM820.8 232.2l1.9 7.3 10.6 3 9.7-.9-.8-10.2 7 .8 5.4-9 6.5 1.4 4.4-4.9-4.4-4.3-9.4-2.7-7.6-8.9 6.2-1.7 5.7 8.7 10.6 2.2.2-12.2-3.5-6-12.4-.8-6.5 4.6-10-1.6-.9 6.8 6 6.2-3.3 3.8-9.4-7.9-11.4 1.1-.8 9.2 1.1 9.5zM810.8 239.7l4.1-1.6-4.9-8.9-7.3-4.3 1.6 7.3zM659.9 344.1l-8.9 4.4-.5 6.2 4.1 5.5.1.1.1.2 1.8 9.9 13.8 19.5.1.1V402.9l7.1 8.4.4.5-.5.4-16.1 12.7-.9 7.4v.2l-.1.1-3.8 5.6-2.8 13.8-.1.5h-.6l-7.8-1-12.7 10.4h-.1v.1l-4.3 2.2 10.1 15.4v.1l.1.2 3.4 43v.3l-.2.2-8.8 9.8 5.8 4.5.3.2-.1.4-2.4 11.4 5.2 5.7.2.1v8.3l6.1 4.2.4.3-.2.4-2.9 7.8-.1.1v.1l-9.2 11.1-.9 8h15.2l.2.1 6.5 5.1 7-4.6.4-.3.4.4 3.9 4.9.3.4 5.1 7.8.3.5-.5.4-5.8 3.6v6.9l6.4.5 5.4-3.7.6-.4.3.6 6.6 12.7.1.2v.1l-.6 15.2 8.6 4.8.4.2-.1.4-3.9 15.9 4.8 10.7 10.9 3.2.6.2-.3.6-8.2 19.3-1.7 24 8.3 8.9 9-6.9.2-.1h.2l13.5-.6 4.8-8.5.4-.7.6.5 7.3 7.3 9.5-11.1 14.9-32 .1-.3.3-.1 10-1.6H777.3l19.4 7.8.3.1.1.2 4.2 12.7 11.6-5.3.3-.1.3.2 7.2 5 .1.1.1.1 13 29.6 17 31.5 10.7-7v-.1h.1l11-4.4.4-.2.2.3 8.5 6.9 4.6-4.1.4-.4.4.4 6.8 6.2 6.2-6.2.2-.2h.3l15.5.6h.2l.2.1 9.7 7.5 19-7 .4-.2.2.3 6.4 5.3 26.3-12.1.1-.1.2.1 7.6 1.6 8.3-3.1-1.1-6.1v-.5l.3-.2 20.4-10.5-5.1-14.4-.1-.3.2-.3 6.8-7.3-2.8-7-13-8.5-.4-.3.2-.5 6.8-13.2-12.7-8.8-.5-.4.4-.5 5.9-6.9v-29.5l.4-.2 25-9.5.9-11.2.1-.5.5-.1 14.8-.9 3.3-9.2-.5-9.5v-.4l.4-.1 7.1-3.4-5.4-19-9.9-7-.3-.2.1-.4 6.5-23.1-9-24.1-.2-.3.2-.3 5.1-6.5.3-.4.4.2 17.5 6 11.2-2.5 3.9-6.8.2-.3h.3l13.3-2 2.3-8.5-22.1-45.8-.1-.2.1-.2 2.2-11.2.1-.2.2-.1 14.8-10.5-5.6-10.7-.2-.4.3-.3 14.4-13.5.1-.1h.2l12.8-1.4 7.3-8.2 1.3-14.3-8.3-7.4-.2-.1v-.3l-.4-9.2-5.3-8-.3-.4.4-.3 6.3-5.9-6.8-8.1-.4-.4.4-.4 16.6-15.2.1-.1.1-.1 7.4-3 5.6-8.1-10.5-21.8H1105.8l-10.3-4.5-.2-.1-.1-.2-5.4-13.9-.1-.3.2-.3 20.9-24.5v-12l-27.3-20.5-3.3 6.3-17.7 10-12.9-12.2-12.8-1.3-18.4 11.9-12.5 15.4-4.5 15.8-8.4 2.6-10.3-5.2-9.9 1-5.2 6.7-4.5-3.8-4.1 4.5-5.2-4.9 7.4-7.3-17.4-1.3-9.9 8.6 5.4 18.7-9.9 9.6v-14.4h-6.8l-6.7 6.1-1.6-7.4 9.9-9-10.6.6-31.5 16.1 6.1 7.4-9 8.7 3.5 6.4 6.5-3.2.6 9.3 7.7 9-11.9 2.9-3.5 4.9 3.2 7.7-9.6 1.6-12.9-3.9-3.9 14.5-21.8-3.9v32.2l-15.5-2.6-23.8-21.5 8.7-6.1-14.4-21.6-9.4-4.5-14.1 4.8-15.8-6.1-2.2 24.5-28.7 12.2-10.9-7.4 1.6-5.8-29.2-.3-7.8 10.3-1.9 6.7-1.9-9.9-5.5-4.9zM1132.8 61.9l3.8-18.9 4.5-8.9-5-6.8-12.6 1-7.6 11.4v8.8l13.9 16.5z"/><path class="st0" d="M1112 228.7V241.8l-.1.1-20.8 24.4 5.1 13.3 10 4.3H1119.9l.1.4 5.3 10.9 8.6 1.3h.3l.1.3 5.6 9.8 11.6-5.6.2-.1.2.1 10.9 3.5 8.3-7.4.1-.1.2-.1 12.8-.8 9.5-10-1.8-9.5-.1-.5.5-.2 9.6-3 2.6-9.1.1-.4.4-.1 8.1-.8 2.6-7.7.1-.3.3-.1 15-3.5 3.9-7 .2-.3h.3l22.4-1.3h.4l.2.4 5.2 14.2 15.6-4.7.1-.1h.1l17 .5 13.7-39.5.3-.6.6.3 8.3 4.3 10.6-3.2-3.2-34.8-9.6-5.5 22.8-15.7-3.2-10.6-42.4-3.6-5.2 6.8-11.6 1-1.2 9-9.4-.7v-12.5l10.6-3.6 4.2-8.6-2.2-22.9-4.2-1.6-5.2 3.2-.3-8.3-9.9 3.8-6.8-7.7 2.6-12.5 8.3 7.4 4.9-3.9 7 7.7 4.2-9.6-1-11.6 7.8-6.4 13.5 1.3 22.5-17.1-5.5-6.4 11.3 1.6-.3-10.9-12.3 2.2-3.5-7.7-16.4-3.2 6.4-8.1-8.3-6.1 7.7-5.4-9.7-12.6-27.3 16.1-1.6 13.2-7.4 9.6 18.3 7.4-9.9 4.5-29.6-8-34.4 22.8-51.5 28-13.8 22.5 1.3 6.8-9.4 2.5-13.1 11.9 9.3 11.6 8.3-2.6 12.6 7.1-1.3 12.5-11.6 1.3-7.7 4.5-16.4-10.3v20.9l-16.7 12.6-6.5 12.5 27.8 20.8zM1445.7 386.5l-10.5 4 5 5 9.8-8zM1394.1 605.4l4.8 3.1 2.4-5.9-2.7-4.4-5.3 3.5zM1410.8 592.4l-2.2 2.1-.8 3.6 5.4 2 2.8-3.1zM1405.3 602.3l-1.2 14.8 5.8 7.5 5.3-2.5-1.1-14.7-4.2-3.9zM1423.2 639.5l-9.6-4.2-.8 5.4 2.5 5.5 6.9-3.1zM1422.5 678.7l-2.6 4.9 3.9 5.6 4.7-4.5-3-5.5zM1425.5 710.6l3.6-1.3.8-6.9-4.6-1-2.4 4.9zM1426.1 717.4l-3.8 4 3 8.2 8.9-2.4-3-8.3zM1420.1 751.1l-4.5 4.5.3 9.4.2 9.8.2 4.5h4.7l3.8-11.1-.8-10.9zM1412.9 794.2l-1.5-6.2-4.7-.2.4 4.9-3.2 2.8-5.8 6 .5 14.3 1.7 11.5 2.1 1.1.9-6.6 1.2-8.8.5-7 4.5-6.4zM1388.6 839.1l-2.6 2 2.4 7.4-.9 9.4 2.2 6.3 2.4-1 .9-16.7 2.9-3.3.5-4.4-3-1.9zM1410 840.8l-2.6 2.5-.1 4.1 1.6 3.7 4.7-1.7-1-5zM1316.6 357.2l-3.7 11.3 14.3 16 2-23-7.8-3.5zM1420.5 397l-9.8 2.3 3.8 5.7 14.2 2.3 5.8-3-3.5-6z"/><path class="st0" d="M1220.1 367.9l6.7-.3 3.2-9.7 13.9 19 9.6-1.6.7-7.1-2.3-14.5-2.4-10.2-9.3-5.2-.3-.1v-.3l-1.8-9.3-6-5.5-9.6.8-.5.1-.1-.5-5.8-15-8.3-1.7-.2-.1-.1-.2-13.3-19.2-9.3 9.8-.2.1h-.2l-12.8.9-8.3 7.5-.3.2-.3-.1-11-3.5-11.9 5.7-.5.3-.3-.5-5.6-10.1-7.6-1.1 4.9 10.2.1.3-.2.3-5.8 8.5-.1.1-.2.1-7.5 3.1-16 14.8 6.8 8.1.3.4-.4.4-6.3 5.9 5.1 7.6v.4l.5 9.1 8.3 7.5.2.2v.3l-1.3 14.7-.1.2-.1.2-7.6 8.5-.2.2h-.2l-12.8 1.3-13.8 13 5.6 10.8.2.5-.4.3-15 10.6-2.2 10.8 21.8 45.2 10-6.7.3-.2.3.1 22.7 7.6.4.1v.4l2.6 12.6v.2l-.1.2-5.4 9.8 4.1 8.2 9-6.6.2-.1h12.1l.2.3 5.8 10 8.6-5.7 5.7-4.8 8.1-1.9-2.6-16.4 14.2-4.5 10.9-9.7 10-.3-7.4 10.6 7.1 6.1 10.2-11.6 2.6-18.3 9.3-3.5 7.4-9.7-7.7-5.8-6.7 8.4-7.1-6.8-1.9-33.1-6.1-19.6 1.9-14.5zM1228.6 856h-.4v-.4l-1.6-8-11-7.9-12.3 9.3 7.3 7.9 11.6.9.6.1v.6l-2.7 18.2-.1.5h-.5l-8.2.3 1.2 11.5.1.4-.3.2-11.9 7.9-.1.1h-.2l-19.5 1.3-4.9 6.4 3.8 7.6.3.7-.7.2-9.9 2.1-1.2 37.6 6.7 11.6-26.3 2.2-8.7 19 24.4 25.1.7 9.3 13.5-12.9 23.1.3 16.7-13.5 10-19.9 4.8-54.7 6.8-28.6-4.5-33.5z"/><path class="st0" d="M1184.7 718.7l-4.8-5.8 4.2-8.3-10.3-4.2-21.6-3.9-16.7 8.7-5.8 25.4-7.1-9-8 10.3-6.8-19.6-14.1 8.7-11.9-2 .6-11.2 15.5-38.6 3.8-38.6 4.5-18.6-3.8-15.5 5.1-13.8-2.2-14.8 32.5-31.8 10.2 1.9 1-3.9-2.9-4.5 4.5-3-5.5-9.7H1134l-9.5 6.9-.6.4-.3-.6-4.5-9.1-.2-.3.2-.3 5.4-9.9-2.4-12.1-22.1-7.4-10.2 6.8-2.5 8.9-.1.4-.4.1-13.4 1.9-3.9 6.9-.1.2-.3.1-11.6 2.5H1057.2l-17.3-6-4.6 6 9 24 .1.2-.1.1-6.5 22.9 9.8 6.8.2.2v.2l5.6 19.7.1.5-.4.2-7.2 3.4.4 9.2.1.1-.1.1-3.5 9.6-.2.4h-.3l-14.7 1-1 11.1v.4l-.4.1-24.9 9.5V661.1l-.1.2-5.7 6.6 12.7 8.7.4.3-.3.5-6.8 13.2 12.7 8.3.2.1v.1l3.1 7.6.1.4-.2.3-6.9 7.3 4.9 13.8 20.2-10.5.4-.2.3.3 6.7 7.2.2.3-.1.4-9.9 21.5 1.1 10.3v.4l-.3.2-7.5 4.3.5 8.4H1043.9l.2.3 7.6 11.4 8.3-.6 13.6-12.4 2.1-9.3.1-.4h10.7l3.1-6.4.2-.3h.5l7.2 1.1.3.1.1.3 6.7 20.5.1.4-.3.2-4.4 4.5-.1.1h-.2l-16.4 2.7 4.1 8.7.2.3-.3.3-6.5 7.1-1.7 9.3v.1l-.1.2-9.7 11.2 4.2 5.2.2.3-.2.4-6.6 8.7v10.5l17.4 8.7.2.1.1.1 14 19.4 8.7-8.3.2-.2h.3l18.7.4h.2l.2.1 8.3 6.7 25.1-8.5 1-.3-.2 1-2.7 10.7 8.6 14-3.2 10.3 5.2 14.9 9.1-1.9-3.6-7.3-.2-.3.2-.3 5.3-6.9.2-.2.2-.1 19.7-1.3 11.4-7.6-1.3-11.8v-.7h.6l8.4-.3 2.5-17-11.3-1h-.2l-.2-.1-7.9-8.6-.4-.5.5-.4 13.2-9.9.4-.3.3.3 11.6 8.2.1.2.1.2 1.6 7.9 5.9 1.7 2.9-38-4.2-11.9-18.6-37.9-6.2-7.4-5.4-26.7-3.7-8.9-.5-1.1-.9-.3z"/><path class="st0" d="M1157.3 875.1l2.4-9.5-24.4 8.2-.3.2-.3-.3-8.4-6.7-18.3-.4-9.1 8.6-11.6 17.7 9.6 15.2 10.3 9 21.9-10.6 2.9-9 16.4-18.3zM1083.7 855.3l-17.6-8.8-.3-.1v-11.7l.1-.2 6.3-8.4-4.1-5.2-.3-.4.3-.4 9.9-11.5 1.6-9.3v-.1l.2-.2 6.3-6.9-4.2-9-.4-.7.8-.2 17-2.7 4-4-6.4-19.8-6.4-1-3.1 6.2-.2.4h-10.4l-2.1 8.9-.1.2-.1.1-13.8 12.8-.2.1h-.2l-8.9.6h-.3l-.2-.3-7.6-11.4H1025.9v-.5l-.6-9.4v-.4l.3-.2 7.4-4.2-1-10.2-.1-.1.1-.2 9.8-21.2-6.1-6.6-40.7 21.2 1 6.2.1.5-.5.2-8.8 3.3-.2.1-.2-.1-7.5-1.6-26.4 12.1-.4.2-.3-.3-6.4-5.3-19 7.1-.3.1-.3-.2-9.8-7.6-15.1-.6-6.5 6.5-.4.4-.4-.4-6.8-6.3-4.6 4.1-.3.3-.4-.3-8.6-7-10.7 4.3-10.4 6.8 13.1 8.8.5.3-.3.5-4 5.5 6.1 6.1 11-6.1.5-.3.3.5 5.3 9.3 8.4-2 .7-.1v.7l1.3 16.5 8.5 4.9.6.3-.4.6-4.8 6.8 13.7 20.5 21.9-11.3 16.7 5.8 20.3-3.2 29.6 29.3 36.6 37.9 14.5-5.8 9 4.2 6.4-3.2 12.2 3.8 6.7-.8 11.6-17.7zM1296.6 813.6l-10.9-4.8-12.6-9-8-20.6-4.5-13.2 9.6-5.5 18-.9-40.5-27.4-28.6-25.7-13.2-24.8-18-12.5-8.3-10.6-5.8 2.6-1.3 6.1 10.6 7.4 5.8 8.7-3.2 4.1-5.2-1.3-1.6 7.4 10.3 7.8 10.3 23.4 19 10.3 6.1 16.1 9.3 11.9 11.3 18 8 13.2 9.3 7.1 2.9 8.3 2.6 7.4 11.6 5.5 1.6 11.6 11.9 15.1.9-13.2-1.6-10 9.4-.6 3.5-1.6 8.7 4.5-7.1-14.8zM364.9 339.9l.9-3-3-3.3-3.7 1.2 1.4 4.6zM374.7 362.5l5.3 2 5.5-1-2.3-8.1-6.7 3.6z"/><path class="st0" d="M168 509.7l21.4 1.6.1.1.2.1 10.2 7.9.2.1v.3l.3 10.3 3.6 3.3 24.4 1.3h.3l.2.2 7.5 9.5.1.2.1.2.6 15.5 4.2 5.5.1.1v.2l-.3 10.3h16.3l.2.1 14.7 13.4 20.3 8.9h.1l.1.2 7.5 12.3 13.2 8.1 13.5 1.3 11-8.1.3-.3.4.4 10 9.3 10.3-.3h.3l.2.3 7.7 11.2 4 .3h.2l.2.2 7.4 7.4 15.3-19.5.9-12.5.1-.2.1-.1 10.1-14-1.9-11.3-11.5-8.6-.3-.3v-.3l2.9-16.4-7.7-10.6-.1-.2v-.2l2.5-22.8-9.7-12.5-.2-.3.1-.3 3.9-11.5-3.9-9.1-.2-.6.6-.2 12.5-3.3 5.2-13.4-2.7-15.8-13-3.2-.2-.1-.2-.1-11.9-15.8-.2-.2.1-.3 2.4-9.6v-.3l.3-.1 17.9-8 1.8-7.1-7.6-16.1v-.4l1.9-10.5.1-.4.4-.1 7.8-1.3-7.3-15.5v-.2l-.2-1.3-6.4.4-3.3 11.6-10.6-9.7-2.9 10 11.3 12.2.6 10.6-20.6-18.3-.6-11.6 8.7-10.6 1.3-17-3.6 1.6-4.1 11.6-6.5 5.8-6.7 1.9-6.5 9.6.4 25.4-15.8 24.8 1 15.1h16l13.2 15.8v15.1l-9.3 11.2 2.6 5.2 7.4 4.2-13.9 3.2-3.8-14.5 10.3-18-4.5-13.5-15.8-2.3-8.7 8.4-.9 19-14.5 14.8-13.2 4.8-9 9.6-30.2-18.6v-9l20.2 9.3 10.7-4.2 17-10.9 11.6-23.2-2-12.5 19.7-46.6 2.2-8.1-2.2-10.6 12.8-12.2 2.6-17-10-13.2-6.4-2.6-9.6 7.4-11.6 14.8-9 8.7-13.5 3.2-7.1 6.7 7.1 9.4-7.8 13.8-10.6 3.2-.3 4.8 9.3 9.7-3.2 9 1.6 5.8 3.6 5.1-11.9 11-3.9-6.2-3.2-13.8-12.6-20.1-7.2 6 4.3 7.5.1.3-.1.3-8.8 15.6 3.4 11.2v.2l-.1.3-5.5 8.4-.1.2-.2.1-8.8 2.9-5.8 6.8-.2.2h-.2l-22.2 1-11.2 9.3-.2.1h-.2l-7.2.2-.7 18.8v.1l-.1.2-8.7 12.2z"/><path class="st0" d="M340 312.3l-10.2-.7-.7 9 2.1 5.5 10.3-1.4zM141.9 762.6l1.9-5.3.1-.1.1-.1 10.5-9.9 1.7-7.5v-.2l.1-.1 6.4-7 .2-.3.3.1 8 1.6 2.1-3.3 1.2-5.7-2.1-6-6.8-2.5-.3-.1-.1-.3-1-3.7-.1-.3.2-.3 3.3-3.8.9-9.9.1-.2.1-.1 11.4-11.1.4-.4.4.4 6.4 6.4.3.3-.2.4-3.5 5 4.4.8h.1l.2.1 11.5 8.2 8.8-1.3h.2l.1.1 8.3 4.6 8 .3 10.9-7.4-19.4-14.6-.2-.1v-.1l-9.4-18.4-6.9-15.5-5.4-1.2-.1-.1-11.4-4.6-.1-.1-.1-.1-5.7-5.4-1.6 4.5-.2.4h-.4l-9.1-.3-2.2 2.5v.1h-.1l-5.7 3-.2.1h-.2l-4.4-1-2.8 2.2-.2.1h-6.1l-7.2-3.1-3.1 5.8-.1.3h-.3l-10.2 2-6.5 11.3-.2.3h-.4l-18.1-.6-5 10.5.3 10.2.1.4-.5.2-4.8 1.3-1.7 8.1 4.2 9.5v.1l1.7 6.3 7.6 2.4h.1l.1.1 7.1 6.4.2.2v.2l.2 6.6 10.4 9.1.2.2v.2l.7 6 9-.1 7.4 12.5 6 1z"/><path class="st0" d="M94.9 539.5v.2l1.8 8 11.6 6.8.2.1.1.2 7 16.7v.2l.3 10.1v.2l-.1.1-5.9 8.3 2.4 12.8 1.5 7.6.1.3-.2.2-7.1 8.6 1.9 4.9 12.6 8.1.4.3-.1.3-1.8 12.5-.6 6.4 4.5 6.8 9.8-1.9 3.2-6.1.3-.5.5.2 7.5 3.3h5.4l2.9-2.2.2-.2.2.1 4.5 1 5.4-2.9 2.3-2.6.2-.2h.3l8.9.3 1.8-4.9.4-.9.6.7 6.3 5.9 11.2 4.6 5.7 1.3.2.1.2.3 7 15.7 9.3 18.3 19.6 14.7 10.8-6.2 1.3-6.6v-.3l.2-.1 6.6-4.3.2-.1h.2l7.7 1 6.8-21.6v-.2l.2-.1 9.5-7.2.2-.2.3.1 10.2 3h.2l13.6 9.1 20.9.4h.2l.1.1 14.5 10.6 17.4-10 .3-.2.3.2 9 6.5 10.2-1.3 11.2-4.8 2-5.2-12.7-7.3-.3-.2v-16.2l-7.5-7.5-4.1-.3h-.3l-.1-.3-7.7-11.2-10.2.3h-.2l-.2-.2-9.8-9.1-10.8 7.9-.2.1h-.2l-13.8-1.3h-.1l-.2-.1-13.4-8.2-.2-.1v-.1l-7.5-12.3-20.2-8.8-.1-.1-14.6-13.3H239.9l.1-.6.3-10.7-4.2-5.4-.1-.1v-.2l-.6-15.6-7.3-9.2-24.4-1.3h-.2l-.1-.1-4-3.6-.2-.2v-.2l-.3-10.3-9.8-7.6-21.5-1.6h-.3l-.2-.3-5.9-12.5-.2-.3.3-.3 8.7-12.4.7-18.5-7 .1-10.1 8.9-.1.1h-.2l-9.1.5h-.3l-.2-.3-3-4.6-14.6 13-2.3 8.4-.1.2-.1.1-15.5 13.8-16.9 29 3.6 3.6zM349.9 113.9l4 3.8 5.5-4.8-2.7-4-4 1zM368.4 110.7l-4-1-5.7 7.5 3 2.5 5.2-2.8zM386.6 109.9l-7.2-2.9-6.2 5.2-.3 4.2 5.2 4.8 10.5-5.3zM391.6 104l-3.7-3.5-3.8 4.7 4.5 2.2zM409.8 95.7l-1.7-5.7-4.3 2.7 1.5 4.8zM391.4 83.2l3.2-2.4-4.7-4.5-2.5 2 1.5 2.7zM381.1 91l3-4.5-2.7-5.5-6 3 .7 3.7zM373.9 103.7l1.3-7.2-9.5-8.5-7.5 5.2 6.2 7.3zM392.1 115.2l1.3 5.5 10.4-.3 4.3-7-3.5-5.7-4.5 6.5-6.7-1.8zM368.7 128.4l-2.5-4.2-2.8 3.5 2.8 4zM337.5 100.2l4.2 7.2 5-4.7-2.5-6zM349.7 98l1 4.2 2.7-2-2.2-4.7zM351.4 75.8l-4.9-4.5-1.3 3 3.3 4.5zM321.8 74.8l6.4-.5 4 3.2 2.5-3-5-4.5-4.5 1.4-9.4-6.1 1.5 6zM327.5 81l-3.5 1.5-7-2-.5 5.2 4.8 4.8 4.7 6 1.5-2.8-1.3-5.7 6.5-1.5 8.3 2.7 5.2-5.2-4.7-5.5-4-1.5-4.3 3.3zM326.2 103.7l3.8 2.3.2-4.8-3-1zM707.3 965.8l.2-.1 8.2-4.3-8.8-9.6-.4-.4.5-.4 8.5-6.9-3.2-9.8-.3-.8h17.1l9.9-8.2.2-.2h.3l8.9 1.2 16.6-22 .2-.2.3-.1 10.6-.8 3.2-5.2.1-.2h.2l9.2-3.8 6.9-8.6.8-9.1-7.3-4.9-.2-.2V861.8l.2-.2 15.9-12.1 5.4-12.5.1-.3.2-.1 13.9-4.9-.7-11.1-8.6-7.7-9.5-1.7h-.4l-.1-.4-7.9-23.8-5-4.6-.4-.3.3-.5 5-7-.7-6.8-5.9 6.6-.2.2h-.3l-4.9-.8-2.9 10.9v.3l-.4.1-26.5 7.2-.4.1-.3-.4-4.4-6H744.3l-.1-.1-5.8-3.1-3.1 7.4-.1.3-.3.1-12.6 4.2h-.4l-6.5-2.3-1.6 7.3v.4l-.5.1-12.8 1.6 1.1 6.3 7.8 6.6.5.4-.4.5-6.6 7.8-1.3 11.9 4.3 10.1.7-2 2.6-16.4v-.1l.1-.1 4.2-7.6.3-.3h.3l5.6.7.5.1v.4l1 6.2v.2l-2.6 14.7 1 14.4 2.3 7.8v.4l-3 7.5-.1.1-.1.1-4.5 4.2-1.5 2.7 1.6 5 .1.2-.1.2-2 4.9-.1.3-.3.1-4.8 1.2-.3 5.5v.1l-.1.1-6.2 10.2-.2.2-.2.1-9.3 2.9-6.1 8.4-.2.2h-.4l-7-.6-1.8 10.6-.1.2-.1.1-5.2 5.9-.1.1-.1.1-16.9 7.4-2.2 7.6-.1.3-.3.1-10.8 3.6-.6.2-.2-.6-1.5-6.2-11.5-2.2-.4-.1-.1-.4-.9-8.4-7.9-10.2H605.5l-.2-.1-22-17.4-.1-.1-6.9-9.4-11 7.9-.1.1h-.2l-6.3-.1.3 1.3.1.4-.3.2-3.3 3.4 1.2 4.9.1.3-.2.2-4.7 5.3 4.2 8.1 27.2 11 25.1 5.8 5.2 19.9 18.3 9.7 12.9-.4 18.3-10.9 14.2 4.5 14.7-1 3.9 6.8 8.5.4 2.8-10.4z"/><path class="st0" d="M550.5 922.3l.2-.3 4.8-5.3-1.3-5-.1-.3.3-.2 3.4-3.4-.8-3.5-9.7.7h-.2l-.2-.2-24.2-16.8-1.5 6.6-.1.5h-.4l-29.4 2.6-1.9 7.8-.1.3-.3.1-5.8 1.5.6 5.4.1.4-.4.2-7.9 5.1-.3 5.3v.4l-.5.1-5.4 1.3-9.8 8.1-.2.2h-.2l-22.7-3h-.1l-.2-.1-13.9-9.8-6.4-.5-4.1 10.9-.2.4h-.3l-16.1 1 1 11.2 9.6 17.1.3.5-.5.3-6.7 4.6 1.6 10.6 41.4-15.6 14.7-.9 2.6 3.8 22.2 4.8 1.6 10 8.4 4.2 23.5 2.6 9.3 1.2 4.8 4.5 7.4-2.5 6.8-5.8 4.8-11.9-8.1-9.7 1-14.8 5.1-1.6.4-6.7 6.7-.3 1.9-7.3-4.3-8.4z"/><path class="st0" d="M397.6 966l.3-.2 6.6-4.6-9.4-16.8-.1-.1v-.1l-1-10.8-8.3 6.4-.5.3-.3-.4-7.6-9.7-.2-.3.1-.2 2.6-11.6-4.2-4.9-12.9-.3v.1l-.4.1-8.1 1.6-.3.1-.2-.2-6.7-5.2-.4 5.3v.2l-.1.1-6.5 9.7-.2.3h-.3l-11.8-1.1-9.4 3.2-3.8 5.2 5.9 2.9.2.1.1.3 1.6 7 .2.6-.7.1-10.7 1.2 1.2 11.1 10.2 5.8.4 10.9 10.3 2.3 4.1 5.1 11.6-6.1 2.3 8.1 7.4 10.9 11.5 1.3 3.6-7.7 15.4-.7 10.3-7.6-1.7-11.4z"/><path class="st0" d="M369.2 897.4v.2l-.2.1-5.7 3.6-.5 10.2 13.1.4h.2l.2.2 4.4 4.9 7.1-2.5 5.3-2.7 8.8-8.8-2-5.6-.1-.1.1-.2 1.5-6.3-2.1-8.5-.1-.3.2-.2 5.9-7.5 3-9-8.6-3.1-.3-.1-.1-.3-1.6-5.4-.1-.3.2-.2 6.8-8.9-3.6-8.8-.1-.2v-.2l1.6-7 .1-.3.3-.1 9-4.3 4.5-4.5-9.5-18.4-.1-.2.1-.2 1.3-6.5-10.2 4.4-.3.1-.2-.1-13.3-5.8-15.3 2.1-5.7 6.8-.2.2h-.3l-15.7-.1-.3 42.3 5.7-.8.6-.1v.6l1.1 8.5 8 8.5v.1l.1.1 2.6 7.3 7.4 5.3.5.4-.4.5-5.6 6.6 4.5 5 .2.2v.4z"/><path class="st0" d="M319.6 935.9l-6.2-3.1-.7-.3.4-.6 4.4-5.9.1-.2h.2l9.7-3.3h.2l11.5 1.1 6.2-9.3.5-6.3.1-1.1.9.6 7.3 5.8 7.4-1.5.5-10.8v-.3l.3-.2 5.7-3.6 2-8.1-4.6-5.2-.4-.4.4-.4 5.5-6.5-7-5-.2-.1-.1-.2-2.6-7.4-8-8.5-.1-.2-.1-.2-1-8-5.5.7-7.3 6.6-.2.1h-.2l-13.8-1.3-4.2 3.2-.4.3-.3-.3-4.3-3.4-12 11.7-.4.4-.4-.4-9.4-9-.1-.1-.1-.2-1.6-6.9-7.7-10.3-31.7 10.9-.2.1-.2-.1-6.8-2.9-3 2.2-.4.2-.3-.2-5-3.1-6.6 3.8 15.6 74.5 8.3-1.2 5.8-8.4 5.5 2.3 1.6 8.6 17.7 9.7 13.8-5.2 7.4 3.3 5.3 10.9L321 942z"/><path class="st0" d="M236.4 843.5l.3.1 5 3.2 3-2.1.3-.2.3.1 6.8 2.9 31.9-10.9.4-.2.3.4 8 10.7.1.1v.1l1.7 6.8 8.8 8.6 11.9-11.7.4-.3.4.3 4.3 3.4 4-3.1.2-.1h.2l13.8 1.3 7-6.3.3-42.7h-5.5l-7.9 6.6-.5.4-.3-.5-3.4-4.4-.1-.1v-.3l1-16.1-23.2-.6h-.3l-.2-.3-4.2-7.7-12 .3h-.4l-.2-.4-2.3-8.6-7.5-9.9-40.5-19.2v13.4l-.3.2-7.6 4.5 2.2 8.5.2.8h-.8l-9.9-.7-7.7 3.2-4.5 8.1 1 23.2v.2l-.1.1-5.2 12.5 16.6.3-6.7 7.1 13.9 23.1 6.7-4z"/><path class="st0" d="M208.7 781v-.2l.1-.2 4.6-8.3.1-.2.2-.1 8.1-3.3.1-.1h.1l9.2.6-2.1-8.2-.1-.4.4-.3 7.7-4.5v-32.5l-5.5-5.8-.4-.4.4-.4 5.8-7.2-.5-4.5-10.9 7.5-.2.1h-.1l-8.4-.3h-.2l-.1-.1-8.2-4.6-8.8 1.3-.2.1-.2-.2-11.6-8.3-5.3-.9-.9-.2.6-.8 3.7-5.2-5.6-5.6-10.8 10.5-1 9.8v.2l-.1.1-3.2 3.8.9 3.1 6.7 2.5.3.1.1.3 2.3 6.3.1.2-.1.2-1.3 6v.1l-.1.1-2.3 3.7-.2.3-.4-.1-8.1-1.6-6 6.7-1.6 7.5-.1.2-.1.1-10.6 10-1.9 5.1 4.6 1.4.3 8.3-2.9 3.3 2 5.8-6.5 7.4 1.3 5.4 13.8 3.2.7 7.4 6.7.4 5.2 1.2 5.1 5.8-7.4 6.1v5.2l7.4-2.3 6.5 3.6 5.8-1.3 4.8-4.2 13.8-2.5 5.5-13z"/><path class="st0" d="M329.3 805.5l2.8 3.7 7.6-6.3.2-.2h7.1v.1h15.4l5.8-6.8.1-.1.2-.1 15.7-2.1.1-.1.2.1 13.2 5.8 10.8-4.6.5-10.9v-.3l.2-.2 11.2-8.5 1.4-5.1-9.7-3.1-.1-.1-.1-.1-7-7-.2-.1v-.2l-1.1-9.2v-.3l.2-.2L416 739l.5-6.2-8-1-.4-.1-.1-.3-9-18.6-31-4.8h-.5V698.6l.1-.1 4.1-5.2-4.3-15.2-8.7-6.2-17.4 10-.3.2-.3-.2-14.6-10.7-20.9-.4h-.1l-.2-.1-13.7-9.1-9.8-2.9-9.1 7-6.9 21.8-.1.5-.5-.1-8-1-6.2 4-1.3 6.7v.3l-.2.1-11.1 6.3.6 5.3.1.3-.2.2-5.7 6.9 5.3 5.7.2.1V741.7l41.1 19.6.2.1.1.1 7.7 10v.1l.1.1 2.2 8.3 11.9-.3h.4l.1.3 4.2 7.7 23.4.7h.6v.6zM385.4 938.4l8.7-6.6.9-.7v.5l15.8-1 4.2-10.9.1-.5.5.1 6.6.5 4.7-9.9.1-.2.2-.1 8.4-3.1 2.5-5.6v-6.7l.3-.2 7.8-4.1-.5-6.6-3.2-9.6-.1-.1-1.6-9-6.9-10.7-.2-.3.2-.3 3-6.5-5.3-3.4-9 1.1h-10.2l-.1-.5-4.9-14.4-3.8 1.7-1.5 6.6 3.7 9 .2.3-.2.3-6.9 8.9 1.5 4.8 8.9 3.1.5.2-.2.6-3.2 9.7v.1l-.1.1-5.8 7.3 2.1 8.3.1.2-.1.1-1.5 6.3 2.1 5.8.1.3-.3.3-9.1 9.1-.1.1-.1.1-5.4 2.7h-.1l-7.2 2.6-2.6 11.2zM401.9 357.8l-1.1-9.9-3.8-2-4.4 6.5 5.5 7.1zM407.9 307.1l2.8 3.6 3-3.1-1.3-5-3.8 1.2zM522 124.5l-8.4.2-.8 6.6 12 2.2zM522.8 153.9v5.2l8.4 7.7 16.5-7.5v-6.2l6.6-3.6-2.4-5-4-11.4-7.3-6.4-6.4 6.4-6.4 4.2 1.6 7.8zM521.8 177.8l5.8-3.2 1.8-6-12.6-4.8-4.8 2.6 1.4 5.6zM549.1 162.4l-15.5 7.6-5.6 13.8-.2 4.4 5.8 2.6 10.2 8.9 11.5 7.8 5.6-3 1.2-7.8-4.4-5.3 5.2-8.4.6-9-7-6.8-.6 4.6-4 1.2zM562.7 231.5l11.2-9 11.9-.8 6.2-6.2.8-14.4-6.6-8.5-5.7 5.7-3-3.3.4-8.6-9.6 5.2-1.4 18.1-6.8 12.4zM611.2 224.5l-.4-3.4-8.8-5.4-.6 2 1 4.8zM542.4 255.2l-2.4-5-5.6 3.6 4.6 3.4zM499.5 250.4l.4-4.6-3.8-4.4-2.8 2.4.4 3.4zM529.6 266.4l2.2 2.5 2.8-2.7-3.2-3.4zM431.6 327l4.5 4.1 3-2.9-1.2-4.7-3.8-1zM442.4 332.3l2.5 1.8 1.7-3.1-2.9-3.2zM452.9 319l-3.9-2.5-.1 3.7 2.5 1.6zM456.2 315.7l2.6-3.8-4.3-3.2-2.3 1.7 1.2 3.2zM436.4 292.8l4.7-2.8-2.7-4.7-4-1.1-3.8 3.3 2.7 3.2zM447.4 274.7l-4.2-.3-1.1 2.8 2.5 3.5 2.6-2.8zM444.4 168l-.3-4.8-3.7-5-4.7 2-.7 3.8 3.9 3.9zM465.1 132.5l5.6-1.5-3.3-7.3-4.1-3.3-2.9 2.8-.6 4.7.2 3zM818.7 730.9l.2-.1h.2l13.4-.4-12.6-28.6-6.8-4.7-11.9 5.4-.6.3-.2-.6-4.3-13-19-7.6-9.5 1.6-14.8 31.9v.1l-.1.1-10 11.6-.4.5-.5-.5-7.2-7.2-4.6 8.2-.2.3h-.3l-13.7.5-9.3 7.1-.4.3-.4-.4-8.9-9.4-.2-.2v-.3l1.7-24.4v-.2l8-18.8-10.4-3.1-.3-.1-.1-.3-5-11.1-.1-.2v-.2l3.8-15.6-8.5-4.8-.3-.2v-.4l.6-15.4-6.3-12-5 3.5-.2.1h-.2l-7.2-.6h-.6V613.3l.3-.2 5.6-3.6-4.6-7-3.9 4.3-.1.1h-.2l-9.2 1.9-8.4 3.7.5 9.3 2.4 6.3.1.2-.1.2-4.8 10.5 4.7 7.6.1.1v.1l1 11.3v.2l-.1.2-7.3 14.2-.1.2-.1.1-12.2 7.5 4.6 7.8.2.3-.2.3-5.2 7.1 2.8 9.2 10.5 3.3.3.1.1.3 1.5 6.9.1.3-.2.2-7.7 8.2-.4 5.7 4.9 1.3.3.1.1.3 2.4 7.3.1.3-.3.3-5.8 5.8-2.4 8.7-.2.8-.6-.1-10.8-6.4-.2-.1-.1-.2-5.1-11.2-9.9 4.5-1.4 9.5v.2l-.1.1-21.9 23.8 1 11v.4l-.4.2-5.9 2.4-.5.2-.2-.5-8.4-18.2-5.8 7.5-.2.2h-.3l-22.7 1-9 16.5 10.1 15.9.1.2-.1.2-2 8.8-.1.4-.4.1-10 1.4-5.7 10.9-1.9 29.3v.6l-.6-.1-9.6-1-6.8 3.2v5.7l16.5 14.8 24.8 17.3 10-.6h.5l.1.5.4 1.7 6.4.2 11.3-8.1.5-.3.3.5 7.2 9.8 21.8 17.2h10.9l.2.2 8.2 10.5.1.1v.2l.9 8.1 11.4 2.2.4.1.1.4 1.5 5.9 9.9-3.3 2-6.8h-10.8l-.2-.3-2.3-4.9-.2-.5.5-.3 4.9-3 .1-.1h.1l6.8-1 13.6-9.4 4.9-7.5v-.1l.1-.1 10.1-9.1 2.2-6.7v-.1l5.9-10.2 7.2-11.1 6.2-17 4.6-13.7-4.9-11.4-.1-.1v-.2l1.3-12.2v-.2l.1-.1 6.4-7.5-7.6-6.4-.2-.1v-.2l-1.3-7.2-.1-.6.6-.1 13.1-1.6 1.6-7.6.1-.7.6.2 7 2.5 12.2-4.1 3.3-7.8.3-.6.6.3 6.2 3.3h6.5l.2.3 4.4 6 25.8-7 2.9-11 .1-.5.5.1 5.2.8 6.5-7.3.9-1 .1 1.4.8 8 15.7 2.4 9.3-6.4.4-12-9.9-7-.2-.2v-.3l-.8-15.2v-.3l.3-.2 5.6-4.3zM664.9 896.5L651 914.1l-.3.4-.5-.3-8.4-5.9-10.3 1h-.2l-.2-.1-6-3.8-7.2-5.3-7.4-.6h-.4l-.1-.4-1.1-5.9-.1-.5.5-.2 5.7-1.8-2.5-8.7-.2-.5.5-.2 6.9-2.6.5-.2.2.5 5.3 10.7 13.3-7.9.5-.3.3.4 4.6 6.4 3.9 3.6 5.1-1.9h7.6l.2.3 3.5 5.6.2.4v.2z"/><path class="st0" d="M653.9 891.1l-5.1 1.9-.3.1-.4.2-.2-.3-.3-.2-3.9-3.6h-.1v-.1h-.1v-.1l-4.3-6-12.9 7.6-.5.3-.6.4-.2-.6-.3-.6-5.1-10.2-5.9 2.2 2.4 8.1.1.6.2.6-.6.1-.5.2-5.3 1.7 1 4.9 7 .6H618.3l.1.1.2.1 7.2 5.3 5.8 3.7 10.1-1h.5l.1.1.2.1 8 5.6 13.2-16.8-3.2-5zM911.2 836.4l-13.9-20.8-.2-.3.2-.3 4.7-6.6-8.3-4.7-.3-.2v-.3l-1.2-16.2-8.2 1.9-.4.1-.2-.4-5.2-9.2-10.9 6-.4.2-.3-.3-6.7-6.7-.4-.4.3-.4 3.9-5.4-13.4-8.9-.1-.1-.1-.1-17.1-31.7-13.8.4-5.1 3.9.8 14.6 9.9 7 .3.2v.3l-.4 12.6v.3l-.2.2-9.7 6.7-.2.1h-.2l-16.1-2.5-4.5 6.4 4.7 4.3.1.1.1.2 7.9 23.7 9.3 1.6h.2l.1.1 8.9 8 .2.2v.2l.8 11.8v.5l-.4.2-14.1 5-5.4 12.4-.1.1-.1.1-15.8 12v8.2l7.3 4.9.3.2v.4l-.8 9.7v.2l-.1.1-7.2 8.8-.1.1-.1.1-9.1 3.7-3.3 5.3-.2.3h-.3l-10.7.8-16.7 22.1-.2.3h-.3l-9-1.2-9.9 8.3-.2.1H713.8l3.1 9.3.1.4-.3.3-8.4 6.8 8.8 9.7.5.6-.7.4-8.6 4.5-2.7 9.8 5.4.2 5.5 10.3 42.1 3.9 28.3-17 9-.3 2.9-9.3 13.8-12.9 19.3-1 5.8 5.5 8-7.4 34.1 5.5 4.8-13.2 11.6-8-4.8-11.9 5.1-32.2 8.7-8.7-5.8-15.4-12.2-1.3 8.7-16.1 15.3-10.8zM836 935.7l-.8.4-35 16.9-.3.1-.3.1-.3-.2-.3-.2-20.2-12.6-.4-.3-.4-.3.2-.5.2-.5 2.9-7.6.1-.3.1-.3h.8l16.6-2 4.8-9.9.3-.7.3-.7.6.5.6.5 3.8 3.5 4-9.4.1-.3.1-.3.3-.1.3-.1 8.4-1.7h.4l.2.1.2.1 10.1 6.3.4.2.3.2-.1.4-.1.4-1.3 6.7-.1.4-.1.4-.4.1-.4.1-5 1.2 8.4 7.7.6.6.6.6-.2.5z"/><path class="st0" d="M824.5 925.7l1.1-.2 6.1-1.5 1.3-6.7-10.1-6.3-8.5 1.7-4.3 10.1-.3.8-.6-.6-4.5-4-4.9 10.2-.1.3-.4.1-16.9 2-3 7.6 20.3 12.7 35-16.9-9.3-8.5zM408.7 344.7l-.6 22.5 10 9.7 4.8 11.2h-13.8l-11.9-22.2-8.8.6.1 1.1 7.6 16.1.4.8-.8.1-8.2 1.3-1.8 10 7.6 16 .1.2-.1.2-1.9 7.7-.1.3-.2.1-17.9 8-2.3 9 11.7 15.4 13.1 3.3.4.1.1.3 2.9 16.5-.9 2.2-4.6 11.8-.1.3h-.3l-12.1 3.3 3.6 8.6.1.3v.2l-3.9 11.4 9.6 12.5.2.2v.2l-2.5 22.8 7.7 10.6.2.2-.1.2-2.8 16.3 11.4 8.6.2.1.1.3 1.9 11.7.1.3-.2.2-10.2 14-.9 12.6v.2l-.2.1-15.7 20v15.5l12.9 7.4.4.3-.2.4-2.3 6-.1.2-.2.1-11.5 4.9h-.1l-.1.1-9.8 1.2 4.3 15 .1.3-.2.2-4.2 5.2v7.9l30.7 4.8.4.1.1.3 9 18.5 8.3 1.1h.6l-.1.6-.5 7v.3l-.2.1-12.2 10.6 1.1 8.6 6.7 6.8 10.1 3.2.6.2-.2.5-1.6 5.9-.1.2-.1.2-11.1 8.4-.5 11.1-.1.3v.1l-1.5 7 9.6 18.7.2.4-.3.3-4.9 4.8v.1h-.1l-4.1 2 4.8 14.2h9.2l9.1-1.1h.2l.2.1 6 3.7.4.3-.2.5-3.1 6.7 6.8 10.5.1.1v.1l1.6 9.2 3.2 9.6.1.1v.1l.5 7v.4l-.3.2-7.8 4.1v6.3l-2.7 6-.1.2-.3.1-8.4 3.1-4.5 9.6 13.5 9.5 22.3 2.9 9.6-8 .1-.1h.2l5.1-1.2.3-5.2v-.3l.3-.2 7.9-5-.6-5.5-.1-.6.5-.1 5.9-1.5 1.9-7.9.1-.4.4-.1 29.5-2.5 1.4-6.8-16.4-14.8-.2-.1v-7l.3-.2 7.4-3.4.1-.1h.2l9.2.9 1.9-28.7v-.1l.1-.2 5.8-11.2.2-.3h.3l9.8-1.4 1.9-8.2-10.2-16-.2-.3.2-.3 9.3-17.1.2-.3h.3l22.7-1 6.2-8.1.6-.8.4.9 8.6 18.6 4.9-2-.9-10.9v-.2l.2-.2 21.9-23.9 1.4-9.5-.1-.3 11.8-5.4.2.6 5.3 11.5 9.9 5.9 2.3-8.1v-.1l.1-.1 5.7-5.6-2.3-6.7-5.1-1.4-.4-.1v-.5l.5-6.4v-.2l.2-.2 7.6-8-1.4-6.3-10.4-3.3-.3-.1-.1-.3-2.9-9.8-.1-.2.2-.3 5.1-7-4.7-8-.3-.5.5-.3 12.6-7.8 7.2-13.8-1-11-4.8-7.7-.1-.3.1-.3 4.8-10.5-2.4-6.1v-.2l-.5-9.8v-.4l.4-.2 8.8-3.9h.1l9.1-2 3.9-4.3-3.2-4.1-6.9 4.6-.4.2-.3-.2-6.7-5.3h-16.1v-.7l1-8.8v-.2l.1-.1 9.3-11.2 2.7-7.3-6-4.1-.2-.2V556l-5.2-5.7-.2-.2v-.3l2.4-11.4-6.1-4.7-.5-.4.4-.4 9.2-10.1-3.4-42.7-10.7-16.4 5.3-2.8 12.9-10.5.2-.1h.2l7.6.9 2.8-13.3v-.1l.1-.1 3.7-5.6 1-7.6v-.2l.2-.1 15.8-12.6-6.8-8.1-.2-.2v-12.9L655.6 371l-.1-.1v-.2l-1.9-9.9-4.2-5.6-.2-.2.1-.2.4-5.6-8.5 4.2-9.6 7.4-13.2 3.9-5.1 9 .3-12.9 26.7-27.7 14.8-26.6 6.7-23.8-20.6-23.5-19.3-.7-6.7 9.7-7.7 1.3 5.8-16.4-15.8-2 5.1-7.4-9.6-8-8.7 3.2-13.8 20.6 3.2 12.2-14.8 1 .3 3.8 5.5 8.1-10.6-2.3-5.5 5.2-12.2-2.3-1.6-5.4-17.4.3.3 10-20.9 2.9-14.1 11.2-10.9.3-8.1 7.1-3.5 14.5 6.7 12.2-10.3 2.6-27.3-4.5-15.7-.4zM1408.2 555.4l-3.5-14.8-10.6-10.6.9-15.8 5.5-4.5-18.3-21.2.3-14.8 7.7-8.4-1.9-8.3-15.5-4.5-15.7-28 3.8-2.6 4.9 6.8 7.7-4.9-11.9-11.2-6.5 3.5-10.2-6.6-.2.1-5.3-12.5h-10.6l-1.3 7.4-6.8-.6-21.8-43.7 1.3-13.9 8.6-1.9-6.4-25.7 13.8 10.9.4-30.9 10.9-11.2 16.4-.3-9.3-22.9-4.5-49.2-10.6 3.3h-.2l-.3-.1-7.9-4.1-13.6 39.2-.2.4h-.4l-17.4-.5-16 4.9-.6.2-.1-.5-5.3-14.4-21.6 1.3-3.9 6.9-.1.2-.3.1-14.9 3.5-2.6 7.7-.1.4h-.4l-8.1.9-2.5 9-.1.3-.3.1-9.4 3 1.7 9.2 13.4 19.5 8.4 1.8.3.1.1.3 5.7 14.9 9.5-.9h.3l.2.2 6.3 5.9.1.1.1.2 1.7 9.2 8.7 4.9 6.1-5.6-16.4-19.6 3.8-12.9 15.8-5.5-8.4 12.6 2 9.6 12.5 8.7 5.8.3-.3 9 5.4 1.3-5.1 25.7 5.8 9.7 1.9 29.9 4.5 19.3 6.1 19.3-7.1 7.7 2.3 7.4-3.9 5.2 10 11.5 1.6 18.4 13.7 15.4L1322 528l88.8 59.5z"/><g><linearGradient id="SVGID_1_" gradientUnits="userSpaceOnUse" x1="-500" y1="574.061" x2="114.013" y2="574.061"><stop offset=".886" stop-color="#fff"/><stop offset="1" stop-color="#f3f3f3"/></linearGradient><path class="st1" d="M-338.4 583.7l2.7 5.1-.5 11.9 8.2 4.3 6 3.9 5.4-3.8.2-.2.2.1 8.3.4 8.7-5.3 1-6.7.1-.5h.5l9.8 1.3 5.1-1.6.5-.1.2.4 3.9 7.7 8.6 3.1 1.9-1.7.6-9.7-5.5-4.2-.3-.1v-.3l-.4-6.2-3.5-3.4-5.4-3.9-.3-.2.1-.3.6-9.5-10.8-8.4-.2-.1v-.3l-1-6.3-4.1-2-.4-.2v-4.3l-1.6-3-6.1-.3-1.1 2.5-.1.3-.4.1-2.5.4h-.3l-.2-.2-1.7-2.1h-2.6l-4 3.6v7l-.1.2-2.4 3.3 2 1.5.2.2.1.2.2 3.4v.6h-.7l-4.4-.2-1.8 3.1 1.2 6 .1.3-.2.2-13.8 14z"/><linearGradient id="SVGID_2_" gradientUnits="userSpaceOnUse" x1="-500" y1="550.658" x2="114.013" y2="550.658"><stop offset=".886" stop-color="#fff"/><stop offset="1" stop-color="#f3f3f3"/></linearGradient><path class="st2" d="M-359.4 518.7l-4.6 5.8-2.3 3.5 1 4.8 4.8 2.3-.6 7.4 12.2 7.7.3 14.2 9.6 18.2 13.3-13.5-1.2-5.9v-.2l.1-.2 2.1-3.6.2-.3h.3l4.1.2-.1-2.4-2.3-1.7-.5-.4.4-.5 2.6-3.5v-6.7l-8.9-9.1-8.8-1.8-.1-.1h-.1l-6.2-4.2-.2-.1-.1-.2-1.5-5.3-3.2-.5-3.1 1.8-.4.2-.3-.3-6.5-5.6z"/><linearGradient id="SVGID_3_" gradientUnits="userSpaceOnUse" x1="-500" y1="515.145" x2="114.013" y2="515.145"><stop offset=".886" stop-color="#fff"/><stop offset="1" stop-color="#f3f3f3"/></linearGradient><path class="st3" d="M-351 487.5l-5.3 2.3-2.6 5.1-3.8 1-.4 6.4 5.5 3.2-1.3 12 6.5 5.6 2.9-1.7.2-.1.2.1 3.8.6.3.1.1.3 1.6 5.4 6 4 8.8 1.9h.2l.1.1 8.8 9 3.9-3.6.2-.1H-311.7l.2.2 1.7 2 1.8-.3 1-2.3-4-5.3-.1-.2v-.1l-.4-5.3-4.1-1.3-.3-.1-.1-.2-1.3-2.7v-4.7l-2-2.5-.1-.2v-9.6l-14.1-18.4-17.5-.6z"/><linearGradient id="SVGID_4_" gradientUnits="userSpaceOnUse" x1="-500" y1="458.762" x2="114.013" y2="458.762"><stop offset=".886" stop-color="#fff"/><stop offset="1" stop-color="#f3f3f3"/></linearGradient><path class="st4" d="M-331.1 444.5l-8.8-.7-6.4-6.1.6-5.8-6.1-1.3-3.5 8.7-12.9 10.9 1 7.1 6.7-.3 5.2 4.1 1.9 9 5.8-.6 6.7 1.3v4.5l-8.4 11 16 .6 19.8-14.5-1.6-2.5-.1-.2V466.1l.2-.2 2.4-2.3v-.1h.1l3.3-2-.3-2.7-4-.3-2.2 1.7-.3.3-.4-.2-3.5-2-.2-.1-.1-.2-2.2-4.2v-.2l-.2-3.9v-.2l.1-.1 2-3.6-9.5-.6h-.1l-.2-.1-.8-.6z"/><linearGradient id="SVGID_5_" gradientUnits="userSpaceOnUse" x1="-500" y1="419.814" x2="114.013" y2="419.814"><stop offset=".886" stop-color="#fff"/><stop offset="1" stop-color="#f3f3f3"/></linearGradient><path class="st5" d="M-303.1 390.1l-1.4 2.5-10.6 6.1-5.5 8.7-5.8 11.9-.6 9.7 1.6 5.8-4.2 5.1-.3 4 .2.1 10.1.7 4.1-1.8.1-.1h.2l8 .2 4.4-4.1.1-.1h.3l5.9.3h.4l.1.4 2.5 8.6 2.2-1.3.2-.1h.2l4.4.7h.3l.1.2 2.2 3.1 11.4-1.1 6.9-4.4 7.6-10.9.3-2.7-5.2-6.4-.1-.1-.1-.2-.8-5.8-12.8-2.2-.2-.1h-.1l-6.2-4.6-.1-.1-.1-.1-8.3-15.5v-.1l-2.6-6.2-2.5-1.3-5 1.3h-.2l-1.1-.1z"/><linearGradient id="SVGID_6_" gradientUnits="userSpaceOnUse" x1="-500" y1="500.197" x2="114.013" y2="500.197"><stop offset=".886" stop-color="#fff"/><stop offset="1" stop-color="#f3f3f3"/></linearGradient><path class="st6" d="M-332.3 487.7l14 18.3.1.1v9.6l2 2.6.1.1v4.7l1.1 2.3 4.2 1.4 6.5.3 2-3.6.1-.1h.1l12.2-10 1.3-10.1-5.3-4.8-.1-.1v-.1l-2.7-5.9-.1-.1v-.2l.3-10.2-16.2-8.6-19.6 14.4z"/><linearGradient id="SVGID_7_" gradientUnits="userSpaceOnUse" x1="-500" y1="538.879" x2="114.013" y2="538.879"><stop offset=".886" stop-color="#fff"/><stop offset="1" stop-color="#f3f3f3"/></linearGradient><path class="st7" d="M-289.4 514.6l-11.9 9.6-2.1 3.8-.2.3h-.4l-6.2-.3.3 4.8 3.9 5.3 6.6.4h.3l.2.3 1.9 3.3v4.1l4.1 1.9.2.2.1.3 1 6.4 10.6 8.2 5.1-2.4 1.3-3.1-.8-5.2-1.4-3.1-.2-.3.2-.3 2.2-3.8.1-.2.1-.1 9.1-4.2 5.3-4.8.1-5.9-1.2-3.9-4.8-3.8-.1-.1-.1-.1-1.5-4.2-4.6-.5-7.1 3.3-.1.1h-.2l-5-.5-.3-.1-.1-.2-4.4-5.2z"/><linearGradient id="SVGID_8_" gradientUnits="userSpaceOnUse" x1="-500" y1="563.24" x2="114.013" y2="563.24"><stop offset=".886" stop-color="#fff"/><stop offset="1" stop-color="#f3f3f3"/></linearGradient><path class="st8" d="M-258.8 535.1l-.1.9v.3l-.1.1-5.6 5.1h-.1l-.1.1-8.9 4.1-1.9 3.5 1.4 2.9v.1l.8 5.4.1.2-.1.2-1.5 3.5-.1.2-.2.1-5.3 2.5-.6 9.1 5.1 3.8h.1l3.7 3.6.2.1v.3l.4 6.2 5.4 4 7.9-1.4 15.8-8.1 2-2.8.2-13.1v-.1l1.5-8.9v-.2l.1-.1 7-8.2-5.6-6.2-3.3 2.1-.1.1-2.9.8-.2.1-.3-.1-4.3-2.6h-.2l-.1-.2-3.9-7.1-6.2-.3z"/><linearGradient id="SVGID_9_" gradientUnits="userSpaceOnUse" x1="-500" y1="497.642" x2="114.013" y2="497.642"><stop offset=".886" stop-color="#fff"/><stop offset="1" stop-color="#f3f3f3"/></linearGradient><path class="st9" d="M-295.3 481.9l-.3 10.1 2.6 5.7 5.5 5 .2.2-.1.3-1.3 10.3 4.4 5.4 4.7.5 7.1-3.4H-272.2l4.5.4.4-2.6v-.1l.1-.2 3.2-4.3v-.1h.1l6.4-6.9v-4.6l.2-.1 3.8-3.9-.8-7.8-4.6-2.9-.2-.1v-.2l-2.1-4.2-9.8.5-2.3 2.8-.3.4-.5-.2-8.5-5.2-2.4-.8-10.3 6z"/><linearGradient id="SVGID_10_" gradientUnits="userSpaceOnUse" x1="-500" y1="524.338" x2="114.013" y2="524.338"><stop offset=".886" stop-color="#fff"/><stop offset="1" stop-color="#f3f3f3"/></linearGradient><path class="st10" d="M-256.6 503l-6.4 6.9-3.1 4.2-.5 2.9 1.6 4.3 4.7 3.8.2.1v.1l1.4 4.3v.2l-.1 4.1 6.6.3h.4l.1.3 4 7.3 4 2.3 2.6-.7 3.6-2.4.4-.2.4.3 6.1 6.8 4.1 1.5 3.7-.2 12.4-11 6.5-4.6-1.5-4.2-2.5-6.8-12.6-21.3-7.7-.3-2.7 2.4-.3.3-.4-.3-3.1-2-3-2.1-1.5 1.2-.1.1h-.1l-5.4 1.4h-.4l-3-1.4-2.1 1.9-.1.2h-.2l-6 .3z"/><linearGradient id="SVGID_11_" gradientUnits="userSpaceOnUse" x1="-500" y1="460.408" x2="114.013" y2="460.408"><stop offset=".886" stop-color="#fff"/><stop offset="1" stop-color="#f3f3f3"/></linearGradient><path class="st11" d="M-261.1 477.2l1.8-2.3 3-4.2v-9.9l-4.6-2.5-.1-.1-.1-.1-3.6-5.6v-.1l-.1-.1-.8-5.7-6.3 4.1h-.2l-.1.1-12 1.1-.3.1-.2-.3-2.2-3.2-4-.6-2.6 1.6-.7.4-.2-.8-2.6-8.8-5.2-.3-4.4 4-.2.2h-.2l-8.1-.2-4 1.7-2.3 4.1.2 3.6 2 3.9 3.1 1.8 2-1.7.2-.1h.2l4.7.4h.5l.1.5.5 3.5v.4l-.3.2-3.6 2.2-2.2 2.1v2.8l1.7 2.7 16.4 8.7 10.5-6 .3-.2.2.1 2.7.9h.1l8.2 5 2.2-2.7.2-.2h.2l10.2-.5z"/><linearGradient id="SVGID_12_" gradientUnits="userSpaceOnUse" x1="-500" y1="466.25" x2="114.013" y2="466.25"><stop offset=".886" stop-color="#fff"/><stop offset="1" stop-color="#f3f3f3"/></linearGradient><path class="st12" d="M-264.6 445.8l1 6.2 3.4 5.3 4.8 2.6.3.2v11l-.1.1-3.1 4.4v.1l-1.8 2.2 2 4 4.7 3 .3.1v.3l.8 8.5.1.3-.2.2-3.9 3.8v3.7l5.4-.3 2.2-2 .3-.3.3.2 3.2 1.4 5.1-1.3 1.7-1.4.4-.3.3.3 3.4 2.3 2.7 1.8 2.5-2.2.2-.2h.2l7.9.3 3-4.5 2-5.8-1.9-1.8-3.6-4.6v-.1l-.1-.1-2.8-8.7-.1-.2.1-.2 2-6.3v-.1l.1-.1 6.6-7.5v-.1l4.1-3.7.9-4.6-5.2-6.2-12.3.2h-.2l-.2-.1-13.6-8.8-.3-.2v-.3l.3-5.2-1.6-.8-1.4 1.4-.1.1-.2.1-11.7 1.6-.1 1v.2l-.1.1-7.7 11z"/><linearGradient id="SVGID_13_" gradientUnits="userSpaceOnUse" x1="-500" y1="489.678" x2="114.013" y2="489.678"><stop offset=".886" stop-color="#fff"/><stop offset="1" stop-color="#f3f3f3"/></linearGradient><path class="st13" d="M-211.1 457.9l-3.2 3-6.5 7.4-1.9 6 2.7 8.5 3.5 4.4 2.1 2 .3.2-.1.4-2.2 6.2v.1l-.1.1-3 4.6 12.4 20.7 8.5-5.1.2-.1h.1l10.9-.4 12-7.2-2.5-7-11.7-15-5.8-2.6h-.1l-.1-.1-4.5-4.8-.3-.4.3-.4 3.3-4.4 1.3-5.5-2.7-2.7-5.9 4.9-.4.3-.4-.4-5.6-5.9-.1-.2v-.2l-.5-6.4z"/><linearGradient id="SVGID_14_" gradientUnits="userSpaceOnUse" x1="-500" y1="487.138" x2="114.013" y2="487.138"><stop offset=".886" stop-color="#fff"/><stop offset="1" stop-color="#f3f3f3"/></linearGradient><path class="st14" d="M-195.2 467.1l.8.8.3.3-.1.3-1.5 5.9v.2l-.1.1-3.1 4 4.1 4.4 5.8 2.5.1.1.1.1 11.9 15.2.1.1v.1l2.5 7.1 3.9-.8 2.8-4 .2-.3h.3l7.1-.6h.3l.2.2 2.8 2.7 4.5-2.6 1.3-15.6-7.1-3.9-.3-.2v-.3l-.3-6.5-3.3-2.9-5.3 1.7-.2.1-.2-.1-17.3-9.2-10.3 1.1z"/><linearGradient id="SVGID_15_" gradientUnits="userSpaceOnUse" x1="-500" y1="483.779" x2="114.013" y2="483.779"><stop offset=".886" stop-color="#fff"/><stop offset="1" stop-color="#f3f3f3"/></linearGradient><path class="st15" d="M-177.6 468.5l10.3 5.5 5.3-1.8.4-.1.2.3 3.7 3.3.2.2v.2l.4 6.4 7.1 3.9.4.2-.1.4-1.3 15.7 21.3.1 2.6-1.7.2-.1h.2l7 .2h.4l.1.4 1.9 5.4 5.7 2.5.1.1h.1l4.8 5 7.9-8.1.2-.1h.2l19.1.3.4-12v-.2l.1-.2 3.7-4-4.2-4.2-10 2.5-.3.1-.2-.2-15.2-8.9h-.1l-.1-.2-9.2-16.9-13.9-8.4-21.1-1.1-7.3 5.1-.1.1h-.2l-8.2.3-2.5 3.9-.1.1-.1.1-9.8 5.9z"/><linearGradient id="SVGID_16_" gradientUnits="userSpaceOnUse" x1="-500" y1="409.786" x2="114.013" y2="409.786"><stop offset=".886" stop-color="#fff"/><stop offset="1" stop-color="#f3f3f3"/></linearGradient><path class="st16" d="M-209.4 450.8l9.1-4.1-1.2-4.3-.1-.1.1-.2 2.8-15.4.1-.5h.5l7.8.6 10-9.7-1.3-11.5h-9.7l-.1.7-.9-.8-10.7-9.6-6.4.4h-.3l-.1-.1-7.7-6.3-.2-.1v-.2l-1.4-5.7-5.7-4-2.1 1.6-1 5.2-.1.6-.5-.1-14.2-1.2h-.1l-.2-.2-4.7-4.1-13.9-3.6-.1-.1h-.1l-7.2-5.3h-.1l-3.8-3.9-3.8 3.7-2.2 9.1v.2l-4.1 6.3-.2.2-.2.1-9.6 1.8 2.4 5.8 8.2 15.3 6 4.4 13.2 2.3.4.1.1.4.8 6.1 5.3 6.5.1.2v.2l-.1.8 11.2-1.6 1.5-1.5.4-.3.3.2 2.4 1.1.4.2-.1.4-.3 5.2 13.2 8.5 12.5-.2h.3l.2.2 5.2 6.3z"/><linearGradient id="SVGID_17_" gradientUnits="userSpaceOnUse" x1="-500" y1="443.728" x2="114.013" y2="443.728"><stop offset=".886" stop-color="#fff"/><stop offset="1" stop-color="#f3f3f3"/></linearGradient><path class="st17" d="M-150.5 452.3l-7.7-7.4-.3-.2.1-.4 3-10.9-5.8-7.1-5 .3h-.2l-.1-.1-13.1-8.4-10 9.7-.2.2h-.3l-7.6-.5-2.6 14.7 1.3 4.6.2.5-.5.2-9.7 4.4-.9 4.7.5 7.4 5 5.4 5.9-4.8.4-.4.4.4 1.4 1.5 11.4-1.3h.2l.2.1 5.7 3 10.3-6.3 2.5-4 .2-.2h.3l8.4-.4 6.6-4.7z"/><linearGradient id="SVGID_18_" gradientUnits="userSpaceOnUse" x1="-500" y1="722.258" x2="114.013" y2="722.258"><stop offset=".886" stop-color="#fff"/><stop offset="1" stop-color="#f3f3f3"/></linearGradient><path class="st18" d="M-164.9 682.5l-.4 7.3 3.9 9.3 4.5-1 3.2-2.9 6.7 3.3-.3 4.5-1.9 4.1 2.2 2.6 6.5 2.3 2.5 9 2.6 11.2-2.9 7.1 2.9 5.8 7.4-4.5 3.2 1 2.3 4.8 1.6 8.3 4.8 3.6 5.8-3.9 5.5.3 10.3 4.5-.4 4.9 2.3 3.8 5.1 1 4.2-4.5 4.5 4.5 5.8 3.5-1.3 9 1.3 5.2 5.8 6.4 4.8 1.6 4.8-2.9 3.9 1.3 2.9 5.8 11.9 3.9 5.1-3.9 5.2-7.4-9.1-19.9-.8-.6-.2-.1-.1-.2-2-5.9-.1-.4.3-.3 5-3.9 1.2-3.5-2.5-5.3-12.7-3.9-5.9 1.5-3.1 7.3-.2.4-.4-.1-7.7-.7h-.2l-.2-.2-7-7-13-3h-.2l-.2-.3-2.8-5.4-.2-.4.3-.3 5.1-5.4-3.2-3.3-.2-.2v-.3l.2-3.4v-.4l.5-.1 4.6-1.4.5-7.9-6.7.3-3.2 2.2-.8.5-.1-.9-1.2-9.4v-.5l.4-.2 3-1.1.4-5.6-3-3.4-.2-.2v-.2l.4-13.1-3.7-5.1-.1-.2V662.2l-3.5-7.7-.1-.2.1-.2 1.6-7-4.6-5.2-.2.8-2.4 7.9-.1.1-1.8 3.5-.1.2-.2.1-13.6 7.6-3.4 6.3-.2.2-.2.1-9.4 3h-.1l-4.8.7-9.6 8.4-.2.1h-.2l-13.9 1.1-.3.5z"/><linearGradient id="SVGID_19_" gradientUnits="userSpaceOnUse" x1="-500" y1="642.47" x2="114.013" y2="642.47"><stop offset=".886" stop-color="#fff"/><stop offset="1" stop-color="#f3f3f3"/></linearGradient><path class="st19" d="M-232.5 676.9l6.1 5.8-.6 6.4-1.6 5.2 3.5 6.4 7.1-3.2 3.5-7.1 4.2-4.5 10 2 5.4-4.5 3.9-.4 2.9 2.3 9.9-.7 7.4-1.9 5-1.1.3-.4.2-4.4-.5-3.6-4.9-7.1-.2-.2.1-.2.7-8.6-5.6-7-.1-.1v-.1l-2-8v-.1l-.4-4.5-4.6-1.6h-.1l-13.6-7.4-.3-.1v-.4l-.2-7.4-13.3-2.3-.1-.1h-.1l-14.2-8.3-.3-.2V604.6l-2-3.5-6.9-.7h-.3l-.1-.3-10.1-15.9-13.4 6.9-.1.1h-.1l-7.8 1.4-.6 9.7v.2l-.2.2-2.1 1.9.6 7.8 4 5.3 6.1 1.2.1.1.2.1 10.8 10.5.2.2v8.4l-.1.1-4.8 5.5-.3 5.1 3.8.3 4.5-1.9.8-.4.1.9.3 8.7 2.7 3.9 6.3 1.3.5.1v.5l.4 14.6z"/><linearGradient id="SVGID_20_" gradientUnits="userSpaceOnUse" x1="-500" y1="650.26" x2="114.013" y2="650.26"><stop offset=".886" stop-color="#fff"/><stop offset="1" stop-color="#f3f3f3"/></linearGradient><path class="st20" d="M-177 637.2l.4 4.5 1.9 7.8 5.7 7 .1.2v.3l-.7 8.6 4.8 7 .1.1v.2l.6 3.8v.1l-.2 4 13.4-1.1 9.6-8.3.1-.1.2-.1 4.9-.7 9.1-2.9 3.4-6.2.1-.1.1-.1 13.7-7.7 1.7-3.3 2.4-7.8.9-3.6-6.8-9.9-3-2.6-3.1 2.2h-.1l-.1.1-2.8.5-.3.1-.3-.3-5.5-8-1.7 1.3-7 7.3v.1h-.1l-4 2.4-.2.1h-.3l-5.1-1.3-.2-.1-.1-.1-7.9-6.9-5.3-3.9-4.9.5-8.2 1.1-3.3 4.6-.1 2 2.6 1.3.3.2v.4l-.9 5.4-.1.3-.3.1-3.5 1.5z"/><linearGradient id="SVGID_21_" gradientUnits="userSpaceOnUse" x1="-500" y1="607.217" x2="114.013" y2="607.217"><stop offset=".886" stop-color="#fff"/><stop offset="1" stop-color="#f3f3f3"/></linearGradient><path class="st21" d="M-195.8 620.1l.2 7.3 13.3 7.2 4.7 1.6 3.3-1.5.8-4.5-2.5-1.3-.4-.2v-.4l.2-2.6v-.1l.1-.2 3.5-5 .2-.2h.2l8.5-1.1 5.2-.6h.2l.2.2 5.5 4h.1l7.8 6.9 4.8 1.2 3.7-2.2 7-7.3.1-.1 1.7-1.2-5.2-6.4-.3-.4.3-.3 2.3-2.6-.5-5.5-10.4-.7h-.3l-.1-.3-5.9-8.4-7.5-.4h-.4l-.1-.3-2.7-6.8-8.2-9.7-1.1 1.4-1.4 7.2v.1l-.1.1-1.8 2.8-.3.4-.4-.2-12.5-4.3v13.2l-.2.2-2.6 3 2.4 4.6.1.2-.1.3-1.1 3.1-.1.1-.1.1-10.1 9.6z"/><linearGradient id="SVGID_22_" gradientUnits="userSpaceOnUse" x1="-500" y1="584.198" x2="114.013" y2="584.198"><stop offset=".886" stop-color="#fff"/><stop offset="1" stop-color="#f3f3f3"/></linearGradient><path class="st22" d="M-222.9 550.4l-3.6.2h-.2l-.1-.1-4-1.3-6.8 8.1-1.5 8.7-.2 13.3v.2l-.1.2-2.2 3-.1.1-.1.1-1.5.8 9.8 15.5 6.9.7.3.1.2.2 2.2 3.9.1.1V608.8l13.8 8.1 13.4 2.3 10-9.4 1-2.8-2.5-4.7-.2-.4.3-.3 2.8-3.1v-13.1l-4.8-.3h-.3l-.2-.3-3.4-7.3-7.7-1.4-2.5 2.2-.6.5-.3-.6-4.8-7.9-.1-.2v-.1l-.7-8.9h-8.5l-.2-.4-3.6-10.3z"/><linearGradient id="SVGID_23_" gradientUnits="userSpaceOnUse" x1="-500" y1="561.665" x2="114.013" y2="561.665"><stop offset=".886" stop-color="#fff"/><stop offset="1" stop-color="#f3f3f3"/></linearGradient><path class="st23" d="M-203.2 534.6l-6.5 4.5-12.1 10.9 3.5 9.9h8.8l.1.6.7 9.3 4.3 7.1 2.3-1.9.2-.2.3.1 8.2 1.5h.4l.1.3 3.3 7.2 4.4.3v-.2l.8.3 12.8 4.5 1.5-2.3 1.5-7.3v-.1l.1-.1 1.6-2 2.7-4.5.2-3.1-3.6-2.1-.2-.1-.1-.3-.5-3.8-2.2-1.2-1.2 1.9-.1.3h-.3l-8.7.3-.9 2.5-.2.4-.5-.1-4.4-.7-.3-.1-.2-.2-4.6-8.7v-.2l-1.3-12.7-9.9-10z"/><linearGradient id="SVGID_24_" gradientUnits="userSpaceOnUse" x1="-500" y1="570.86" x2="114.013" y2="570.86"><stop offset=".886" stop-color="#fff"/><stop offset="1" stop-color="#f3f3f3"/></linearGradient><path class="st24" d="M-162.8 569.3l-.2 3.4v.2l-.1.1-2.5 4.3 8.3 10h.1v.1l1.2 2.9 6.2-1.8h.1l8.2-1 .9-6.4v-.3l.3-.1 4.2-2.4.1-.1h.1l8.4-2.1.9-7.1-2.3-12.4-16.1-5.2-9.2 2.6-.9 9.6v.2l-.2.2-7.5 5.3z"/><linearGradient id="SVGID_25_" gradientUnits="userSpaceOnUse" x1="-500" y1="535.253" x2="114.013" y2="535.253"><stop offset=".886" stop-color="#fff"/><stop offset="1" stop-color="#f3f3f3"/></linearGradient><path class="st25" d="M-206.6 522.6l2.3 6.4 1.7 4.5 10.3 10.4.2.2v.2l1.3 12.7 4.4 8.4 3.6.6 1-2.4.1-.3h.4l8.7-.4 1.3-2.1.3-.5.5.3 2.9 1.6.3.2.1.3.5 3.7 3.2 1.9 7.2-5.1.9-9.7.1-.4.4-.1 9.3-2.7.5-13.9v-.6h.5l8.5-.4 4.5-3.6.3-.3.4.3 9.1 5.7 7.2-10.1.3-.5.5.4 8.5 6.1 6-2.6 2.6-3.1-5.1-6.5-10.4-10.6-5.8-2.6-.2-.1-.1-.2-1.9-5.3-6.4-.2-2.6 1.7-.1.1h-.2l-22-.2-5 2.9-.4.2-.3-.3-2.9-2.7-6.7.5-2.8 4-.1.2h-.2l-4.5.9-12.5 7.5-.1.1h-.2l-10.9.4-8.5 5.1z"/><linearGradient id="SVGID_26_" gradientUnits="userSpaceOnUse" x1="-500" y1="556.646" x2="114.013" y2="556.646"><stop offset=".886" stop-color="#fff"/><stop offset="1" stop-color="#f3f3f3"/></linearGradient><path class="st26" d="M-122.2 538.6l-9-5.6-4.3 3.5-.2.1h-.2l-8.1.4-.4 13.4 16.2 5.2.3.1.1.3 2.4 12.9v.2l-.8 6.5 4.3-1.7h.2l13.5-1.9h.2l9.6 3 .2.1.1.2 3 5 4.9-4.6-.3-10.7-2.2-5.2-6.6-7.3-16.8-2.9-.2-.1-.1-.1-3.9-3.2-.2-.1v-.2l-1.7-7.3z"/><linearGradient id="SVGID_27_" gradientUnits="userSpaceOnUse" x1="-500" y1="617.367" x2="114.013" y2="617.367"><stop offset=".886" stop-color="#fff"/><stop offset="1" stop-color="#f3f3f3"/></linearGradient><path class="st27" d="M-90.2 577.3l-4.6 4.4-.5.5-.4-.7-3.3-5.4-9.2-2.9-13.3 1.9-4.9 1.9v.1l-.4.1-8.8 2.1-3.9 2.3-.9 6.5v.4l-.5.1-8.6 1.1-6 1.7 1 2.5 7.3.3h.3l.2.3 5.9 8.4 10.6.7h.5v.6l.6 6.2v.3l-.2.2-2 2.4 4.8 5.9h.1l.3.5 5.7 8.2 2.3-.5 3.3-2.3.4-.3.4.3 3.3 3h.1v.1l7 10.1.2.2-.1.3-.4 1.6 5.4 6.1.2.2-.1.3-1.6 7.2 3.3 7.3h1.5l2.1-4.7 2.6-5.8.2-.4h.4l4.5.2h.1l.2.1 5.9 3.7 1.4-2-1.1-6.5-4.1-4.2-.3-.2.1-.3.9-6.6.1-.6.6.1 10.9 1.3 8.9-2.8 1.2-7.3-3.2-.5h-.2l-.1-.2-2.1-2.5-.4-.4.5-.4 4.7-3.4.2-1.6-4-.5-.5-.1-.1-.4-.5-2.6-.1-.2.1-.2 2.4-4.3-1.5-1.1-7.9 4.3-.2.1h-.2l-9.4-1.9-.3-.1-.1-.2-3.9-6.4h-.1v-.1l-2.4-7.7-.1-.1v-.1l-.2-17.6z"/><linearGradient id="SVGID_28_" gradientUnits="userSpaceOnUse" x1="-500" y1="591.379" x2="114.013" y2="591.379"><stop offset=".886" stop-color="#fff"/><stop offset="1" stop-color="#f3f3f3"/></linearGradient><path class="st28" d="M-87.5 598.8l1.1 3.6 3.8 6.1 8.9 1.8 8.1-4.4.3-.2.3.2 2.3 1.7.4.3-.3.5-2.5 4.5.4 1.9 4.3.6h.6l-.1.6-.4 2.5v.2l-.2.2-4.4 3.2 1.5 1.7 3.5.6h5.6l5.6-5.1.2-12.9v-.7l.6.1 5.2.3 5.3-5.9 3.4-8.7v-.1l.1-.1 5.2-5.5 6-15.4-3.1-2.4v-.1l-3.6-4-4.7.9h-.3l-.2-.2-6.2-5.9-9.7-.3-.2 3.3v.1l-.6 4.7v.2l-.2.2-6.9 5.8-.3.2-.3-.1-5.6-2.6-4.3-.3-4.3 15.8-.1.4h-.4l-9.4 1.5-4.4 11.2z"/><linearGradient id="SVGID_29_" gradientUnits="userSpaceOnUse" x1="-500" y1="687.62" x2="114.013" y2="687.62"><stop offset=".886" stop-color="#fff"/><stop offset="1" stop-color="#f3f3f3"/></linearGradient><path class="st29" d="M-47.9 620.1l-5.8 5.3-.2.2h-5.5l-1.2 7.7-.1.4-.3.1-9.4 3H-70.7l-10.5-1.2-.8 5.7 4.1 4.1.2.1v.2l1.1 6.9.1.3-.2.2-1.9 2.6-.3.5-.5-.3-6.2-3.9-4-.2-2.4 5.5-2.3 5.1-.1.3h-2.1v16.9l3.7 5.1.1.1v.2l-.4 13.1 3 3.4.2.2v.2l-.4 6.2v.4l-.4.1-2.9 1.2.9 7.9 2.6-1.7.2-.1h.1l7.5-.3.7-.1v.7l-.6 9v.4l-.4.1-4.7 1.4-.2 2.7 3.4 3.6.4.4-.4.4-5.1 5.5 2.5 4.8 12.8 3h.2l.1.1 7 7 7.1.7 3-7.1.1-.3h.3l6-1.6.8-5.5.8-5.6.1-.4.4-.1 7.6-1.8.9-6.1v-.1l.1-.2 6.4-10.8v-.2l.2-.1 10.7-6 .3-.1.2.1 5.4 2.8h2.6l1.9-6.9.1-.3.3-.1 5.3-1.7 3-2.3-4.1-4.3-2.4 1.1-4 2.1-.2.1-.2-.1-17.1-5.6h-.1l-.1-.1-3.9-3.2-.2-.1v-.1l-4.5-10.1-.1-.3.1-.2 2-6 .1-.2.2-.1 8-4.9.2-.1h.2l4.5.4h.3l.1.2 3.6 4.7.1.2v.2l.2 7.8 3.3 2.6 4.1-1.9.2-.1h.1l4 .4h.1l.2.1 2.6 1.9h.1l6 5.9 2.8-1.6 2-4-3.7-4.9-.1-.1v-.2l-.5-3.9-.1-.2.1-.2 3.9-7.2.8-5.9-3.1-.5h-.2l-11-4.9h-.1l-.1-.1-4.7-3.7-.1-.2-.1-.1-1.7-5.3-4.5 1.2-.4.1-.2-.4-2.1-2.8-.1-.1v-.1l-.7-4.9-.7-3-5.1-1.2-.4-.1v-.4l-.6-6.7-11.8-.5h-.6v-9.4l-5.2.2z"/><linearGradient id="SVGID_30_" gradientUnits="userSpaceOnUse" x1="-500" y1="530.886" x2="114.013" y2="530.886"><stop offset=".886" stop-color="#fff"/><stop offset="1" stop-color="#f3f3f3"/></linearGradient><path class="st30" d="M-11.4 518.3l-7.9 3.7-.2.1-.2-.1-22.6-8.7-7.6 8.5-.3.4-.5-.3-3.6-2.9-.2-.2v-13.7l-1.8-4.5-.2-.3.3-.3 18-20.2-.8-8.7-5.2-6.3-7.1 1.1-10.2 6.7-.2.1h-.2l-9.1-.4-1.3 3.2 6.5 6.1.4.4-.4.5-7.9 8.2-4 4.3-.3 12.4v.5h-.6l-19.4-.3-7.7 7.8 4.8 4.9v.1l5.4 7 .3.4-.3.3-3 3.6-.1.1-.1.1-6.4 2.8-.3.1-.3-.2-8.3-6-7 9.8 1.6 7 3.6 3 17 3h.2l.1.2 6.8 7.5.1.1 2.2 5.5.1.1v.1l.3 11.1v.2l.2 18.6.7 2.2 4-10.2.1-.3h.4l9.3-1.5 4.4-15.9.2-.5h.4l4.9.4h.1l.1.1 5.3 2.4 6.5-5.4.5-4.4.2-3.9v-.6h.6l10.5.4h.3l.1.1 6.2 5.8 4.7-.9h.4l.2.2 3.7 4.3 2.9 2.3 5-5.6 3.8-5.2-4.4-3.8-.2-.2v-7l.4-.1 16.6-7-.5-9-10-13.2z"/><linearGradient id="SVGID_31_" gradientUnits="userSpaceOnUse" x1="-500" y1="718.49" x2="114.013" y2="718.49"><stop offset=".886" stop-color="#fff"/><stop offset="1" stop-color="#f3f3f3"/></linearGradient><path class="st31" d="M33.3 738.3l18.2 4.2 10.2 6.5 6.2-4.9 9 4.9 30.2 5.7 11-5v-.2l-.6-5.7-10.5-9.2-.2-.1v-.3l-.2-6.6-6.8-6.1-7.8-2.4-.3-.1-.1-.3-1.8-6.6-4.1-9.7-.1-.2v-.2l1.7-8.1-8.6-4.1-6.4 3.2-.4.2-.3-.4-5.2-6.7-11.1-3.9-12.7 3.9.7 3.6v.1l-.2 11.5-.1.3-.2.2-17.2 12.8-.4 6.2 12.9 7.8.5.3-.3.5-5 8.9z"/><linearGradient id="SVGID_32_" gradientUnits="userSpaceOnUse" x1="-500" y1="716.013" x2="114.013" y2="716.013"><stop offset=".886" stop-color="#fff"/><stop offset="1" stop-color="#f3f3f3"/></linearGradient><path class="st32" d="M-37.8 769.9l3.7-4.9 12.2-.9 1-8.7 5.8-3.2 6.1.3 7.4 5.8 4.5-4.2-5.5-9-2.5-9 6.1-6.4 5.4-1.6 8.4 9 17.3 1 .1-.1v-.1l4.8-8.6-12.7-7.6-.4-.2.1-.4.4-6.8v-.3l.2-.2L41.9 701l.2-11.2-1.5-7.9-4.6-4.4-2.5 1.5-.2.2-.3-.1-4.4-1.1h-.1l-.1-.1L10 662.2l-3.1.8-.9 6.1v.1l-.1.1-3.8 7.2.5 3.6 3.8 5.1.2.3-.1.3-2.3 4.5-.1.2-.1.1-3.4 1.9-.4.2-.3-.3-6.3-6.2-2.5-1.7-3.6-.4-4.4 2-.3.2-.3-.3-3.8-3-.2-.1v-.3l-.2-7.9-3.3-4.3-4-.4-7.7 4.7-1.9 5.6 4.3 9.8 3.8 3 16.7 5.5 3.7-1.9 2.8-1.4.4-.1.3.3 4.9 5 .5.5-.6.4-3.5 2.8-.1.1h-.1l-5.1 1.6-2 7-.1.5H-16.5l-.2-.1-5.1-2.7-10.3 5.8-6.2 10.6-.9 6.5-.1.4-.4.1-7.7 1.8-.7 5.2-.8 5.3 12.6 3.9.3.1.1.2 2.7 5.8.1.2-.1.2-1.3 4-.1.2-.1.1-4.8 3.7 1.7 5.2z"/><linearGradient id="SVGID_33_" gradientUnits="userSpaceOnUse" x1="-500" y1="614.876" x2="114.013" y2="614.876"><stop offset=".886" stop-color="#fff"/><stop offset="1" stop-color="#f3f3f3"/></linearGradient><path class="st33" d="M90.6 536.8l-3.2 5.4-2.2 5.2-.1.1-10.3 13.7h-.1l-15.5 15.2-.1.1v.1L46 582.5l-.3 5.8 4.2 8.1.2.4-.3.3-5.6 6.5-.9 8.6v.2l-.1.1-3.7 4.6-.1.2h-.3l-12.3.6-1.7 7.8-.1.2-.2.1-5.2 3.4-.4.3-.3-.4-5-5.5L7 634.7l-.1.2-.3.1-11.3 1.1-9.7 11.5 1.7 5.3 4.5 3.6 10.9 4.8 3.6.6 3.8-1h.3l.2.2L29 676.9l4.1 1 2.6-1.7.4-.2.4.3 5 4.9.2.1v.2l.7 3.4 12.7-3.9h.4l11.5 4 .1.1.1.1 5 6.5 6.2-3.1.3-.1.3.1 9 4.3 4.5-1.3-.3-9.8v-.2l.1-.1 5.2-10.9.1-.4h.4l18.2.6 6.3-10.9-4.6-7-.1-.2v-.2l.6-6.6v-.1l1.8-12.1-12.5-8-.1-.1-.1-.1-2.1-5.5-.2-.3.3-.3 7.1-8.6-1.5-7.3-2.4-13.1-.1-.3.2-.2 5.9-8.3-.3-9.7-6.8-16.4-11.7-6.9-.2-.2-.1-.2-1.8-8.1-3.2-3.3z"/><linearGradient id="SVGID_34_" gradientUnits="userSpaceOnUse" x1="-500" y1="366.992" x2="114.013" y2="366.992"><stop offset=".886" stop-color="#fff"/><stop offset="1" stop-color="#f3f3f3"/></linearGradient><path class="st34" d="M-248.6 330.2l-2.9 2.3-1.7 4.6.3 15.1v.4l-.4.1-11.1 3.6-.7 5.2-.1.5h-.5l-3.6.4-1 3.7-.1.1-.1.1-1.6 1.7 3.8 3.8 7.2 5.1 13.8 3.7h.1l.1.1 4.7 4.1 13.5 1.2.9-5v-.2l.2-.1 2.6-2.1.4-.2.3.2 6.3 4.5.2.1v.2l1.4 5.7 7.3 6 6.5-.4h.2l.2.2 10.1 8.9.4-4.6-1.7-5.6-4.6-5-.3-.3.3-.4 4.3-6.7-.8-7.4-4-7.8-.1-.2.1-.2 1.1-5.4-3.9-.5-.4-.1-.1-.4-.9-3.6-6.8-.2h-.3l-.2-.3-2-3.6-.2-.3.2-.3 1.7-3.3-.3-4.3-5.3-1.8-1.6 2.1-.2.3h-.3l-3.7-.4-.1-.1-.2-.1-3.6-3.3-5.8.8-.4.1-.2-.4-3.4-5.9-3.8-1.8-6.6 3.3-.6.3-.2-.7-1.8-5.5z"/><linearGradient id="SVGID_35_" gradientUnits="userSpaceOnUse" x1="-500" y1="423.219" x2="114.013" y2="423.219"><stop offset=".886" stop-color="#fff"/><stop offset="1" stop-color="#f3f3f3"/></linearGradient><path class="st35" d="M-179.1 417l13 8.4 5.2-.3h.3l.2.2 6.1 7.6.2.2-.1.3-3 10.9 7.9 7.5 21.3 1.1h.2l.1.1 14.1 8.5.2.1v.2l9.2 16.9 14.9 8.7 10.2-2.5.3-.1.2.2 4.4 4.4 7.1-7.3-6.3-6-.3-.3.2-.3 1.6-4 .1-.4h.4l9.4.4 9.9-6.5v-6.9l-6.8-3.4-.5-.2.2-.5 2.2-5.8-6.4-2.1-4.2 1.9-.5.2-.3-.5-5-12.8-12.3-.4h-.3l-.2-.2-7.8-9.1-7.5-4.7h-.1v-.1l-7.2-6.7v-.1l-21.1-23.8-.2-.2.1-.3 1.5-11.9.1-.2.1-.2 7.8-8.8-5.2-1.7-.4-.2v-8.5h-6.3l-4.3 4.1-.2.2h-.2l-8.9-.4h-.3l-.1-.2-4.2-4.4-4-.1-5.9 2-9.5 7.1-6.2 13.1-.1.3h-.5l-10.3-.8-5.8 3.1-4.1 6.4 4.4 4.7v.1l.1.1 1.8 5.9v.2l-.5 5.2h10.7v.5l1.4 12.1z"/><linearGradient id="SVGID_36_" gradientUnits="userSpaceOnUse" x1="-500" y1="344.886" x2="114.013" y2="344.886"><stop offset=".886" stop-color="#fff"/><stop offset="1" stop-color="#f3f3f3"/></linearGradient><path class="st36" d="M-250.4 300.6l-6.2.7-10 7.7-5.8 8.1-11.2-.7-6.8 11.3-8 .9-.3 8.7-11.9 7.7.6 11.3 4.8 6.1-5.4 6.8 1.2 5.4 7.8 2 1.6 8-2.5 4.3.5.1 5.1-1.3.3-.1.2.1 2.6 1.5 9.9-1.9 3.9-6 2.2-9.2v-.2l.2-.1 6.2-6.2 1-3.9.1-.4.5-.1 3.6-.3.6-5.1.1-.4.3-.1 11.1-3.6-.3-14.7V336.7l1.9-4.8v-.1l.1-.1 3.6-2.9 3.6-11.1-4.7-7.5-.1-.2v-.1l-.4-9.3z"/><linearGradient id="SVGID_37_" gradientUnits="userSpaceOnUse" x1="-500" y1="332.62" x2="114.013" y2="332.62"><stop offset=".886" stop-color="#fff"/><stop offset="1" stop-color="#f3f3f3"/></linearGradient><path class="st37" d="M-189.4 284.8l-10.6.4-13.2 4.9-.6 10.6 1.2 4.8-3.8 3.2-2.9-7.4-5.2-.3-8-7.7-10 6.4-6.7.8.4 9.2 4.8 7.6.1.3-.1.2-3.6 11.4 1.7 5.5 6.3-3.1.2-.1.3.1 4.2 2 .2.1.1.2 3.2 5.7 5.7-.8h.3l.2.2 3.7 3.3 3.1.3 1.6-2.1.2-.4.5.2 6 2 .4.1v.4l.4 4.9.1.1-.1.2-1.7 3.2 1.7 3 6.9.2h.5l.1.5.9 3.6 4.1.6.6.1-.1.6-1.2 5.9 3.9 7.7.1.1v.1l.7 6.8 5.3-2.8.2-.1h.1l10.1.8 6.1-12.8.1-.1.1-.1 9.7-7.3.1-.1h.1l6-2 .1-.1h.1l8.5.2 4.4-3.5-8.2-10.7-5.2-1-.4-.1-.1-.3-2.4-8.2-3.3.3-.6 5v.6l-.7-.1-2.6-.6-.3-.1-.1-.2-2-3.5-2.6.8-.4 5.9v.7l-.7-.2-3.6-.8-.3-.1-.1-.2-2.1-4.3-10.1.2h-.3l-.2-.3-4.1-6h-9.9l-.1-.2-2.7-3.3-.3-.4.3-.3 16.5-19.9-1-20.4z"/><linearGradient id="SVGID_38_" gradientUnits="userSpaceOnUse" x1="-500" y1="239.247" x2="114.013" y2="239.247"><stop offset=".886" stop-color="#fff"/><stop offset="1" stop-color="#f3f3f3"/></linearGradient><path class="st38" d="M-47.7 244.8l2.7-16.5 3.8 5.5-1.6 11.6 4.9 10.2 1.2 17.1 6.8 10.3 1.6 10.6 25.1 15.1 15.4-2.9 11.6-15.7 3.2-16.8-5.1-19.9.6-28.9-3.2-10.7-8-12.8-1.3-10 3.5-2.2 4.8 6.7 4.9-3.2-4.5-8.7L1.6 172l-24.4-2.2-4.9 3.5-12.2 7.1.3 9.6-8.3 13.5-16.4.4-5.5 6.8 12 16 .2.3-.1.2-1.9 9.5 10 5 .1.1.1.1 1.7 2.9z"/><linearGradient id="SVGID_39_" gradientUnits="userSpaceOnUse" x1="-500" y1="289.457" x2="114.013" y2="289.457"><stop offset=".886" stop-color="#fff"/><stop offset="1" stop-color="#f3f3f3"/></linearGradient><path class="st39" d="M-77.7 311.7l-.8-5.2 1-4.5-4.2-5.8 3.9-7.1 11.9-14.8 9.9-3.2 5.8-10 2.2-14.4-2.3-4-10.2-5.1-.4-.2.1-.5 1.9-9.7-11.6-15.5-13.8 17.3-7-.4-9 6.1-6.5-.3-2.5 6.5-2.9 5.4-5.2 3.9 2.9 5.4-3.5 3.6-11.9-1.9-3.2 11.2-2.3 17.1-7.1 2.8-31.5-4.1-14.2.5.4 9.2 7.7-1.6h.2l10.1 1.5h.3l.1.2 4.1 5.7.1.1v.2l-.2 7.1v.2l-.1.2-3.5 4.1.4 7.8v.2l-1.1 6.8v.3l-.2.1-5.1 4-1.5 3.8 2 4.2 2.7.6.4-5.6v-.4l.4-.1 3.4-1 .5-.2.2.4 2.1 3.7 1.7.4.5-4.8.1-.5.5-.1 4.2-.4h.5l.2.4 2.5 8.4 5.1 1h.2l.1.2 8.1 10.5 1.2-3.4-.8-10V337.7l3.7-7.1.1-.1 13.1-14.2.3-.2h.3l7.7 1.9h.2l.2.3 2.4 4.4.1.2-.1.2-1.2 7.7v.2l-.1.1-5.7 5.5-9.6 10.8-2.6 9.2h6.4l.6-.1v9l5.2 1.7 3.7-4.1.2-.2h5l1.8-8.7.1-.1.1-.1 8.8-9.3-2.1-3.5v-.1l-2.8-4.7-.1-.2v-.3l2-7.1.1-.2.1-.1 8.6-8.6.7-4.6.2-.7.6.2 5.9 1.6 3.7.7 4.5-4.9.1-.1h.1l.7-.4z"/><linearGradient id="SVGID_40_" gradientUnits="userSpaceOnUse" x1="-500" y1="459.083" x2="114.013" y2="459.083"><stop offset=".886" stop-color="#fff"/><stop offset="1" stop-color="#f3f3f3"/></linearGradient><path class="st40" d="M57.7 376.9l-11.8 15.3 4.1 6.4.2.3-.1.3-2.7 5 1.9 8.1.1.4-.4.3-7.5 4.3-.3.2-.3-.2-9.8-6.2-9.4.3-.5.1-.1-.5-1.5-7L-4 385.9l-2.6 3.9 6.5 10.8.1.2v.2l-2 9.2v.2l-.2.1-5.6 5.6 2.6 4.4v.2l.4 4.8.1.6-.6.1-9.3.3-7.3 9.6-.3 5.8 8.7 3.6 3.7-4.4.1-.1.2-.1 8.3-2.8.5-.1.3.4 5.1 10.4.2.4-.3.3-19.3 15.3-.4 8.5v.3l-.2.2-6.8 5.1-.3.2-.3-.1-8.4-3.4-6.1 4.9-17.9 20 1.8 4.2v13.6l2.9 2.3 7.5-8.4.3-.3.4.1 22.7 8.8 7.9-3.6 4.4-11 .2-.5.4.1 15.1 1.4h.2l.2.2L20 520l12.2 6.3 17.1 1.9 6.8-3.7.3-.2.3.2 18.5 15.2 11.4 1.6 20.6-35.2v-.1l.1-.1 15.4-13.7 2.3-8.4v-.2l.2-.1 15.2-13.6.6-.5.3.6 3.2 5 8.5-.5 10.1-8.9.1-.1h.2l15.5-.3 11.2-9.3.2-.1h.2l22.1-1 5.7-6.7.1-.1.2-.1 8.7-2.9 5.2-8-3.4-11.2v-.2l.1-.3 4-7.2-4.2-.7-2.8 4.1-.1.3H220.5l-6.8 6.3-.2.2-.3-.1-8.1-1.9-6.2 7.2-.2.2h-.2l-18.4 1.5h-.2l-.2-.1-79.6-56.9-7.7 2.4h-.2l-34.5-3.7z"/><linearGradient id="SVGID_41_" gradientUnits="userSpaceOnUse" x1="-500" y1="288.125" x2="114.013" y2="288.125"><stop offset=".886" stop-color="#fff"/><stop offset="1" stop-color="#f3f3f3"/></linearGradient><path class="st41" d="M-63.9 289.4l2.5 2.8 3.3-2.3-.9-3.9-2.6-1.9-2 2.7-.3 2.6z"/><linearGradient id="SVGID_42_" gradientUnits="userSpaceOnUse" x1="-500" y1="292.965" x2="114.013" y2="292.965"><stop offset=".886" stop-color="#fff"/><stop offset="1" stop-color="#f3f3f3"/></linearGradient><path class="st42" d="M175.3 298.4l4.1-3v-6.8l-4.9-1.1.8 10.9z"/><linearGradient id="SVGID_43_" gradientUnits="userSpaceOnUse" x1="-500" y1="360.399" x2="114.013" y2="360.399"><stop offset=".886" stop-color="#fff"/><stop offset="1" stop-color="#f3f3f3"/></linearGradient><path class="st43" d="M241.5 394.9l-6.1-11.3-16.1-17.3h-12.2l-1.6 7-.3 10.7-8.7 5.1-4.8-1-3.3 4.9-6.1-4.9 7.1-6.4v-7.1l-22.8-.3-11.3-8.4-17.3 1.7-6.1-8.4 10.2-1 5.5-10.6-13.8-3.2-6.5 7.7-3.2-5.8-35.3-8.7-4.5 4.6-5.2-4.9-18.6 11-9.7-9.4 2.9-8.3-2.9-8.4 11.6-3.8 10.6 7.3 5.1-8.3-.3-15.1-14.1-15.5-4.2 15.2-19.3 12.5-1.6 9.6-9.2 8.4 3.6 19.3 10.1 15.1 9.3 1.2h.3l.1.3 5 7.3 34.4 3.7 7.8-2.5.3-.1.2.2 79.7 57 18-1.5 6.2-7.3.3-.2.3.1 8.2 1.9 6.7-6.3.1-.1H225.4l2.8-4.2.2-.4.4.1 5.1.9 4.1-7.2-4.3-7.7-.3-.4.4-.3 7.7-6.5z"/><linearGradient id="SVGID_44_" gradientUnits="userSpaceOnUse" x1="-500" y1="315.076" x2="114.013" y2="315.076"><stop offset=".886" stop-color="#fff"/><stop offset="1" stop-color="#f3f3f3"/></linearGradient><path class="st44" d="M102.9 317.3l5.5 7.3 13 .3 1.5-4.9-.8-7.2-6.9-7.5-9.9 3.4-2.4 8.6z"/><linearGradient id="SVGID_45_" gradientUnits="userSpaceOnUse" x1="-500" y1="268.902" x2="114.013" y2="268.902"><stop offset=".886" stop-color="#fff"/><stop offset="1" stop-color="#f3f3f3"/></linearGradient><path class="st45" d="M199.7 327l3-28.6 2.3-10.9 9.4-10.1 11.3-3.8 4.5-6.4-2.6-7.9 8.2 5.3 7.5-.8 1.9-5.6 4.9.4.4-5.7 6 2.3 1.1-5.7 4.5 4.9 3.4-4.5 1.2-6.8 6.3 4.6 4.2-3.8 8.6 1.9 7.2-8.3 54.9-1.1 13.1-7.2 1.5-9.7-5.6-6.8-13.2 3.4-2.2 4.9-22.6-1.9-9.8-8.3-8.6 4.9-8.7-3.8-10.9 7.2h-9l-4.5 3.7-6-6.3-3 13.1-6.8.4-.7 5.3-17 5.2-6-2.6-3.7 4.5 4.9 4.9-6.8 6.4-10.9-4.5-1.5 8.2-7.9-.3-.4 6.4-10.9 5.6-6.8-2.3-7.5 5.7-.4 8.2 7.2 7.2.4 10.9-6.8 6.8 5.3 11.6 6 .8.4 5.2 6.7 1.5 4.5 2.3z"/><linearGradient id="SVGID_46_" gradientUnits="userSpaceOnUse" x1="-499.942" y1="388.805" x2="114.07" y2="388.805"><stop offset=".886" stop-color="#fff"/><stop offset="1" stop-color="#f3f3f3"/></linearGradient><path class="st46" d="M28.3 333.4l-9.6 8.8-4.6-8.4 6.5-1.3-8.1-15.1-12.2 1.9-12.2-4.2-15.1 2.3-8.4 20.9-6.1-3.5-8.7-20.3 1.3-15.8-14.1 1.6-3.9 13.6 6.1 7.4-5.8 7.7-9.3-5.2-1.6-10.8-.3.1-4.7 5.1-.2.2h-.3l-4-.8-5.4-1.5-.7 4.2v.2l-.1.1-8.7 8.6-1.8 6.8 2.6 4.6 2.4 3.9.2.4-.3.3-9 9.5-2 8.9-.1.5h-5.4l-3.8 4.2-8.2 9.4-1.5 11.5 20.9 23.6 7.1 6.7 7.5 4.8.1.1 7.8 8.9 12.4.4h.4l.2.4 4.9 12.5 3.8-1.7.2-.1.3.1 7.1 2.4.6.2-.2.5-2.2 5.9 6.7 3.3.3.2v7.2l6.9-1 .3-.1.2.3 5.6 6.7.1.2v.2l.7 8 5.5-4.5.3-.2.3.1 8.4 3.5 6.3-4.8.4-8.5v-.3l.2-.1 19.1-15.2-4.7-9.5L-9 442l-3.9 4.6-.2.4-.4-.2-9.6-4-.4-.1v-.5l.4-6.3.1-.2.1-.2 7.5-9.9.2-.2h.3l8.9-.4-.3-4-2.8-4.7-.2-.4.3-.3 5.9-5.8 1.9-8.8-6.7-10.9-.2-.3.3-.4 3.1-4.7.4-.6.5.4 24.3 18.7.1.1.1.3 1.5 6.6 9-.3.2-.1.2.1 9.6 6.2 6.8-4-1.8-7.9-.1-.2.1-.2 2.6-4.9-4.1-6.4-.3-.4.3-.3 12-15.6-4.7-6.9-9.3-1.2h-.3l-.1-.3-10.4-15.5v-.1l-.1-.1-3.5-18.7z"/><linearGradient id="SVGID_47_" gradientUnits="userSpaceOnUse" x1="-500" y1="278.03" x2="114.013" y2="278.03"><stop offset=".886" stop-color="#fff"/><stop offset="1" stop-color="#f3f3f3"/></linearGradient><path class="st47" d="M-412.7 256.3l21.8 47 13.5-7 1.2-25.9-6.5-10-2.9 11.8-6.5-4.2-5.3-15.3-6.5 4.2-8.8-.6z"/><linearGradient id="SVGID_48_" gradientUnits="userSpaceOnUse" x1="-500" y1="654.817" x2="114.013" y2="654.817"><stop offset=".886" stop-color="#fff"/><stop offset="1" stop-color="#f3f3f3"/></linearGradient><path class="st48" d="M-336.2 602l-.2 3.2-9.9-.3-3.9 5.8-5.1.6-6.2 10.9-10.2 3.9-7.4-10.9-17.4-2.3-8 8.4 17.3 10.3-5.1 3.5-9-5.5-5.2 4.1 3.1 6.1h6.6l.2.2 7.6 9.4.2.3-.2.3-5.6 10.9 7.4 9 .2.3-.2.4-1.7 3.5-.4 7.2 4.3 5.3 4-4.6.3-.3.4.1 6.6 2.5 2.5-4 .2-.5.5.2 5.4 2.3.3.1v8.5l6.4 3 .3.2V702.3l3.3 5.4 7.8-.9 2.6-4.6.1-.3h13.1l7.7-8.6-.4-4.1-7.1-.9h-.5l-.1-.5-.4-6.1-6.6-9.2-.2-.3.1-.3 3.5-12.6-4.3-6.5-.4-.5.6-.4 9.4-5.3.4-.3.3.4 3.4 3.3 6.5-.4 3.8-7.5-1.3-12.8-.1-.4.3-.2 10-6.5-1.7-15.6-7.8-.4-5.6 3.9-.3.2-.4-.2-6.2-4-7.6-4.1z"/><linearGradient id="SVGID_49_" gradientUnits="userSpaceOnUse" x1="-500" y1="645.576" x2="114.013" y2="645.576"><stop offset=".886" stop-color="#fff"/><stop offset="1" stop-color="#f3f3f3"/></linearGradient><path class="st49" d="M-269.1 697.2l10.9-3.6 1.6-8.3 9.3-5.2 10-2.5 3.6-1.1-.4-13.7-6.1-1.2-.2-.1-.1-.2-3-4.3-.1-.1v-.2l-.3-8-3.8 1.6-.2.1h-.1l-4.6-.3-.6-.1v-.6l.4-5.9v-.2l.1-.2 4.8-5.4v-7.4l-10.5-10.2-6.1-1.3-.2-.1-.2-.1-4.3-5.6-.1-.2v-.1l-.6-7.9-8.9-3.1-.2-.1-.1-.2-3.7-7.5-4.8 1.5h-.2l-9.3-1.2-.9 6.3-.1.3-.2.1-8.8 5.4 1.7 16.2.1.3-.3.2-10 6.5 1.3 12.6v.2l-.1.1-4 8.1-.1.3h-.4l-7.1.5h-.3l-.2-.2-3.2-3.3-8.5 4.9 4.2 6.1.1.2-.1.3-3.5 12.7 6.4 8.9 15.8 1.7 1.6-4.4.2-.5.4.1 5.4.4h.5v.5l1.7 8.1 6.1.8 5.4-3.4.2-.2.2.1 19.1 3.9.3.1.1.2 5 8.9z"/><linearGradient id="SVGID_50_" gradientUnits="userSpaceOnUse" x1="-500" y1="729.835" x2="114.013" y2="729.835"><stop offset=".886" stop-color="#fff"/><stop offset="1" stop-color="#f3f3f3"/></linearGradient><path class="st50" d="M-315.9 770.7l10.1 3.7 27-.7-2.3-10.6 6.8-1.3 5.1-28.9-4.5-6.1-6.7-1.6.9-5.5 8.4-7.7-7.4-10.4 3.6-1.9 4.7-2-4.8-8.6-18.6-3.8-4.9 3.1 3.4 9V697.7l-3.5 16.7 4.3 7.9.2.2-.1.3-4.4 12.8 1.7 7.8.2.9-.8-.1-7.9-.9-4.2 1.8-.4.2-.3-.4-2.9-4.3-2.5 3.1 4.1 9.8.2.5-.3.2-5.6 4.6-.1.1-5 2.7 6.5 9.1z"/><linearGradient id="SVGID_51_" gradientUnits="userSpaceOnUse" x1="-500" y1="727.001" x2="114.013" y2="727.001"><stop offset=".886" stop-color="#fff"/><stop offset="1" stop-color="#f3f3f3"/></linearGradient><path class="st51" d="M-337.1 774.8l10.1.2 9.5-4.4-6.3-8.9-.4-.6.6-.3 5.6-2.9 5.2-4.3-4.1-9.8-.2-.3.2-.3 3.3-4 .5-.6.5.7 3 4.5 3.9-1.7H-305.4l7.2.8-1.6-7.2-.1-.2.1-.2 4.4-12.7-4.4-7.8-.1-.2.1-.2 3.5-16.8-3.4-8.9-6.3-.8-.5-.1v-.4l-1.7-8-4.5-.4-1.6 4.5-.2.4h-.5l-15.8-1.7.4 5 7.1.8.5.1v.5l.5 4.9v.3l-.2.1-8 9-.2.2h-12.9l-2.5 4.6-.1.3h-.3l-8.5.9h-.4l-.2-.3-3.6-5.8-.1-.2v-7.8l-6.3-2.9-.4-.2v-8.5l-4.5-1.9-2.4 4.1-.2.4-.5-.2-6.8-2.5-3.8 4.4 4.3 5.4 4.6-.8.4-.1.2.3 3 4.3 6.1 1.7.2.1.2.3 2.6 7.1 6.2 10.7.2.2-.1.2-1.7 10.5 6.6 11.9v.1l2.3 9.4v.2l-.5 9.5 10.1 10.1.1.1.1.1 2.2 6z"/><linearGradient id="SVGID_52_" gradientUnits="userSpaceOnUse" x1="-500" y1="811.821" x2="114.013" y2="811.821"><stop offset=".886" stop-color="#fff"/><stop offset="1" stop-color="#f3f3f3"/></linearGradient><path class="st52" d="M-399.2 808.2l-3.4 3.5.6 9.6 9 12.9-.6 13.5-1.6 6.4 8 10 3.9-1.6 2.2-3.9 4.9 2.6 5.1 1.6 6.1-3.9v-17l4.2-24.1 15.4-14.8 1.3-15.5-1.6-6.7 7.5-5.6-2.2-5.8-9.8-9.8-3.6 2.8-.2.1h-.2l-10.5-.5-5.7 4.5 2 4.1.2.4-.4.3-5.1 3.2 6.4 9.2 7 1.3h.3l.1.4 2.3 8.5.1.5-.5.2-5.3 2.2-.2.1h-.1l-5.4-.4-7 13.5-.3.6-.6-.5-5.4-4.5-3.2 3.6-.2.2h-.3l-13.2-1.2z"/><linearGradient id="SVGID_53_" gradientUnits="userSpaceOnUse" x1="-500" y1="789.862" x2="114.013" y2="789.862"><stop offset=".886" stop-color="#fff"/><stop offset="1" stop-color="#f3f3f3"/></linearGradient><path class="st53" d="M-402 796.2l2.3 6.1.9 4.8 12.6 1.1 3.4-3.8.4-.5.5.4 5.2 4.4 6.8-13.1.2-.4h.4l5.6.5 4.8-2-2-7.6-6.8-1.3h-.2l-.2-.2-9.2-13.2-7.2-.4-3.4 1.5 3.9 14.7.1.5-.4.2-17.7 8.3z"/><linearGradient id="SVGID_54_" gradientUnits="userSpaceOnUse" x1="-500" y1="784.102" x2="114.013" y2="784.102"><stop offset=".886" stop-color="#fff"/><stop offset="1" stop-color="#f3f3f3"/></linearGradient><path class="st54" d="M-406.3 790l.1 2.7 3.4 2.5 17.5-8.2-3.7-14-3.1 1.4-3.1 9.6v.1l-.2.1-4.4 3.6-.1.1h-.1l-6.3 2.1z"/><linearGradient id="SVGID_55_" gradientUnits="userSpaceOnUse" x1="-500" y1="777.235" x2="114.013" y2="777.235"><stop offset=".886" stop-color="#fff"/><stop offset="1" stop-color="#f3f3f3"/></linearGradient><path class="st55" d="M-419.8 769.8l.5 11 12.8 6.1.1 1.9 5.9-2 4.2-3.4 3.1-9.6.1-.3.2-.1 7.2-3.2-5.6-4.5-2.1 3.6-.3.4-.4-.1-14.6-3.5-10.9 3.5-.2.2z"/><linearGradient id="SVGID_56_" gradientUnits="userSpaceOnUse" x1="-500" y1="755.018" x2="114.013" y2="755.018"><stop offset=".886" stop-color="#fff"/><stop offset="1" stop-color="#f3f3f3"/></linearGradient><path class="st56" d="M-429.3 747.6l6.7 7.5.4 10.3 2 3.1h.2l11.1-3.6.2-.1.1.1 14.4 3.4 4.5-7.8-2-6.5h-6.9l-.2-.2-13.3-11.9-9.4-.4-7.8 6.1z"/><linearGradient id="SVGID_57_" gradientUnits="userSpaceOnUse" x1="-500" y1="729.19" x2="114.013" y2="729.19"><stop offset=".886" stop-color="#fff"/><stop offset="1" stop-color="#f3f3f3"/></linearGradient><path class="st57" d="M-445.9 716.7l7.9 13.3v8l7.9 8.7 8.1-6.3.2-.1h.2l9.2.4-.5-9.6v-.3l.3-.2 4.9-3.3-7-13.2-2.4 4.7-.2.4h-.4l-8.5-.9-.2-.1-.2-.2-4.6-6.3-14.7 5z"/><linearGradient id="SVGID_58_" gradientUnits="userSpaceOnUse" x1="-500" y1="670.087" x2="114.013" y2="670.087"><stop offset=".886" stop-color="#fff"/><stop offset="1" stop-color="#f3f3f3"/></linearGradient><path class="st58" d="M-460.8 632.2l.6 11.3-3.5 4.2 1.6 4.8 5.1 3.9-.3 8 2.9 12.9-1 11.9-2.3 19.6 2.6 3.5 5.1-2.3 3.4 5.7 15.3-5.3.4-.1.3.4 4.8 6.5 7.8.8 5.6-11.2.1-.2.2-.1 6-2.4-2.3-3.4-.2-.3.2-.3 3.4-6.3-3.7-3.3-.5-.4.5-.4 4.3-4.3.4-3.8v-.3l.3-.1 4.9-2.2.5-.2.3.5 3.2 5.6 4.2-3.4.4-7.3v-.1l.1-.1 1.6-3.2-7.4-9.1-.2-.3.2-.3 5.6-10.8-7.2-8.8H-404.3l-.2-.3-3.9-7.7-11.8-10.7-1.6 15.4-6.4-3.2-12.2.6-4.5 5.8-9-15.1-6.9 5.9zm12.1 70.8l-.4-7.6v-1.2l.6-.1.6-.1 7.9-.8V688l.2-.2.2-.2 8.9-6.5-5.7-3.5-.1-.1h-.1l-.1-.1-.1-.1-7.2-8.5-.2-.2-.2-.2v-.6l.9-6.7.1-.7.1-.7.7.2.7.2 6.3 2.2.2.1.2.1.1.2.1.2 5 7.9h8.1v1.2l.4 7.1 5 4.1.2.2.2.2v.6l-.4 9.8v.4l-.1.1-.1.2-7.1 9.4-.9 1.2-.9 1.2-.2-1.5-.2-1.5-1-8.1-11.2 12.4-.3.3-.3.3-.4-.2-.4-.2-8.5-4-.3-.2-.3-.2V703z"/><linearGradient id="SVGID_59_" gradientUnits="userSpaceOnUse" x1="-500" y1="726.759" x2="114.013" y2="726.759"><stop offset=".886" stop-color="#fff"/><stop offset="1" stop-color="#f3f3f3"/></linearGradient><path class="st59" d="M-390 682.3l-4.5 3.7-.5.4-.4-.6-3.3-5.8-4.1 1.9-.4 3.7v.2l-.2.1-4 4 3.6 3.2.3.3-.2.4-3.4 6.4 2.5 3.7.4.7-.7.2-6.5 2.6-2.6 5.3 7.6 14.5.3.5-.5.3-5 3.4.4 9.7 13 11.7h7.4l.1.4 2.2 7.2.1.2-.1.2-2.2 3.8 6.4 5.2 7.4.4h.2l.2.3 2.1 3 4.7-2.9-2-4-.2-.4.4-.3 6.2-4.9.2-.2h.2l10.5.5 3.6-2.8.5-9.5-2.2-9.2-6.7-12-.1-.2v-.2l1.8-10.5-6.1-10.5-.1-.1-2.6-6.9-5.9-1.7-.2-.1-.2-.1-2.9-4.2-4.5.8-.3.1-.3-.3-9.4-11.6z"/><linearGradient id="SVGID_60_" gradientUnits="userSpaceOnUse" x1="-500" y1="684.168" x2="114.013" y2="684.168"><stop offset=".886" stop-color="#fff"/><stop offset="1" stop-color="#f3f3f3"/></linearGradient><path class="st60" d="M-448 695.3l.5 7.6 8.4 4 12.1-13.3.9-.9.2 1.2 1.1 9.5 7.2-9.4.4-9.8-5.1-4.3-.2-.2-.1-.3-.4-7.3H-430.6l-.2-.3-5.1-8.2-6.3-2.2-.9 6.7 7.2 8.5 6.4 4 .7.4-.7.6-9.6 7v5.8l-.5.1-8.4.8z"/><linearGradient id="SVGID_61_" gradientUnits="userSpaceOnUse" x1="-500" y1="352.18" x2="114.013" y2="352.18"><stop offset=".886" stop-color="#fff"/><stop offset="1" stop-color="#f3f3f3"/></linearGradient><path class="st61" d="M213.3 361.6l-7.2.7-5.6-9.4 1.5-8.6 9-2.3 2.6 9.8-.3 9.8z"/><linearGradient id="SVGID_62_" gradientUnits="userSpaceOnUse" x1="-500" y1="577.565" x2="114.013" y2="577.565"><stop offset=".886" stop-color="#fff"/><stop offset="1" stop-color="#f3f3f3"/></linearGradient><path class="st62" d="M74.9 540.9l-.2-.1-.1-.1-18.3-15-6.6 3.6-.1.1h-.2l-18-2v-.2L19.3 521l-.1-.1-11.1-12.5-14.3-1.4-4.3 10.5 10.2 13.4.1.2v.1l.6 9.6v.4l-.4.2-16.7 7v5.6l4.6 4 .4.4-5.2 7-4.6 5.1-6.1 15.8-.1.1-.1.1-5.1 5.6-3.4 8.7v.1l-.1.1-5.6 6.2-.2.2h-.3l-4.8-.4-.2 11.9 5.4-.2h.6v9.4l11.8.6h.5l.1.5.5 6.7 5 1.2.4.1.1.4.7 3.4.8 4.7 1.7 2.4 4.5-1.2 9.9-11.7.2-.2h.2l11.3-1.2 7.1-11.3.5-.7.5.6 5.1 5.7 4.5-2.9 1.8-8 .1-.4.5-.1 12.5-.6 3.3-4.2.9-8.6v-.2l.2-.1 5.5-6.4-4.1-7.9-.1-.1v-.2l.3-6.3.1-.4.3-.2 13.3-6 15.4-15.1 10.2-13.6 1.9-4.4z"/><linearGradient id="SVGID_63_" gradientUnits="userSpaceOnUse" x1="-500" y1="586.577" x2="114.013" y2="586.577"><stop offset=".886" stop-color="#fff"/><stop offset="1" stop-color="#f3f3f3"/></linearGradient><path class="st63" d="M-465.8 622.4l6.9-8-15.5-20.5 9.2-26.2-6.6-5.5-5.8 4.1-22.7-15.6-2.9 4.6.8 18.5-8.6 9.2 2.3 12.6 15-.8 16.7 21z"/></g></svg>