<svg id="Layer_1" xmlns="http://www.w3.org/2000/svg" viewBox="0 0 1754 914"><style>.st0{fill-rule:evenodd;clip-rule:evenodd}.st0,.st1{fill:#33343e}</style><path class="st0" d="M1390.4 181.2l-1.4 4.1 3.6 2.4 4.1-2.4-1.4-5.1-4.9 1zM1044.2 291.1l6.6 5.3 3-4.8 1.1-4-3.7-2.3-4.5-.7-2.5 6.5zM1031.3 306.7l2.1 2.7 7.4-4.5-1.7-4.5-4.6-.2-2.6 4-.6 2.5zM1194.6 238.1l11.2 1.4.4 5.6-4.3 1.2-5.1-3.2-2.2-5zM1223.9 219.7l1.9 8.9h4.6l1-8-4.6-3.8-2.9 2.9zM1234.1 227.2v10.1l11.3-2.4 10.7-5.6-3.6-8.2-7.1-1-5.3-1.2-3.8 5.8-2.2 2.5zM1237.7 170.5l3.4 7.3 21.8.2 6.3-11.6-4.1-8.9-4.6 5-9-.7-2.4 4.1h-4.9l-.7 4.9-5.8-.3zM1229.2 134.2l-1.4 5.4 4.3.9 1.7-4.6-4.6-1.7zM1217.6 181.2l5.1 7.7 9.4 2 .3-10.9-3.2-5.4-11.1-.7-5.8 4.1-9-1.4-.7 6 5.3 5.6-2.9 3.4-8.4-7-10.2.9-.7 8.3.9 8.4 4.6 5.8 1.7 6.6 9.5 2.6 8.7-.7-.7-9.2 6.3.7 4.8-7.9 5.8 1.2 3.9-4.4-3.9-3.9-8.5-2.4-6.7-8 5.5-1.4zM1175 201.5l1.5 6.5 5.8 6.8 3.6-1.4-4.3-8-6.6-3.9zM1426.2 187.1l-3 5.7-15.8 8.9-11.5-10.9-11.5-1.2-16.4 10.7-11.2 13.8-4 14.1-7.5 2.3-9.2-4.6-8.9.8-4.6 6.1-4.1-3.5-3.7 4.1-4.6-4.4 6.6-6.6-15.5-1.1-8.9 7.7 4.8 16.7-8.9 8.7v-13h-6l-6.1 5.5-1.4-6.6 8.9-8.1-9.5.6-28.2 14.4 5.5 6.6-8 7.8 3.1 5.7 5.8-2.9.5 8.4 6.9 8-10.6 2.6-3.2 4.3 2.9 6.9-8.6 1.5-11.5-3.5-3.5 13-19.5-3.5v28.8l-13.8-2.3-21.3-19.3 7.7-5.5-12.9-19.2-8.3-4.1-12.7 4.3-14.1-5.4-2 21.8-25.6 11-9.8-6.6 1.5-5.2-26.2-.3-6.9 9.2-1.7 6-1.8-8.9-4.9-4.3-5.7 6-8 4-.4 5.5 3.7 5 .1.1v.1l1.7 8.9 12.3 17.4.1.1v11.6l6.3 7.5.4.4-.5.4-14.3 11.4-.9 6.6v.1l-.1.1-3.3 5.1-2.6 12.3-.1.4h-.4l-7.1-.8-11.4 9.2v.1h-.1l-3.8 2 9 13.7.1.2v.1l3.1 38.5v.2l-.1.2-8 8.8 5.3 4 .2.2v.3l-2.2 10.3 4.7 5 .1.2v7.4l5.5 3.7.3.3-.1.4-2.7 7v.1h-.1l-8.2 10-.8 7.1h13.6l.2.1 5.8 4.6 6.2-4.2.5-.2.3.3 3.5 4.4.2.4 4.6 7 .3.4-.5.3-5.2 3.3v6.2l5.8.4 4.8-3.4.5-.3.3.5 5.9 11.4.1.2v.1l-.5 13.5 7.6 4.3.4.2-.1.4-3.4 14.2 4.3 9.6 9.6 2.9.6.1-.2.6-7.4 17.3-1.5 21.4 7.5 7.9 8-6.1.1-.1h.2l12.1-.5 4.3-7.7.4-.6.5.5 6.5 6.5 8.5-9.9 13.3-28.7.1-.2.3-.1 9-1.4.1-.1.1.1 17.4 6.9.2.1.1.3 3.8 11.3 10.3-4.7.3-.2.3.2 6.4 4.5.1.1.1.1L1203 654l15.1 28.1 9.6-6.3h.1l9.9-4 .3-.1.2.2 7.6 6.2 4.1-3.7.4-.3.3.3 6.1 5.6 5.6-5.6.1-.1h.3l13.9.5h.1l.2.1 8.7 6.7 17-6.3.3-.1.2.2 5.7 4.7 23.5-10.7.2-.1h.2l6.7 1.5 7.4-2.8-.9-5.5-.1-.4.4-.2 18.1-9.4-4.5-12.8-.1-.3.2-.3 6.1-6.5-2.5-6.3-11.6-7.6-.4-.3.2-.4 6.1-11.8-11.4-7.9-.5-.3.4-.5 5.3-6.2v-26.4l.4-.1 22.3-8.5.8-10 .1-.5h.4l13.3-.9 3-8.2-.5-8.5v-.3l.3-.2 6.4-3-4.8-17-8.9-6.2-.3-.2.1-.4 5.8-20.6-8-21.6-.1-.3.1-.2 4.6-5.9.2-.3.4.1 15.7 5.4 10-2.2 3.5-6.1.1-.2.3-.1 11.8-1.7 2.2-7.6-19.8-41-.1-.2.1-.1 2-10.1v-.2l.2-.1 13.2-9.3-5-9.6-.1-.4.2-.3 12.9-12 .1-.1h.2l11.4-1.2 6.6-7.4 1.1-12.7-7.4-6.7-.2-.1v-.2l-.4-8.3-4.7-7.1-.2-.4.3-.3 5.6-5.3-6.1-7.2-.3-.4.4-.3 14.8-13.6.1-.1h.1l6.6-2.8 5-7.2-9.4-19.5H1446.1l-9.2-4-.2-.1-.1-.2-4.8-12.4-.1-.3.2-.3 18.7-21.9v-10.7l-24.4-18.4zM1455.2 43.8l12.4 14.7 2.7-2.7 3.4-17 4.1-7.9-4.6-6.1-11.2.9-6.8 10.2v7.9z"/><path class="st0" d="M1646.7 191.7l-2.9-31.1-8.6-4.9 20.4-14.1-2.8-9.5-38-3.2-4.6 6.1-10.4.9-1.1 8-8.4-.6v-11.2l9.5-3.2 3.8-7.7-2-20.4-3.8-1.5-4.6 2.9-.3-7.5-8.9 3.5-6-6.9 2.3-11.2 7.5 6.6 4.3-3.5 6.3 6.9 3.7-8.6-.8-10.4 6.9-5.7 12.1 1.1 20.1-15.2-4.9-5.8 10.1 1.5-.3-9.8-10.9 2-3.2-6.9-14.7-2.9 5.8-7.2-7.5-5.4 6.9-4.9-8.6-11.2-24.5 14.3-1.4 11.8-6.6 8.7 16.4 6.6-9 4-26.4-7.2-30.8 20.4-46 25.1-12.4 20.1 1.2 6-8.4 2.3-11.8 10.7 8.4 10.3 7.4-2.3 11.3 6.4-1.2 11.2-10.3 1.1-6.9 4.1-14.7-9.2v18.7l-15 11.2-5.7 11.2 24.8 18.6.2.1v11.7l-.1.2-18.7 21.8 4.7 11.9 8.9 3.9H1458.7l.2.3 4.6 9.7 7.8 1.2h.2l.2.3 4.9 8.7 10.4-5h.4l9.7 3.1 7.4-6.6.1-.1h.2l11.5-.8 8.4-8.9-1.5-8.5-.1-.5.4-.1 8.6-2.7 2.3-8.2.1-.3.4-.1 7.2-.7 2.3-6.9.1-.3.3-.1 13.4-3.1 3.5-6.2.2-.3h.2l20.1-1.2h.4l.1.3 4.6 12.8 14-4.3h.2l15.2.4L1629 191l.2-.6.5.3 7.5 3.9 9.5-2.9zM1740.8 349.7l4.5 4.5 8.7-7.2-3.8-.9-9.4 3.6zM1703.3 538.5l.7 3.4 4.3 2.8 2.1-5.3-2.4-3.9-4.7 3zM1717 532.1l-.7 3.2 4.7 1.8 2.6-2.8-4.7-4-1.9 1.8zM1714.1 539.1l-1.2 13.3 5.2 6.7 4.8-2.2-1-13.2-3.8-3.5-4-1.1zM1721.5 568.6l-.7 4.9 2.2 4.9 6.2-2.8.8-3.2-8.5-3.8zM1729.4 607.5l-2.3 4.4 3.4 4.9 4.2-4-2.6-4.9-2.7-.4zM1729.8 632.1l2.3 3.8 3.2-1.1.8-6.1-4.2-1-2.1 4.4zM1732.6 642l-3.4 3.7 2.7 7.2 8-2.1-2.7-7.4-4.6-1.4zM1727.3 672.2l-4 4 .2 8.4.2 8.8.1 4h4.2l3.5-9.9-.8-9.7-3.4-5.6zM1715.3 705.1l4.1.1 1.4 5.6-3.1 4.8-4 5.7-.4 6.3-1.1 7.8-.8 5.9-1.9-.9-1.5-10.3-.4-12.8 5.2-5.4 2.8-2.5-.3-4.3zM1700.1 773.4l2.1-.9.8-15 2.6-2.9.5-3.9-2.8-1.8-4.2 2-2.3 1.8 2.1 6.6-.8 8.4 2 5.7zM1715.8 758.4l1.4 3.2 4.2-1.5-.9-4.5-2.3-3.2-2.3 2.2-.1 3.8zM1634.7 319.9l-3.3 10.1 12.7 14.3 1.8-20.6-6.9-3.1-4.3-.7zM1718.9 357.5l3.3 5.2 12.8 2 5.1-2.7-3.1-5.4-9.4-1.1-8.7 2z"/><path class="st0" d="M1487.1 470.8l7.7-5 5.2-4.3 7.2-1.8-2.3-14.6 12.7-4.1 9.7-8.6 9-.3-6.6 9.5 6.3 5.5 9.2-10.4 2.3-16.4 8.3-3.1 6.6-8.7-6.9-5.1-6 7.4-6.3-6-1.8-29.6-5.4-17.6 1.7-12.9 10.6-15.3 6.1-.3 2.9-8.6 12.3 17 8.7-1.5.5-6.3-2-12.9-2.2-9.1-8.3-4.7-.2-.1v-.3l-1.6-8.3-5.4-5-8.6.8-.4.1-.2-.4-5.1-13.5-7.4-1.5-.2-.1-.1-.2-11.9-17.2-8.3 8.8-.2.1-.2.1-11.4.7-7.5 6.7-.2.2-.3-.1-9.8-3.1-10.7 5.1-.4.2-.3-.4-5-9-6.8-1 4.4 9.1.1.3-.2.2-5.2 7.7-.1.1h-.1l-6.7 2.8-14.4 13.2 6.1 7.2.3.4-.4.4-5.7 5.3 4.6 6.8.1.1v.2l.4 8.2 7.4 6.6.2.2v.3l-1.2 13.2v.2l-.1.1-6.8 7.6-.2.2h-.2l-11.4 1.2-12.4 11.6 5 9.7.2.4-.4.3-13.4 9.5-1.9 9.6 19.4 40.4 9-6 .3-.1.2.1 20.4 6.8.3.1v.3l2.3 11.3v.2l-.1.1-4.8 8.9 3.6 7.3 8.1-6 .2-.1h10.9l.1.3 5.1 8.9zM1502.9 819.6l-1.1 33.6 6 10.4-23.6 2-7.8 17 21.9 22.4.6 8.3 12.1-11.5 20.7.3 14.9-12.1 8.9-17.8 4.4-48.9 6-25.6-4-30-5.9-1.6-.4-.1v-.3l-1.5-7.2-9.8-7-11 8.2 6.5 7.1 10.5.9h.5l-.1.6-2.3 16.2-.1.5h-.4l-7.4.2 1.1 10.4v.3l-.2.2-10.7 7.1h-.1l-.1.1-17.5 1.1-4.3 5.8 3.3 6.7.4.6-.7.2-8.8 1.9z"/><path class="st0" d="M1493.2 783.5l7.7 12.5-2.9 9.2 4.7 13.4 8.1-1.8-3.2-6.5-.2-.3.2-.2 4.7-6.2.2-.2h.2l17.6-1.2 10.2-6.8-1.1-10.6-.1-.6h.6l7.5-.3 2.2-15.2-10.1-.8-.2-.1-.1-.1-7.1-7.7-.4-.4.5-.4 11.8-8.8.3-.3.3.3 10.3 7.3.2.2.1.2 1.4 7 5.2 1.5 2.7-33.9-3.8-10.6-16.7-34-5.4-6.6-4.9-23.9-3.4-7.9-1.1-1.3-12.5-5.2-4.3-5.1 3.7-7.5-9.2-3.8-19.2-3.4-15 7.8-5.2 22.7-6.3-8.1-7.2 9.2-6-17.5-12.7 7.8-10.6-1.8.5-10 13.8-34.6 3.5-34.5 4-16.7-3.4-13.8 4.6-12.3-2-13.3 29-28.4 9.2 1.7.9-3.5-2.6-4 4-2.7-5-8.7h-9.9l-8.4 6.2-.5.4-.3-.6-4.1-8.1-.1-.3.1-.2 4.9-8.9-2.2-10.8-19.8-6.6-9.1 6.1-2.2 7.9-.1.3-.4.1-11.9 1.8-3.5 6.1-.1.2h-.2l-10.5 2.3h-.2l-15.5-5.3-4.1 5.3 8 21.5.1.1-.1.2-5.7 20.4 8.7 6.2.1.1.1.1 5 17.7.1.4-.4.2-6.5 3 .5 8.3v.1l-.1.1-3.1 8.6-.2.3h-.3l-13.1.9-.9 10v.3l-.3.1-22.3 8.5v26l-.1.2-5.1 5.9 11.3 7.8.4.3-.2.4-6.1 11.8 11.3 7.4.2.1v.1l2.7 6.8.2.3-.3.3-6.1 6.5 4.4 12.4 18-9.4.4-.2.3.3 5.9 6.5.3.2-.2.4-8.8 19.2.9 9.2.1.4-.3.1-6.7 3.8.5 7.6H1390.8l.2.3 6.7 10.1 7.5-.4 12.1-11.2 1.9-8.3.1-.4h9.6l2.8-5.6.2-.4.3.1 6.5 1h.3l.1.3 6 18.4.1.3-.3.2-3.9 4-.2.1h-.1L1426 701l3.7 7.8.1.3-.2.3-5.9 6.3-1.4 8.3-.1.1v.1l-8.7 10.1 3.7 4.6.3.3-.3.4-5.8 7.7v9.4l15.5 7.8.2.1v.1l12.6 17.3 7.8-7.4.2-.1h.2l16.8.3h.2l.1.1 7.5 6 22.4-7.6.9-.3-.2.9-2.4 9.6z"/><path class="st0" d="M1429.6 799.1l8.6 13.6 9.2 8 19.5-9.5 2.6-8 14.7-16.4 8-3.7 2.1-8.5-21.8 7.4-.3.1-.2-.2-7.5-6.1-16.4-.3-8.1 7.7-10.4 15.9zM1273 748l19.6-10.1 15 5.1 18.1-2.8 26.5 26.2 32.8 33.9 12.9-5.2 8.1 3.8 5.7-2.9 11 3.4 5.9-.7 10.3-15.8-12.5-17.5-15.8-7.8-.3-.2V747l.1-.2 5.7-7.6-3.7-4.6-.3-.3.3-.4 8.8-10.3 1.5-8.2v-.2l.1-.1 5.7-6.2-3.8-8.1-.3-.6.7-.2 15.2-2.4 3.6-3.6-5.7-17.7-5.7-.9-2.8 5.6-.2.3h-9.3l-1.9 8v.2l-.2.1-12.3 11.4-.2.1h-.2l-7.9.5h-.3l-.2-.2-6.8-10.2h-15.5l-.1-.5-.5-8.4v-.4l.3-.1 6.6-3.8-.9-9.1V668.6l8.8-19-5.4-5.8-36.5 18.9.9 5.6.1.4-.4.2-7.9 2.9-.2.1h-.1l-6.8-1.5-23.6 10.8-.3.2-.3-.2-5.7-4.8-17.1 6.3-.2.1-.3-.1-8.8-6.9-13.4-.5-5.8 5.8-.4.4-.3-.4-6.1-5.6-4.1 3.7-.4.3-.3-.3-7.7-6.3-9.6 3.9-9.3 6.1 11.8 7.8.4.3-.3.5-3.5 4.9 5.4 5.4 9.9-5.5.4-.2.3.4 4.7 8.4 7.5-1.8.6-.2.1.7 1.1 14.7 7.7 4.4.5.3-.4.5-4.3 6.1L1273 748zM1530.3 649.7l-.4-1 17 9.2 5.5 14.4 8.3 10.6 10.1 16.1 7.2 11.8 8.3 6.4 2.6 7.4 2.3 6.7 10.4 4.8 1.4 10.4 10.6 13.5.9-11.8-1.4-8.9 8.3-.6 3.2-1.4 7.7 4-6.3-13.2h-9.2l-9.8-4.3-11.2-8.1-7.2-18.4-4-11.8 8.6-4.9 16.1-.8-36.2-24.5-25.6-23-11.8-22.1-16.1-11.3-7.5-9.4-5.2 2.3-1.1 5.4 9.5 6.6 5.1 7.8-2.8 3.7-4.6-1.1-1.5 6.6 9.2 6.9 9.2 21-.7-.3 1.1 1.3zM154.4 522.5l2.4 4.5-.4 10.6 7.3 3.9v.1l5.3 3.4 4.9-3.4.2-.1h.1l7.5.4 7.8-4.8.8-5.9.1-.5h.5l8.7 1.2 4.6-1.4.5-.2.2.4 3.4 6.9 7.7 2.8 1.8-1.6.5-8.6-5-3.8-.2-.1v-.2l-.4-5.6-3.1-3-4.9-3.5-.2-.2v-.3l.6-8.5-9.7-7.5-.2-.1v-.2l-.9-5.7-3.6-1.8-.3-.1v-3.9l-1.5-2.6-5.5-.4-.9 2.3-.2.3h-.2l-2.3.4h-.3l-.2-.2-1.5-1.9h-2.3l-3.6 3.3v6.3l-.1.1-2.1 2.9 1.8 1.4.2.2v.2l.2 3v.6h-.6l-3.9-.2-1.6 2.7 1.1 5.4v.3l-.2.2-12.3 12.5z"/><path class="st0" d="M135.6 464.4l-4.1 5.1-2.1 3.2.9 4.3 4.3 2-.6 6.6 11 6.9.3 12.7 8.5 16.3 11.9-12.1-1-5.3-.1-.2.1-.2 1.9-3.1.2-.3h.3l3.7.2-.2-2.2-2-1.5-.4-.3.3-.5 2.3-3.2v-5.9l-7.9-8.2-7.9-1.6h-.1v-.1l-5.6-3.7-.2-.1v-.2l-1.4-4.7-2.9-.5-2.8 1.6-.3.2-.3-.3-5.8-4.9z"/><path class="st0" d="M143.1 436.4l-4.7 2-2.3 4.6-3.5.9-.3 5.8 4.9 2.8-1.2 10.8 5.8 5 2.7-1.5.1-.1h.2l3.4.6h.3l.1.4 1.4 4.8 5.4 3.6 7.9 1.6.1.1.1.1 7.9 8 3.5-3.2.2-.1h3.2l.2.2 1.5 1.8 1.6-.3.9-2.1-3.6-4.7-.1-.2v-.1l-.3-4.7-3.8-1.2-.2-.1-.1-.2-1.1-2.4-.1-.1v-4.1l-1.7-2.2-.1-.2v-8.6L158.8 437l-15.7-.6zM160.9 398l-7.9-.7-5.7-5.4.6-5.2-5.5-1.2-3.2 7.8-11.5 9.8.9 6.3 6-.3 4.6 3.7 1.8 8.1 5.1-.6 6.1 1.2v4l-7.5 9.9 14.2.5 17.7-13-1.4-2.3-.1-.1v-3.2l.2-.2 2.1-2.1h.1v-.1l3-1.7-.3-2.4-3.6-.3-1.9 1.5-.3.3-.3-.2-3.2-1.8-.1-.1-.1-.1-2-3.8v-.2l-.2-3.5v-.2l.1-.1 1.8-3.2-8.5-.5h-.1l-.2-.1-.7-.5z"/><path class="st0" d="M186 349.3l-1.3 2.3-9.5 5.4-4.9 7.8-5.2 10.7-.6 8.6 1.5 5.2-3.8 4.6-.2 3.5.1.1 9.1.6 3.7-1.6h.2l7.2.1 3.9-3.6.2-.2h.2l5.3.3.3.1.1.3 2.3 7.7 1.9-1.2.2-.1h.2l3.9.6.2.1.2.2 1.9 2.7 10.3-1 6.1-3.9 6.8-9.8.3-2.3-4.7-5.8-.1-.1v-.1l-.7-5.2-11.6-2.1h-.1l-.1-.1-5.6-4-.1-.1v-.1l-7.4-13.9-2.4-5.6-2.2-1.1-4.5 1.1h-.2l-.9-.1zM159.8 436.6l12.5 16.3.1.2v8.6l1.8 2.2.1.2v4.2l1 2.1 3.8 1.2 5.8.3 1.8-3.2v-.1l.1-.1 11-8.9 1.1-9-4.7-4.3-.1-.1-.1-.1-2.4-5.3v-.2l.3-9.2-14.5-7.7-17.6 12.9z"/><path class="st0" d="M198.2 460.6l-10.6 8.7-2 3.4-.1.3-.3-.1-5.6-.2.3 4.2 3.5 4.8 5.9.3h.3l.1.3 1.7 3v3.6l3.6 1.7.3.2v.2l.9 5.8 9.5 7.3 4.6-2.1 1.2-2.8-.7-4.6-1.4-2.8-.1-.3.2-.2 1.9-3.5.1-.1.2-.1 8-3.7 4.8-4.4.1-5.2-1.1-3.5-4.3-3.4-.1-.1v-.1l-1.4-3.8-4.1-.4-6.3 3H207l-4.5-.5h-.2l-.2-.1-3.9-4.8z"/><path class="st0" d="M225.6 479l-.1.8v.2l-.1.2-5 4.5-.1.1h-.1l-7.9 3.7-1.8 3.1 1.3 2.6v.1l.8 4.9v.1l-.1.2-1.3 3.1-.1.2-.2.1-4.8 2.2-.5 8.2 4.6 3.3.1.1 3.3 3.2.2.1v.2l.3 5.5 4.9 3.7 7-1.3 14.2-7.3 1.8-2.4.1-11.8 1.4-8v-.2l.1-.1 6.2-7.3-5-5.5-2.9 1.8-.1.1h-.1l-2.5.7-.2.1-.2-.1-4-2.3h-.1l-.1-.2-3.4-6.3-5.6-.3zM193 431.4l-.3 9.1 2.3 5 4.9 4.5.2.2-.1.3-1.1 9.2 3.9 4.8 4.2.4 6.3-2.9.1-.1h.2l4 .4.4-2.3v-.2l.1-.1 2.8-3.9h.1v-.1l5.7-6.1v-4.1l.2-.2 3.4-3.4-.7-7-4.1-2.6-.2-.1v-.1l-1.8-3.8-8.8.4-2.1 2.6-.3.3-.4-.2-7.6-4.7-2.2-.6-9.1 5.3z"/><path class="st0" d="M227.5 450.3l-5.7 6.2-2.8 3.8-.4 2.5 1.4 3.8 4.3 3.4.1.1.1.2 1.2 3.7v.2l-.1 3.7 5.9.3h.3l.2.3 3.5 6.5 3.6 2.1 2.3-.7 3.2-2.1.4-.2.3.3 5.5 6.1 3.7 1.3 3.3-.2 11-9.8h.1l5.8-4.2-1.3-3.7-2.3-6.1-11.3-19-6.9-.3-2.4 2.1-.3.3-.3-.2-2.7-1.8-2.7-1.9-1.4 1.1-.1.1h-.1l-4.8 1.2H237.8l-2.7-1.2-1.9 1.7-.1.1h-.2l-5.4.3zM223.5 427.2l1.7-2 2.6-3.8v-8.9l-4.1-2.2-.1-.1-.1-.1-3.2-5v-.1l-.1-.1-.7-5-5.7 3.6h-.1l-.1.1-10.7 1h-.3l-.2-.2-2-2.8-3.5-.6-2.4 1.4-.6.4-.2-.7-2.3-7.9-4.7-.3-3.9 3.6-.1.2h-.2l-7.3-.2-3.5 1.6-2.1 3.6.1 3.2 1.9 3.5 2.7 1.6 1.8-1.5.2-.1h.2l4.2.3.4.1.1.4.4 3.2.1.3-.3.2-3.3 1.9-1.9 1.9v2.5l1.5 2.5 14.7 7.8 9.4-5.5.2-.1.2.1 2.5.7v.1h.1l7.3 4.4 1.9-2.3.2-.2h.2l9.1-.5z"/><path class="st0" d="M220.4 399.1l.9 5.6 3 4.7 4.3 2.4.3.1v9.8l-.1.2-2.8 3.9-1.6 2 1.8 3.7 4.2 2.6.2.1.1.3.7 7.5v.3l-.1.2-3.5 3.4v3.3l4.8-.2 2-1.9.3-.2.3.1 2.8 1.3 4.5-1.1 1.6-1.3.3-.3.4.3 3 2.1 2.3 1.6 2.3-2 .2-.2h.2l7.1.3 2.6-4 1.8-5.2-1.7-1.6v-.1l-3.2-4v-.1l-.1-.1-2.5-7.8-.1-.2.1-.2 1.8-5.5v-.2h.1l5.9-6.8v-.1l3.6-3.3.9-4.1-4.7-5.5-11 .1H253.1l-12.3-7.9-.2-.2v-.3l.3-4.6-1.5-.7-1.2 1.2-.1.1-.2.1-10.5 1.4-.1 1v.1l-.1.1-6.8 9.8z"/><path class="st0" d="M268.3 409.9l-3 2.7-5.7 6.7-1.8 5.3 2.5 7.6 3.1 3.9 1.9 1.8.3.3-.1.3-2 5.6v.1l-2.7 4.1 11 18.5 7.7-4.6h.2l9.8-.4 10.7-6.4-2.3-6.3-10.4-13.4-5.2-2.3h-.1l-.1-.1-4-4.3-.3-.4.3-.3 2.9-3.9 1.2-4.9-2.4-2.5-5.3 4.4-.4.3-.3-.4-5-5.3-.1-.1v-.2l-.4-5.8z"/><path class="st0" d="M282.5 418.2l.7.7.2.2-.1.3-1.3 5.3v.2h-.1l-2.7 3.7 3.6 3.9 5.2 2.3h.1l.1.1 10.6 13.6.1.1v.1l2.3 6.3 3.4-.7 2.6-3.6.1-.2h.3l6.4-.5h.2l.2.1 2.5 2.4 4-2.3 1.2-14-6.3-3.5-.3-.1v-.3l-.3-5.8-3-2.6-4.6 1.6h-.3l-.2-.1-15.4-8.2-9.2 1z"/><path class="st0" d="M298.2 419.5l9.2 4.9 4.8-1.6.3-.1.2.2 3.3 3 .2.1v.3l.3 5.6 6.4 3.5.3.2v.4l-1.2 14 19 .1 2.4-1.5.1-.1h.2l6.3.2h.3l.2.3 1.7 4.9 5 2.2.1.1h.1l4.3 4.4 7.1-7.1.1-.2h.2l17.1.3.3-10.7v-.2l.2-.2 3.3-3.6-3.8-3.7-9 2.2-.2.1-.2-.1-13.6-8-.1-.1-.1-.1-8.2-15.2-12.4-7.4-18.9-1-6.5 4.5-.1.1h-.2l-7.4.3-2.1 3.5-.1.1h-.1l-8.8 5.4zM269.8 403.6l8.1-3.7-1.1-3.8V395.8l2.5-13.7.1-.5h.5l7 .5 8.9-8.7-1.2-10.2h-8.7v.6l-.8-.7-9.6-8.6-5.8.4h-.2l-.1-.1-6.9-5.7-.1-.1-.1-.2-1.2-5-5.1-3.6-1.9 1.4-.9 4.7v.5l-.5-.1-12.7-1.1h-.2l-.1-.1-4.2-3.7-12.4-3.2-.1-.1h-.1l-6.5-4.7v-.1l-3.5-3.4-3.3 3.3-2 8.1v.2l-3.7 5.6-.1.2-.2.1-8.6 1.6 2.1 5.1 7.4 13.8 5.3 3.9 11.8 2.1.4.1.1.4.7 5.4 4.7 5.7.2.2-.1.2v.7l10-1.4 1.3-1.4.3-.2.4.2 2.1 1 .3.2v.3l-.3 4.7 11.8 7.6 11.2-.2h.2l.2.2 4.7 5.6z"/><path class="st0" d="M322.5 405l-7-6.7-.2-.2.1-.3 2.7-9.8-5.2-6.3-4.5.2H308.1l-11.7-7.6-8.9 8.7-.2.2h-.2l-6.8-.5-2.4 13.2 1.2 4.1.1.5-.4.2-8.7 3.9-.8 4.2.4 6.6 4.5 4.8 5.3-4.3.4-.3.3.3 1.3 1.4 10.2-1.2h.2l.1.1 5.1 2.7 9.2-5.6 2.3-3.6.1-.2h.3l7.5-.3 6-4.2zM309.5 610.8l-.3 6.6 3.5 8.3 4-.9 2.9-2.6 6 2.9-.3 4.1-1.7 3.7 2 2.3 5.8 2 2.3 8.1 2.3 10-2.6 6.4 2.6 5.1 6.6-4 2.9.9 2 4.3 1.4 7.5 4.3 3.1 5.2-3.4 4.9.3 9.2 4-.3 4.3 2 3.5 4.6.8 3.8-4 4 4 5.2 3.2-1.2 8 1.2 4.6 5.1 5.8 4.4 1.4 4.3-2.6 3.4 1.2 2.6 5.2 10.7 3.4 4.6-3.4 4.6-6.6-8.2-17.9-.7-.5-.1-.1-.1-.1-1.8-5.4-.1-.3.3-.3 4.4-3.4 1.1-3.2-2.2-4.8-11.4-3.4-5.3 1.4-2.8 6.4-.1.4h-.4l-6.9-.7h-.2l-.1-.2-6.3-6.2-11.6-2.7h-.2l-.1-.3-2.6-4.8-.1-.4.2-.2 4.5-4.9-2.8-3-.2-.1.1-.3.1-3v-.4l.4-.1 4.2-1.2.4-7.1-5.9.3-2.9 1.9-.8.5-.1-.8-1-8.4v-.4l.4-.2 2.7-1 .3-5-2.7-3-.2-.2v-.2l.4-11.7-3.3-4.6-.1-.1V592.7l-3.1-6.9-.1-.2v-.2l1.5-6.2-4.2-4.7-.2.7v.1l-2.1 7v.1l-1.7 3.2-.1.1-.1.1-12.2 6.8-3.1 5.7-.1.2h-.2l-8.4 2.7h-.1l-4.3.6-8.6 7.5-.1.1h-.2l-12.4 1-.4.4zM249.1 605.8l5.5 5.2-.6 5.8-1.4 4.6 3.1 5.7 6.3-2.8 3.2-6.4 3.7-4 9 1.7 4.9-4 3.4-.3 2.6 2 8.9-.5 6.6-1.8 4.5-1 .2-.3.2-3.9-.5-3.3-4.3-6.3-.2-.2.1-.2.6-7.7-5-6.2v-.1l-.1-.1-1.8-7.1v-.1l-.3-4.1-4.1-1.4h-.1l-12.2-6.6-.3-.2v-.3l-.1-6.6-12-2.1h-.1l-12.7-7.5-.3-.1v-4.5L254 538l-6.1-.6h-.3l-.1-.2-9-14.3-12.1 6.2v.1h-.1l-7 1.2-.5 8.7v.2l-.2.2-1.9 1.7.6 6.9 3.6 4.8 5.4 1.1h.1l.1.1 9.7 9.5.2.1v7.5l-.1.1-4.3 4.9-.3 4.6 3.5.2 4-1.7.7-.3v.8l.3 7.8 2.5 3.5 5.6 1.1.5.1v.5l.3 13z"/><path class="st0" d="M298.8 570.3l.3 4.1 1.7 6.9 5.1 6.3.1.2v.2l-.7 7.7 4.4 6.3.1.1v.1l.5 3.5v.1l-.2 3.5 11.9-.9 8.6-7.5.2-.1h.1l4.4-.7 8.2-2.5 3-5.6.1-.2h.1l12.2-6.9 1.6-2.9 2.1-7 .8-3.3-6.1-8.8-2.6-2.3-2.8 1.9-.1.1h-.1l-2.5.5-.3.1-.2-.3-5-7.1-1.5 1.1-6.2 6.5-.1.1-3.6 2.2-.2.1-.2-.1-4.7-1.1-.1-.1h-.1l-7-6.3-4.8-3.5-4.4.5-7.4 1-2.9 4.1-.1 1.8 2.3 1.2.4.1-.1.4-.8 4.8-.1.3-.2.1-3.1 1.3z"/><path class="st0" d="M281.9 555.1l.2 6.5L294 568l4.2 1.4 3-1.3.7-4.1-2.3-1.1-.3-.2v-.3l.2-2.3v-.2l.1-.1 3.1-4.5.1-.1.3-.1 7.6-1 4.6-.5h.2l.2.1 4.9 3.7 7 6.2 4.3 1 3.4-2 6.2-6.5v-.1l1.6-1.1-4.6-5.7-.3-.3.3-.4 2-2.3-.4-4.9-9.3-.6h-.3l-.1-.2-5.3-7.6-6.7-.3h-.3l-.1-.3-2.5-6-7.2-8.7-1 1.2-1.3 6.5v.1l-.1.1-1.7 2.4-.2.4-.4-.2-11.1-3.8V536.1l-.2.1-2.4 2.7 2.2 4.1.1.2-.1.3-1 2.8v.1l-.1.1-9.1 8.6z"/><path class="st0" d="M257.7 492.7l-3.3.1h-.2l-3.5-1.2-6.2 7.3-1.3 7.8-.2 11.9v.1l-.1.2-1.9 2.7-.1.1h-.1l-1.4.7 8.9 14 6.1.6h.3l.1.3 2 3.4.1.1v4.2l12.3 7.2 12 2.1 9-8.5.8-2.5-2.2-4.2-.1-.3.2-.3 2.5-2.8V524l-4.3-.3h-.3l-.1-.3-3-6.5-6.9-1.2-2.3 2-.5.4-.3-.6-4.3-7.1-.1-.1v-.1l-.6-7.9h-7.6l-.2-.4-3.2-9.2z"/><path class="st0" d="M275.3 478.5l-5.8 4.1-10.8 9.7 3.1 8.9h7.9v.5l.7 8.3 3.9 6.4 2-1.7.2-.2.2.1 7.4 1.3.3.1.1.2 3 6.5 3.9.2v-.1l.7.2 11.5 4 1.3-2 1.3-6.5.1-.2.1-.1 1.4-1.8 2.4-3.9.1-2.8-3.1-1.9-.3-.1v-.3l-.5-3.3-1.9-1.1-1.1 1.7-.1.2h-.3l-7.7.4-.9 2.1-.1.4-.5-.1-3.9-.6-.3-.1-.1-.2-4.1-7.7-.1-.1v-.1l-1.1-11.4-8.9-9zM311.4 509.6l-.1 3.1v.1l-.1.1-2.3 3.8 7.5 8.9.1.1v.1l1 2.6 5.6-1.6h.1l7.3-1 .8-5.6v-.3l.3-.1 3.7-2.2h.2l7.5-1.9.8-6.3-2.1-11.2-14.3-4.6-8.3 2.3-.8 8.6v.2l-.2.1-6.7 4.8z"/><path class="st0" d="M272.3 467.8l2.1 5.8 1.4 3.9 9.3 9.4.1.1v.2l1.2 11.4 3.9 7.5 3.3.5.8-2.1.1-.3h.4l7.8-.3 1.1-1.9.3-.5.5.3 2.6 1.5.2.1.1.3.4 3.3 3 1.7 6.4-4.6.8-8.6v-.4l.4-.1 8.3-2.4.4-12.5.1-.5h.4l7.6-.3 4.1-3.3.3-.2.3.2 8.1 5.1 6.4-9 .3-.4.5.3 7.6 5.5 5.3-2.3 2.4-2.8-4.6-5.9-9.3-9.4-5.2-2.3-.2-.1v-.2l-1.7-4.8-5.8-.1-2.3 1.5-.1.1h-.2l-19.6-.1-4.5 2.5-.4.2-.2-.3-2.7-2.4-5.9.4-2.5 3.6-.1.2h-.2l-4.1.8-11.1 6.7-.1.1h-.2l-9.7.3-7.6 4.6z"/><path class="st0" d="M347.8 482.2l-8.1-5.1-3.9 3.1-.1.1-.2.1-7.2.3-.4 11.9 14.5 4.7.3.1v.3l2.2 11.5v.2l-.7 5.9 3.9-1.6h.1l12.1-1.7h.2l8.6 2.7.1.1.2.2 2.6 4.4 4.4-4.1-.3-9.5-2-4.7-5.8-6.5-15.1-2.7h-.1l-.2-.1-3.5-2.8-.1-.2-.1-.1-1.4-6.5z"/><path class="st0" d="M376.4 516.8l-4.1 3.9-.5.4-.3-.6-3-4.8-8.2-2.6-11.9 1.7-4.4 1.7-.4.1-7.8 2-3.5 2-.8 5.8v.4h-.4l-7.7 1-5.4 1.6.8 2.2 6.6.3h.3l.1.2 5.3 7.5 9.5.7h.4l.1.5.5 5.6v.2l-.1.2-1.9 2.1 4.3 5.4.1-.1.3.5 5.1 7.3 2-.4 3-2.1.4-.2.3.2 2.9 2.7h.1v.1l6.3 9 .1.2v.3l-.4 1.4 4.9 5.5.1.2v.2l-1.5 6.4 3 6.6h1.3l1.9-4.2 2.3-5.2.2-.4h.3l4.1.2h.1l.1.1 5.3 3.2 1.3-1.7-1-5.8-3.7-3.8-.2-.2v-.2l.9-5.9v-.5h.6l9.8 1.2 7.9-2.5 1.1-6.6-2.9-.4h-.2l-.1-.2-1.8-2.2-.4-.4.4-.3 4.2-3.1.2-1.4-3.6-.4-.4-.1-.1-.4-.5-2.3v-.2l.1-.2 2.1-3.8-1.3-1-7.1 3.9-.2.1-.2-.1-8.4-1.7h-.2l-.1-.2-3.6-5.7v-.1l-2.2-6.9v-.2l-.2-15.7z"/><path class="st0" d="M378.8 536l1 3.2 3.4 5.4 7.9 1.6 7.2-3.9.3-.2.3.2 2 1.5.4.3-.2.4-2.3 4.1.4 1.7 3.8.5.6.1-.1.5-.3 2.2-.1.2-.2.1-3.9 2.9 1.4 1.6 3.1.4h5l5-4.5.2-11.5v-.6h.5l4.7.3 4.7-5.2 3-7.8.1-.1v-.1l4.7-5 5.3-13.8-2.7-2.1h-.1l-3.1-3.7-4.2.8-.3.1-.2-.2-5.6-5.2-8.6-.4-.2 3v.1l-.5 4.2v.2l-.2.1-6.2 5.2-.2.2-.4-.1-4.9-2.3-3.8-.3-3.9 14.2-.1.3-.4.1-8.4 1.3-3.9 10z"/><path class="st0" d="M414.3 555l-5.3 4.8-.1.1h-5l-1.1 6.9v.4l-.3.1-8.4 2.7H393.8l-9.3-1.1-.8 5.1 3.7 3.6.1.1v.2l1.1 6.2v.3l-.1.1-1.7 2.4-.3.4-.4-.3-5.6-3.4-3.5-.2-2.2 4.9h-.1l-2 4.5-.1.3H370.8v15.1l3.2 4.6.1.1v.2l-.3 11.7 2.7 3 .2.2-.1.2-.3 5.6v.3l-.3.1-2.7 1.1.9 7.1 2.3-1.6h.1l.2-.1 6.7-.3h.6l-.1.6-.5 8v.4l-.4.1-4.1 1.3-.2 2.4 3.1 3.2.3.3-.3.4-4.6 4.9 2.2 4.3L391 669h.2l.1.1 6.2 6.2 6.3.7 2.7-6.4.1-.2.3-.1 5.3-1.4.8-4.9.7-5v-.4l.4-.1 6.8-1.6.8-5.5v-.1l.1-.1 5.7-9.7.1-.1.1-.1 9.6-5.4.2-.1.3.1 4.7 2.5h2.4l1.7-6.2.1-.2.2-.1 4.8-1.5 2.7-2.1-3.7-3.8-2.2 1-3.5 1.8-.2.1-.2-.1-15.3-5h-.1l-.1-.1-3.5-2.8-.1-.1v-.1l-4.1-9.1v-.4l1.9-5.4v-.1l.2-.1 7.2-4.4.2-.1h.1l4.1.4h.2l.1.2 3.2 4.2.1.1v.2l.2 6.9 2.9 2.4 3.7-1.7.2-.1h.1l3.5.3.2.1h.1l2.3 1.7h.1v.1l5.4 5.2 2.6-1.4 1.8-3.6-3.4-4.4-.1-.1v-.1l-.5-3.6v-.1l.1-.2 3.5-6.4.7-5.3-2.8-.4h-.1l-.1-.1-9.9-4.3v-.1h-.1l-4.2-3.4-.1-.1v-.1l-1.6-4.7-4 1-.4.1-.2-.3-1.8-2.5-.1-.1v-.1l-.7-4.4-.6-2.7-4.5-1.1-.4-.1v-.3l-.5-6-10.6-.4-.5-.1v-8.3l-4.6.1zM446.9 464l-7.1 3.3h-.4l-20.1-7.8-6.8 7.6-.4.4-.4-.3-3.2-2.6-.2-.1v-12.4l-1.6-3.9-.2-.3.3-.3 16.1-18-.7-7.8-4.7-5.7-6.3 1-9.2 6-.1.1h-.2l-8.1-.4-1.2 2.9 5.8 5.5.4.3-.4.4-7.1 7.4-3.5 3.8-.3 11.1v.5h-.6l-17.3-.3-6.9 7 4.3 4.4 4.9 6.3.2.4-.2.3-2.7 3.2-.1.1h-.1l-5.7 2.5-.3.2-.3-.2-7.4-5.4-6.3 8.8 1.4 6.3 3.3 2.6 15.2 2.7h.1l.2.1 6 6.7.1.1v.1l2 4.9v.2l.4 9.9v.2l.2 16.6.6 2 3.5-9.1.1-.3.3-.1 8.4-1.2 4-14.3.1-.4h.4l4.4.3h.1l.1.1 4.7 2.2 5.8-4.9.5-3.9.1-3.5v-.6l.6.1 9.4.3h.2l.1.1 5.5 5.2 4.3-.8h.3l.2.2 3.3 3.8 2.6 2 4.4-4.9 3.5-4.7-3.9-3.4-.2-.2v-6.2l.3-.1 14.9-6.3-.5-8-8.9-11.8zM779.5 304l4 .4.7-2.6-2.7-3-3.2 1 1.2 4.2zM792.2 324.6l4.8 1.8 4.9-.9-2.1-7.3-5.9 3.3-1.7 3.1z"/><path class="st0" d="M803.4 328.2l-5.8.4-2.9 10.3-9.4-8.6-2.6 8.9 10 10.9.6 9.5-18.4-16.4-.6-10.3 7.8-9.5 1.1-15.3-3.1 1.5-3.8 10.3-5.7 5.2-6.1 1.7-5.7 8.7.3 22.7-14.1 22.1.8 13.6h14.4L772 408v13.5l-8.3 10 2.3 4.6 6.6 3.8-12.4 2.9-3.4-13 9.2-16.1-4-12.1-14.1-2-7.8 7.5-.9 17-12.9 13.2-11.8 4.3-8.1 8.6-27-16.6v-8.1l18.1 8.3 9.5-3.7 15.3-9.8 10.3-20.7-1.7-11.2 17.5-41.7 2-7.2-2-9.5 11.5-10.9 2.3-15.3-8.9-11.8 9.2-1.2-1.4-11.1-9-.6-.7 8 1.9 4.9-5.7-2.3-8.7 6.7-10.3 13.2-8.1 7.8-12 2.8-6.4 6.1 6.4 8.3-6.9 12.4-9.5 2.9-.3 4.3 8.3 8.6-2.9 8.1 1.5 5.1 3.1 4.6-10.6 9.8-3.5-5.5-2.8-12.3-11.3-18-6.4 5.3 3.8 6.7.1.3-.1.3-7.9 14 3 10 .1.2-.1.2-4.9 7.5-.1.2-.2.1-7.8 2.6-5.3 6.1-.1.2h-.2l-19.8.8-10.1 8.4-.2.1h-.1l-6.5.1-.6 16.8v.2l-.1.1-7.8 10.9 5.1 10.6 19 1.5h.2l.1.1 9.1 7 .2.2v.2l.3 9.2 3.2 2.9 21.9 1.2h.2l.2.2 6.7 8.5.1.2v.1l.6 14 3.7 4.8.2.2-.1.2-.2 9.1h14.6l.2.2 13.1 11.9 18.1 7.9.2.1.1.1 6.7 11.1 11.8 7.2 12 1.2 9.8-7.3.4-.2.3.3 9 8.3 9.1-.2.3-.1.2.3 6.9 10 3.6.3h.2l.1.2 6.6 6.6 13.7-17.4.9-11.2v-.2l.1-.1 9-12.5-1.6-10.1-10.4-7.7-.2-.2v-.4l2.6-14.6-6.9-9.5-.1-.1v-.2l2.2-20.4-8.6-11.2-.2-.2.1-.3 3.4-10.3-3.4-8.2-.2-.5.6-.2 11.1-3 4.7-11.9-2.5-14.1-11.6-2.9-.2-.1-.1-.1-10.7-14.1-.1-.2v-.3l2.2-8.6v-.2l.3-.1 16-7.2 1.6-6.4-6.8-14.3-.1-.2.1-.2 1.7-9.4v-.3l.4-.1 7-1.2-6.5-13.9h-.1v-.1l-.1-1.2zM563.8 670.7l8-.1 6.6 11.2 5.4.8.1-.2 1.8-4.6.1-.2 9.5-8.9 1.5-6.7v-.2l.1-.1 5.7-6.3.2-.2.3.1 7.1 1.4 1.8-2.9 1.2-5.1-2-5.3-6-2.4-.3-.1-.1-.2-.9-3.3v-.3l.1-.2 2.9-3.5.9-8.8v-.2l.2-.1 10.1-9.9.4-.3.4.3 5.7 5.7.3.3-.3.4-3.1 4.4 4 .8h.2l10.3 7.4 7.9-1.2h.2l.1.1 7.4 4.1 7.2.3 9.7-6.6-17.4-13.1h-.1v-.1l-8.4-16.5-6.2-13.8-4.8-1.2h-.1l-10.2-4.2h-.1l-.1-.1-5.1-4.8-1.5 4-.1.4-.4-.1-8.1-.2-1.9 2.2h-.1l-.1.1-5.1 2.7-.1.1-.2-.1-4-.8-2.5 1.9-.1.1H586.3l-6.4-2.8-2.8 5.2-.1.3h-.3l-9.1 1.8-5.8 10.1-.2.3h-.3l-16.2-.6-4.5 9.4.3 9.1v.4l-.4.1-4.3 1.2-1.5 7.3 3.7 8.5v.1l1.5 5.6 6.9 2.1.1.1h.1l6.3 5.8.2.1v.2l.2 5.9 9.3 8.2.1.1.1.2.6 5.4z"/><path class="st0" d="M486.9 660.8l16.2 3.7 9.2 5.8 5.5-4.3 8 4.3 27 5.2 9.9-4.5v-.3l-.6-5-9.3-8.2-.2-.2v-.2l-.2-5.9-6.1-5.5-7-2.1-.2-.1-.1-.3-1.6-5.9-3.7-8.7-.1-.1v-.2l1.5-7.3-7.7-3.6-5.6 2.8-.4.2-.3-.3-4.7-6-9.9-3.5-11.3 3.5.6 3.2v.1l-.2 10.2v.3l-.2.2-15.5 11.5-.3 5.5 11.6 7 .4.3-.3.4-4.4 8z"/><path class="st0" d="M423.3 689l3.3-4.3 10.9-.9.9-7.8 5.1-2.8 5.5.2 6.6 5.2 4-3.7-4.8-8.1-2.3-8 5.4-5.8 4.9-1.4 7.5 8 15.5 1v-.1l.1-.1 4.3-7.7-11.4-6.8-.3-.2v-.3l.4-6.1v-.3l.2-.1 15.4-11.5.2-10-1.3-7.1-4.2-3.9-2.2 1.3-.2.2-.2-.1-3.9-1h-.2l-.1-.1-16.4-14-2.8.7-.8 5.5v.1l-.1.1-3.4 6.4.5 3.2 3.4 4.6.2.2-.1.3-2.1 4.1v.1l-.2.1-3 1.7-.3.2-.3-.3-5.7-5.5-2.2-1.6-3.2-.3-3.9 1.8-.3.1-.3-.2-3.4-2.7-.2-.1v-.3l-.1-7-3-3.9-3.6-.3-6.9 4.2-1.7 5 3.9 8.7 3.3 2.7 15 5 3.3-1.8h.1l2.5-1.2.3-.1.3.2 4.3 4.6.5.4-.5.4-3.2 2.5-.1.1h-.1l-4.6 1.4-1.7 6.3-.1.4h-3.4l-.1-.1-4.7-2.4-9.1 5.2-5.6 9.5-.8 5.8-.1.3-.4.1-6.8 1.6-.6 4.7-.8 4.7 11.3 3.5.3.1.1.2 2.3 5.1.1.2v.2l-1.2 3.6-.1.1-.1.1-4.3 3.4 1.6 4.6z"/><path class="st0" d="M538.1 480.6l-2.8 4.8-2 4.6h-.1v.1l-9.2 12.2-.1.1L510 516l-.1.1-11.7 5.3-.2 5.2 3.7 7.2.2.4-.3.2-5 5.9-.8 7.7v.2l-.1.1-3.3 4.1-.1.1-.3.1-11 .5-1.5 6.9-.1.2-.2.2-4.6 2.9-.4.3-.3-.4-4.4-4.9-6.1 9.8-.2.2h-.2l-10.2 1.1-8.6 10.2 1.5 4.8 4 3.2 9.8 4.3 3.2.5 3.3-.9h.3l.2.2 16.5 14.1 3.6.9 2.4-1.5.4-.2.3.3 4.5 4.4.1.1.1.2.6 3 11.3-3.5h.4l10.3 3.6.1.1.1.1 4.5 5.8 5.5-2.8.2-.1.3.1 8.1 3.9 4-1.2-.2-8.8v-.2l4.6-9.8.2-.3h.3l16.3.5 5.7-9.8-4.2-6.2-.1-.2v-.2l.6-5.9v-.1l1.5-10.8-11.1-7.1-.1-.1-.1-.2-1.9-4.9-.1-.3.2-.2 6.3-7.7-1.3-6.5-2.1-11.7-.1-.3.1-.1 5.4-7.5-.3-8.7-6.1-14.7-10.5-6.2-.2-.1v-.2l-1.6-7.2-2.9-2.9z"/><path class="st0" d="M609.7 417.7l-6.2.1-9 8-.1.1h-.2l-8.1.4h-.4l-.1-.2-2.7-4.2-13.1 11.6-2 7.6-.1.1-.1.1-13.8 12.4-15.2 25.9 3.2 3.3.2.1v.1l1.6 7.1 10.4 6.2.1.1.1.1 6.2 15 .1.1v.1l.3 8.9v.2l-.1.2-5.3 7.4 2.1 11.5 1.3 6.7.1.3-.2.2-6.3 7.6 1.7 4.5 11.3 7.2.3.2-.1.3-1.6 11.2-.5 5.7 4 6.1 8.8-1.7 2.8-5.4.3-.5.4.2 6.8 3h4.8l2.6-2 .2-.2.2.1 4 .8 4.8-2.5 2.1-2.3.1-.2h.3l8 .3 1.6-4.5.3-.7.6.5 5.6 5.4 10 4.1 5.1 1.2h.2l.2.3 6.2 14 8.4 16.4 17.5 13.1 9.7-5.5 1.1-5.9.1-.2.1-.2 5.9-3.8.2-.1h.2l6.9.9 6-19.3.1-.2.1-.1 8.5-6.4.2-.2.3.1 9.1 2.6.1.1 12.2 8.1 18.7.3h.2l.1.1 12.9 9.5 15.6-8.9.3-.2.3.2 8 5.8 9.1-1.2 10-4.3 1.8-4.6-11.3-6.5-.3-.2v-14.5l-6.7-6.7-3.6-.3h-.3l-.1-.2-6.9-10.1-9.1.3h-.3l-.1-.1-8.8-8.2-9.6 7-.2.2-.2-.1-12.3-1.1-.2-.1h-.1l-12-7.4h-.1l-.1-.1-6.6-11.1-18.1-7.8-.1-.1L687 517h-15.3v-.6l.3-9.5-3.7-4.8-.1-.1v-.2l-.6-13.9-6.5-8.2-21.8-1.2h-.2l-.1-.1-3.6-3.3-.1-.1v-.2l-.3-9.2-8.8-6.8-19.2-1.4-.3-.1-.2-.2-5.3-11.2-.1-.3.2-.2 7.8-11.1.6-16.6zM234.7 295.7l-2.6 2.1-1.5 4.1.3 13.5v.4l-.4.1-10 3.2-.6 4.7v.4h-.5l-3.2.3-.9 3.3-.1.2h-.1l-1.4 1.5 3.4 3.4 6.4 4.6 12.4 3.3h.1l.1.1 4.2 3.7 12 1 .8-4.4v-.2l.2-.1 2.3-1.8.4-.3.3.2 5.6 4 .1.2.1.1 1.2 5.1 6.6 5.4 5.7-.4h.3l.1.2 9 8 .4-4.1-1.5-5.1-4.1-4.4-.3-.3.2-.4 3.9-6-.7-6.6-3.5-6.9-.1-.2v-.2l1-4.9-3.4-.4-.4-.1-.1-.3-.8-3.3-6.1-.1h-.3l-.1-.3-1.8-3.3-.2-.2.1-.3 1.6-2.9-.3-3.8-4.7-1.6-1.4 1.8-.2.3h-.3l-3.3-.4h-.1l-.2-.1-3.2-3-5.2.7-.4.1-.1-.3-3-5.3-3.4-1.6-6 2.9-.5.3-.2-.6-1.6-5z"/><path class="st0" d="M296.9 373.3l11.6 7.6 4.6-.3h.3l.2.2 5.5 6.8.1.2v.3l-2.7 9.7 7 6.7 19.1 1h.1l.2.1 12.6 7.6.1.1.1.1 8.2 15.2 13.3 7.7 9.1-2.2.3-.1.2.2 3.9 3.9 6.4-6.5-5.7-5.4-.2-.2.1-.3 1.4-3.6.2-.4.3.1 8.4.3 8.9-5.8v-6.1l-6.1-3.1-.5-.2.2-.4 1.9-5.2-5.6-1.9-3.8 1.7-.5.2-.2-.5-4.5-11.4-11-.4h-.2l-.2-.1-7.1-8.2-6.7-4.2v-.1l-6.4-6h-.1L340.9 349l-.2-.2v-.2l1.5-10.7v-.1l.1-.2 6.9-7.9-4.5-1.5-.4-.1v-7.7l-5.7.1-3.8 3.6-.2.2h-.2l-7.9-.4h-.3l-.1-.2-3.7-3.9-3.6-.1-5.3 1.8-8.5 6.4-5.5 11.6-.2.4-.3-.1-9.3-.7-5.1 2.8-3.7 5.7 3.9 4.2v.1l.1.1 1.6 5.3v.2l-.5 4.6h9.6v.5l1.3 10.7zM233.1 269.3l-5.6.6-8.9 6.9-5.2 7.2-10-.6-6.1 10.1-7.2.8-.3 7.8-10.6 6.9.6 10.1 4.3 5.4-4.9 6.1 1.2 4.9 6.9 1.7 1.4 7.2-2.2 3.9h.5l4.5-1.1.2-.1.2.1 2.4 1.3 8.8-1.7 3.5-5.4 2-8.2v-.2l.1-.1 5.6-5.5.9-3.5.1-.4h.4l3.2-.3.6-4.6.1-.3.3-.1 9.9-3.2-.3-13.2v-.2l1.7-4.3v-.2l.1-.1 3.2-2.5 3.2-9.9-4.1-6.8-.1-.1v-.1l-.4-8.3z"/><path class="st0" d="M287.7 255.2l-9.5.3-11.8 4.3-.6 9.5 1.1 4.3-3.4 2.9-2.6-6.6-4.6-.3-7.2-6.9-8.9 5.8-6 .6.3 8.3 4.3 6.8.1.2-.1.3-3.2 10.1 1.5 5 5.6-2.8.3-.1.2.1 3.8 1.8.1.1.1.1 2.9 5.1 5.1-.7h.2l.2.2 3.3 2.9 2.8.4 1.4-2 .3-.3.3.1 5.5 1.9.3.1v.3l.4 4.4v.1l-.1.2-1.5 2.8 1.6 2.7 6.2.2h.4l.1.4.8 3.3 3.6.5h.6l-.2.6-1 5.3 3.5 6.9h.1v.1l.6 6.1 4.8-2.5.1-.1h.1l9.1.7 5.4-11.4.1-.1.1-.1 8.7-6.5v-.1h.1l5.4-1.8h.2l7.6.1 4-3.1-7.4-9.6-4.7-.9h-.3l-.1-.3-2.2-7.4-2.9.3-.5 4.4-.1.6-.6-.1-2.3-.6h-.2l-.2-.2-1.7-3.1-2.3.7-.4 5.2v.7l-.6-.2-3.3-.7-.2-.1-.2-.2-1.8-3.8-9.1.1h-.2l-.2-.2-3.6-5.4h-8.9l-.1-.2-2.4-2.9-.3-.3.3-.4 14.7-17.7-.8-18.2zM414.4 219.3l2.4-14.7 3.4 4.9-1.4 10.3 4.3 9.2 1.2 15.3 6 9.2 1.4 9.5 22.5 13.5 13.8-2.6 10.3-14.1 2.9-14.9-4.6-17.9.6-25.9-2.9-9.4-7.2-11.5-1.1-9 3.1-2 4.4 6.1 4.3-2.9-4.1-7.8-15.2-10.3-21.9-2-4.3 3.1-10.9 6.3.3 8.7-7.5 12.1-14.7.2-4.9 6.2 10.8 14.3.1.2v.2l-1.7 8.5 8.9 4.5h.1l.1.2 1.5 2.5z"/><path class="st0" d="M387.6 279.2l-.7-4.7.8-4-3.7-5.2 3.5-6.3 10.6-13.3 8.9-2.8 5.2-9 1.9-12.9-2.1-3.6-9.1-4.5-.3-.2v-.4l1.8-8.7-10.4-13.8-12.3 15.4-6.3-.3-8.1 5.5-5.7-.3-2.3 5.7-2.6 4.9-4.6 3.5 2.6 4.8-3.2 3.2-10.6-1.7-2.9 10.1-2 15.2-6.4 2.6-28.1-3.8-12.8.5.4 8.2 6.9-1.3.1-.1.1.1 9 1.2.3.1.1.1 3.6 5.1.1.2v.1l-.2 6.4v.2l-.1.1-3.1 3.7.3 7v.1l-.9 6.2v.2l-.2.1-4.6 3.5-1.3 3.5 1.8 3.7 2.4.5.3-4.9v-.4l.4-.1 3.1-.9.4-.2.2.4 1.9 3.3 1.5.3.5-4.3v-.4l.4-.1 3.8-.3.5-.1.1.5 2.3 7.4 4.5.9h.2l.2.2 7.1 9.4 1.1-3-.7-8.9V302.5l3.3-6.4.1-.1 11.7-12.7.3-.2.3.1 6.8 1.6h.3l.1.3 2.1 3.9.1.2v.2l-1.1 6.9v.1l-.1.2-5.1 4.9-8.6 9.6-2.3 8.3 5.7-.1h.6v8l4.6 1.5 3.3-3.6.2-.2h4.4l1.7-7.8v-.1l.1-.1 7.9-8.3-1.9-3.2-2.5-4.2-.1-.2.1-.3 1.7-6.4.1-.1.1-.1 7.7-7.7.7-4.1.1-.6.5.2 5.3 1.4 3.3.6 4.1-4.4.1-.1.7-.3zM508.7 337.5l-10.6 13.7 3.7 5.7.2.3-.2.2-2.4 4.5 1.8 7.3.1.4-.4.2-6.7 3.9-.3.1-.3-.1-8.8-5.6-8.3.3h-.5l-.1-.4-1.3-6.2-21.1-16.3-2.4 3.5 5.9 9.7.1.2v.2l-1.8 8.2-.1.1-.1.1-5 5.1 2.3 3.9v.2l.4 4.3v.5l-.5.1-8.3.3-6.5 8.6-.3 5.1 7.8 3.3 3.3-4 .1-.1h.1l7.5-2.5.5-.2.2.4 4.6 9.3.2.4-.4.2-17.2 13.8-.3 7.5-.1.3-.2.1-6 4.7-.2.2-.3-.2-7.6-3-5.4 4.4-16 17.9 1.6 3.7v12.1l2.6 2.1 6.7-7.5.3-.3.3.2 20.3 7.8 7.1-3.2 3.9-9.9.2-.4.4.1 13.4 1.3h.2l.2.1 9.9 11.3 11 5.7 15.3 1.6 6-3.3.3-.2.3.3 16.5 13.5 10.2 1.4 18.4-31.5h.1v-.1l13.8-12.3 2.1-7.5v-.1l.1-.1 13.7-12.2.5-.4.3.5 2.8 4.4 7.6-.4 9-7.9.2-.2h.1l13.8-.2 10.1-8.3.1-.1h.2l19.8-.9 5.2-6v-.1l.2-.1 7.8-2.6 4.6-7.2-3-9.9-.1-.3.2-.2 3.6-6.4-3.8-.7-2.5 3.7-.1.2h-5l-6.1 5.7-.2.2-.3-.1-7.2-1.7-5.5 6.4-.2.2h-.2l-16.4 1.3h-.2l-.2-.1-71.2-50.9-6.9 2.2h-.2l-30.8-3.3zM399.9 259.3l2.2 2.4 3-2-.8-3.5-2.3-1.7-1.8 2.4-.3 2.4zM613.8 267.3l3.7-2.7v-6l-4.3-1 .6 9.7z"/><path class="st0" d="M673.1 353.6l-5.5-10.1-14.4-15.5h-10.9l-1.4 6.3-.3 9.5-7.8 4.6-4.3-.8-2.9 4.3-5.4-4.3 6.3-5.8v-6.3l-20.4-.3-10.1-7.5-15.5 1.4-5.5-7.4 9.2-.9 4.9-9.5-12.4-2.9-5.7 6.9-2.9-5.1-31.6-7.8-4.1 4-4.6-4.3-16.7 9.8-8.6-8.4 2.6-7.4-2.6-7.5 10.4-3.5 9.5 6.7 4.6-7.5-.3-13.5L514 257l-3.7 13.5-17.3 11.2-1.4 8.6-8.3 7.5 3.3 17.2 9 13.6 8.3 1 .3.1.1.2 4.5 6.5 30.7 3.3 7-2.2.3-.1.2.2 71.3 50.9 16-1.3 5.6-6.5.2-.2.3.1 7.3 1.7 6-5.6.2-.1h4.8l2.5-3.8.2-.3.3.1 4.5.8 3.7-6.5-3.8-6.9-.3-.3.4-.3 6.9-5.8z"/><path class="st0" d="M647.8 323.8l-6.4.7-5-8.4 1.3-7.8 8.1-2 2.3 8.8-.3 8.7zM549.1 284.2l4.9 6.5 11.7.3 1.3-4.4-.7-6.5-6.2-6.7-8.9 3.1-2.1 7.7zM635.7 292.9l2.7-25.6 2-9.7 8.4-9.1 10.1-3.4 4-5.7-2.3-7.1 7.4 4.7 6.7-.6 1.7-5.1 4.4.4.3-5.1 5.4 2 1-5 4 4.4 3.1-4.1 1-6 5.7 4 3.7-3.4 7.7 1.7 6.4-7.4 49.1-1 11.8-6.4 1.3-8.7-5-6.1-11.8 3.1-2 4.3-20.2-1.7-8.7-7.4-7.8 4.4-7.7-3.3-9.8 6.3h-8l-4.1 3.4-5.3-5.7-2.7 11.8-6.1.3-.7 4.7-15.1 4.7-5.4-2.3-3.3 4 4.3 4.4-6 5.7-9.8-4-1.3 7.3-7.1-.3-.3 5.7-9.8 5.1-6-2-6.7 5-.4 7.4 6.4 6.4.3 9.7-6 6.1 4.7 10.4 5.4.7.3 4.7 6.1 1.3 4 2.1zM482.4 298.6l-8.7 7.8-4-7.5 5.8-1.1-7.2-13.5-10.9 1.7-11-3.7-13.5 2-7.5 18.7-5.4-3.2-7.8-18.1 1.1-14.1-12.6 1.4-3.5 12.1 5.5 6.6-5.2 6.9-8.3-4.6-1.5-9.7-.2.1-4.2 4.6-.2.2-.3-.1-3.6-.7-4.8-1.2-.6 3.6v.2l-.1.1-7.8 7.8-1.6 6 2.3 4.1 2.2 3.5.2.4-.3.3-8.1 8.4-1.7 8-.1.5H354l-3.4 3.7h-.1l-7.3 8.4-1.4 10.3 18.7 21.1 6.4 6 6.7 4.3.1.1 7 8 11.1.3h.4l.1.4 4.4 11.2 3.4-1.6.2-.1.2.1 6.4 2.1.5.2-.2.5-1.9 5.3 5.9 3 .3.1v6.5l6.2-1h.3l.2.2 5 6 .1.2v.1l.6 7.2 4.9-4 .2-.2.3.1 7.6 3.1 5.6-4.3.3-7.5.1-.3.1-.1 17.1-13.6-4.2-8.5-6.9 2.3-3.4 4.2-.3.3-.4-.2-8.5-3.5-.3-.2v-.4l.3-5.7v-.1l.1-.1 6.8-8.9.2-.2.2-.1 8-.3-.3-3.6-2.4-4.1-.3-.4.3-.3 5.3-5.2 1.7-7.8-6-9.8-.1-.3.1-.3 2.9-4.3.3-.4.5.3 21.7 16.7.1.2.1.1 1.3 6 8.1-.3h.1l.2.1 8.6 5.5 6.1-3.6-1.7-7.1v-.2l.1-.1 2.3-4.4-3.7-5.8-.2-.3.2-.3 10.8-13.9-4.3-6.2-8.3-1.1h-.2l-.1-.2-9.3-13.9v-.1l-.1-.1-3.1-16.7zM770.1 102.3l3.5 3.3 5-4.2-2.5-3.6-3.6.9-2.4 3.6zM777.9 105.2l2.7 2.2 4.6-2.4 1.4-5.6-3.6-.9-5.1 6.7zM790.6 104.5l4.7 4.3 9.4-4.7-1.8-5.4-6.5-2.6-5.6 4.6-.2 3.8zM800.6 94.5l4.1 2 2.6-3.1-3.3-3.2-3.4 4.3zM818.3 83.3l1.3 4.3 4-1.6-1.5-5.1-3.8 2.4zM804.9 72.8l2.2 2 2.9-2.2-4.2-4-2.3 1.8 1.4 2.4zM792.8 75.5l.7 3.4 4.5 2.9 2.6-4.1-2.4-4.9-5.4 2.7zM784.1 79.1l8.5 7.6-1.1 6.4-8.5-2.9-5.6-6.4 6.7-4.7zM807.8 103.4l1.1 4.9 9.4-.2 3.8-6.2-3.2-5.2-4 5.8-6-1.5-1.1 2.4zM782.1 114.6l2.5 3.5 2.2-2.9-2.2-3.7-2.5 3.1zM758.9 90l3.8 6.5 4.5-4.2-2.3-5.4-6 3.1zM769.8 88l.9 3.8 2.5-1.8-2-4.2-1.4 2.2zM765.8 66.8l2.9 4 2.7-2.6-4.5-4.1-1.1 2.7zM739.5 58.8l1.3 5.3 4.1 3.2 5.8-.5 3.5 2.9 2.3-2.7-4.5-4-4 1.2-8.5-5.4zM740.6 72.4l-.4 4.7 4.2 4.2 4.2 5.4 1.4-2.5-1.1-5.1 5.8-1.4 7.3 2.5 4.7-4.7-4.2-4.9-3.6-1.3-3.8 2.9-5.1.6-3.1 1.4-6.3-1.8zM749.8 90l-.9 3.1 3.3 2.1.2-4.3-2.6-.9zM87.9 229.6l19.5 42.1 12.1-6.3 1.1-23.2-5.8-8.9-2.7 10.5-5.7-3.7-4.8-13.6-5.8 3.6-7.9-.5zM156.3 538.8l-.1 2.9-8.9-.3-3.5 5.2-4.6.6-5.4 9.8-9.2 3.4-6.7-9.8-15.5-2-7.2 7.5 15.5 9.2-4.6 3.2-8-4.9-4.6 3.6 2.7 5.4h5.9l.2.2 6.8 8.4.2.3-.1.3-5.1 9.7 6.6 8.1.2.3-.1.3-1.6 3.1-.4 6.5 3.9 4.7 3.6-4.1.2-.3.4.1 5.9 2.3 2.2-3.6.3-.4.4.1 4.8 2 .3.2v7.6l5.7 2.6.3.2V628.6l2.9 4.7 7-.7 2.3-4.1.1-.3H160.8l6.9-7.7-.4-3.7-6.3-.7-.5-.1v-.4l-.4-5.5-5.9-8.2-.1-.2v-.3l3.1-11.3-3.8-5.8-.3-.5.5-.3 8.4-4.8.3-.2.3.3 3 3 5.9-.3 3.4-6.8-1.2-11.5-.1-.3.3-.2 8.9-5.8-1.5-14-6.9-.3-5.1 3.5-.3.2-.3-.2-5.6-3.6-6.8-3.7z"/><path class="st0" d="M216.4 624l9.7-3.2 1.4-7.5 8.4-4.6 8.9-2.3 3.2-1-.3-12.2-5.5-1.1h-.2l-.1-.2-2.6-3.8-.1-.2v-.1l-.3-7.2-3.4 1.5H235.2l-4.1-.3h-.5v-.5l.3-5.3v-.2l.2-.2 4.2-4.8v-6.6l-9.4-9.2-5.4-1.1-.2-.1-.2-.1-3.8-5-.1-.2v-.1l-.6-7-7.9-2.9h-.2l-.1-.2-3.3-6.7-4.3 1.4h-.2l-8.3-1.1-.8 5.6v.3l-.3.1-7.8 4.8 1.5 14.4.1.4-.3.2-8.9 5.8 1.1 11.2.1.2-.1.1-3.6 7.2-.1.3h-.4l-6.3.4h-.3l-.2-.2-2.9-2.9-7.5 4.4 3.7 5.5.1.2-.1.2-3.1 11.3 5.7 8 14.2 1.6 1.4-4 .1-.4h.5l4.7.4h.4l.1.4 1.5 7.3 5.5.7 4.8-3.1.2-.1.2.1 17 3.5h.3l.1.3 4.5 7.9z"/><path class="st0" d="M174.5 689.7l9 3.3 24.2-.6-2-9.5 6-1.1 4.6-25.9-4-5.5-6.1-1.4.9-4.9 7.5-6.9-6.7-9.3 3.2-1.6 4.3-1.9-4.3-7.6-16.6-3.4-4.4 2.7 3 8V624.4l-3.1 15 3.9 7 .1.2-.1.3-4 11.4 1.6 7.1.2.7-.8-.1-7-.8-3.7 1.6-.4.2-.3-.3-2.5-3.9-2.3 2.8 3.7 8.8.1.4-.3.2-5 4.1v.1h-.1l-4.4 2.4 5.8 8.1z"/><path class="st0" d="M155.6 693.4l8.9.2 8.6-4-5.7-7.9-.3-.5.5-.3 5-2.6 4.6-3.9-3.6-8.7-.2-.3.3-.3 2.9-3.5.5-.6.4.6 2.6 4.1 3.5-1.5.1-.1h.2l6.4.8-1.4-6.5-.1-.2.1-.1 3.9-11.4-3.9-6.9-.1-.2.1-.2 3.1-15-3-8-5.7-.7-.3-.1-.1-.4-1.5-7.2-4-.3-1.5 4-.1.4h-.4l-14.2-1.6.3 4.6 6.4.7.4.1.1.4.4 4.4v.2l-.2.2-7.2 8-.1.2h-11.5l-2.3 4.1-.1.2h-.3l-7.6.8-.3.1-.2-.3-3.2-5.2-.1-.1v-7l-5.7-2.7-.3-.1V611.5l-4-1.7-2.2 3.6-.2.4-.4-.2-6.1-2.2-3.4 3.9 3.9 4.8 4.1-.7.3-.1.2.3 2.7 3.9 5.4 1.5.3.1.1.2 2.3 6.4 5.6 9.5.1.2v.2l-1.6 9.4 5.9 10.6.1.1v.1l2 8.3v.2l-.4 8.5 9 9.1h.1v.2l2.1 5.3z"/><path class="st0" d="M100 723.3l-3.1 3.1.6 8.6 8.1 11.5-.6 12.1-1.4 5.7 7.1 9 3.5-1.5 2-3.4 4.3 2.3 4.6 1.4 5.5-3.4v-15.3l3.7-21.6 13.8-13.2 1.2-13.8-1.4-6 6.6-5.1-1.9-5.2-8.8-8.7-3.2 2.5-.2.1h-.2l-9.4-.4-5.1 4 1.8 3.6.3.4-.5.3-4.5 2.8 5.8 8.2 6.2 1.2.3.1.1.3 2 7.6.1.4-.4.2-4.8 2-.2.1h-.1l-4.8-.4-6.2 12-.4.6-.5-.4-4.8-4-2.8 3.2-.2.2-.3-.1-11.8-1z"/><path class="st0" d="M97.5 712.5l2 5.5.9 4.3 11.3.9 3-3.3.3-.4.4.3 4.7 4 6.1-11.8.2-.3h.3l5.1.4 4.2-1.8-1.8-6.8-6-1.1-.2-.1-.2-.2-8.2-11.7-6.4-.4-3.1 1.3 3.5 13.2.1.4-.4.2-15.8 7.4z"/><path class="st0" d="M93.6 707l.2 2.4 3 2.3 15.7-7.4-3.4-12.5-2.8 1.2-2.7 8.6v.1l-.2.1-4 3.2v.1h-.1l-5.7 1.9z"/><path class="st0" d="M81.6 688.9l.4 9.9 11.5 5.4.1 1.7 5.2-1.8 3.8-3 2.8-8.6v-.2l.3-.1 6.4-2.9-5.1-4-1.8 3.2-.2.4-.4-.1-13.1-3.2-9.7 3.1-.2.2z"/><path class="st0" d="M73.1 669.1l6 6.6.3 9.2 1.8 2.9h.1l.1-.1 9.9-3.2H91.6l12.8 3.1 4.1-7-1.8-5.8h-6.2l-.2-.1L88.5 664l-8.4-.4-7 5.5z"/><path class="st0" d="M58.2 641.5l7.1 11.8v7.2l7 7.8 7.3-5.6.2-.2h.1l8.3.4-.4-8.6v-.3l.2-.2 4.4-2.9-6.3-11.8-2.1 4.2-.2.4-.3-.1-7.6-.8h-.3l-.1-.2-4.2-5.7-13.1 4.6z"/><path class="st0" d="M44.9 565.9l.6 10.1-3.2 3.7 1.4 4.3 4.6 3.5-.3 7.2 2.6 11.5-.9 10.6-2 17.5 2.3 3.2 4.6-2 3 5.1 13.7-4.7.4-.1.3.2 4.3 5.8 7 .7 5-10.1.1-.2.2-.1 5.4-2.2-2-3-.2-.3.2-.3 3-5.6-3.3-2.9-.4-.4.4-.4 3.9-3.9.4-3.4v-.3l.3-.1 4.4-2 .4-.2.2.4 2.9 5 3.7-3 .4-6.6v-.1l.1-.1 1.4-2.9-6.6-8.1-.2-.3.2-.3 5-9.7-6.4-7.9h-6l-.1-.3-3.5-6.9-10.8-9.3-1.4 13.8-5.8-2.9-10.9.6-4 5.2-8.1-13.5-6.3 5.7zm10.8 63.3l-.4-6.8v-1h1l7-.7v-4.8l.2-.2.2-.2 7.9-5.9-5.1-3.2h-.2l-.1-.1-.1-.1-6.4-7.6-.2-.2-.2-.2v-.4l.8-6 .1-.7.1-.6.6.2.6.2 5.6 2 .2.1.2.1.1.2.1.2 4.5 7.1h7.2v1l.4 6.3 4.4 3.7.2.2.2.2v.6l-.4 8.8v.4l-.1.1-.1.1-6.4 8.4-.8 1-.8 1-.2-1.3-.2-1.3-.9-7.3-10 11.1-.3.3-.3.3-.4-.2-.4-.2-7.6-3.6-.3-.1-.3-.1v-.3l.6-.5z"/><path class="st0" d="M108.2 610.7l-4 3.3-.5.3-.3-.5-2.9-5.2-3.7 1.7-.4 3.3v.2l-.1.1-3.6 3.6 3.2 2.8.3.3-.2.4-3.1 5.7 2.3 3.3.3.6-.6.2-5.8 2.3-2.4 4.8 6.9 12.9.2.5-.4.2-4.5 3.1.3 8.6 11.7 10.5H107.5l.1.4 2 6.4.1.2-.1.2-2 3.4 5.7 4.6 6.6.4h.3l.1.2 1.9 2.7 4.2-2.6-1.8-3.5-.2-.4.3-.3 5.6-4.4.2-.1h.2l9.4.4 3.2-2.5.4-8.5-2-8.2-5.9-10.7-.1-.2v-.2l1.6-9.4-5.5-9.4v-.1l-2.3-6.1-5.4-1.6h-.2l-.1-.2-2.6-3.7-4 .8h-.3l-.2-.2-8.5-10.4zM56.4 622.3l.4 6.8 7.5 3.6 10.8-11.9.8-.9.2 1.2 1 8.4 6.4-8.4.4-8.8-4.6-3.8-.2-.2v-.2l-.4-6.6h-6.8l-.1-.2-4.7-7.3-5.6-2-.8 6 6.4 7.5 5.8 3.6.6.4-.6.5-8.6 6.3v5.2l-.4.1-7.5.7zM954.4 832.7l24.4 9.9 22.5 5.2 4.6 17.8 16.4 8.6 11.5-.3 16.4-9.8 12.6 4.1 13.2-.9 3.5 6 7.6.4 2.5-9.3.1-.2.2-.1 7.3-3.8-7.8-8.6-.4-.4.4-.3 7.6-6.2-2.9-8.7-.2-.7H1109.2l8.9-7.4.1-.2.3.1 8 1 14.9-19.7.1-.2h.2l9.6-.7 2.8-4.7.1-.1.2-.1 8.2-3.4 6.2-7.6.7-8.2-6.5-4.4-.3-.1V771.2l.2-.2 14.3-10.8 4.8-11.2.1-.2.2-.1 12.4-4.4-.7-9.9-7.6-6.9-8.5-1.5-.3-.1-.1-.3-7.2-21.3-4.4-4.1-.3-.3.2-.4 4.5-6.2-.7-6.2-5.2 5.9-.2.2h-.3l-4.4-.7-2.5 9.7-.1.3-.3.1-23.7 6.4-.4.1-.2-.3-4-5.4h-5.5l-.1-.1-5.2-2.7-2.8 6.6v.2l-.3.1-11.3 3.8H1102.8l-5.9-2.1-1.4 6.6v.3l-.4.1-11.5 1.4 1 5.7 7 5.9.4.3-.3.5-6 7-1.1 10.6 3.9 9 .6-1.8 2.3-14.6v-.1l.1-.1 3.8-6.8.2-.3.3.1 5 .6h.4l.1.4.9 5.6v.2l-2.4 13.1.9 12.8 2 7 .1.2-.1.2-2.6 6.7-.1.1-.1.1-4 3.8-1.3 2.3 1.4 4.5v.4l-1.8 4.4-.1.2-.3.1-4.3 1.1-.3 4.9v.2l-5.6 9.1-.1.2-.2.1-8.4 2.6-5.4 7.5-.2.2h-.3l-6.3-.6-1.7 9.5v.2l-.1.1-4.7 5.3-.1.1h-.1l-15 6.7-2 6.8-.1.2-.3.1-9.6 3.3-.6.1-.1-.5-1.4-5.6-10.3-1.9-.3-.1-.1-.4-.9-7.5-7-9.1h-9.7l-.1-.1-19.7-15.6-.1-.1-6.1-8.3-9.9 7-.1.1h-.2l-5.6-.1.3 1.2v.3l-.2.2-3 3 1.1 4.4.1.3-.2.2-4.2 4.7 3.7 7.2z"/><path class="st0" d="M815.3 874.3l37-13.9 13.2-.9 2.3 3.5 19.8 4.3 1.5 8.9 7.5 3.8 21 2.3 8.3 1.1 4.3 4 6.6-2.3 6.1-5.1 4.3-10.7-7.2-8.6.9-13.2 4.6-1.5.3-6 6-.3 1.7-6.5-3.9-7.5-.2-.3.3-.3 4.2-4.8-1.1-4.4-.1-.3.2-.2 3-3.1-.7-3-8.6.5h-.2l-.2-.1-21.6-15.1-1.3 6-.1.4h-.4l-26.3 2.3-1.7 7-.1.3-.3.1-5.1 1.3.5 4.9v.3l-.2.2-7.2 4.5-.2 4.7-.1.4-.3.1-4.9 1.2-8.7 7.2-.2.2h-.2l-20.3-2.7h-.1l-.1-.1-12.5-8.7-5.7-.5-3.7 9.8-.2.3h-.3l-14.4 1 .9 9.9L820 860l.3.5-.4.2-6 4.2 1.4 9.4z"/><path class="st0" d="M735.3 845l1 9.9 9.2 5.2.3 9.8 9.2 2 3.7 4.6 10.4-5.5 2 7.2 6.6 9.8 10.4 1.2 3.2-6.9 13.8-.6 9.2-6.8-1.5-10.2v-.3l.3-.2 5.9-4.1-8.4-15-.1-.1v-.1l-.9-9.6-7.4 5.7-.4.3-.3-.4-6.8-8.7-.2-.2.1-.2 2.4-10.4-4-4.4-11.5-.3v.2l-.4.1-7.2 1.4h-.2l-.2-.2-6-4.7-.4 4.8v.1l-.1.1-5.8 8.7-.2.3h-.3l-10.5-1-8.4 2.8-3.4 4.7 5.2 2.6.2.1.1.2 1.4 6.3.1.6-.6.1-9.5 1.1zm62.3-24.4l6.4-2.3 4.7-2.3 7.9-7.9-1.8-5-.1-.2v-.2l1.4-5.7-1.9-7.6-.1-.3.2-.2 5.3-6.7 2.7-8.1-7.7-2.7-.3-.1-.1-.3-1.4-4.8-.1-.3.2-.2 6.1-8-3.3-7.9-.1-.2v-.2l1.4-6.3.1-.3.2-.1 8.1-3.8 4-4-8.5-16.5-.1-.2v-.2l1.2-5.7-9.2 3.9-.2.1-.2-.1-11.9-5.2-13.6 1.9-5.2 6.1-.2.2h-.2l-14-.1-.3 37.8 5.1-.7.5-.1.1.5.9 7.5 7.1 7.6.1.1v.1l2.4 6.6 6.6 4.7.5.3-.4.4-5 5.9 4 4.5.2.2-.1.3-1.9 7.7-.1.2-.2.1-5.1 3.2-.4 9 11.7.4h.2l.2.2 4.2 5z"/><path class="st0" d="M662.6 759.5l13.9 66.7 7.5-1.2 5.2-7.4 4.9 2 1.4 7.7 15.8 8.7 12.4-4.6 6.6 2.8 4.7 9.8 9.2-1-1.3-5.5-5.6-2.8-.5-.2.4-.6 3.8-5.3.1-.1.2-.1 8.7-2.8.1-.1h.1l10.3 1 5.5-8.3.5-5.7.1-1 .7.6 6.6 5.2 6.6-1.3.4-9.7v-.3l.3-.2 5.1-3.2 1.8-7.3-4.1-4.6-.3-.3.3-.4 4.9-5.8-6.3-4.5-.1-.1-.1-.1-2.4-6.7-7.1-7.6-.1-.1-.1-.2-.9-7.2-4.9.6-6.5 5.9-.2.2-.2-.1-12.4-1.1-3.7 2.8-.3.3-.4-.3-3.8-3-10.7 10.5-.4.3-.3-.3-8.4-8.1-.1-.1-.1-.2-1.5-6.1-6.8-9.2-28.4 9.7-.2.1-.2-.1-6-2.6-2.7 2-.3.2-.3-.2-4.5-2.8-5.9 3.4z"/><path class="st0" d="M640.9 731.2l14.9.3-6 6.4 12.4 20.6 6-3.5.3-.2.3.2 4.5 2.8 2.7-1.9.2-.2.3.1 6.1 2.6 28.5-9.8.4-.1.2.3 7.2 9.6v.1l.1.1 1.4 6.1 7.9 7.6 10.7-10.4.4-.3.3.3 3.9 3 3.5-2.7.2-.1h.2l12.3 1.2 6.3-5.7.3-38.1h-5l-7 5.8-.4.4-.4-.5-3-3.8-.1-.2v-.2l.9-14.4-20.7-.6h-.3l-.2-.3-3.7-6.9-10.7.3h-.5l-.1-.4-2-7.6-6.8-8.8-36.2-17.3v12.1l-.3.1-6.8 4 2 7.7.2.7-.7-.1-8.9-.5-6.9 2.8-4 7.2.9 20.8v.1l-.1.1-4.7 11.2z"/><path class="st0" d="M584.9 682.9l4.2 1.2.3 7.5-2.6 2.8 1.7 5.2-5.7 6.6 1.1 4.9 12.4 2.9.6 6.6 6 .3 4.6 1.2 4.6 5.1-6.6 5.5v4.6l6.6-2 5.7 3.2 5.2-1.2 4.3-3.7 12.4-2.3 4.9-11.6-.9-20.8v-.1l.1-.2 4.2-7.5.1-.1.1-.1 7.2-3H655.7l8.2.5-1.9-7.3-.1-.4.3-.2 6.9-4.1v-29.1l-4.9-5.2-.3-.3.3-.4 5.2-6.4-.4-4-9.8 6.7-.1.1h-.2l-7.5-.3h-.1l-.1-.1-7.4-4.1-7.9 1.2h-.2l-.1-.1-10.4-7.4-4.7-.9-.8-.1.5-.7 3.3-4.7-5-5-9.6 9.3-.9 8.8v.2l-.1.1-2.9 3.4.8 2.7 6 2.3.3.1v.3l2.1 5.6.1.2v.1l-1.2 5.4-.1.1v.1l-2.1 3.3-.2.3-.4-.1-7.1-1.4-5.4 5.9-1.5 6.8v.1l-.2.2-9.4 8.9-1.8 4.6z"/><path class="st0" d="M785.7 607l-7.8-5.6-15.5 8.9-.3.2-.3-.2-13.1-9.6-18.6-.3h-.2l-.1-.1-12.3-8.2-8.8-2.5-8.1 6.2-6.1 19.5-.2.4h-.4l-7.2-.9-5.5 3.6-1.1 5.9-.1.3-.2.1-9.8 5.7.5 4.7v.2l-.1.2-5.1 6.2 4.8 5.1.1.1v16.9l36.8 17.5.1.1.1.1 6.9 9v.1l.1.1 2 7.3 10.6-.2.3-.1.2.3 3.7 6.9 21 .6h.5v.6l-.9 14.8 2.5 3.2 6.8-5.6.1-.1h6.5l13.7.1 5.2-6.1.1-.2h.2l14-1.9H801l11.8 5.2 9.6-4.1.5-9.8v-.2l.2-.2 10-7.6 1.2-4.6-8.6-2.8h-.2v-.1l-6.3-6.3-.1-.1-.1-.2-.9-8.2-.1-.3.3-.1 10.9-9.5.4-5.6-7.2-.9h-.3l-.1-.3-8.1-16.6-27.7-4.3-.4-.1V625.3l.1-.2 3.7-4.6-3.9-13.5zM821.4 742.4l-3.3 1.6-1.3 5.8 3.3 8.1.1.2-.2.3-6.1 8 1.3 4.3 7.9 2.8.5.1-.2.5-2.8 8.7-.1.1v.1l-5.2 6.5 1.9 7.5V797.3l-1.4 5.6 1.9 5.1.1.4-.3.2-8.2 8.2v.1h-.1l-4.8 2.4h-.1l-6.5 2.3-2.2 10.1 6.2 8.1 7.8-6 .8-.6v.5l14.1-.9 3.7-9.8.2-.4h.4l5.9.5 4.2-8.8v-.2l.3-.1 7.5-2.8 2.2-5v-6l.3-.2 6.9-3.7-.4-5.8-2.9-8.6v-.1l-1.4-8.1-6.2-9.6-.2-.2.1-.3 2.7-5.8-4.7-3-8 .9h-9.2l-.1-.4-4.4-12.9zM808.3 315.6l4.9 6.3 3.4-1.4-1.1-8.9-3.4-1.8-3.8 5.8zM821.9 275.1l2.5 3.2 2.7-2.8-1.2-4.5-3.4 1.1-.6 3zM915.7 117.8l10.8 2-2.6-8.1-7.5.2-.7 5.9zM924.7 138.1l5.9-7.9-1.5-7 5.8-3.8 5.7-5.7 6.5 5.7 3.6 10.2 2.1 4.5-5.9 3.3v5.5l-14.7 6.7-7.5-6.9v-4.6zM919.3 146.9l11.3 4.3-1.6 5.4-5.2 2.8-7.6-5.2-1.2-5 4.3-2.3zM929.3 164.8l5-12.4 13.9-6.8 2.5 9.5 3.6-1.1.5-4.1 6.3 6.1-.6 8.1-4.6 7.5 3.9 4.7-1.1 7-5 2.7-10.2-7-9.2-7.9-5.2-2.4.2-3.9zM965.4 171.8l-1.3 16.1-6.1 11.2 2.4 8.4 10-8.1 10.6-.7 5.6-5.6.7-12.9-6-7.5-5 5-2.7-2.9.4-7.7-8.6 4.7zM995 195.1l.9 4.3 7.9 1.8-.4-3-7.9-4.9-.5 1.8zM935.1 227.4l4.1 3.1 3-1.8-2.1-4.5-5 3.2zM898.7 221.5l5.2 2.9.3-4.2-3.4-3.9-2.5 2.1.4 3.1zM930.8 238.7l1.9 2.2 2.5-2.4-2.8-3-1.6 3.2zM843.1 292.9l4 3.7 2.7-2.7-1-4.2-3.5-.8-2.2 4zM852.8 297.6l2.2 1.6 1.5-2.8-2.5-2.8-1.2 4zM858.6 286.8l2.2 1.5 1.3-2.6-3.4-2.2-.1 3.3zM862.6 280.8l2.5 2 2.4-3.4-3.9-2.9-2.1 1.5 1.1 2.8zM844.6 260.4l2.8 1.9 4.2-2.5-2.4-4.2-3.6-1-3.4 2.9 2.4 2.9zM853.5 245.8l-1 2.5 2.2 3.2 2.4-2.6.1-2.8-3.7-.3zM846.8 143.7l-.6 3.4 3.4 3.5 4.9.1-.2-4.4-3.4-4.4-4.1 1.8zM868.5 117.5l4.6 1.4 5-1.3-2.9-6.5-3.7-3-2.6 2.5-.6 4.2.2 2.7zM1054.6 539.5l-3.5 3.9-.1.1h-.2l-8.3 1.7-7.5 3.3.4 8.3 2.2 5.6.1.2-.1.2-4.3 9.4 4.2 6.8.1.1v.1l.9 10.1v.2l-.1.1-6.6 12.7-.1.1-.1.1-10.9 6.7 4.1 7 .2.3-.2.3-4.7 6.4 2.5 8.2 9.4 3 .3.1.1.3 1.3 6.1.1.3-.2.2-6.9 7.3-.4 5.1 4.4 1.2.3.1.1.3 2.2 6.6.1.3-.2.2-5.2 5.2-2.2 7.7-.2.7-.6-.4-9.6-5.7-.1-.1-.1-.2-4.6-10-8.9 4-1.3 8.5v.2l-.1.1-19.5 21.3.9 9.8v.4l-.4.1-5.3 2.2-.5.2-.2-.5-7.5-16.3-5.2 6.7-.2.2h-.3l-20.3.9-8 14.8 9 14.2.1.2v.2l-1.8 7.9-.1.4h-.4l-8.9 1.3-5.1 9.7-1.7 26.2v.6l-.6-.1-8.6-.9-6.1 2.9v5.1l14.7 13.2 22.1 15.4 8.9-.6h.5l.1.4.3 1.5 5.7.1 10.1-7.2.4-.3.3.4 6.4 8.8 19.5 15.4h9.8l.2.2 7.3 9.4.1.1v.2l.8 7.2 10.2 2 .3.1.1.3 1.3 5.3 8.9-3 1.8-6.1H1029.8l-.1-.3-2.1-4.4-.2-.4.4-.2 4.4-2.6.1-.1h.1l6-.9 12.1-8.4 4.3-6.7v-.1h.1l9-8.1 2-6v-.1l5.3-9.1 6.4-9.9 5.6-15.2 4.2-12.2-4.3-10.2v-.2l1.1-10.9v-.2l.1-.1 5.7-6.8-6.8-5.7-.1-.1v-.2l-1.1-6.4-.1-.6.6-.1 11.7-1.5 1.4-6.8.1-.6.6.2 6.2 2.2 10.9-3.6 2.9-6.9.2-.5.5.3 5.5 2.9h5.8l.2.2 3.9 5.4 23.1-6.2 2.6-9.9.1-.5.5.1 4.6.7 5.8-6.6.8-.9.1 1.2.7 7.1 14.1 2.2 8.3-5.8.4-10.8-8.8-6.2-.2-.1v-.3l-.8-13.6v-.3l.2-.2 4.9-3.8.1-.1h.2l12-.4-11.3-25.6-6.1-4.2-10.6 4.8-.5.2-.2-.6-3.9-11.7-17-6.8-8.5 1.4-13.3 28.5v.2l-8.9 10.4-.4.4-.4-.4-6.4-6.4-4.1 7.3-.1.3h-.3l-12.2.5-8.3 6.3-.4.3-.3-.4-7.9-8.4-.2-.2v-.2l1.5-21.8v-.2l7.2-16.8-9.3-2.8-.2-.1-.1-.2-4.5-9.9-.1-.2v-.2l3.4-14-7.6-4.3-.3-.2v-.3l.5-13.7-5.6-10.7-4.5 3.1-.2.1h-.2l-6.4-.5h-.5v-7.7l.3-.2 5-3.2-3.6-5.9zm-52 265l-1-5.3-.1-.5.5-.1 5.1-1.6-2.2-7.7-.1-.5.5-.2 6.1-2.3.5-.2.2.4 4.8 9.6 11.9-7.1.4-.2.3.4 4.1 5.8 3.5 3.2 4.6-1.7h6.9l.2.3 3.2 5 .2.3-.2.3-12.4 15.8-.3.4-.4-.3-7.5-5.3-9.2.9h-.2l-.2-.1-5.4-3.4-6.5-4.7-6.6-.6h-.4l-.3-.6z"/><path class="st1" d="M1002.7 799.4l.8 4.5 6.3.5H1010.1l.1.1.1.1 6.5 4.7 5.2 3.3 9-.9h.4l.2.1.2.1 7.1 5 11.8-15-2.8-4.5h-6l-4.5 1.7-.3.1-.3.2-.3-.3-.2-.2-3.5-3.2-.1-.1h-.1v-.1l-3.8-5.4-11.5 6.9-.5.3-.5.3-.3-.5-.2-.6-4.6-9.1-5.2 2 2.1 7.3.1.5.2.5-.5.1-.5.2-4.7 1.4z"/><path class="st0" d="M1088.2 873.7l4.8.2 4.9 9.2 37.7 3.4 25.3-15.2 8.1-.3 2.6-8.3 12.4-11.5 17.3-.9 5.2 4.9 7.2-6.6 30.5 4.9 4.3-11.8 10.4-7.2-4.3-10.6 4.6-28.8 7.8-7.8-5.2-13.8-10.9-1.2 7.8-14.4 13.7-9.5-12.4-18.6-.2-.3.2-.3 4.2-5.9-7.4-4.2-.2-.1v-.3l-1.1-14.5-7.3 1.7-.4.1-.2-.4-4.6-8.2-9.7 5.4-.4.2-.3-.3-6-6-.3-.3.3-.4 3.5-4.8-12-8-.1-.1-.1-.1-15.3-28.4-12.3.4-4.5 3.5.7 13 8.8 6.3.2.2v.3l-.4 11.3v.3l-.2.2-8.7 6-.2.1h-.2l-14.4-2.2-4.1 5.8 4.2 3.8.1.1v.1l7.1 21.2 8.4 1.5h.1l.1.1 7.9 7.2.2.1v.2l.8 10.6v.4l-.4.1-12.6 4.4-4.8 11.1-.1.1-.1.1-14.1 10.8v7.4l6.5 4.4.3.2v.3l-.8 8.7v.2l-.1.1-6.4 7.9-.1.1h-.1l-8.1 3.3-2.9 4.8-.1.2h-.3l-9.6.7-14.9 19.8-.2.2h-.3l-8.1-1.1-8.9 7.4-.2.1h-14.2l2.8 8.3.1.4-.3.2-7.5 6.1 7.9 8.6.5.5-.6.3-7.7 4-2.6 8.9zm65-33.6l2.6-6.8.1-.3.1-.3h.6l14.9-1.8 4.3-8.9.3-.6.3-.6.5.5.5.5 3.4 3.1 3.6-8.4.1-.3.1-.3.3-.1.3-.1 7.5-1.5h.4l.2.1.2.1 9 5.7.3.2.3.2-.1.4-.1.4-1.1 6-.1.3-.1.3-.3.1-.3.1-4.4 1 7.6 6.9.6.5.6.5-.7.3-.7.3-31.3 15.1-.3.1-.3.1-.2-.2-.2-.2-18.1-11.3-.4-.2-.4-.2.2-.4.2-.3z"/><path class="st1" d="M1156.9 833.7l-2.7 6.8 18.1 11.3 31.3-15.1-8.3-7.6-.7-.7.9-.2 5.5-1.3 1.1-6.1-9-5.6-7.6 1.5-3.8 9.1-.3.7-.6-.5-4-3.6-4.4 9.1-.1.3h-.3l-15.1 1.9zM1044.9 539.1l-.3.2-.4-.2-5.9-4.7h-14.5l.1-.6.9-7.9v-.2l.1-.1 8.3-10 2.4-6.5-5.3-3.7-.3-.2v-7.5l-4.6-5.1-.2-.2v-.3l2.1-10.1-5.4-4.2-.4-.4.4-.4 8.1-9-3-38.2-9.6-14.7 4.8-2.4 11.5-9.4.2-.2.2.1 6.8.8 2.5-12v-.1l3.4-5.1.8-6.7.1-.2.1-.1 14.1-11.2-6-7.3-.2-.2v-11.5l-12.3-17.4v-.2l-1.7-8.9-3.8-5-.1-.2v-.2l.4-5-7.6 3.8-8.6 6.6-11.8 3.5-4.6 8 .3-11.5 23.8-24.7 13.3-23.9 6-21.3-18.4-21-17.3-.6-6 8.7-6.9 1.1 5.2-14.7-14.1-1.7 4.6-6.6-8.6-7.2-7.8 2.9-12.4 18.4 2.9 10.9-13.2.9.3 3.4 4.8 7.2-9.4-2-4.9 4.6-11-2-1.4-4.9-15.5.3.3 8.9-18.7 2.6-12.7 10.1-9.8.3-7.2 6.3-3.1 12.9 6 11-9.2 2.3-24.4-4.1-14.1-.2-4.4 7.7-.5 20.2 8.9 8.6 4.3 10.1h-12.4l-10.6-19.9-7.8.5.1 1 6.8 14.4.3.7-.7.1-7.3 1.2-1.7 8.9 6.8 14.3.1.2-.1.2-1.7 6.8v.3l-.3.1-16 7.2-2 8 10.4 13.8 11.8 2.9.4.1v.3l2.6 14.8-.8 1.9-4.1 10.6-.1.2-.3.1-10.8 2.9 3.3 7.7.1.2-.1.2-3.4 10.3 8.6 11.1.1.2v.2l-2.2 20.4 6.9 9.4.1.2v.2l-2.6 14.6 10.3 7.7.1.1.1.2 1.7 10.5.1.3-.2.1-9.1 12.6-.8 11.2v.2l-.1.1-14.1 17.9v13.9l11.5 6.6.4.2-.2.4-2 5.3-.1.2-.2.1-10.3 4.4-.1.1h-.1l-8.7 1.1 3.8 13.4v.2l-.1.3-3.8 4.6v7.1l27.5 4.3h.3l.1.3 8.1 16.6 7.4.9.6.1-.1.5-.5 6.3v.2l-.2.1-10.8 9.5.9 7.7 6 6.1 9.1 2.8.4.2-.1.5-1.4 5.3-.1.1-.1.2-10 7.5-.4 9.9v.3h-.1l-1.3 6.3 8.6 16.8.1.3-.2.3-4.4 4.3v.1h-.1l-3.7 1.7 4.3 12.7h8.3l8.1-.9h.2l.2.1 5.3 3.3.4.3-.2.4-2.8 6 6.1 9.4.1.1v.1l1.4 8.2 2.9 8.6v.1l.5 6.3.1.3-.3.2-7 3.7V806.5l-2.5 5.3v.2l-.3.1-7.5 2.8-4 8.6 12.1 8.5 19.9 2.6 8.6-7.2.1-.1h.1l4.6-1.1.3-4.6v-.3l.2-.1 7.1-4.5-.5-5-.1-.5.4-.1 5.3-1.4 1.7-7 .1-.4h.4l26.3-2.3 1.3-6.1-14.7-13.2-.1-.1v-6.3l.3-.1 6.5-3.1.2-.1h.1l8.2.9 1.7-25.8v-.1l.1-.1 5.2-10 .2-.3h.2l8.9-1.3 1.6-7.3-9.1-14.2-.2-.3.2-.3 8.3-15.3.2-.3h.3l20.3-.9 5.5-7.2.6-.7.3.8 7.7 16.6 4.4-1.8-.8-9.7v-.2l.1-.2 19.6-21.3 1.3-8.6-.1-.2 10.5-4.9.2.5 4.8 10.4 8.9 5.2 2-7.2v-.1l.1-.1 5-5-1.9-6-4.6-1.2-.4-.2v-.4l.5-5.7v-.2l.1-.1 6.8-7.3-1.2-5.5-9.3-3-.3-.1-.1-.2-2.6-8.8-.1-.2.2-.3 4.6-6.2-4.2-7.2-.3-.4.5-.3 11.2-6.9 6.5-12.5-.9-9.8-4.3-6.9-.2-.2.2-.3 4.3-9.4-2.2-5.5v-.1l-.4-8.8v-.4l.3-.1 7.9-3.5h.1l8.1-1.8 3.5-3.9-2.9-3.6zM1718.9 525.9l-2.3-28.8-3.1-13.2-9.5-9.5.8-14.1 4.9-4-16.4-19 .3-13.2 6.9-7.5-1.7-7.5-13.8-4-14.1-25 3.4-2.3 4.3 6 6.9-4.3-10.6-10.1-5.7 3.2-9.2-6-.2.2-4.7-11.2h-9.5l-1.2 6.6-6-.6-19.6-39.1 1.2-12.3 7.7-1.8-5.7-23 12.4 9.8.2-27.6 9.8-10.1 14.7-.3-8.4-20.4-3.9-44-9.5 2.9-.2.1-.2-.1-7.1-3.8-12.2 35.1-.2.4h-.3l-15.6-.4-14.3 4.4-.5.1-.2-.5-4.7-12.8-19.3 1.1-3.5 6.2-.1.2-.2.1-13.3 3.1-2.4 6.9-.1.4h-.3l-7.3.8-2.3 8v.3l-.3.1-8.4 2.7 1.5 8.2 12 17.5 7.5 1.5.3.1.1.3 5.1 13.3 8.5-.8h.2l.2.2 5.6 5.2.2.2v.1l1.6 8.3 7.8 4.4 5.4-5.1-14.7-17.5 3.5-11.5 14.1-4.9-7.5 11.2 1.7 8.6 11.2 7.8 5.2.3-.3 8 4.9 1.2-4.6 23 5.2 8.6 1.7 26.8 4 17.2 5.5 17.3-6.3 6.9 2 6.6-3.5 4.6 8.9 10.4 1.5 16.4 12.2 13.8 14.5 16.4zM524.1 484.2l-.2-.1-.1-.1-16.4-13.4-5.9 3.3H501.2l-16.1-1.8v-.1l-10.7-5.6-.1-.1h-.1l-9.9-11.2-12.8-1.2-3.8 9.4 9 12 .1.1.1.1.5 8.6v.4l-.3.1-15 6.3v5l4.1 3.6.4.3-4.7 6.3-4.1 4.6-5.5 14.1v.1l-.1.1-4.6 5-3 7.7v.1l-.1.1-5 5.6-.2.1h-.3l-4.3-.3-.1 10.7 4.8-.2h.6v8.4l10.5.5h.5v.5l.5 6 4.5 1.1.3.1.1.3.7 3 .6 4.3 1.6 2.1 4-1.1 8.9-10.5.1-.1.2-.1 10.1-1 6.4-10.1.4-.6.4.5 4.6 5.1 4.1-2.6 1.6-7.2v-.4h.4l11.2-.5 3-3.8.8-7.7.1-.2.1-.1 4.9-5.7-3.6-7-.1-.1v-.2l.3-5.7v-.3l.3-.2 11.9-5.4 13.7-13.5 9.2-12.1 1.7-3.9zM40.4 557.1l6.2-7.2-13.9-18.3 8.3-23.4-6-4.9-5.1 3.6L9.5 493 7 497.1l.7 16.5-7.7 8.2 2.1 11.4 13.4-.8 14.9 18.8z"/></svg>