<svg id="Capa_1" xmlns="http://www.w3.org/2000/svg" viewBox="0 0 36 36"><style>.st0{fill:#333}.st1{fill:#fff}</style><circle id="XMLID_11_" class="st0" cx="18" cy="18" r="18"/><path class="st1" d="M17.3 25.9h1.4s.4 0 .6-.3c.2-.2.2-.6.2-.6s0-1.9.9-2.2c.9-.3 2 1.8 3.2 2.6.9.6 1.6.5 1.6.5h3.2s1.7-.1.9-1.4c-.1-.1-.5-1-2.3-2.7-2-1.8-1.7-1.5.7-4.7 1.5-1.9 2-3.1 1.9-3.6-.2-.5-1.2-.4-1.2-.4h-3.6s-.3 0-.5.1-.3.4-.3.4-.6 1.5-1.3 2.8C20.9 19 20.3 19.2 20 19c-.6-.4-.5-1.6-.5-2.4 0-2.6.4-3.7-.8-4-.4-.1-.7-.2-1.7-.2-1.3 0-2.3 0-2.9.3-.4.2-.7.6-.5.7.2 0 .8.1 1 .5.4.5.4 1.6.4 1.6s.2 3.1-.5 3.4c-.5.3-1.1-.3-2.5-2.7-.7-1.2-1.3-2.6-1.3-2.6s-.1-.3-.3-.4c-.2-.2-.5-.2-.5-.2H6.5s-.5 0-.7.2c-.2.2 0 .6 0 .6s2.6 6.2 5.6 9.3c2.8 3 5.9 2.8 5.9 2.8z"/></svg>